<svg width="159" height="46" viewBox="0 0 159 46" fill="none" xmlns="http://www.w3.org/2000/svg">
<g opacity="0.9">
<path d="M157.828 45.77L159 45.77L159 0.447327L157.828 0.447327L157.828 45.77Z" fill="black"/>
<path d="M155.484 45.77L156.656 45.77L156.656 0.447327L155.484 0.447327L155.484 45.77Z" fill="black"/>
<path d="M153.141 45.77L154.312 45.77L154.313 0.447327L153.141 0.447327L153.141 45.77Z" fill="black"/>
<path d="M150.797 45.77L151.969 45.77L151.969 0.447327L150.797 0.447327L150.797 45.77Z" fill="black"/>
<path d="M146.109 45.77L149.625 45.77L149.625 0.447327L146.109 0.447326L146.109 45.77Z" fill="black"/>
<path d="M139.074 45.77L142.59 45.77L142.59 0.447327L139.074 0.447326L139.074 45.77Z" fill="black"/>
<path d="M134.387 45.77L135.559 45.77L135.559 0.447327L134.387 0.447327L134.387 45.77Z" fill="black"/>
<path d="M132.043 45.77L133.215 45.77L133.215 0.447327L132.043 0.447327L132.043 45.77Z" fill="black"/>
<path d="M129.703 45.77L130.875 45.77L130.875 0.447327L129.703 0.447327L129.703 45.77Z" fill="black"/>
<path d="M125.011 45.77L128.527 45.77L128.527 0.447327L125.011 0.447326L125.011 45.77Z" fill="black"/>
<path d="M117.98 45.77L121.496 45.77L121.496 0.447327L117.98 0.447326L117.98 45.77Z" fill="black"/>
<path d="M113.293 45.77L114.465 45.77L114.465 0.447327L113.293 0.447327L113.293 45.77Z" fill="black"/>
<path d="M110.949 45.77L112.121 45.77L112.121 0.447327L110.949 0.447327L110.949 45.77Z" fill="black"/>
<path d="M108.605 45.77L109.777 45.77L109.777 0.447327L108.605 0.447327L108.605 45.77Z" fill="black"/>
<path d="M103.918 45.77L107.434 45.77L107.434 0.447327L103.918 0.447326L103.918 45.77Z" fill="black"/>
<path d="M96.8864 45.77L100.402 45.77L100.402 0.447327L96.8864 0.447326L96.8864 45.77Z" fill="black"/>
<path d="M92.1952 45.77L93.3672 45.77L93.3672 0.447327L92.1952 0.447327L92.1952 45.77Z" fill="black"/>
<path d="M89.8554 45.77L91.0273 45.77L91.0273 0.447327L89.8554 0.447327L89.8554 45.77Z" fill="black"/>
<path d="M87.5077 45.77L88.6797 45.77L88.6797 0.447327L87.5077 0.447327L87.5077 45.77Z" fill="black"/>
<path d="M82.82 45.77L86.3359 45.77L86.3359 0.447327L82.82 0.447326L82.82 45.77Z" fill="black"/>
<path d="M75.7887 45.77L79.3047 45.77L79.3047 0.447327L75.7887 0.447326L75.7887 45.77Z" fill="black"/>
<path d="M71.1015 45.77L72.2734 45.77L72.2734 0.447327L71.1015 0.447327L71.1015 45.77Z" fill="black"/>
<path d="M68.7577 45.77L69.9297 45.77L69.9297 0.447327L68.7577 0.447327L68.7577 45.77Z" fill="black"/>
<path d="M66.414 45.77L67.5859 45.77L67.5859 0.447327L66.414 0.447327L66.414 45.77Z" fill="black"/>
<path d="M61.7262 45.77L65.2422 45.77L65.2422 0.447327L61.7262 0.447326L61.7262 45.77Z" fill="black"/>
<path d="M54.6911 45.77L58.207 45.77L58.207 0.447327L54.6911 0.447326L54.6911 45.77Z" fill="black"/>
<path d="M50.0077 45.77L51.1797 45.77L51.1797 0.447327L50.0077 0.447327L50.0077 45.77Z" fill="black"/>
<path d="M47.66 45.77L48.832 45.77L48.832 0.447327L47.6601 0.447327L47.66 45.77Z" fill="black"/>
<path d="M45.3163 45.77L46.4883 45.77L46.4883 0.447327L45.3163 0.447327L45.3163 45.77Z" fill="black"/>
<path d="M40.6325 45.77L44.1484 45.77L44.1484 0.447327L40.6325 0.447326L40.6325 45.77Z" fill="black"/>
<path d="M33.5973 45.77L37.1133 45.77L37.1133 0.447327L33.5973 0.447326L33.5973 45.77Z" fill="black"/>
<path d="M28.91 45.77L30.082 45.77L30.082 0.447327L28.9101 0.447327L28.91 45.77Z" fill="black"/>
<path d="M26.5624 45.77L27.7344 45.77L27.7344 0.447327L26.5624 0.447327L26.5624 45.77Z" fill="black"/>
<path d="M24.2225 45.77L25.3945 45.77L25.3945 0.447327L24.2226 0.447327L24.2225 45.77Z" fill="black"/>
<path d="M19.5348 45.77L23.0508 45.77L23.0508 0.447327L19.5348 0.447326L19.5348 45.77Z" fill="black"/>
<path d="M12.5036 45.77L16.0195 45.77L16.0195 0.447327L12.5036 0.447326L12.5036 45.77Z" fill="black"/>
<path d="M7.81239 45.77L8.98438 45.77L8.98438 0.447327L7.8124 0.447327L7.81239 45.77Z" fill="black"/>
<path d="M3.12468 45.77L6.64062 45.77L6.64063 0.447327L3.12468 0.447326L3.12468 45.77Z" fill="black"/>
<path d="M0.781142 45.77L1.95312 45.77L1.95313 0.447327L0.781146 0.447327L0.781142 45.77Z" fill="black"/>
</g>
</svg>
