<svg width="655" height="1236" viewBox="0 0 655 1236" fill="none" xmlns="http://www.w3.org/2000/svg">
<mask id="path-1-inside-1_1201_91343" fill="white">
<path fill-rule="evenodd" clip-rule="evenodd" d="M0 474.529V475V761V761.471C0 770.307 7.16344 777.471 16 777.471H50.8134C59.0833 777.471 65.9905 783.773 66.7464 792.008L106.166 1221.46C106.922 1229.7 113.829 1236 122.099 1236H537.787C546.105 1236 553.035 1229.63 553.731 1221.34L589.769 792.132C590.465 783.843 597.395 777.471 605.713 777.471H639C647.837 777.471 655 770.307 655 761.471V761V475V474.529C655 465.693 647.837 458.529 639 458.529H605.713C597.395 458.529 590.465 452.157 589.769 443.868L553.731 14.6613C553.035 6.37288 546.105 0 537.787 0H122.099C113.829 0 106.922 6.30224 106.166 14.5375L66.7464 443.992C65.9905 452.227 59.0833 458.529 50.8134 458.529H16C7.16344 458.529 0 465.693 0 474.529Z"/>
</mask>
<path fill-rule="evenodd" clip-rule="evenodd" d="M0 474.529V475V761V761.471C0 770.307 7.16344 777.471 16 777.471H50.8134C59.0833 777.471 65.9905 783.773 66.7464 792.008L106.166 1221.46C106.922 1229.7 113.829 1236 122.099 1236H537.787C546.105 1236 553.035 1229.63 553.731 1221.34L589.769 792.132C590.465 783.843 597.395 777.471 605.713 777.471H639C647.837 777.471 655 770.307 655 761.471V761V475V474.529C655 465.693 647.837 458.529 639 458.529H605.713C597.395 458.529 590.465 452.157 589.769 443.868L553.731 14.6613C553.035 6.37288 546.105 0 537.787 0H122.099C113.829 0 106.922 6.30224 106.166 14.5375L66.7464 443.992C65.9905 452.227 59.0833 458.529 50.8134 458.529H16C7.16344 458.529 0 465.693 0 474.529Z" fill="white"/>
<path d="M66.7464 792.008L67.7422 791.917L66.7464 792.008ZM106.166 1221.46L105.17 1221.55L106.166 1221.46ZM553.731 1221.34L554.728 1221.42L553.731 1221.34ZM589.769 792.132L590.766 792.216L589.769 792.132ZM589.769 443.868L590.766 443.784L589.769 443.868ZM553.731 14.6613L552.734 14.745V14.745L553.731 14.6613ZM106.166 14.5375L105.17 14.4461L106.166 14.5375ZM66.7464 443.992L67.7422 444.083L66.7464 443.992ZM1 475V474.529H-1V475H1ZM-1 475V761H1V475H-1ZM-1 761V761.471H1V761H-1ZM-1 761.471C-1 770.859 6.61116 778.471 16 778.471V776.471C7.71573 776.471 1 769.755 1 761.471H-1ZM16 778.471H50.8134V776.471H16V778.471ZM50.8134 778.471C58.5664 778.471 65.0419 784.379 65.7506 792.1L67.7422 791.917C66.939 783.167 59.6001 776.471 50.8134 776.471V778.471ZM65.7506 792.1L105.17 1221.55L107.161 1221.37L67.7422 791.917L65.7506 792.1ZM105.17 1221.55C105.973 1230.3 113.312 1237 122.099 1237V1235C114.346 1235 107.87 1229.09 107.161 1221.37L105.17 1221.55ZM122.099 1237H537.787V1235H122.099V1237ZM537.787 1237C546.625 1237 553.988 1230.23 554.728 1221.42L552.734 1221.26C552.082 1229.03 545.585 1235 537.787 1235V1237ZM554.728 1221.42L590.766 792.216L588.772 792.048L552.734 1221.26L554.728 1221.42ZM590.766 792.216C591.418 784.445 597.915 778.471 605.713 778.471V776.471C596.875 776.471 589.512 783.242 588.772 792.048L590.766 792.216ZM605.713 778.471H639V776.471H605.713V778.471ZM639 778.471C648.389 778.471 656 770.859 656 761.471H654C654 769.755 647.284 776.471 639 776.471V778.471ZM656 761.471V761H654V761.471H656ZM656 761V475H654V761H656ZM654 474.529V475H656V474.529H654ZM639 459.529C647.284 459.529 654 466.245 654 474.529H656C656 465.141 648.389 457.529 639 457.529V459.529ZM605.713 459.529H639V457.529H605.713V459.529ZM588.772 443.952C589.512 452.758 596.875 459.529 605.713 459.529V457.529C597.915 457.529 591.418 451.555 590.766 443.784L588.772 443.952ZM552.734 14.745L588.772 443.952L590.766 443.784L554.728 14.5776L552.734 14.745ZM537.787 1C545.585 1 552.082 6.97458 552.734 14.745L554.728 14.5776C553.988 5.77118 546.625 -1 537.787 -1V1ZM122.099 1H537.787V-1H122.099V1ZM107.161 14.6289C107.87 6.90835 114.346 1 122.099 1V-1C113.312 -1 105.973 5.69613 105.17 14.4461L107.161 14.6289ZM67.7422 444.083L107.161 14.6289L105.17 14.4461L65.7506 443.9L67.7422 444.083ZM50.8134 459.529C59.6001 459.529 66.939 452.833 67.7422 444.083L65.7506 443.9C65.0419 451.621 58.5664 457.529 50.8134 457.529V459.529ZM16 459.529H50.8134V457.529H16V459.529ZM1 474.529C1 466.245 7.71573 459.529 16 459.529V457.529C6.61116 457.529 -1 465.141 -1 474.529H1Z" fill="black" mask="url(#path-1-inside-1_1201_91343)"/>
<path d="M380 628L370 622.226V633.774L380 628ZM276 628L286 633.774V622.226L276 628ZM371 627H285V629H371V627Z" fill="black"/>
<path d="M146.26 124V104.4H150.74V124H146.26ZM153.12 124V110H157.32L156.032 113.276H156.732C157.908 110.728 158.496 109.58 160.512 109.58C162.444 109.58 163.48 110.812 163.48 113.136V124H159.28V114.732C159.28 113.92 158.972 113.5 158.384 113.5C157.684 113.5 157.32 114.004 157.32 114.9V124H153.12ZM170.573 124.42C168.613 124.42 167.269 123.832 166.373 122.516C165.533 121.284 165.169 119.492 165.169 117C165.169 114.508 165.533 112.716 166.373 111.484C167.353 110.028 168.837 109.58 170.629 109.58C174.157 109.58 175.613 111.316 175.613 115.488H171.413C171.413 113.416 171.077 113.08 170.517 113.08C170.293 113.08 170.125 113.164 169.957 113.388C169.593 113.92 169.509 114.872 169.509 116.944C169.509 119.1 169.649 120.192 169.957 120.64C170.097 120.836 170.237 120.92 170.405 120.92C170.937 120.92 171.273 120.556 171.273 118.232H175.473C175.473 122.6 174.045 124.42 170.573 124.42ZM177.292 124V110H181.492L179.98 113.864H180.68C181.94 110.616 182.724 109.58 184.488 109.58C186.196 109.58 187.26 110.532 187.26 113.164V117.896H183.06V114.732C183.06 114.116 182.836 113.836 182.36 113.836C181.828 113.836 181.492 114.312 181.492 115.096V124H177.292ZM193.842 124.42C191.938 124.42 190.566 123.832 189.67 122.516C188.83 121.284 188.466 119.492 188.466 117C188.466 114.508 188.83 112.716 189.67 111.484C190.65 110.028 192.134 109.58 193.786 109.58C197.23 109.58 198.574 111.512 198.574 116.608V118.288H192.638C192.694 119.688 192.834 120.304 193.058 120.64C193.198 120.836 193.338 120.92 193.59 120.92C194.178 120.92 194.318 120.472 194.43 119.436H198.63C198.462 122.544 197.23 124.42 193.842 124.42ZM192.638 115.208H194.598C194.598 113.416 194.402 112.94 193.702 112.94C193.394 112.94 193.226 113.024 193.058 113.248C192.778 113.612 192.666 114.284 192.638 115.208ZM203.336 124.42C202.384 124.42 201.6 124.112 201.04 123.552C200.368 122.88 200.004 121.816 200.004 120.444C200.004 119.184 200.34 118.176 201.124 117.392C201.88 116.636 203.028 116.132 204.68 115.824L205.744 115.628V114.312C205.744 113.556 205.436 113.22 204.848 113.22C203.952 113.22 203.924 114.116 203.924 114.312V115.012H199.724V114.34C199.724 113.696 199.752 109.58 204.96 109.58C208.264 109.58 209.944 111.148 209.944 114.256V124H206.332L207.76 120.724H207.06C206.304 123.02 205.352 124.42 203.336 124.42ZM204.204 119.828C204.204 120.22 204.26 120.528 204.456 120.724C204.596 120.864 204.736 120.92 204.932 120.92C205.716 120.92 205.744 119.94 205.744 119.66V118.204L205.24 118.316C204.932 118.372 204.736 118.484 204.568 118.652C204.288 118.932 204.204 119.296 204.204 119.828ZM216.246 124.42C213.138 124.42 211.486 122.936 211.486 120.136V119.492H215.546V120.136C215.546 120.724 215.77 121.004 216.246 121.004C216.47 121.004 216.638 120.948 216.778 120.808C216.918 120.668 216.974 120.472 216.974 120.192C216.974 119.52 216.582 119.212 215.63 118.764L214.174 118.092C212.354 117.252 211.626 116.104 211.626 114.06C211.626 112.688 212.018 111.596 212.774 110.84C213.614 110 214.874 109.58 216.554 109.58C219.662 109.58 221.314 111.064 221.314 113.864V114.34H217.254V113.948C217.254 113.248 217.058 112.996 216.554 112.996C216.33 112.996 216.162 113.052 216.022 113.192C215.882 113.332 215.826 113.528 215.826 113.808C215.826 114.424 216.162 114.76 217.002 115.152L218.43 115.796C220.278 116.636 221.174 117.924 221.174 119.94C221.174 121.312 220.782 122.404 220.026 123.16C219.186 124 217.926 124.42 216.246 124.42ZM227.803 124.42C225.899 124.42 224.527 123.832 223.631 122.516C222.791 121.284 222.427 119.492 222.427 117C222.427 114.508 222.791 112.716 223.631 111.484C224.611 110.028 226.095 109.58 227.747 109.58C231.191 109.58 232.535 111.512 232.535 116.608V118.288H226.599C226.655 119.688 226.795 120.304 227.019 120.64C227.159 120.836 227.299 120.92 227.551 120.92C228.139 120.92 228.279 120.472 228.391 119.436H232.591C232.423 122.544 231.191 124.42 227.803 124.42ZM226.599 115.208H228.559C228.559 113.416 228.363 112.94 227.663 112.94C227.355 112.94 227.187 113.024 227.019 113.248C226.739 113.612 226.627 114.284 226.599 115.208ZM239.037 124V104.4H243.517V124H239.037ZM245.897 124V110H250.097L248.809 113.276H249.509C250.685 110.728 251.273 109.58 253.289 109.58C255.221 109.58 256.257 110.812 256.257 113.136V124H252.057V114.732C252.057 113.92 251.749 113.5 251.161 113.5C250.461 113.5 250.097 114.004 250.097 114.9V124H245.897ZM145.42 152L147.94 132.4H156.2L158.72 152H153.932L153.428 147.1H150.712L150.208 152H145.42ZM151.16 142.9H152.98L152.42 137.356V135.2H151.72V137.356L151.16 142.9ZM160.257 152V138H164.457L163.281 141.276H163.981C164.961 138.672 165.717 137.58 167.229 137.58C169.133 137.58 169.329 139.092 169.077 141.276H169.777C170.197 138.532 171.513 137.58 173.025 137.58C174.901 137.58 175.993 139.12 175.993 141.78V152H171.793V142.424C171.793 141.808 171.569 141.5 171.121 141.5C170.561 141.5 170.225 141.948 170.225 142.648V152H166.025V142.424C166.025 141.808 165.801 141.5 165.353 141.5C164.793 141.5 164.457 141.948 164.457 142.648V152H160.257ZM183.209 152.42C181.193 152.42 179.821 151.888 178.869 150.516C178.029 149.284 177.665 147.492 177.665 145C177.665 142.508 178.029 140.716 178.869 139.484C179.821 138.112 181.193 137.58 183.209 137.58C185.225 137.58 186.597 138.112 187.549 139.484C188.389 140.716 188.753 142.508 188.753 145C188.753 147.492 188.389 149.284 187.549 150.516C186.597 151.888 185.225 152.42 183.209 152.42ZM182.005 145C182.005 146.904 182.145 147.996 182.509 148.528C182.705 148.808 182.929 148.92 183.209 148.92C183.489 148.92 183.713 148.808 183.909 148.528C184.273 147.996 184.413 146.904 184.413 145C184.413 143.096 184.273 142.004 183.909 141.472C183.713 141.192 183.489 141.08 183.209 141.08C182.929 141.08 182.705 141.192 182.509 141.472C182.145 142.004 182.005 143.096 182.005 145ZM193.269 152.42C191.421 152.42 190.441 151.188 190.441 148.864V138H194.641V147.268C194.641 148.08 194.893 148.5 195.397 148.5C196.013 148.5 196.321 147.996 196.321 147.1V138H200.521V152H196.321L197.609 148.724H196.909C195.789 151.272 195.201 152.42 193.269 152.42ZM202.749 152V138H206.949L205.661 141.276H206.361C207.537 138.728 208.125 137.58 210.141 137.58C212.073 137.58 213.109 138.812 213.109 141.136V152H208.909V142.732C208.909 141.92 208.601 141.5 208.013 141.5C207.313 141.5 206.949 142.004 206.949 142.9V152H202.749ZM220.934 152.42C217.658 152.42 216.118 151.02 216.118 148.052V141.64H214.158V138H216.118V135.872L220.318 133.856V138H225.638V141.64H220.318V148.192C220.318 148.668 220.542 148.92 220.934 148.92C221.298 148.92 221.578 148.668 221.578 148.192V144.412H225.638V148.024C225.638 150.796 223.902 152.42 220.934 152.42ZM237.779 152.504C234.783 152.504 233.103 151.272 232.235 148.864C231.619 147.156 231.395 144.888 231.395 142.2C231.395 139.512 231.619 137.244 232.235 135.536C233.103 133.128 234.783 131.896 237.779 131.896C240.775 131.896 242.455 133.128 243.323 135.536C243.939 137.244 244.163 139.512 244.163 142.2C244.163 144.888 243.939 147.156 243.323 148.864C242.455 151.272 240.775 152.504 237.779 152.504ZM236.015 142.2C236.015 144.132 236.071 146.092 236.463 147.184C236.715 147.884 237.135 148.304 237.779 148.304C238.423 148.304 238.843 147.884 239.095 147.184C239.487 146.092 239.543 144.132 239.543 142.2C239.543 140.268 239.487 138.308 239.095 137.216C238.843 136.516 238.423 136.096 237.779 136.096C237.135 136.096 236.715 136.516 236.463 137.216C236.071 138.308 236.015 140.268 236.015 142.2ZM246.903 136.376C246.903 133.744 248.947 131.98 251.943 131.98C254.827 131.98 256.563 133.632 256.563 136.376V136.628H252.643V136.376C252.643 135.788 252.391 135.48 251.887 135.48C251.355 135.48 251.047 135.816 251.047 136.376V138H255.163V141.64H251.047V152H246.903V141.64H245.083V138H246.903V136.376ZM262.611 152V136.6H259.027V132.4H270.675V136.6H267.091V152H262.611ZM275.166 152.42C273.15 152.42 271.778 151.888 270.826 150.516C269.986 149.284 269.622 147.492 269.622 145C269.622 142.508 269.986 140.716 270.826 139.484C271.778 138.112 273.15 137.58 275.166 137.58C277.182 137.58 278.554 138.112 279.506 139.484C280.346 140.716 280.71 142.508 280.71 145C280.71 147.492 280.346 149.284 279.506 150.516C278.554 151.888 277.182 152.42 275.166 152.42ZM273.962 145C273.962 146.904 274.102 147.996 274.466 148.528C274.662 148.808 274.886 148.92 275.166 148.92C275.446 148.92 275.67 148.808 275.866 148.528C276.23 147.996 276.37 146.904 276.37 145C276.37 143.096 276.23 142.004 275.866 141.472C275.67 141.192 275.446 141.08 275.166 141.08C274.886 141.08 274.662 141.192 274.466 141.472C274.102 142.004 273.962 143.096 273.962 145ZM282.538 152V132.4H286.738V141.388L285.478 143.796H286.178L289.818 138H294.326L290.154 144.496L294.186 152H289.51L287.382 147.66L286.738 148.668V152H282.538ZM299.744 152.42C297.84 152.42 296.468 151.832 295.572 150.516C294.732 149.284 294.368 147.492 294.368 145C294.368 142.508 294.732 140.716 295.572 139.484C296.552 138.028 298.036 137.58 299.688 137.58C303.132 137.58 304.476 139.512 304.476 144.608V146.288H298.54C298.596 147.688 298.736 148.304 298.96 148.64C299.1 148.836 299.24 148.92 299.492 148.92C300.08 148.92 300.22 148.472 300.332 147.436H304.532C304.364 150.544 303.132 152.42 299.744 152.42ZM298.54 143.208H300.5C300.5 141.416 300.304 140.94 299.604 140.94C299.296 140.94 299.128 141.024 298.96 141.248C298.68 141.612 298.568 142.284 298.54 143.208ZM306.354 152V138H310.554L309.266 141.276H309.966C311.142 138.728 311.73 137.58 313.746 137.58C315.678 137.58 316.714 138.812 316.714 141.136V152H312.514V142.732C312.514 141.92 312.206 141.5 311.618 141.5C310.918 141.5 310.554 142.004 310.554 142.9V152H306.354ZM323.023 152.42C319.915 152.42 318.263 150.936 318.263 148.136V147.492H322.323V148.136C322.323 148.724 322.547 149.004 323.023 149.004C323.247 149.004 323.415 148.948 323.555 148.808C323.695 148.668 323.751 148.472 323.751 148.192C323.751 147.52 323.359 147.212 322.407 146.764L320.951 146.092C319.131 145.252 318.403 144.104 318.403 142.06C318.403 140.688 318.795 139.596 319.551 138.84C320.391 138 321.651 137.58 323.331 137.58C326.439 137.58 328.091 139.064 328.091 141.864V142.34H324.031V141.948C324.031 141.248 323.835 140.996 323.331 140.996C323.107 140.996 322.939 141.052 322.799 141.192C322.659 141.332 322.603 141.528 322.603 141.808C322.603 142.424 322.939 142.76 323.779 143.152L325.207 143.796C327.055 144.636 327.951 145.924 327.951 147.94C327.951 149.312 327.559 150.404 326.803 151.16C325.963 152 324.703 152.42 323.023 152.42ZM146.26 180V160.4H155.724V164.6H150.74V168.1H155.444V172.3H150.74V175.8H155.724V180H146.26ZM160.434 180.42C159.482 180.42 158.698 180.112 158.138 179.552C157.466 178.88 157.102 177.816 157.102 176.444C157.102 175.184 157.438 174.176 158.222 173.392C158.978 172.636 160.126 172.132 161.778 171.824L162.842 171.628V170.312C162.842 169.556 162.534 169.22 161.946 169.22C161.05 169.22 161.022 170.116 161.022 170.312V171.012H156.822V170.34C156.822 169.696 156.85 165.58 162.058 165.58C165.362 165.58 167.042 167.148 167.042 170.256V180H163.43L164.858 176.724H164.158C163.402 179.02 162.45 180.42 160.434 180.42ZM161.302 175.828C161.302 176.22 161.358 176.528 161.554 176.724C161.694 176.864 161.834 176.92 162.03 176.92C162.814 176.92 162.842 175.94 162.842 175.66V174.204L162.338 174.316C162.03 174.372 161.834 174.484 161.666 174.652C161.386 174.932 161.302 175.296 161.302 175.828ZM169.143 180V166H173.343L171.831 169.864H172.531C173.791 166.616 174.575 165.58 176.339 165.58C178.047 165.58 179.111 166.532 179.111 169.164V173.896H174.911V170.732C174.911 170.116 174.687 169.836 174.211 169.836C173.679 169.836 173.343 170.312 173.343 171.096V180H169.143ZM180.737 180V166H184.937L183.649 169.276H184.349C185.525 166.728 186.113 165.58 188.129 165.58C190.061 165.58 191.097 166.812 191.097 169.136V180H186.897V170.732C186.897 169.92 186.589 169.5 186.001 169.5C185.301 169.5 184.937 170.004 184.937 170.9V180H180.737ZM198.162 180.42C196.258 180.42 194.886 179.832 193.99 178.516C193.15 177.284 192.786 175.492 192.786 173C192.786 170.508 193.15 168.716 193.99 167.484C194.97 166.028 196.454 165.58 198.106 165.58C201.55 165.58 202.894 167.512 202.894 172.608V174.288H196.958C197.014 175.688 197.154 176.304 197.378 176.64C197.518 176.836 197.658 176.92 197.91 176.92C198.498 176.92 198.638 176.472 198.75 175.436H202.95C202.782 178.544 201.55 180.42 198.162 180.42ZM196.958 171.208H198.918C198.918 169.416 198.722 168.94 198.022 168.94C197.714 168.94 197.546 169.024 197.378 169.248C197.098 169.612 196.986 170.284 196.958 171.208ZM208.272 180.42C207.152 180.42 206.256 179.972 205.612 179.048C204.772 177.844 204.352 175.828 204.352 173C204.352 170.172 204.772 168.156 205.612 166.952C206.256 166.028 207.152 165.58 208.272 165.58C209.924 165.58 210.708 166.644 211.66 169.276H212.36L211.072 166V160.4H215.272V180H211.072L212.36 176.724H211.66C210.708 179.356 209.924 180.42 208.272 180.42ZM208.692 173C208.692 174.596 208.888 175.548 209.224 176.08C209.42 176.388 209.644 176.5 209.924 176.5C210.204 176.5 210.4 176.388 210.624 176.08C210.988 175.576 211.156 174.596 211.156 173C211.156 171.404 210.988 170.424 210.624 169.92C210.4 169.612 210.204 169.5 209.924 169.5C209.644 169.5 209.42 169.612 209.224 169.92C208.888 170.452 208.692 171.404 208.692 173Z" fill="black"/>
<path d="M146.26 1096V1076.4H151.776C154.772 1076.4 156.452 1077.63 157.32 1080.04C157.936 1081.75 158.16 1084.02 158.16 1086.2C158.16 1088.38 157.936 1090.65 157.32 1092.36C156.452 1094.77 154.772 1096 151.776 1096H146.26ZM150.74 1091.8H151.776C152.42 1091.8 152.84 1091.38 153.092 1090.68C153.484 1089.59 153.54 1087.63 153.54 1086.2C153.54 1084.77 153.484 1082.81 153.092 1081.72C152.84 1081.02 152.42 1080.6 151.776 1080.6H150.74V1091.8ZM164.939 1096.42C163.035 1096.42 161.663 1095.83 160.767 1094.52C159.927 1093.28 159.563 1091.49 159.563 1089C159.563 1086.51 159.927 1084.72 160.767 1083.48C161.747 1082.03 163.231 1081.58 164.883 1081.58C168.327 1081.58 169.671 1083.51 169.671 1088.61V1090.29H163.735C163.791 1091.69 163.931 1092.3 164.155 1092.64C164.295 1092.84 164.435 1092.92 164.687 1092.92C165.275 1092.92 165.415 1092.47 165.527 1091.44H169.727C169.559 1094.54 168.327 1096.42 164.939 1096.42ZM163.735 1087.21H165.695C165.695 1085.42 165.499 1084.94 164.799 1084.94C164.491 1084.94 164.323 1085.02 164.155 1085.25C163.875 1085.61 163.763 1086.28 163.735 1087.21ZM176.534 1096.42C174.574 1096.42 173.23 1095.83 172.334 1094.52C171.494 1093.28 171.13 1091.49 171.13 1089C171.13 1086.51 171.494 1084.72 172.334 1083.48C173.314 1082.03 174.798 1081.58 176.59 1081.58C180.118 1081.58 181.574 1083.32 181.574 1087.49H177.374C177.374 1085.42 177.038 1085.08 176.478 1085.08C176.254 1085.08 176.086 1085.16 175.918 1085.39C175.554 1085.92 175.47 1086.87 175.47 1088.94C175.47 1091.1 175.61 1092.19 175.918 1092.64C176.058 1092.84 176.198 1092.92 176.366 1092.92C176.898 1092.92 177.234 1092.56 177.234 1090.23H181.434C181.434 1094.6 180.006 1096.42 176.534 1096.42ZM183.253 1096V1082H187.453L185.941 1085.86H186.641C187.901 1082.62 188.685 1081.58 190.449 1081.58C192.157 1081.58 193.221 1082.53 193.221 1085.16V1089.9H189.021V1086.73C189.021 1086.12 188.797 1085.84 188.321 1085.84C187.789 1085.84 187.453 1086.31 187.453 1087.1V1096H183.253ZM199.803 1096.42C197.899 1096.42 196.527 1095.83 195.631 1094.52C194.791 1093.28 194.427 1091.49 194.427 1089C194.427 1086.51 194.791 1084.72 195.631 1083.48C196.611 1082.03 198.095 1081.58 199.747 1081.58C203.191 1081.58 204.535 1083.51 204.535 1088.61V1090.29H198.599C198.655 1091.69 198.795 1092.3 199.019 1092.64C199.159 1092.84 199.299 1092.92 199.551 1092.92C200.139 1092.92 200.279 1092.47 200.391 1091.44H204.591C204.423 1094.54 203.191 1096.42 199.803 1096.42ZM198.599 1087.21H200.559C200.559 1085.42 200.363 1084.94 199.663 1084.94C199.355 1084.94 199.187 1085.02 199.019 1085.25C198.739 1085.61 198.627 1086.28 198.599 1087.21ZM209.297 1096.42C208.345 1096.42 207.561 1096.11 207.001 1095.55C206.329 1094.88 205.965 1093.82 205.965 1092.44C205.965 1091.18 206.301 1090.18 207.085 1089.39C207.841 1088.64 208.989 1088.13 210.641 1087.82L211.705 1087.63V1086.31C211.705 1085.56 211.397 1085.22 210.809 1085.22C209.913 1085.22 209.885 1086.12 209.885 1086.31V1087.01H205.685V1086.34C205.685 1085.7 205.713 1081.58 210.921 1081.58C214.225 1081.58 215.905 1083.15 215.905 1086.26V1096H212.293L213.721 1092.72H213.021C212.265 1095.02 211.313 1096.42 209.297 1096.42ZM210.165 1091.83C210.165 1092.22 210.221 1092.53 210.417 1092.72C210.557 1092.86 210.697 1092.92 210.893 1092.92C211.677 1092.92 211.705 1091.94 211.705 1091.66V1090.2L211.201 1090.32C210.893 1090.37 210.697 1090.48 210.529 1090.65C210.249 1090.93 210.165 1091.3 210.165 1091.83ZM222.207 1096.42C219.099 1096.42 217.447 1094.94 217.447 1092.14V1091.49H221.507V1092.14C221.507 1092.72 221.731 1093 222.207 1093C222.431 1093 222.599 1092.95 222.739 1092.81C222.879 1092.67 222.935 1092.47 222.935 1092.19C222.935 1091.52 222.543 1091.21 221.591 1090.76L220.135 1090.09C218.315 1089.25 217.587 1088.1 217.587 1086.06C217.587 1084.69 217.979 1083.6 218.735 1082.84C219.575 1082 220.835 1081.58 222.515 1081.58C225.623 1081.58 227.275 1083.06 227.275 1085.86V1086.34H223.215V1085.95C223.215 1085.25 223.019 1085 222.515 1085C222.291 1085 222.123 1085.05 221.983 1085.19C221.843 1085.33 221.787 1085.53 221.787 1085.81C221.787 1086.42 222.123 1086.76 222.963 1087.15L224.391 1087.8C226.239 1088.64 227.135 1089.92 227.135 1091.94C227.135 1093.31 226.743 1094.4 225.987 1095.16C225.147 1096 223.887 1096.42 222.207 1096.42ZM233.764 1096.42C231.86 1096.42 230.488 1095.83 229.592 1094.52C228.752 1093.28 228.388 1091.49 228.388 1089C228.388 1086.51 228.752 1084.72 229.592 1083.48C230.572 1082.03 232.056 1081.58 233.708 1081.58C237.152 1081.58 238.496 1083.51 238.496 1088.61V1090.29H232.56C232.616 1091.69 232.756 1092.3 232.98 1092.64C233.12 1092.84 233.26 1092.92 233.512 1092.92C234.1 1092.92 234.24 1092.47 234.352 1091.44H238.552C238.384 1094.54 237.152 1096.42 233.764 1096.42ZM232.56 1087.21H234.52C234.52 1085.42 234.324 1084.94 233.624 1084.94C233.316 1084.94 233.148 1085.02 232.98 1085.25C232.7 1085.61 232.588 1086.28 232.56 1087.21ZM244.998 1096V1076.4H249.478V1096H244.998ZM251.858 1096V1082H256.058L254.77 1085.28H255.47C256.646 1082.73 257.234 1081.58 259.25 1081.58C261.182 1081.58 262.218 1082.81 262.218 1085.14V1096H258.018V1086.73C258.018 1085.92 257.71 1085.5 257.122 1085.5C256.422 1085.5 256.058 1086 256.058 1086.9V1096H251.858ZM145.42 1124L147.94 1104.4H156.2L158.72 1124H153.932L153.428 1119.1H150.712L150.208 1124H145.42ZM151.16 1114.9H152.98L152.42 1109.36V1107.2H151.72V1109.36L151.16 1114.9ZM160.257 1124V1110H164.457L163.281 1113.28H163.981C164.961 1110.67 165.717 1109.58 167.229 1109.58C169.133 1109.58 169.329 1111.09 169.077 1113.28H169.777C170.197 1110.53 171.513 1109.58 173.025 1109.58C174.901 1109.58 175.993 1111.12 175.993 1113.78V1124H171.793V1114.42C171.793 1113.81 171.569 1113.5 171.121 1113.5C170.561 1113.5 170.225 1113.95 170.225 1114.65V1124H166.025V1114.42C166.025 1113.81 165.801 1113.5 165.353 1113.5C164.793 1113.5 164.457 1113.95 164.457 1114.65V1124H160.257ZM183.209 1124.42C181.193 1124.42 179.821 1123.89 178.869 1122.52C178.029 1121.28 177.665 1119.49 177.665 1117C177.665 1114.51 178.029 1112.72 178.869 1111.48C179.821 1110.11 181.193 1109.58 183.209 1109.58C185.225 1109.58 186.597 1110.11 187.549 1111.48C188.389 1112.72 188.753 1114.51 188.753 1117C188.753 1119.49 188.389 1121.28 187.549 1122.52C186.597 1123.89 185.225 1124.42 183.209 1124.42ZM182.005 1117C182.005 1118.9 182.145 1120 182.509 1120.53C182.705 1120.81 182.929 1120.92 183.209 1120.92C183.489 1120.92 183.713 1120.81 183.909 1120.53C184.273 1120 184.413 1118.9 184.413 1117C184.413 1115.1 184.273 1114 183.909 1113.47C183.713 1113.19 183.489 1113.08 183.209 1113.08C182.929 1113.08 182.705 1113.19 182.509 1113.47C182.145 1114 182.005 1115.1 182.005 1117ZM193.269 1124.42C191.421 1124.42 190.441 1123.19 190.441 1120.86V1110H194.641V1119.27C194.641 1120.08 194.893 1120.5 195.397 1120.5C196.013 1120.5 196.321 1120 196.321 1119.1V1110H200.521V1124H196.321L197.609 1120.72H196.909C195.789 1123.27 195.201 1124.42 193.269 1124.42ZM202.749 1124V1110H206.949L205.661 1113.28H206.361C207.537 1110.73 208.125 1109.58 210.141 1109.58C212.073 1109.58 213.109 1110.81 213.109 1113.14V1124H208.909V1114.73C208.909 1113.92 208.601 1113.5 208.013 1113.5C207.313 1113.5 206.949 1114 206.949 1114.9V1124H202.749ZM220.934 1124.42C217.658 1124.42 216.118 1123.02 216.118 1120.05V1113.64H214.158V1110H216.118V1107.87L220.318 1105.86V1110H225.638V1113.64H220.318V1120.19C220.318 1120.67 220.542 1120.92 220.934 1120.92C221.298 1120.92 221.578 1120.67 221.578 1120.19V1116.41H225.638V1120.02C225.638 1122.8 223.902 1124.42 220.934 1124.42ZM237.779 1124.5C234.783 1124.5 233.103 1123.27 232.235 1120.86C231.619 1119.16 231.395 1116.89 231.395 1114.2C231.395 1111.51 231.619 1109.24 232.235 1107.54C233.103 1105.13 234.783 1103.9 237.779 1103.9C240.775 1103.9 242.455 1105.13 243.323 1107.54C243.939 1109.24 244.163 1111.51 244.163 1114.2C244.163 1116.89 243.939 1119.16 243.323 1120.86C242.455 1123.27 240.775 1124.5 237.779 1124.5ZM236.015 1114.2C236.015 1116.13 236.071 1118.09 236.463 1119.18C236.715 1119.88 237.135 1120.3 237.779 1120.3C238.423 1120.3 238.843 1119.88 239.095 1119.18C239.487 1118.09 239.543 1116.13 239.543 1114.2C239.543 1112.27 239.487 1110.31 239.095 1109.22C238.843 1108.52 238.423 1108.1 237.779 1108.1C237.135 1108.1 236.715 1108.52 236.463 1109.22C236.071 1110.31 236.015 1112.27 236.015 1114.2ZM246.903 1108.38C246.903 1105.74 248.947 1103.98 251.943 1103.98C254.827 1103.98 256.563 1105.63 256.563 1108.38V1108.63H252.643V1108.38C252.643 1107.79 252.391 1107.48 251.887 1107.48C251.355 1107.48 251.047 1107.82 251.047 1108.38V1110H255.163V1113.64H251.047V1124H246.903V1113.64H245.083V1110H246.903V1108.38ZM262.611 1124V1108.6H259.027V1104.4H270.675V1108.6H267.091V1124H262.611ZM275.166 1124.42C273.15 1124.42 271.778 1123.89 270.826 1122.52C269.986 1121.28 269.622 1119.49 269.622 1117C269.622 1114.51 269.986 1112.72 270.826 1111.48C271.778 1110.11 273.15 1109.58 275.166 1109.58C277.182 1109.58 278.554 1110.11 279.506 1111.48C280.346 1112.72 280.71 1114.51 280.71 1117C280.71 1119.49 280.346 1121.28 279.506 1122.52C278.554 1123.89 277.182 1124.42 275.166 1124.42ZM273.962 1117C273.962 1118.9 274.102 1120 274.466 1120.53C274.662 1120.81 274.886 1120.92 275.166 1120.92C275.446 1120.92 275.67 1120.81 275.866 1120.53C276.23 1120 276.37 1118.9 276.37 1117C276.37 1115.1 276.23 1114 275.866 1113.47C275.67 1113.19 275.446 1113.08 275.166 1113.08C274.886 1113.08 274.662 1113.19 274.466 1113.47C274.102 1114 273.962 1115.1 273.962 1117ZM282.538 1124V1104.4H286.738V1113.39L285.478 1115.8H286.178L289.818 1110H294.326L290.154 1116.5L294.186 1124H289.51L287.382 1119.66L286.738 1120.67V1124H282.538ZM299.744 1124.42C297.84 1124.42 296.468 1123.83 295.572 1122.52C294.732 1121.28 294.368 1119.49 294.368 1117C294.368 1114.51 294.732 1112.72 295.572 1111.48C296.552 1110.03 298.036 1109.58 299.688 1109.58C303.132 1109.58 304.476 1111.51 304.476 1116.61V1118.29H298.54C298.596 1119.69 298.736 1120.3 298.96 1120.64C299.1 1120.84 299.24 1120.92 299.492 1120.92C300.08 1120.92 300.22 1120.47 300.332 1119.44H304.532C304.364 1122.54 303.132 1124.42 299.744 1124.42ZM298.54 1115.21H300.5C300.5 1113.42 300.304 1112.94 299.604 1112.94C299.296 1112.94 299.128 1113.02 298.96 1113.25C298.68 1113.61 298.568 1114.28 298.54 1115.21ZM306.354 1124V1110H310.554L309.266 1113.28H309.966C311.142 1110.73 311.73 1109.58 313.746 1109.58C315.678 1109.58 316.714 1110.81 316.714 1113.14V1124H312.514V1114.73C312.514 1113.92 312.206 1113.5 311.618 1113.5C310.918 1113.5 310.554 1114 310.554 1114.9V1124H306.354ZM323.023 1124.42C319.915 1124.42 318.263 1122.94 318.263 1120.14V1119.49H322.323V1120.14C322.323 1120.72 322.547 1121 323.023 1121C323.247 1121 323.415 1120.95 323.555 1120.81C323.695 1120.67 323.751 1120.47 323.751 1120.19C323.751 1119.52 323.359 1119.21 322.407 1118.76L320.951 1118.09C319.131 1117.25 318.403 1116.1 318.403 1114.06C318.403 1112.69 318.795 1111.6 319.551 1110.84C320.391 1110 321.651 1109.58 323.331 1109.58C326.439 1109.58 328.091 1111.06 328.091 1113.86V1114.34H324.031V1113.95C324.031 1113.25 323.835 1113 323.331 1113C323.107 1113 322.939 1113.05 322.799 1113.19C322.659 1113.33 322.603 1113.53 322.603 1113.81C322.603 1114.42 322.939 1114.76 323.779 1115.15L325.207 1115.8C327.055 1116.64 327.951 1117.92 327.951 1119.94C327.951 1121.31 327.559 1122.4 326.803 1123.16C325.963 1124 324.703 1124.42 323.023 1124.42ZM146.26 1152V1132.4H155.724V1136.6H150.74V1140.1H155.444V1144.3H150.74V1147.8H155.724V1152H146.26ZM160.434 1152.42C159.482 1152.42 158.698 1152.11 158.138 1151.55C157.466 1150.88 157.102 1149.82 157.102 1148.44C157.102 1147.18 157.438 1146.18 158.222 1145.39C158.978 1144.64 160.126 1144.13 161.778 1143.82L162.842 1143.63V1142.31C162.842 1141.56 162.534 1141.22 161.946 1141.22C161.05 1141.22 161.022 1142.12 161.022 1142.31V1143.01H156.822V1142.34C156.822 1141.7 156.85 1137.58 162.058 1137.58C165.362 1137.58 167.042 1139.15 167.042 1142.26V1152H163.43L164.858 1148.72H164.158C163.402 1151.02 162.45 1152.42 160.434 1152.42ZM161.302 1147.83C161.302 1148.22 161.358 1148.53 161.554 1148.72C161.694 1148.86 161.834 1148.92 162.03 1148.92C162.814 1148.92 162.842 1147.94 162.842 1147.66V1146.2L162.338 1146.32C162.03 1146.37 161.834 1146.48 161.666 1146.65C161.386 1146.93 161.302 1147.3 161.302 1147.83ZM169.143 1152V1138H173.343L171.831 1141.86H172.531C173.791 1138.62 174.575 1137.58 176.339 1137.58C178.047 1137.58 179.111 1138.53 179.111 1141.16V1145.9H174.911V1142.73C174.911 1142.12 174.687 1141.84 174.211 1141.84C173.679 1141.84 173.343 1142.31 173.343 1143.1V1152H169.143ZM180.737 1152V1138H184.937L183.649 1141.28H184.349C185.525 1138.73 186.113 1137.58 188.129 1137.58C190.061 1137.58 191.097 1138.81 191.097 1141.14V1152H186.897V1142.73C186.897 1141.92 186.589 1141.5 186.001 1141.5C185.301 1141.5 184.937 1142 184.937 1142.9V1152H180.737ZM198.162 1152.42C196.258 1152.42 194.886 1151.83 193.99 1150.52C193.15 1149.28 192.786 1147.49 192.786 1145C192.786 1142.51 193.15 1140.72 193.99 1139.48C194.97 1138.03 196.454 1137.58 198.106 1137.58C201.55 1137.58 202.894 1139.51 202.894 1144.61V1146.29H196.958C197.014 1147.69 197.154 1148.3 197.378 1148.64C197.518 1148.84 197.658 1148.92 197.91 1148.92C198.498 1148.92 198.638 1148.47 198.75 1147.44H202.95C202.782 1150.54 201.55 1152.42 198.162 1152.42ZM196.958 1143.21H198.918C198.918 1141.42 198.722 1140.94 198.022 1140.94C197.714 1140.94 197.546 1141.02 197.378 1141.25C197.098 1141.61 196.986 1142.28 196.958 1143.21ZM208.272 1152.42C207.152 1152.42 206.256 1151.97 205.612 1151.05C204.772 1149.84 204.352 1147.83 204.352 1145C204.352 1142.17 204.772 1140.16 205.612 1138.95C206.256 1138.03 207.152 1137.58 208.272 1137.58C209.924 1137.58 210.708 1138.64 211.66 1141.28H212.36L211.072 1138V1132.4H215.272V1152H211.072L212.36 1148.72H211.66C210.708 1151.36 209.924 1152.42 208.272 1152.42ZM208.692 1145C208.692 1146.6 208.888 1147.55 209.224 1148.08C209.42 1148.39 209.644 1148.5 209.924 1148.5C210.204 1148.5 210.4 1148.39 210.624 1148.08C210.988 1147.58 211.156 1146.6 211.156 1145C211.156 1143.4 210.988 1142.42 210.624 1141.92C210.4 1141.61 210.204 1141.5 209.924 1141.5C209.644 1141.5 209.42 1141.61 209.224 1141.92C208.888 1142.45 208.692 1143.4 208.692 1145Z" fill="black"/>
<path d="M363.362 138V118.4H367.842V138H363.362ZM370.222 138V124H374.422L373.134 127.276H373.834C375.01 124.728 375.598 123.58 377.614 123.58C379.546 123.58 380.582 124.812 380.582 127.136V138H376.382V128.732C376.382 127.92 376.074 127.5 375.486 127.5C374.786 127.5 374.422 128.004 374.422 128.9V138H370.222ZM387.674 138.42C385.714 138.42 384.37 137.832 383.474 136.516C382.634 135.284 382.27 133.492 382.27 131C382.27 128.508 382.634 126.716 383.474 125.484C384.454 124.028 385.938 123.58 387.73 123.58C391.258 123.58 392.714 125.316 392.714 129.488H388.514C388.514 127.416 388.178 127.08 387.618 127.08C387.394 127.08 387.226 127.164 387.058 127.388C386.694 127.92 386.61 128.872 386.61 130.944C386.61 133.1 386.75 134.192 387.058 134.64C387.198 134.836 387.338 134.92 387.506 134.92C388.038 134.92 388.374 134.556 388.374 132.232H392.574C392.574 136.6 391.146 138.42 387.674 138.42ZM394.393 138V124H398.593L397.081 127.864H397.781C399.041 124.616 399.825 123.58 401.589 123.58C403.297 123.58 404.361 124.532 404.361 127.164V131.896H400.161V128.732C400.161 128.116 399.937 127.836 399.461 127.836C398.929 127.836 398.593 128.312 398.593 129.096V138H394.393ZM410.943 138.42C409.039 138.42 407.667 137.832 406.771 136.516C405.931 135.284 405.567 133.492 405.567 131C405.567 128.508 405.931 126.716 406.771 125.484C407.751 124.028 409.235 123.58 410.887 123.58C414.331 123.58 415.675 125.512 415.675 130.608V132.288H409.739C409.795 133.688 409.935 134.304 410.159 134.64C410.299 134.836 410.439 134.92 410.691 134.92C411.279 134.92 411.419 134.472 411.531 133.436H415.731C415.563 136.544 414.331 138.42 410.943 138.42ZM409.739 129.208H411.699C411.699 127.416 411.503 126.94 410.803 126.94C410.495 126.94 410.327 127.024 410.159 127.248C409.879 127.612 409.767 128.284 409.739 129.208ZM420.438 138.42C419.486 138.42 418.702 138.112 418.142 137.552C417.47 136.88 417.106 135.816 417.106 134.444C417.106 133.184 417.442 132.176 418.226 131.392C418.982 130.636 420.13 130.132 421.782 129.824L422.846 129.628V128.312C422.846 127.556 422.538 127.22 421.95 127.22C421.054 127.22 421.026 128.116 421.026 128.312V129.012H416.826V128.34C416.826 127.696 416.854 123.58 422.062 123.58C425.366 123.58 427.046 125.148 427.046 128.256V138H423.434L424.862 134.724H424.162C423.406 137.02 422.454 138.42 420.438 138.42ZM421.306 133.828C421.306 134.22 421.362 134.528 421.558 134.724C421.698 134.864 421.838 134.92 422.034 134.92C422.818 134.92 422.846 133.94 422.846 133.66V132.204L422.342 132.316C422.034 132.372 421.838 132.484 421.67 132.652C421.39 132.932 421.306 133.296 421.306 133.828ZM433.347 138.42C430.239 138.42 428.587 136.936 428.587 134.136V133.492H432.647V134.136C432.647 134.724 432.871 135.004 433.347 135.004C433.571 135.004 433.739 134.948 433.879 134.808C434.019 134.668 434.075 134.472 434.075 134.192C434.075 133.52 433.683 133.212 432.731 132.764L431.275 132.092C429.455 131.252 428.727 130.104 428.727 128.06C428.727 126.688 429.119 125.596 429.875 124.84C430.715 124 431.975 123.58 433.655 123.58C436.763 123.58 438.415 125.064 438.415 127.864V128.34H434.355V127.948C434.355 127.248 434.159 126.996 433.655 126.996C433.431 126.996 433.263 127.052 433.123 127.192C432.983 127.332 432.927 127.528 432.927 127.808C432.927 128.424 433.263 128.76 434.103 129.152L435.531 129.796C437.379 130.636 438.275 131.924 438.275 133.94C438.275 135.312 437.883 136.404 437.127 137.16C436.287 138 435.027 138.42 433.347 138.42ZM444.904 138.42C443 138.42 441.628 137.832 440.732 136.516C439.892 135.284 439.528 133.492 439.528 131C439.528 128.508 439.892 126.716 440.732 125.484C441.712 124.028 443.196 123.58 444.848 123.58C448.292 123.58 449.636 125.512 449.636 130.608V132.288H443.7C443.756 133.688 443.896 134.304 444.12 134.64C444.26 134.836 444.4 134.92 444.652 134.92C445.24 134.92 445.38 134.472 445.492 133.436H449.692C449.524 136.544 448.292 138.42 444.904 138.42ZM443.7 129.208H445.66C445.66 127.416 445.464 126.94 444.764 126.94C444.456 126.94 444.288 127.024 444.12 127.248C443.84 127.612 443.728 128.284 443.7 129.208ZM456.139 138V118.4H460.619V138H456.139ZM462.999 138V124H467.199L465.911 127.276H466.611C467.787 124.728 468.375 123.58 470.391 123.58C472.323 123.58 473.359 124.812 473.359 127.136V138H469.159V128.732C469.159 127.92 468.851 127.5 468.263 127.5C467.563 127.5 467.199 128.004 467.199 128.9V138H462.999ZM480.092 138V118.4H485.468C487.988 118.4 489.976 119.408 491.04 121.228C491.572 122.152 491.88 123.3 491.88 124.616C491.88 125.932 491.572 127.08 491.04 128.004C489.976 129.824 487.988 130.86 485.468 130.86H484.572V138H480.092ZM484.572 126.66H485.384C486.168 126.66 486.784 126.268 487.092 125.736C487.288 125.4 487.372 125.036 487.372 124.616C487.372 124.196 487.288 123.832 487.092 123.496C486.784 122.964 486.168 122.6 485.384 122.6H484.572V126.66ZM492.804 138V124H497.004L495.492 127.864H496.192C497.452 124.616 498.236 123.58 500 123.58C501.708 123.58 502.772 124.532 502.772 127.164V131.896H498.572V128.732C498.572 128.116 498.348 127.836 497.872 127.836C497.34 127.836 497.004 128.312 497.004 129.096V138H492.804ZM504.397 138V124H508.597V138H504.397ZM504.341 122.6V118.4H508.653V122.6H504.341ZM515.834 138.42C513.874 138.42 512.53 137.832 511.634 136.516C510.794 135.284 510.43 133.492 510.43 131C510.43 128.508 510.794 126.716 511.634 125.484C512.614 124.028 514.098 123.58 515.89 123.58C519.418 123.58 520.874 125.316 520.874 129.488H516.674C516.674 127.416 516.338 127.08 515.778 127.08C515.554 127.08 515.386 127.164 515.218 127.388C514.854 127.92 514.77 128.872 514.77 130.944C514.77 133.1 514.91 134.192 515.218 134.64C515.358 134.836 515.498 134.92 515.666 134.92C516.198 134.92 516.534 134.556 516.534 132.232H520.734C520.734 136.6 519.306 138.42 515.834 138.42ZM527.51 138.42C525.606 138.42 524.234 137.832 523.338 136.516C522.498 135.284 522.134 133.492 522.134 131C522.134 128.508 522.498 126.716 523.338 125.484C524.318 124.028 525.802 123.58 527.454 123.58C530.898 123.58 532.242 125.512 532.242 130.608V132.288H526.306C526.362 133.688 526.502 134.304 526.726 134.64C526.866 134.836 527.006 134.92 527.258 134.92C527.846 134.92 527.986 134.472 528.098 133.436H532.298C532.13 136.544 530.898 138.42 527.51 138.42ZM526.306 129.208H528.266C528.266 127.416 528.07 126.94 527.37 126.94C527.062 126.94 526.894 127.024 526.726 127.248C526.446 127.612 526.334 128.284 526.306 129.208ZM379.686 166.504C376.69 166.504 375.01 165.272 374.142 162.864C373.526 161.156 373.302 158.888 373.302 156.2C373.302 153.512 373.526 151.244 374.142 149.536C375.01 147.128 376.69 145.896 379.686 145.896C382.682 145.896 384.362 147.128 385.23 149.536C385.846 151.244 386.07 153.512 386.07 156.2C386.07 158.888 385.846 161.156 385.23 162.864C384.362 165.272 382.682 166.504 379.686 166.504ZM377.922 156.2C377.922 158.132 377.978 160.092 378.37 161.184C378.622 161.884 379.042 162.304 379.686 162.304C380.33 162.304 380.75 161.884 381.002 161.184C381.394 160.092 381.45 158.132 381.45 156.2C381.45 154.268 381.394 152.308 381.002 151.216C380.75 150.516 380.33 150.096 379.686 150.096C379.042 150.096 378.622 150.516 378.37 151.216C377.978 152.308 377.922 154.268 377.922 156.2ZM388.81 150.376C388.81 147.744 390.854 145.98 393.85 145.98C396.734 145.98 398.47 147.632 398.47 150.376V150.628H394.55V150.376C394.55 149.788 394.298 149.48 393.794 149.48C393.262 149.48 392.954 149.816 392.954 150.376V152H397.07V155.64H392.954V166H388.81V155.64H386.99V152H388.81V150.376ZM404.517 166V150.6H400.933V146.4H412.581V150.6H408.997V166H404.517ZM414.75 166.42C413.798 166.42 413.014 166.112 412.454 165.552C411.782 164.88 411.418 163.816 411.418 162.444C411.418 161.184 411.754 160.176 412.538 159.392C413.294 158.636 414.442 158.132 416.094 157.824L417.158 157.628V156.312C417.158 155.556 416.85 155.22 416.262 155.22C415.366 155.22 415.338 156.116 415.338 156.312V157.012H411.138V156.34C411.138 155.696 411.166 151.58 416.374 151.58C419.678 151.58 421.358 153.148 421.358 156.256V166H417.746L419.174 162.724H418.474C417.718 165.02 416.766 166.42 414.75 166.42ZM415.618 161.828C415.618 162.22 415.674 162.528 415.87 162.724C416.01 162.864 416.15 162.92 416.346 162.92C417.13 162.92 417.158 161.94 417.158 161.66V160.204L416.654 160.316C416.346 160.372 416.15 160.484 415.982 160.652C415.702 160.932 415.618 161.296 415.618 161.828ZM423.46 166V152H427.66L426.148 155.864H426.848C428.108 152.616 428.892 151.58 430.656 151.58C432.364 151.58 433.428 152.532 433.428 155.164V159.896H429.228V156.732C429.228 156.116 429.004 155.836 428.528 155.836C427.996 155.836 427.66 156.312 427.66 157.096V166H423.46ZM439.926 171.46C436.594 171.46 434.774 169.892 434.774 167.036V166.56H438.974V167.036C438.974 167.596 439.282 167.82 439.954 167.82C440.682 167.82 441.018 167.204 441.018 165.916V164.6L442.558 161.324H441.858C440.654 164.292 439.982 165.02 438.47 165.02C437.322 165.02 436.454 164.572 435.838 163.676C435.082 162.584 434.718 160.82 434.718 158.3C434.718 155.78 435.082 154.016 435.838 152.924C436.454 152.028 437.322 151.58 438.47 151.58C439.982 151.58 440.654 152.308 441.858 155.276H442.558L441.186 152H445.218V164.74C445.218 169.276 443.51 171.46 439.926 171.46ZM439.058 158.3C439.058 159.644 439.226 160.596 439.562 161.072C439.674 161.24 439.842 161.38 440.038 161.38C440.234 161.38 440.402 161.24 440.514 161.072C440.85 160.596 441.018 159.644 441.018 158.3C441.018 156.956 440.85 156.004 440.514 155.528C440.402 155.36 440.234 155.22 440.038 155.22C439.842 155.22 439.674 155.36 439.562 155.528C439.226 156.004 439.058 156.956 439.058 158.3ZM452.424 166.42C450.52 166.42 449.148 165.832 448.252 164.516C447.412 163.284 447.048 161.492 447.048 159C447.048 156.508 447.412 154.716 448.252 153.484C449.232 152.028 450.716 151.58 452.368 151.58C455.812 151.58 457.156 153.512 457.156 158.608V160.288H451.22C451.276 161.688 451.416 162.304 451.64 162.64C451.78 162.836 451.92 162.92 452.172 162.92C452.76 162.92 452.9 162.472 453.012 161.436H457.212C457.044 164.544 455.812 166.42 452.424 166.42ZM451.22 157.208H453.18C453.18 155.416 452.984 154.94 452.284 154.94C451.976 154.94 451.808 155.024 451.64 155.248C451.36 155.612 451.248 156.284 451.22 157.208ZM464.695 166.42C461.419 166.42 459.879 165.02 459.879 162.052V155.64H457.919V152H459.879V149.872L464.079 147.856V152H469.399V155.64H464.079V162.192C464.079 162.668 464.303 162.92 464.695 162.92C465.059 162.92 465.339 162.668 465.339 162.192V158.412H469.399V162.024C469.399 164.796 467.663 166.42 464.695 166.42ZM474.33 166L476.85 146.4H485.11L487.63 166H482.842L482.338 161.1H479.622L479.118 166H474.33ZM480.07 156.9H481.89L481.33 151.356V149.2H480.63V151.356L480.07 156.9ZM493.093 166.42C489.985 166.42 488.333 164.936 488.333 162.136V161.492H492.393V162.136C492.393 162.724 492.617 163.004 493.093 163.004C493.317 163.004 493.485 162.948 493.625 162.808C493.765 162.668 493.821 162.472 493.821 162.192C493.821 161.52 493.429 161.212 492.477 160.764L491.021 160.092C489.201 159.252 488.473 158.104 488.473 156.06C488.473 154.688 488.865 153.596 489.621 152.84C490.461 152 491.721 151.58 493.401 151.58C496.509 151.58 498.161 153.064 498.161 155.864V156.34H494.101V155.948C494.101 155.248 493.905 154.996 493.401 154.996C493.177 154.996 493.009 155.052 492.869 155.192C492.729 155.332 492.673 155.528 492.673 155.808C492.673 156.424 493.009 156.76 493.849 157.152L495.277 157.796C497.125 158.636 498.021 159.924 498.021 161.94C498.021 163.312 497.629 164.404 496.873 165.16C496.033 166 494.773 166.42 493.093 166.42ZM503.894 166.42C500.786 166.42 499.134 164.936 499.134 162.136V161.492H503.194V162.136C503.194 162.724 503.418 163.004 503.894 163.004C504.118 163.004 504.286 162.948 504.426 162.808C504.566 162.668 504.622 162.472 504.622 162.192C504.622 161.52 504.23 161.212 503.278 160.764L501.822 160.092C500.002 159.252 499.274 158.104 499.274 156.06C499.274 154.688 499.666 153.596 500.422 152.84C501.262 152 502.522 151.58 504.202 151.58C507.31 151.58 508.962 153.064 508.962 155.864V156.34H504.902V155.948C504.902 155.248 504.706 154.996 504.202 154.996C503.978 154.996 503.81 155.052 503.67 155.192C503.53 155.332 503.474 155.528 503.474 155.808C503.474 156.424 503.81 156.76 504.65 157.152L506.078 157.796C507.926 158.636 508.822 159.924 508.822 161.94C508.822 163.312 508.43 164.404 507.674 165.16C506.834 166 505.574 166.42 503.894 166.42ZM515.451 166.42C513.547 166.42 512.175 165.832 511.279 164.516C510.439 163.284 510.075 161.492 510.075 159C510.075 156.508 510.439 154.716 511.279 153.484C512.259 152.028 513.743 151.58 515.395 151.58C518.839 151.58 520.183 153.512 520.183 158.608V160.288H514.247C514.303 161.688 514.443 162.304 514.667 162.64C514.807 162.836 514.947 162.92 515.199 162.92C515.787 162.92 515.927 162.472 516.039 161.436H520.239C520.071 164.544 518.839 166.42 515.451 166.42ZM514.247 157.208H516.207C516.207 155.416 516.011 154.94 515.311 154.94C515.003 154.94 514.835 155.024 514.667 155.248C514.387 155.612 514.275 156.284 514.247 157.208ZM527.723 166.42C524.447 166.42 522.907 165.02 522.907 162.052V155.64H520.947V152H522.907V149.872L527.107 147.856V152H532.427V155.64H527.107V162.192C527.107 162.668 527.331 162.92 527.723 162.92C528.087 162.92 528.367 162.668 528.367 162.192V158.412H532.427V162.024C532.427 164.796 530.691 166.42 527.723 166.42Z" fill="black"/>
<path d="M357.401 1110V1090.4H362.917C365.913 1090.4 367.593 1091.63 368.461 1094.04C369.077 1095.75 369.301 1098.02 369.301 1100.2C369.301 1102.38 369.077 1104.65 368.461 1106.36C367.593 1108.77 365.913 1110 362.917 1110H357.401ZM361.881 1105.8H362.917C363.561 1105.8 363.981 1105.38 364.233 1104.68C364.625 1103.59 364.681 1101.63 364.681 1100.2C364.681 1098.77 364.625 1096.81 364.233 1095.72C363.981 1095.02 363.561 1094.6 362.917 1094.6H361.881V1105.8ZM376.08 1110.42C374.176 1110.42 372.804 1109.83 371.908 1108.52C371.068 1107.28 370.704 1105.49 370.704 1103C370.704 1100.51 371.068 1098.72 371.908 1097.48C372.888 1096.03 374.372 1095.58 376.024 1095.58C379.468 1095.58 380.812 1097.51 380.812 1102.61V1104.29H374.876C374.932 1105.69 375.072 1106.3 375.296 1106.64C375.436 1106.84 375.576 1106.92 375.828 1106.92C376.416 1106.92 376.556 1106.47 376.668 1105.44H380.868C380.7 1108.54 379.468 1110.42 376.08 1110.42ZM374.876 1101.21H376.836C376.836 1099.42 376.64 1098.94 375.94 1098.94C375.632 1098.94 375.464 1099.02 375.296 1099.25C375.016 1099.61 374.904 1100.28 374.876 1101.21ZM387.674 1110.42C385.714 1110.42 384.37 1109.83 383.474 1108.52C382.634 1107.28 382.27 1105.49 382.27 1103C382.27 1100.51 382.634 1098.72 383.474 1097.48C384.454 1096.03 385.938 1095.58 387.73 1095.58C391.258 1095.58 392.714 1097.32 392.714 1101.49H388.514C388.514 1099.42 388.178 1099.08 387.618 1099.08C387.394 1099.08 387.226 1099.16 387.058 1099.39C386.694 1099.92 386.61 1100.87 386.61 1102.94C386.61 1105.1 386.75 1106.19 387.058 1106.64C387.198 1106.84 387.338 1106.92 387.506 1106.92C388.038 1106.92 388.374 1106.56 388.374 1104.23H392.574C392.574 1108.6 391.146 1110.42 387.674 1110.42ZM394.393 1110V1096H398.593L397.081 1099.86H397.781C399.041 1096.62 399.825 1095.58 401.589 1095.58C403.297 1095.58 404.361 1096.53 404.361 1099.16V1103.9H400.161V1100.73C400.161 1100.12 399.937 1099.84 399.461 1099.84C398.929 1099.84 398.593 1100.31 398.593 1101.1V1110H394.393ZM410.943 1110.42C409.039 1110.42 407.667 1109.83 406.771 1108.52C405.931 1107.28 405.567 1105.49 405.567 1103C405.567 1100.51 405.931 1098.72 406.771 1097.48C407.751 1096.03 409.235 1095.58 410.887 1095.58C414.331 1095.58 415.675 1097.51 415.675 1102.61V1104.29H409.739C409.795 1105.69 409.935 1106.3 410.159 1106.64C410.299 1106.84 410.439 1106.92 410.691 1106.92C411.279 1106.92 411.419 1106.47 411.531 1105.44H415.731C415.563 1108.54 414.331 1110.42 410.943 1110.42ZM409.739 1101.21H411.699C411.699 1099.42 411.503 1098.94 410.803 1098.94C410.495 1098.94 410.327 1099.02 410.159 1099.25C409.879 1099.61 409.767 1100.28 409.739 1101.21ZM420.438 1110.42C419.486 1110.42 418.702 1110.11 418.142 1109.55C417.47 1108.88 417.106 1107.82 417.106 1106.44C417.106 1105.18 417.442 1104.18 418.226 1103.39C418.982 1102.64 420.13 1102.13 421.782 1101.82L422.846 1101.63V1100.31C422.846 1099.56 422.538 1099.22 421.95 1099.22C421.054 1099.22 421.026 1100.12 421.026 1100.31V1101.01H416.826V1100.34C416.826 1099.7 416.854 1095.58 422.062 1095.58C425.366 1095.58 427.046 1097.15 427.046 1100.26V1110H423.434L424.862 1106.72H424.162C423.406 1109.02 422.454 1110.42 420.438 1110.42ZM421.306 1105.83C421.306 1106.22 421.362 1106.53 421.558 1106.72C421.698 1106.86 421.838 1106.92 422.034 1106.92C422.818 1106.92 422.846 1105.94 422.846 1105.66V1104.2L422.342 1104.32C422.034 1104.37 421.838 1104.48 421.67 1104.65C421.39 1104.93 421.306 1105.3 421.306 1105.83ZM433.347 1110.42C430.239 1110.42 428.587 1108.94 428.587 1106.14V1105.49H432.647V1106.14C432.647 1106.72 432.871 1107 433.347 1107C433.571 1107 433.739 1106.95 433.879 1106.81C434.019 1106.67 434.075 1106.47 434.075 1106.19C434.075 1105.52 433.683 1105.21 432.731 1104.76L431.275 1104.09C429.455 1103.25 428.727 1102.1 428.727 1100.06C428.727 1098.69 429.119 1097.6 429.875 1096.84C430.715 1096 431.975 1095.58 433.655 1095.58C436.763 1095.58 438.415 1097.06 438.415 1099.86V1100.34H434.355V1099.95C434.355 1099.25 434.159 1099 433.655 1099C433.431 1099 433.263 1099.05 433.123 1099.19C432.983 1099.33 432.927 1099.53 432.927 1099.81C432.927 1100.42 433.263 1100.76 434.103 1101.15L435.531 1101.8C437.379 1102.64 438.275 1103.92 438.275 1105.94C438.275 1107.31 437.883 1108.4 437.127 1109.16C436.287 1110 435.027 1110.42 433.347 1110.42ZM444.904 1110.42C443 1110.42 441.628 1109.83 440.732 1108.52C439.892 1107.28 439.528 1105.49 439.528 1103C439.528 1100.51 439.892 1098.72 440.732 1097.48C441.712 1096.03 443.196 1095.58 444.848 1095.58C448.292 1095.58 449.636 1097.51 449.636 1102.61V1104.29H443.7C443.756 1105.69 443.896 1106.3 444.12 1106.64C444.26 1106.84 444.4 1106.92 444.652 1106.92C445.24 1106.92 445.38 1106.47 445.492 1105.44H449.692C449.524 1108.54 448.292 1110.42 444.904 1110.42ZM443.7 1101.21H445.66C445.66 1099.42 445.464 1098.94 444.764 1098.94C444.456 1098.94 444.288 1099.02 444.12 1099.25C443.84 1099.61 443.728 1100.28 443.7 1101.21ZM456.139 1110V1090.4H460.619V1110H456.139ZM462.999 1110V1096H467.199L465.911 1099.28H466.611C467.787 1096.73 468.375 1095.58 470.391 1095.58C472.323 1095.58 473.359 1096.81 473.359 1099.14V1110H469.159V1100.73C469.159 1099.92 468.851 1099.5 468.263 1099.5C467.563 1099.5 467.199 1100 467.199 1100.9V1110H462.999ZM480.092 1110V1090.4H485.468C487.988 1090.4 489.976 1091.41 491.04 1093.23C491.572 1094.15 491.88 1095.3 491.88 1096.62C491.88 1097.93 491.572 1099.08 491.04 1100C489.976 1101.82 487.988 1102.86 485.468 1102.86H484.572V1110H480.092ZM484.572 1098.66H485.384C486.168 1098.66 486.784 1098.27 487.092 1097.74C487.288 1097.4 487.372 1097.04 487.372 1096.62C487.372 1096.2 487.288 1095.83 487.092 1095.5C486.784 1094.96 486.168 1094.6 485.384 1094.6H484.572V1098.66ZM492.804 1110V1096H497.004L495.492 1099.86H496.192C497.452 1096.62 498.236 1095.58 500 1095.58C501.708 1095.58 502.772 1096.53 502.772 1099.16V1103.9H498.572V1100.73C498.572 1100.12 498.348 1099.84 497.872 1099.84C497.34 1099.84 497.004 1100.31 497.004 1101.1V1110H492.804ZM504.397 1110V1096H508.597V1110H504.397ZM504.341 1094.6V1090.4H508.653V1094.6H504.341ZM515.834 1110.42C513.874 1110.42 512.53 1109.83 511.634 1108.52C510.794 1107.28 510.43 1105.49 510.43 1103C510.43 1100.51 510.794 1098.72 511.634 1097.48C512.614 1096.03 514.098 1095.58 515.89 1095.58C519.418 1095.58 520.874 1097.32 520.874 1101.49H516.674C516.674 1099.42 516.338 1099.08 515.778 1099.08C515.554 1099.08 515.386 1099.16 515.218 1099.39C514.854 1099.92 514.77 1100.87 514.77 1102.94C514.77 1105.1 514.91 1106.19 515.218 1106.64C515.358 1106.84 515.498 1106.92 515.666 1106.92C516.198 1106.92 516.534 1106.56 516.534 1104.23H520.734C520.734 1108.6 519.306 1110.42 515.834 1110.42ZM527.51 1110.42C525.606 1110.42 524.234 1109.83 523.338 1108.52C522.498 1107.28 522.134 1105.49 522.134 1103C522.134 1100.51 522.498 1098.72 523.338 1097.48C524.318 1096.03 525.802 1095.58 527.454 1095.58C530.898 1095.58 532.242 1097.51 532.242 1102.61V1104.29H526.306C526.362 1105.69 526.502 1106.3 526.726 1106.64C526.866 1106.84 527.006 1106.92 527.258 1106.92C527.846 1106.92 527.986 1106.47 528.098 1105.44H532.298C532.13 1108.54 530.898 1110.42 527.51 1110.42ZM526.306 1101.21H528.266C528.266 1099.42 528.07 1098.94 527.37 1098.94C527.062 1098.94 526.894 1099.02 526.726 1099.25C526.446 1099.61 526.334 1100.28 526.306 1101.21ZM379.686 1138.5C376.69 1138.5 375.01 1137.27 374.142 1134.86C373.526 1133.16 373.302 1130.89 373.302 1128.2C373.302 1125.51 373.526 1123.24 374.142 1121.54C375.01 1119.13 376.69 1117.9 379.686 1117.9C382.682 1117.9 384.362 1119.13 385.23 1121.54C385.846 1123.24 386.07 1125.51 386.07 1128.2C386.07 1130.89 385.846 1133.16 385.23 1134.86C384.362 1137.27 382.682 1138.5 379.686 1138.5ZM377.922 1128.2C377.922 1130.13 377.978 1132.09 378.37 1133.18C378.622 1133.88 379.042 1134.3 379.686 1134.3C380.33 1134.3 380.75 1133.88 381.002 1133.18C381.394 1132.09 381.45 1130.13 381.45 1128.2C381.45 1126.27 381.394 1124.31 381.002 1123.22C380.75 1122.52 380.33 1122.1 379.686 1122.1C379.042 1122.1 378.622 1122.52 378.37 1123.22C377.978 1124.31 377.922 1126.27 377.922 1128.2ZM388.81 1122.38C388.81 1119.74 390.854 1117.98 393.85 1117.98C396.734 1117.98 398.47 1119.63 398.47 1122.38V1122.63H394.55V1122.38C394.55 1121.79 394.298 1121.48 393.794 1121.48C393.262 1121.48 392.954 1121.82 392.954 1122.38V1124H397.07V1127.64H392.954V1138H388.81V1127.64H386.99V1124H388.81V1122.38ZM404.517 1138V1122.6H400.933V1118.4H412.581V1122.6H408.997V1138H404.517ZM414.75 1138.42C413.798 1138.42 413.014 1138.11 412.454 1137.55C411.782 1136.88 411.418 1135.82 411.418 1134.44C411.418 1133.18 411.754 1132.18 412.538 1131.39C413.294 1130.64 414.442 1130.13 416.094 1129.82L417.158 1129.63V1128.31C417.158 1127.56 416.85 1127.22 416.262 1127.22C415.366 1127.22 415.338 1128.12 415.338 1128.31V1129.01H411.138V1128.34C411.138 1127.7 411.166 1123.58 416.374 1123.58C419.678 1123.58 421.358 1125.15 421.358 1128.26V1138H417.746L419.174 1134.72H418.474C417.718 1137.02 416.766 1138.42 414.75 1138.42ZM415.618 1133.83C415.618 1134.22 415.674 1134.53 415.87 1134.72C416.01 1134.86 416.15 1134.92 416.346 1134.92C417.13 1134.92 417.158 1133.94 417.158 1133.66V1132.2L416.654 1132.32C416.346 1132.37 416.15 1132.48 415.982 1132.65C415.702 1132.93 415.618 1133.3 415.618 1133.83ZM423.46 1138V1124H427.66L426.148 1127.86H426.848C428.108 1124.62 428.892 1123.58 430.656 1123.58C432.364 1123.58 433.428 1124.53 433.428 1127.16V1131.9H429.228V1128.73C429.228 1128.12 429.004 1127.84 428.528 1127.84C427.996 1127.84 427.66 1128.31 427.66 1129.1V1138H423.46ZM439.926 1143.46C436.594 1143.46 434.774 1141.89 434.774 1139.04V1138.56H438.974V1139.04C438.974 1139.6 439.282 1139.82 439.954 1139.82C440.682 1139.82 441.018 1139.2 441.018 1137.92V1136.6L442.558 1133.32H441.858C440.654 1136.29 439.982 1137.02 438.47 1137.02C437.322 1137.02 436.454 1136.57 435.838 1135.68C435.082 1134.58 434.718 1132.82 434.718 1130.3C434.718 1127.78 435.082 1126.02 435.838 1124.92C436.454 1124.03 437.322 1123.58 438.47 1123.58C439.982 1123.58 440.654 1124.31 441.858 1127.28H442.558L441.186 1124H445.218V1136.74C445.218 1141.28 443.51 1143.46 439.926 1143.46ZM439.058 1130.3C439.058 1131.64 439.226 1132.6 439.562 1133.07C439.674 1133.24 439.842 1133.38 440.038 1133.38C440.234 1133.38 440.402 1133.24 440.514 1133.07C440.85 1132.6 441.018 1131.64 441.018 1130.3C441.018 1128.96 440.85 1128 440.514 1127.53C440.402 1127.36 440.234 1127.22 440.038 1127.22C439.842 1127.22 439.674 1127.36 439.562 1127.53C439.226 1128 439.058 1128.96 439.058 1130.3ZM452.424 1138.42C450.52 1138.42 449.148 1137.83 448.252 1136.52C447.412 1135.28 447.048 1133.49 447.048 1131C447.048 1128.51 447.412 1126.72 448.252 1125.48C449.232 1124.03 450.716 1123.58 452.368 1123.58C455.812 1123.58 457.156 1125.51 457.156 1130.61V1132.29H451.22C451.276 1133.69 451.416 1134.3 451.64 1134.64C451.78 1134.84 451.92 1134.92 452.172 1134.92C452.76 1134.92 452.9 1134.47 453.012 1133.44H457.212C457.044 1136.54 455.812 1138.42 452.424 1138.42ZM451.22 1129.21H453.18C453.18 1127.42 452.984 1126.94 452.284 1126.94C451.976 1126.94 451.808 1127.02 451.64 1127.25C451.36 1127.61 451.248 1128.28 451.22 1129.21ZM464.695 1138.42C461.419 1138.42 459.879 1137.02 459.879 1134.05V1127.64H457.919V1124H459.879V1121.87L464.079 1119.86V1124H469.399V1127.64H464.079V1134.19C464.079 1134.67 464.303 1134.92 464.695 1134.92C465.059 1134.92 465.339 1134.67 465.339 1134.19V1130.41H469.399V1134.02C469.399 1136.8 467.663 1138.42 464.695 1138.42ZM474.33 1138L476.85 1118.4H485.11L487.63 1138H482.842L482.338 1133.1H479.622L479.118 1138H474.33ZM480.07 1128.9H481.89L481.33 1123.36V1121.2H480.63V1123.36L480.07 1128.9ZM493.093 1138.42C489.985 1138.42 488.333 1136.94 488.333 1134.14V1133.49H492.393V1134.14C492.393 1134.72 492.617 1135 493.093 1135C493.317 1135 493.485 1134.95 493.625 1134.81C493.765 1134.67 493.821 1134.47 493.821 1134.19C493.821 1133.52 493.429 1133.21 492.477 1132.76L491.021 1132.09C489.201 1131.25 488.473 1130.1 488.473 1128.06C488.473 1126.69 488.865 1125.6 489.621 1124.84C490.461 1124 491.721 1123.58 493.401 1123.58C496.509 1123.58 498.161 1125.06 498.161 1127.86V1128.34H494.101V1127.95C494.101 1127.25 493.905 1127 493.401 1127C493.177 1127 493.009 1127.05 492.869 1127.19C492.729 1127.33 492.673 1127.53 492.673 1127.81C492.673 1128.42 493.009 1128.76 493.849 1129.15L495.277 1129.8C497.125 1130.64 498.021 1131.92 498.021 1133.94C498.021 1135.31 497.629 1136.4 496.873 1137.16C496.033 1138 494.773 1138.42 493.093 1138.42ZM503.894 1138.42C500.786 1138.42 499.134 1136.94 499.134 1134.14V1133.49H503.194V1134.14C503.194 1134.72 503.418 1135 503.894 1135C504.118 1135 504.286 1134.95 504.426 1134.81C504.566 1134.67 504.622 1134.47 504.622 1134.19C504.622 1133.52 504.23 1133.21 503.278 1132.76L501.822 1132.09C500.002 1131.25 499.274 1130.1 499.274 1128.06C499.274 1126.69 499.666 1125.6 500.422 1124.84C501.262 1124 502.522 1123.58 504.202 1123.58C507.31 1123.58 508.962 1125.06 508.962 1127.86V1128.34H504.902V1127.95C504.902 1127.25 504.706 1127 504.202 1127C503.978 1127 503.81 1127.05 503.67 1127.19C503.53 1127.33 503.474 1127.53 503.474 1127.81C503.474 1128.42 503.81 1128.76 504.65 1129.15L506.078 1129.8C507.926 1130.64 508.822 1131.92 508.822 1133.94C508.822 1135.31 508.43 1136.4 507.674 1137.16C506.834 1138 505.574 1138.42 503.894 1138.42ZM515.451 1138.42C513.547 1138.42 512.175 1137.83 511.279 1136.52C510.439 1135.28 510.075 1133.49 510.075 1131C510.075 1128.51 510.439 1126.72 511.279 1125.48C512.259 1124.03 513.743 1123.58 515.395 1123.58C518.839 1123.58 520.183 1125.51 520.183 1130.61V1132.29H514.247C514.303 1133.69 514.443 1134.3 514.667 1134.64C514.807 1134.84 514.947 1134.92 515.199 1134.92C515.787 1134.92 515.927 1134.47 516.039 1133.44H520.239C520.071 1136.54 518.839 1138.42 515.451 1138.42ZM514.247 1129.21H516.207C516.207 1127.42 516.011 1126.94 515.311 1126.94C515.003 1126.94 514.835 1127.02 514.667 1127.25C514.387 1127.61 514.275 1128.28 514.247 1129.21ZM527.723 1138.42C524.447 1138.42 522.907 1137.02 522.907 1134.05V1127.64H520.947V1124H522.907V1121.87L527.107 1119.86V1124H532.427V1127.64H527.107V1134.19C527.107 1134.67 527.331 1134.92 527.723 1134.92C528.087 1134.92 528.367 1134.67 528.367 1134.19V1130.41H532.427V1134.02C532.427 1136.8 530.691 1138.42 527.723 1138.42Z" fill="black"/>
<circle cx="145" cy="614" r="105" fill="black"/>
<circle cx="510" cy="614" r="105" fill="black"/>
<path d="M121.848 596V576.4H126.328V591.8H131.032V596H121.848ZM137.277 596.42C135.261 596.42 133.889 595.888 132.937 594.516C132.097 593.284 131.733 591.492 131.733 589C131.733 586.508 132.097 584.716 132.937 583.484C133.889 582.112 135.261 581.58 137.277 581.58C139.293 581.58 140.665 582.112 141.617 583.484C142.457 584.716 142.821 586.508 142.821 589C142.821 591.492 142.457 593.284 141.617 594.516C140.665 595.888 139.293 596.42 137.277 596.42ZM136.073 589C136.073 590.904 136.213 591.996 136.577 592.528C136.773 592.808 136.997 592.92 137.277 592.92C137.557 592.92 137.781 592.808 137.977 592.528C138.341 591.996 138.481 590.904 138.481 589C138.481 587.096 138.341 586.004 137.977 585.472C137.781 585.192 137.557 585.08 137.277 585.08C136.997 585.08 136.773 585.192 136.577 585.472C136.213 586.004 136.073 587.096 136.073 589ZM144.649 596V582H148.849L147.561 585.276H148.261C149.437 582.728 150.025 581.58 152.041 581.58C153.973 581.58 155.009 582.812 155.009 585.136V596H150.809V586.732C150.809 585.92 150.501 585.5 149.913 585.5C149.213 585.5 148.849 586.004 148.849 586.9V596H144.649ZM161.99 601.46C158.658 601.46 156.838 599.892 156.838 597.036V596.56H161.038V597.036C161.038 597.596 161.346 597.82 162.018 597.82C162.746 597.82 163.082 597.204 163.082 595.916V594.6L164.622 591.324H163.922C162.718 594.292 162.046 595.02 160.534 595.02C159.386 595.02 158.518 594.572 157.902 593.676C157.146 592.584 156.782 590.82 156.782 588.3C156.782 585.78 157.146 584.016 157.902 582.924C158.518 582.028 159.386 581.58 160.534 581.58C162.046 581.58 162.718 582.308 163.922 585.276H164.622L163.25 582H167.282V594.74C167.282 599.276 165.574 601.46 161.99 601.46ZM161.122 588.3C161.122 589.644 161.29 590.596 161.626 591.072C161.738 591.24 161.906 591.38 162.102 591.38C162.298 591.38 162.466 591.24 162.578 591.072C162.914 590.596 163.082 589.644 163.082 588.3C163.082 586.956 162.914 586.004 162.578 585.528C162.466 585.36 162.298 585.22 162.102 585.22C161.906 585.22 161.738 585.36 161.626 585.528C161.29 586.004 161.122 586.956 161.122 588.3ZM78.8157 624.504C76.0997 624.504 74.4197 623.272 73.5517 620.864C72.9357 619.156 72.7117 616.888 72.7117 614.2C72.7117 611.512 72.9357 609.244 73.5517 607.536C74.4197 605.128 76.0997 603.896 79.0957 603.896C83.2957 603.896 84.8637 606.332 84.8637 611.652V611.68H80.2437V611.624C80.2437 608.992 79.9357 608.096 78.9557 608.096C78.3117 608.096 77.9197 608.432 77.6677 609.104C77.3597 609.972 77.3317 611.764 77.3317 614.2C77.3317 616.804 77.3877 618.54 77.7237 619.464C77.9197 620.024 78.2277 620.304 78.7037 620.304C79.6277 620.304 79.9917 619.38 79.9917 616.72H84.6117C84.6117 622.292 82.9877 624.504 78.8157 624.504ZM91.5995 624.42C89.5835 624.42 88.2115 623.888 87.2595 622.516C86.4195 621.284 86.0555 619.492 86.0555 617C86.0555 614.508 86.4195 612.716 87.2595 611.484C88.2115 610.112 89.5835 609.58 91.5995 609.58C93.6155 609.58 94.9875 610.112 95.9395 611.484C96.7795 612.716 97.1435 614.508 97.1435 617C97.1435 619.492 96.7795 621.284 95.9395 622.516C94.9875 623.888 93.6155 624.42 91.5995 624.42ZM90.3955 617C90.3955 618.904 90.5355 619.996 90.8995 620.528C91.0955 620.808 91.3195 620.92 91.5995 620.92C91.8795 620.92 92.1035 620.808 92.2995 620.528C92.6635 619.996 92.8035 618.904 92.8035 617C92.8035 615.096 92.6635 614.004 92.2995 613.472C92.1035 613.192 91.8795 613.08 91.5995 613.08C91.3195 613.08 91.0955 613.192 90.8995 613.472C90.5355 614.004 90.3955 615.096 90.3955 617ZM98.9716 624V604.4H103.172V624H98.9716ZM105.425 624V604.4H109.625V624H105.425ZM114.762 624.42C113.81 624.42 113.026 624.112 112.466 623.552C111.794 622.88 111.43 621.816 111.43 620.444C111.43 619.184 111.766 618.176 112.55 617.392C113.306 616.636 114.454 616.132 116.106 615.824L117.17 615.628V614.312C117.17 613.556 116.862 613.22 116.274 613.22C115.378 613.22 115.35 614.116 115.35 614.312V615.012H111.15V614.34C111.15 613.696 111.178 609.58 116.386 609.58C119.69 609.58 121.37 611.148 121.37 614.256V624H117.758L119.186 620.724H118.486C117.73 623.02 116.778 624.42 114.762 624.42ZM115.63 619.828C115.63 620.22 115.686 620.528 115.882 620.724C116.022 620.864 116.162 620.92 116.358 620.92C117.142 620.92 117.17 619.94 117.17 619.66V618.204L116.666 618.316C116.358 618.372 116.162 618.484 115.994 618.652C115.714 618.932 115.63 619.296 115.63 619.828ZM129.188 624.42C125.912 624.42 124.372 623.02 124.372 620.052V613.64H122.412V610H124.372V607.872L128.572 605.856V610H133.892V613.64H128.572V620.192C128.572 620.668 128.796 620.92 129.188 620.92C129.552 620.92 129.832 620.668 129.832 620.192V616.412H133.892V620.024C133.892 622.796 132.156 624.42 129.188 624.42ZM140.541 624.42C138.637 624.42 137.265 623.832 136.369 622.516C135.529 621.284 135.165 619.492 135.165 617C135.165 614.508 135.529 612.716 136.369 611.484C137.349 610.028 138.833 609.58 140.485 609.58C143.929 609.58 145.273 611.512 145.273 616.608V618.288H139.337C139.393 619.688 139.533 620.304 139.757 620.64C139.897 620.836 140.037 620.92 140.289 620.92C140.877 620.92 141.017 620.472 141.129 619.436H145.329C145.161 622.544 143.929 624.42 140.541 624.42ZM139.337 615.208H141.297C141.297 613.416 141.101 612.94 140.401 612.94C140.093 612.94 139.925 613.024 139.757 613.248C139.477 613.612 139.365 614.284 139.337 615.208ZM147.151 624V610H151.351L149.839 613.864H150.539C151.799 610.616 152.583 609.58 154.347 609.58C156.055 609.58 157.119 610.532 157.119 613.164V617.896H152.919V614.732C152.919 614.116 152.695 613.836 152.219 613.836C151.687 613.836 151.351 614.312 151.351 615.096V624H147.151ZM161.629 624.42C160.677 624.42 159.893 624.112 159.333 623.552C158.661 622.88 158.297 621.816 158.297 620.444C158.297 619.184 158.633 618.176 159.417 617.392C160.173 616.636 161.321 616.132 162.973 615.824L164.037 615.628V614.312C164.037 613.556 163.729 613.22 163.141 613.22C162.245 613.22 162.217 614.116 162.217 614.312V615.012H158.017V614.34C158.017 613.696 158.045 609.58 163.253 609.58C166.557 609.58 168.237 611.148 168.237 614.256V624H164.625L166.053 620.724H165.353C164.597 623.02 163.645 624.42 161.629 624.42ZM162.497 619.828C162.497 620.22 162.553 620.528 162.749 620.724C162.889 620.864 163.029 620.92 163.225 620.92C164.009 620.92 164.037 619.94 164.037 619.66V618.204L163.533 618.316C163.225 618.372 163.029 618.484 162.861 618.652C162.581 618.932 162.497 619.296 162.497 619.828ZM170.339 624V604.4H174.539V624H170.339ZM176.792 624V610H180.992V624H176.792ZM176.736 608.6V604.4H181.048V608.6H176.736ZM182.965 624V617.42L188.061 614.48V613.78H182.965V610H192.205V616.58L187.109 619.52V620.22H192.205V624H182.965ZM198.756 624.42C196.852 624.42 195.48 623.832 194.584 622.516C193.744 621.284 193.38 619.492 193.38 617C193.38 614.508 193.744 612.716 194.584 611.484C195.564 610.028 197.048 609.58 198.7 609.58C202.144 609.58 203.488 611.512 203.488 616.608V618.288H197.552C197.608 619.688 197.748 620.304 197.972 620.64C198.112 620.836 198.252 620.92 198.504 620.92C199.092 620.92 199.232 620.472 199.344 619.436H203.544C203.376 622.544 202.144 624.42 198.756 624.42ZM197.552 615.208H199.512C199.512 613.416 199.316 612.94 198.616 612.94C198.308 612.94 198.14 613.024 197.972 613.248C197.692 613.612 197.58 614.284 197.552 615.208ZM208.866 624.42C207.746 624.42 206.85 623.972 206.206 623.048C205.366 621.844 204.946 619.828 204.946 617C204.946 614.172 205.366 612.156 206.206 610.952C206.85 610.028 207.746 609.58 208.866 609.58C210.518 609.58 211.302 610.644 212.254 613.276H212.954L211.666 610V604.4H215.866V624H211.666L212.954 620.724H212.254C211.302 623.356 210.518 624.42 208.866 624.42ZM209.286 617C209.286 618.596 209.482 619.548 209.818 620.08C210.014 620.388 210.238 620.5 210.518 620.5C210.798 620.5 210.994 620.388 211.218 620.08C211.582 619.576 211.75 618.596 211.75 617C211.75 615.404 211.582 614.424 211.218 613.92C210.994 613.612 210.798 613.5 210.518 613.5C210.238 613.5 210.014 613.612 209.818 613.92C209.482 614.452 209.286 615.404 209.286 617ZM115.375 652L117.895 632.4H126.155L128.675 652H123.887L123.383 647.1H120.667L120.163 652H115.375ZM121.115 642.9H122.935L122.375 637.356V635.2H121.675V637.356L121.115 642.9ZM134.138 652.42C131.03 652.42 129.378 650.936 129.378 648.136V647.492H133.438V648.136C133.438 648.724 133.662 649.004 134.138 649.004C134.362 649.004 134.53 648.948 134.67 648.808C134.81 648.668 134.866 648.472 134.866 648.192C134.866 647.52 134.474 647.212 133.522 646.764L132.066 646.092C130.246 645.252 129.518 644.104 129.518 642.06C129.518 640.688 129.91 639.596 130.666 638.84C131.506 638 132.766 637.58 134.446 637.58C137.554 637.58 139.206 639.064 139.206 641.864V642.34H135.146V641.948C135.146 641.248 134.95 640.996 134.446 640.996C134.222 640.996 134.054 641.052 133.914 641.192C133.774 641.332 133.718 641.528 133.718 641.808C133.718 642.424 134.054 642.76 134.894 643.152L136.322 643.796C138.17 644.636 139.066 645.924 139.066 647.94C139.066 649.312 138.674 650.404 137.918 651.16C137.078 652 135.818 652.42 134.138 652.42ZM144.939 652.42C141.831 652.42 140.179 650.936 140.179 648.136V647.492H144.239V648.136C144.239 648.724 144.463 649.004 144.939 649.004C145.163 649.004 145.331 648.948 145.471 648.808C145.611 648.668 145.667 648.472 145.667 648.192C145.667 647.52 145.275 647.212 144.323 646.764L142.867 646.092C141.047 645.252 140.319 644.104 140.319 642.06C140.319 640.688 140.711 639.596 141.467 638.84C142.307 638 143.567 637.58 145.247 637.58C148.355 637.58 150.007 639.064 150.007 641.864V642.34H145.947V641.948C145.947 641.248 145.751 640.996 145.247 640.996C145.023 640.996 144.855 641.052 144.715 641.192C144.575 641.332 144.519 641.528 144.519 641.808C144.519 642.424 144.855 642.76 145.695 643.152L147.123 643.796C148.971 644.636 149.867 645.924 149.867 647.94C149.867 649.312 149.475 650.404 148.719 651.16C147.879 652 146.619 652.42 144.939 652.42ZM156.496 652.42C154.592 652.42 153.22 651.832 152.324 650.516C151.484 649.284 151.12 647.492 151.12 645C151.12 642.508 151.484 640.716 152.324 639.484C153.304 638.028 154.788 637.58 156.44 637.58C159.884 637.58 161.228 639.512 161.228 644.608V646.288H155.292C155.348 647.688 155.488 648.304 155.712 648.64C155.852 648.836 155.992 648.92 156.244 648.92C156.832 648.92 156.972 648.472 157.084 647.436H161.284C161.116 650.544 159.884 652.42 156.496 652.42ZM155.292 643.208H157.252C157.252 641.416 157.056 640.94 156.356 640.94C156.048 640.94 155.88 641.024 155.712 641.248C155.432 641.612 155.32 642.284 155.292 643.208ZM168.768 652.42C165.492 652.42 163.952 651.02 163.952 648.052V641.64H161.992V638H163.952V635.872L168.152 633.856V638H173.472V641.64H168.152V648.192C168.152 648.668 168.376 648.92 168.768 648.92C169.132 648.92 169.412 648.668 169.412 648.192V644.412H173.472V648.024C173.472 650.796 171.736 652.42 168.768 652.42Z" fill="white"/>
<path d="M447.12 624V608.6H443.536V604.4H455.184V608.6H451.6V624H447.12ZM457.354 624.42C456.402 624.42 455.618 624.112 455.058 623.552C454.386 622.88 454.022 621.816 454.022 620.444C454.022 619.184 454.358 618.176 455.142 617.392C455.898 616.636 457.046 616.132 458.698 615.824L459.762 615.628V614.312C459.762 613.556 459.454 613.22 458.866 613.22C457.97 613.22 457.942 614.116 457.942 614.312V615.012H453.742V614.34C453.742 613.696 453.77 609.58 458.978 609.58C462.282 609.58 463.962 611.148 463.962 614.256V624H460.35L461.778 620.724H461.078C460.322 623.02 459.37 624.42 457.354 624.42ZM458.222 619.828C458.222 620.22 458.278 620.528 458.474 620.724C458.614 620.864 458.754 620.92 458.95 620.92C459.734 620.92 459.762 619.94 459.762 619.66V618.204L459.258 618.316C458.95 618.372 458.754 618.484 458.586 618.652C458.306 618.932 458.222 619.296 458.222 619.828ZM466.063 624V610H470.263L468.751 613.864H469.451C470.711 610.616 471.495 609.58 473.259 609.58C474.967 609.58 476.031 610.532 476.031 613.164V617.896H471.831V614.732C471.831 614.116 471.607 613.836 471.131 613.836C470.599 613.836 470.263 614.312 470.263 615.096V624H466.063ZM482.529 629.46C479.197 629.46 477.377 627.892 477.377 625.036V624.56H481.577V625.036C481.577 625.596 481.885 625.82 482.557 625.82C483.285 625.82 483.621 625.204 483.621 623.916V622.6L485.161 619.324H484.461C483.257 622.292 482.585 623.02 481.073 623.02C479.925 623.02 479.057 622.572 478.441 621.676C477.685 620.584 477.321 618.82 477.321 616.3C477.321 613.78 477.685 612.016 478.441 610.924C479.057 610.028 479.925 609.58 481.073 609.58C482.585 609.58 483.257 610.308 484.461 613.276H485.161L483.789 610H487.821V622.74C487.821 627.276 486.113 629.46 482.529 629.46ZM481.661 616.3C481.661 617.644 481.829 618.596 482.165 619.072C482.277 619.24 482.445 619.38 482.641 619.38C482.837 619.38 483.005 619.24 483.117 619.072C483.453 618.596 483.621 617.644 483.621 616.3C483.621 614.956 483.453 614.004 483.117 613.528C483.005 613.36 482.837 613.22 482.641 613.22C482.445 613.22 482.277 613.36 482.165 613.528C481.829 614.004 481.661 614.956 481.661 616.3ZM495.027 624.42C493.123 624.42 491.751 623.832 490.855 622.516C490.015 621.284 489.651 619.492 489.651 617C489.651 614.508 490.015 612.716 490.855 611.484C491.835 610.028 493.319 609.58 494.971 609.58C498.415 609.58 499.759 611.512 499.759 616.608V618.288H493.823C493.879 619.688 494.019 620.304 494.243 620.64C494.383 620.836 494.523 620.92 494.775 620.92C495.363 620.92 495.503 620.472 495.615 619.436H499.815C499.647 622.544 498.415 624.42 495.027 624.42ZM493.823 615.208H495.783C495.783 613.416 495.587 612.94 494.887 612.94C494.579 612.94 494.411 613.024 494.243 613.248C493.963 613.612 493.851 614.284 493.823 615.208ZM507.299 624.42C504.023 624.42 502.483 623.02 502.483 620.052V613.64H500.523V610H502.483V607.872L506.683 605.856V610H512.003V613.64H506.683V620.192C506.683 620.668 506.907 620.92 507.299 620.92C507.663 620.92 507.943 620.668 507.943 620.192V616.412H512.003V620.024C512.003 622.796 510.267 624.42 507.299 624.42ZM516.934 624L519.454 604.4H527.714L530.234 624H525.446L524.942 619.1H522.226L521.722 624H516.934ZM522.674 614.9H524.494L523.934 609.356V607.2H523.234V609.356L522.674 614.9ZM535.697 624.42C532.589 624.42 530.937 622.936 530.937 620.136V619.492H534.997V620.136C534.997 620.724 535.221 621.004 535.697 621.004C535.921 621.004 536.089 620.948 536.229 620.808C536.369 620.668 536.425 620.472 536.425 620.192C536.425 619.52 536.033 619.212 535.081 618.764L533.625 618.092C531.805 617.252 531.077 616.104 531.077 614.06C531.077 612.688 531.469 611.596 532.225 610.84C533.065 610 534.325 609.58 536.005 609.58C539.113 609.58 540.765 611.064 540.765 613.864V614.34H536.705V613.948C536.705 613.248 536.509 612.996 536.005 612.996C535.781 612.996 535.613 613.052 535.473 613.192C535.333 613.332 535.277 613.528 535.277 613.808C535.277 614.424 535.613 614.76 536.453 615.152L537.881 615.796C539.729 616.636 540.625 617.924 540.625 619.94C540.625 621.312 540.233 622.404 539.477 623.16C538.637 624 537.377 624.42 535.697 624.42ZM546.498 624.42C543.39 624.42 541.738 622.936 541.738 620.136V619.492H545.798V620.136C545.798 620.724 546.022 621.004 546.498 621.004C546.722 621.004 546.89 620.948 547.03 620.808C547.17 620.668 547.226 620.472 547.226 620.192C547.226 619.52 546.834 619.212 545.882 618.764L544.426 618.092C542.606 617.252 541.878 616.104 541.878 614.06C541.878 612.688 542.27 611.596 543.026 610.84C543.866 610 545.126 609.58 546.806 609.58C549.914 609.58 551.566 611.064 551.566 613.864V614.34H547.506V613.948C547.506 613.248 547.31 612.996 546.806 612.996C546.582 612.996 546.414 613.052 546.274 613.192C546.134 613.332 546.078 613.528 546.078 613.808C546.078 614.424 546.414 614.76 547.254 615.152L548.682 615.796C550.53 616.636 551.426 617.924 551.426 619.94C551.426 621.312 551.034 622.404 550.278 623.16C549.438 624 548.178 624.42 546.498 624.42ZM558.055 624.42C556.151 624.42 554.779 623.832 553.883 622.516C553.043 621.284 552.679 619.492 552.679 617C552.679 614.508 553.043 612.716 553.883 611.484C554.863 610.028 556.347 609.58 557.999 609.58C561.443 609.58 562.787 611.512 562.787 616.608V618.288H556.851C556.907 619.688 557.047 620.304 557.271 620.64C557.411 620.836 557.551 620.92 557.803 620.92C558.391 620.92 558.531 620.472 558.643 619.436H562.843C562.675 622.544 561.443 624.42 558.055 624.42ZM556.851 615.208H558.811C558.811 613.416 558.615 612.94 557.915 612.94C557.607 612.94 557.439 613.024 557.271 613.248C556.991 613.612 556.879 614.284 556.851 615.208ZM570.326 624.42C567.05 624.42 565.51 623.02 565.51 620.052V613.64H563.55V610H565.51V607.872L569.71 605.856V610H575.03V613.64H569.71V620.192C569.71 620.668 569.934 620.92 570.326 620.92C570.69 620.92 570.97 620.668 570.97 620.192V616.412H575.03V620.024C575.03 622.796 573.294 624.42 570.326 624.42Z" fill="white"/>
<path d="M205 240L198.089 249.251L209.556 250.61L205 240ZM175.993 493.118L204.933 249.055L202.947 248.82L174.007 492.882L175.993 493.118Z" fill="black"/>
<path d="M436.217 239.356L431.846 250.044L443.288 248.485L436.217 239.356ZM471.772 492.865L438.423 248.139L436.441 248.409L469.79 493.135L471.772 492.865Z" fill="black"/>
<path d="M205 999L198.089 989.749L209.556 988.39L205 999ZM175.993 745.882L204.933 989.945L202.947 990.18L174.007 746.118L175.993 745.882Z" fill="black"/>
<path d="M436.217 999.644L431.846 988.956L443.288 990.515L436.217 999.644ZM471.772 746.135L438.423 990.861L436.441 990.591L469.79 745.865L471.772 746.135Z" fill="black"/>
</svg>
