<svg width="120" height="122" viewBox="0 0 120 122" fill="none" xmlns="http://www.w3.org/2000/svg">
<g id="Layer_55" clip-path="url(#clip0_188_7705)">
<path id="Vector" d="M110.681 61.4732L110.415 61.2348L110.962 60.8701C109.738 60.0856 108.806 60.0998 107.364 58.8901C104.343 56.3498 101.144 54.0229 97.8563 51.8348C97.4678 51.5787 97.0757 51.2638 96.7495 50.9845C95.7836 50.1395 94.7998 49.6165 93.6058 49.1237C92.8626 48.7946 92.0856 48.4531 91.3032 48.1079C90.5226 47.7504 89.7509 47.3572 88.9935 46.9783C87.3432 46.1066 85.4647 45.1513 84.1566 44.2387C82.116 42.7836 79.6655 42.0827 77.3415 41.2875C76.3417 40.9424 75.472 40.8659 74.515 40.2877C73.5508 39.7238 72.4779 39.3591 71.3783 39.0923C70.2645 38.877 69.1114 38.8005 67.9708 38.8823C67.3239 38.9482 66.5967 38.9588 65.6967 39.0069C65.032 38.4696 64.2104 38.169 63.2836 37.9591C62.3569 37.7403 61.3143 37.7438 60.2111 37.895C59.8119 38.1459 59.5268 38.3237 58.9244 38.7027C58.2525 38.201 57.3133 37.9893 56.2689 37.9093C55.221 37.8363 54.0751 37.9875 52.9559 38.0658C51.9846 38.1672 51.0258 38.3664 50.058 38.4927C48.643 38.7276 47.1976 38.8841 46.3101 39.658C46.0713 39.8714 44.9307 40.1009 44.2 40.3108C43.3053 40.583 42.4213 40.8925 41.532 41.179C41.0633 41.3586 40.6071 41.5792 40.1491 41.7856L40.0332 41.5934C40.5572 41.4494 41.0776 41.2946 41.6211 41.1825C40.853 41.1861 40.0831 41.1131 39.3114 41.3355C38.4025 41.5934 37.4972 41.9172 36.6079 42.2801C35.7132 42.6217 34.8435 43.0184 34.0272 43.4507C33.1433 43.899 32.3787 44.269 31.4983 44.6159C29.2617 45.4395 27.2104 46.4767 25.3926 47.9941C24.7082 48.5847 23.8474 49.1166 22.9741 49.6574C22.1222 50.2249 21.249 50.7924 20.5753 51.4701C20.3098 51.7423 19.5559 52.0341 19.0266 52.3134C18.5062 52.5802 17.9305 52.8293 17.5064 53.1619C16.0468 54.3058 14.6727 55.5279 13.345 56.7678C12.7034 57.3531 12.183 57.7178 11.545 57.9455C9.94812 58.5343 9.89109 58.5521 8.54554 60.1639C8.01623 60.7989 7.51722 61.2953 6.87919 61.571C6.17701 61.8645 5.45523 62.1918 4.77443 62.9835C4.09542 63.7769 3.24353 64.7571 3.02076 65.3673C2.61977 66.4471 1.67699 67.6425 1.04966 68.7899C0.759163 69.3254 0.570251 69.8271 0.249457 70.6205C1.07639 69.9445 1.66095 69.5851 2.16353 69.0977C3.27739 68.0161 4.40374 66.9185 5.5283 65.8298C9.05168 62.4996 12.764 59.3544 16.6884 56.5099C22.3807 52.3739 28.4757 48.7893 34.9201 46.0622C38.7893 44.4291 42.7814 43.1055 46.8608 42.2125C49.5109 41.6699 52.1824 41.2216 54.8753 41.0758C56.2173 40.9388 57.5664 40.9833 58.9101 40.9335L60.9258 41.0046L61.9345 41.0402L62.9415 41.1327C72.4548 41.8888 81.6865 45.1923 90.0699 49.8727C95.0885 52.6531 99.8345 55.9442 104.322 59.543C106.564 61.3451 108.74 63.2343 110.841 65.1965C111.891 66.1785 112.925 67.1782 113.928 68.2029C114.432 68.7135 114.93 69.2293 115.418 69.7524L115.812 70.174L115.94 70.3216L115.68 70.5991L114.464 71.8622C113.645 72.6983 112.811 73.5219 111.959 74.3296C110.257 75.9484 108.503 77.5139 106.708 79.0278C98.8418 85.6205 90.1216 91.2954 80.6261 95.0276C73.0055 98.0073 64.8626 99.5515 56.7947 99.1939C50.9313 98.9573 45.1142 97.6889 39.5289 95.7321C33.9488 93.7432 28.5844 91.0855 23.5159 87.9314C17.722 84.3308 12.2293 80.1912 7.14652 75.5962C5.16473 73.8101 3.20254 72.097 1.24035 70.5671C0.231636 69.7701 0.151437 69.779 -0.00183105 70.8268C2.7463 73.9845 5.69047 76.9517 8.86811 79.7109C11.0085 81.5681 13.1667 83.3969 15.5228 84.9641C16.0361 85.3003 16.6082 85.6864 17.0216 86.0724C18.761 87.6503 20.7927 88.8885 22.8173 90.1266C26.1571 92.1848 29.7607 93.7788 33.1041 95.7854C34.1377 96.3671 35.1215 97.0147 36.1659 97.5751C36.8146 97.9273 37.5863 98.4823 38.1085 98.5962C40.5019 99.048 42.3768 100.329 44.699 100.758C45.6204 100.918 46.8091 101.407 47.456 101.339C48.8426 101.231 49.4628 101.903 50.5356 102.038C53.323 102.513 56.1584 102.7 58.9939 102.793C61.8312 102.777 64.6773 102.65 67.4736 102.181C70.2698 101.731 73.0215 101.06 75.7019 100.206C77.0546 99.8201 78.3716 99.3255 79.7101 98.8932C81.0217 98.3987 82.3637 97.9646 83.6719 97.4559C84.1103 97.294 84.5451 97.052 84.9853 96.8581C89.3374 94.8515 93.4828 92.4606 97.3983 89.8758C97.7262 89.3706 97.8759 88.9205 98.3321 88.4864C99.0272 87.8389 99.8024 87.444 100.471 87.4315C100.683 87.428 101.216 87.1753 101.56 86.9441C104.819 84.7026 108.084 82.4771 110.996 79.7198L110.941 78.9922L111.264 78.7858L111.002 79.7216C112.196 78.6844 113.36 77.6153 114.516 76.539C115.361 75.751 116.079 74.9593 116.412 74.1481C116.605 73.6856 116.799 73.2124 116.981 72.7748C117.222 72.6147 117.416 72.5044 117.653 72.3318C117.947 72.0952 118.221 71.8764 118.478 71.6701C119.016 71.2129 119.524 70.7575 119.993 70.3216C119.613 69.7506 119.212 69.1813 118.793 68.6441C118.574 68.3737 118.357 68.1068 118.134 67.8293C117.999 67.6674 117.861 67.5038 117.715 67.3259C117.136 66.6588 116.379 65.876 115.16 64.6984C113.798 63.3855 112.395 62.1189 110.962 60.8879L110.674 61.4749L110.681 61.4732ZM79.8651 98.0732C79.9506 98.0394 80.0576 98.0678 80.4318 98.066C79.3198 98.5161 78.2237 98.8381 77.1811 99.2081C76.1279 99.5479 75.0871 99.829 74.0552 100.14V99.9286L76.9815 99.0622C77.9421 98.7314 78.9099 98.4218 79.8651 98.0732ZM114.295 65.0933C115.051 65.5149 115.6 65.9614 116.115 66.5147C116.373 66.7904 116.619 67.0964 116.881 67.4344C117.161 67.8133 117.464 68.2242 117.806 68.6868C117.419 68.2741 117.077 67.9094 116.76 67.5714C116.466 67.2707 116.199 66.9932 115.937 66.7246C115.409 66.1909 114.908 65.6893 114.295 65.0933ZM43.5245 100.085C44.2499 99.7987 45.0412 100.121 45.7523 100.647C45.0608 100.469 44.3604 100.325 43.5245 100.085ZM107.307 82.0804C107.056 82.5572 106.227 83.2243 105.737 83.3577C105.595 83.3951 105.489 83.267 105.559 83.1371C105.871 82.5394 106.454 82.1712 107.077 81.9079C107.182 81.8634 107.257 81.8741 107.346 81.8581C107.336 81.931 107.354 81.9933 107.307 82.0804ZM69.7209 101.042C69.7352 101.042 69.7779 101.165 69.769 101.167C69.3609 101.266 68.9474 101.359 68.5322 101.442C68.5037 101.45 68.4538 101.359 68.3967 101.293C68.8476 101.208 69.2843 101.126 69.7209 101.042ZM50.2808 38.9197C50.1204 39.0122 49.9725 39.1065 49.7871 39.1901C49.7622 39.2025 49.5608 39.1794 49.4396 39.1723C49.5982 39.0709 49.7568 38.9677 49.919 38.8788L50.2808 38.9179V38.9197ZM62.184 102.008C62.1038 102.047 61.9898 102.117 61.9416 102.111C61.7403 102.092 61.5585 102.051 61.3696 102.019L61.7812 101.955C61.9167 101.974 62.0504 101.997 62.184 102.006V102.008ZM55.2032 38.3415L55.6113 38.2633C55.5685 38.3273 55.5258 38.3949 55.4616 38.4927C55.3386 38.4198 55.2691 38.3807 55.2032 38.3415ZM70.2591 39.3822L70.5853 39.4142C70.5247 39.4587 70.4658 39.5032 70.3732 39.5726C70.3179 39.4801 70.2876 39.432 70.2591 39.3822ZM112.276 62.9586L112.458 63.2041L112.196 63.0351L112.274 62.9586H112.276ZM53.2624 101.855L52.7776 101.734L53.1733 101.727L53.2624 101.855Z" fill="#BAA360"/>
<path id="Vector_2" d="M110.602 42.5345L110.337 42.3014L110.872 41.935C109.645 41.17 108.722 41.1949 107.273 40.0119C104.235 37.5339 101.027 35.2639 97.7298 33.1363C97.343 32.8837 96.9474 32.5831 96.6195 32.3091C95.6517 31.4801 94.6644 30.9784 93.4757 30.5017C92.7325 30.185 91.9573 29.8542 91.1767 29.5215C90.3996 29.171 89.6244 28.7992 88.8669 28.4292C88.0436 28.0058 87.1685 27.554 86.3202 27.1181C85.4826 26.6698 84.6913 26.202 84.0301 25.7679C81.9877 24.3412 79.5425 23.6848 77.2328 22.9092C76.233 22.5836 75.3722 22.5071 74.4188 21.9432C73.4546 21.4006 72.3888 21.0377 71.2946 20.7815C70.1861 20.5823 69.0437 20.5022 67.912 20.593C67.2704 20.6606 66.5486 20.6712 65.654 20.7228C64.9928 20.1945 64.1747 19.9027 63.2551 19.6982C62.3355 19.4847 61.3019 19.49 60.2076 19.6395C59.8119 19.8867 59.5268 20.0628 58.9298 20.4364C58.2632 19.9419 57.3329 19.7302 56.2939 19.6519C55.2549 19.5772 54.1179 19.7266 53.0076 19.8013C52.0434 19.8938 51.0917 20.0913 50.1311 20.2123C48.7232 20.4329 47.2903 20.5894 46.4028 21.3401C46.164 21.55 45.0323 21.7706 44.3051 21.977C43.4123 22.2314 42.5354 22.5391 41.6497 22.8149C41.1828 22.991 40.7265 23.1956 40.2685 23.4019L40.1562 23.2116C40.6766 23.0693 41.197 22.9287 41.737 22.8184C40.976 22.8184 40.2115 22.7348 39.4451 22.9536C38.9978 23.0888 38.5451 23.2276 38.0907 23.3646L36.7522 23.8627C35.8611 24.1971 34.9914 24.5725 34.177 24.9976C33.2966 25.4353 32.5302 25.7875 31.6516 26.1219C29.4221 26.9153 27.3744 27.9169 25.5476 29.4023C24.8544 29.9716 23.9971 30.4964 23.1221 31.0194C22.2631 31.5673 21.3951 32.1276 20.7108 32.7841C20.4434 33.0491 19.6931 33.3302 19.1638 33.6024C18.6434 33.8621 18.066 34.0969 17.6401 34.4243C16.1751 35.5397 14.7921 36.7333 13.4537 37.9466C12.8103 38.5194 12.2864 38.8716 11.6501 39.0904C10.0551 39.6544 10.0034 39.6739 8.6418 41.2519C8.10714 41.878 7.60279 42.3601 6.96833 42.627C6.26793 42.9116 5.54436 43.2265 4.85822 44.0039C4.17208 44.7831 3.31306 45.7419 3.08138 46.345C2.66435 47.4088 1.71088 48.5811 1.06929 49.7107C0.773445 50.2409 0.575622 50.7336 0.245918 51.5164C1.07642 50.8546 1.66097 50.5077 2.16712 50.0274C3.28989 48.9689 4.42336 47.8962 5.55327 46.8288C9.1016 43.5716 12.8317 40.4976 16.7721 37.7278C22.484 33.6967 28.588 30.2206 35.0235 27.5842C38.8837 26.0045 42.8651 24.7272 46.9285 23.868C49.5679 23.3503 52.2252 22.9163 54.9038 22.7775C56.2387 22.6441 57.5789 22.6921 58.9173 22.6423L60.9223 22.7099L61.9256 22.7437L62.9254 22.8327C72.3853 23.5603 81.5885 26.7392 89.9808 31.2809C95.0066 33.9777 99.765 37.1834 104.276 40.6933C106.528 42.4526 108.715 44.2992 110.829 46.2187C111.886 47.1811 112.926 48.1595 113.939 49.1628C114.447 49.6609 114.949 50.1679 115.441 50.6785L115.821 51.0752L115.947 51.2157L115.707 51.4665L114.482 52.7047C113.655 53.523 112.814 54.3289 111.957 55.1205C110.244 56.7038 108.482 58.2354 106.675 59.7155C98.767 66.1535 90.0236 71.6665 80.5441 75.2706C72.936 78.1507 64.8377 79.6308 56.8107 79.2857C50.9776 79.0562 45.1855 77.8412 39.6144 75.9484C36.8307 74.9842 34.0986 73.8652 31.4235 72.604C28.7538 71.332 26.1482 69.9142 23.605 68.3896C17.7987 64.8905 12.2846 60.854 7.16971 56.3622C5.17723 54.6153 3.20257 52.9395 1.23681 51.4452C0.226314 50.666 0.146115 50.6749 0.0124512 51.7138C2.78553 54.8127 5.75109 57.7178 8.94834 60.4146C11.103 62.2292 13.2701 64.0134 15.6333 65.538C16.1484 65.8635 16.7187 66.2442 17.1393 66.6178C18.8876 68.1655 20.9264 69.3574 22.951 70.5671C26.2944 72.5684 29.8962 74.1054 33.2395 76.0533C34.275 76.619 35.2552 77.2577 36.3013 77.7949C36.9483 78.1365 37.7217 78.6808 38.2421 78.7876C40.6231 79.2127 42.498 80.4651 44.8059 80.8707C45.7202 81.0273 46.9054 81.4969 47.5469 81.4311C48.921 81.3208 49.543 81.9772 50.607 82.1071C53.3783 82.5678 56.1888 82.7422 59.0046 82.8347C61.8187 82.8169 64.6435 82.703 67.4201 82.2476C70.1968 81.8171 72.9306 81.1678 75.6003 80.3459C78.2843 79.5632 80.9077 78.6239 83.5418 77.6953C83.9784 77.5388 84.4115 77.3039 84.8517 77.1154C89.1984 75.1799 93.342 72.8512 97.2682 70.3412C97.605 69.8484 97.7565 69.4036 98.2181 68.9785C98.9149 68.3434 99.6955 67.9663 100.355 67.9574C100.565 67.9574 101.096 67.7101 101.442 67.4859C104.714 65.3085 107.983 63.1364 110.916 60.4449L110.873 59.7226L111.196 59.5234L110.92 60.4449C112.119 59.4309 113.294 58.3866 114.457 57.3317C115.307 56.5614 116.031 55.7858 116.375 54.9853C116.571 54.5299 116.774 54.0638 116.961 53.6333C117.2 53.4803 117.398 53.3665 117.63 53.2064C117.933 52.9698 118.212 52.7474 118.476 52.5393C119.022 52.0892 119.529 51.6444 120.002 51.2157C119.613 50.6536 119.221 50.1039 118.783 49.5649C118.555 49.2927 118.328 49.0205 118.093 48.7412C117.959 48.5864 117.824 48.4263 117.678 48.2573C117.095 47.6027 116.33 46.836 115.103 45.6814C113.732 44.3952 112.319 43.1589 110.882 41.9545L110.606 42.538L110.602 42.5345ZM79.7457 78.2735C79.8313 78.2414 79.9382 78.2699 80.3107 78.2699C79.1986 78.6986 78.1115 79.0171 77.0706 79.3728C76.0192 79.6948 74.9873 79.9759 73.9589 80.2694L73.9625 80.0631L76.8746 79.227L79.7457 78.2735ZM114.244 46.0799C114.999 46.4873 115.552 46.9267 116.068 47.4675C116.33 47.7361 116.576 48.0385 116.842 48.3712C117.125 48.7412 117.435 49.1468 117.781 49.6022C117.391 49.1984 117.045 48.839 116.726 48.5082C116.43 48.2146 116.159 47.9425 115.896 47.6792C115.364 47.1562 114.86 46.667 114.242 46.0817L114.244 46.0799ZM43.6261 80.2196C44.3461 79.9261 45.1321 80.2463 45.8432 80.7586C45.1552 80.5896 44.462 80.4438 43.6261 80.2196ZM107.209 62.7415C106.951 63.2058 106.12 63.8622 105.63 63.9885C105.489 64.0241 105.388 63.896 105.457 63.7662C105.778 63.1791 106.359 62.8198 106.983 62.5689C107.088 62.5262 107.161 62.5369 107.25 62.5227C107.238 62.5956 107.257 62.6561 107.207 62.7415H107.209ZM69.6478 81.1358C69.6603 81.1358 69.7013 81.2568 69.6942 81.2603C69.2878 81.3546 68.8779 81.4471 68.4663 81.5254C68.4377 81.5307 68.3878 81.4418 68.3326 81.3759C68.7799 81.2959 69.213 81.2141 69.6478 81.1358ZM50.3432 20.6357C50.1828 20.7246 50.0349 20.8171 49.8495 20.9007C49.8246 20.9078 49.625 20.8847 49.5056 20.8794C49.6624 20.778 49.8228 20.6837 49.9832 20.5948L50.3432 20.6357ZM62.1609 82.0626C62.0789 82.1017 61.9666 82.1693 61.9185 82.164C61.7189 82.1444 61.5389 82.1035 61.3518 82.0715L61.7599 82.0092C61.8935 82.027 62.0272 82.0519 62.1609 82.0608V82.0626ZM55.2299 20.0771L55.6363 20.0006C55.5935 20.0646 55.5507 20.1304 55.4866 20.2283C55.3636 20.1554 55.2959 20.1162 55.2299 20.0771ZM70.1789 21.0786L70.5015 21.1089C70.4427 21.1533 70.3839 21.196 70.293 21.2654C70.2377 21.1729 70.2074 21.1267 70.1789 21.0786ZM112.205 43.9843L112.39 44.2262L112.128 44.0608L112.205 43.9843ZM53.3016 81.915L52.8204 81.794L53.2143 81.7869L53.3034 81.9132L53.3016 81.915Z" fill="#BAA360"/>
<g id="Group">
<g id="Group_2">
<path id="Vector_3" d="M85.2295 53.3648C85.2295 53.3559 85.2331 53.347 85.2348 53.3381C85.2348 53.3381 85.2313 53.3345 85.2313 53.3328V53.3648H85.2295Z" fill="#2832F5"/>
<path id="Vector_4" d="M87.9188 56.243L87.6925 54.3128C87.5713 53.676 87.4145 53.0445 87.2719 52.4112L87.0473 51.4612C86.9618 51.1481 86.8424 50.8439 86.739 50.5344L86.0849 48.6914C84.9711 46.1493 83.5952 43.7103 81.8469 41.5436C81.4317 40.9868 80.9309 40.4993 80.4728 39.9763L79.7707 39.2061C79.5247 38.9606 79.261 38.7346 79.0061 38.498C78.4875 38.0355 77.9867 37.5516 77.4485 37.1122L75.775 35.867C72.1037 33.2377 67.773 31.5655 63.3229 30.877C58.8692 30.1975 54.2729 30.5301 49.9778 31.8697C49.3487 32.0725 48.7374 32.3287 48.1208 32.5635L47.1994 32.9246C46.8982 33.058 46.6095 33.2181 46.3137 33.3658L44.56 34.2748L42.9061 35.3493C42.6352 35.5325 42.3519 35.6998 42.0899 35.8972L41.3218 36.511C40.8156 36.9272 40.2881 37.3133 39.8069 37.7544C38.873 38.6688 37.8964 39.5334 37.0819 40.5527C34.8114 43.1624 32.9348 46.1297 31.7086 49.3549C30.0405 53.9019 29.5166 58.8171 30.1938 63.5402C30.7284 67.4699 32.0954 71.2697 34.1609 74.6231C36.2229 77.9799 38.9746 80.8938 42.1897 83.1353C46.7129 86.2983 52.1628 88.095 57.6573 88.2373C61.6298 88.3654 65.6504 87.7321 69.3556 86.2324C72.1964 85.053 74.8411 83.4182 77.1651 81.4097L78.0188 80.6359C78.3004 80.3744 78.5998 80.1324 78.8475 79.8371L80.4016 78.1347L81.7899 76.2935C82.0323 75.9946 82.2247 75.662 82.4261 75.3346L83.0285 74.3509C84.8962 71.1861 85.9851 67.5855 86.2257 63.985C86.3505 63.0226 86.1063 62.0566 85.9655 61.1298C85.9762 60.8149 85.9887 60.5018 85.9887 60.1851C85.9887 48.5864 78.7406 38.683 68.5215 34.7231C68.7407 34.7747 68.9866 34.7925 69.147 34.7498C69.8706 34.5666 70.5265 34.9722 70.9649 35.4222C71.2465 35.7282 71.5619 35.9364 71.8756 36.1338C72.1875 36.3348 72.5225 36.4789 72.8861 36.5768C73.1873 36.6586 73.4795 36.7653 73.7665 36.8899C73.909 36.9521 74.0516 37.018 74.1906 37.0873C74.3261 37.1638 74.4544 37.2528 74.5845 37.3399C75.1013 37.6904 75.6003 38.0746 76.1065 38.4393C76.4879 38.6884 76.8015 39.0193 77.1455 39.3146L78.1489 40.2343C78.7976 40.8676 79.3625 41.5809 79.9703 42.2516C80.3321 42.6572 80.5655 43.1624 80.8614 43.6125C80.8667 43.6178 80.8703 43.6232 80.8756 43.6285C81.02 44.164 81.1893 44.6603 81.7328 45.0321C82.4475 45.5338 82.943 46.3129 83.3297 47.1633C83.2032 47.1704 83.1158 47.1935 83.0232 47.1757C82.9768 47.1668 82.9251 47.0708 82.8699 47.0476C82.8431 47.037 82.82 47.0957 82.7772 47.1419C82.9055 47.407 83.0089 47.8233 83.1693 47.9229C83.6737 48.2378 84.0034 48.67 84.2315 49.1557C84.4507 49.6449 84.5042 50.2142 84.5719 50.7728L84.5148 50.7372C84.9515 51.0894 85.1956 51.5092 85.299 51.9557C85.3685 52.4058 85.3204 52.8772 85.2331 53.3433C85.4469 53.6226 85.7321 53.8699 85.8604 54.2043C85.9923 54.5103 86.0689 54.8305 86.1473 55.1525L86.3844 56.122L86.6178 57.0987C86.7051 57.4242 86.7212 57.7569 86.7818 58.086C86.862 58.6232 86.976 59.1605 87.1222 59.6781C87.2327 60.0695 87.4358 60.3559 87.8582 60.0713C87.8921 59.4718 87.9259 58.8456 87.9616 58.207C87.9741 57.885 87.9865 57.5594 88.0008 57.2321C87.9883 56.9065 87.9545 56.5792 87.9188 56.2501V56.243ZM53.8078 33.2092C53.8612 33.2377 53.9147 33.2501 53.9699 33.2715C53.6848 33.3213 53.3979 33.3658 53.1163 33.4245C53.143 33.4031 53.1733 33.3889 53.1983 33.3658C53.3266 33.2644 53.7115 33.1612 53.8078 33.2092ZM47.6788 35.0415C47.636 35.0789 47.5968 35.1287 47.5505 35.1465C47.5059 35.1643 47.4525 35.1465 47.4026 35.1465L47.6788 35.0415ZM63.7613 33.3569C64.3066 32.9477 64.9304 32.9459 65.6504 33.5134L65.6041 33.4618C65.9908 33.7767 66.4417 33.9475 66.9051 34.1201C67.0672 34.1894 67.2348 34.2499 67.4023 34.3122C66.2225 33.9137 65.007 33.5917 63.7613 33.3551V33.3569ZM81.1216 44.0145C81.0556 43.9042 80.9897 43.7904 80.9237 43.6783C80.9932 43.7513 81.0627 43.8224 81.1251 43.9007C81.1429 43.922 81.1233 43.9772 81.1216 44.0145Z" fill="#2832F5"/>
</g>
<g id="Group_3">
<path id="Vector_5" d="M39.7159 53.3826C39.7159 53.3826 39.7231 53.3719 39.7266 53.3666C39.7266 53.3666 39.7266 53.3648 39.7266 53.363L39.7177 53.3844L39.7159 53.3826Z" fill="#4C9DBE"/>
<path id="Vector_6" d="M79.4035 58.7389C79.4409 58.5415 79.4302 58.3049 79.4053 58.0594L79.2841 56.7661C79.2324 56.3374 79.1344 55.9122 79.0631 55.4853C78.9437 54.6278 78.6692 53.8024 78.4233 52.9823C78.3306 52.6212 78.1631 52.2832 78.0276 51.938L77.6088 50.9063C77.2791 50.2409 76.9494 49.5774 76.6197 48.9103C76.347 48.4495 76.0637 48.0386 75.7001 47.8394C75.3009 47.5974 74.9462 47.1669 74.6575 46.6706C74.433 46.2917 74.2423 45.9003 73.966 45.5534C73.7753 45.2955 73.5668 45.0126 73.3369 44.8045C73.1623 44.6479 72.9324 44.6284 72.7488 44.4932C72.5777 44.358 72.4815 44.0929 72.3032 43.9292C72.2017 43.8367 72.011 43.8403 71.8613 43.8012C71.528 43.3333 71.3319 43.1269 71.1377 42.9508C70.9452 42.7729 70.7492 42.6324 70.3571 42.3531C68.4787 41.0954 66.3953 40.165 64.2246 39.6011C63.7915 39.5014 63.3495 39.3805 62.9485 39.4303C62.8398 39.4356 62.5547 39.4143 62.4994 39.3751C62.2107 39.167 61.8471 39.0727 61.4693 39.014C61.2804 38.9855 61.0879 38.9642 60.8955 38.9446C60.703 38.9357 60.5141 38.9286 60.3305 38.9215C59.5214 38.8646 58.7087 38.7934 57.8978 38.8681C57.4915 38.8913 57.0851 38.9019 56.6788 38.9393L55.4705 39.1172C55.3208 39.3129 55.1443 39.4623 54.9127 39.5477C54.6845 39.6438 54.4083 39.7042 54.0465 39.6793L54.0911 39.6882C53.756 39.6669 53.4067 39.7131 53.0592 39.7861C52.7117 39.8626 52.3766 40.0138 52.0362 40.117C51.8473 40.1792 51.6103 40.3037 51.5122 40.4069C51.179 40.7307 50.7156 40.9531 50.2825 41.0189C50.0027 41.0669 49.7408 41.147 49.4966 41.2537C49.2542 41.3622 49.0493 41.5312 48.8497 41.702C48.5271 41.9937 48.1635 42.2303 47.8053 42.4758C47.4595 42.7427 47.1013 42.9935 46.752 43.2532C45.7558 44.0271 44.8184 44.8774 43.9647 45.8096C43.6884 46.0711 43.4514 46.3646 43.1948 46.6457C43.1912 46.651 43.1877 46.6546 43.1859 46.6599C42.8918 46.8876 42.5728 47.1135 42.4391 47.5476C42.2894 48.14 41.933 48.6541 41.589 49.2074C41.5534 49.1469 41.5213 49.1113 41.507 49.0562C41.4981 49.0277 41.5356 48.9601 41.5391 48.9227C41.5391 48.9049 41.5017 48.9174 41.4696 48.9156C41.3645 49.0971 41.2023 49.3532 41.1934 49.4778C41.1738 49.8762 41.0615 50.2285 40.894 50.5629C40.7229 50.8974 40.5643 51.2443 40.3558 51.5823L40.3504 51.5396C40.3682 51.9114 40.2898 52.2262 40.1579 52.5215C40.0581 52.8186 39.9013 53.0926 39.7266 53.3648C39.7338 53.6067 39.7855 53.8397 39.7427 54.0834C39.6536 54.5317 39.6536 54.9996 39.5983 55.455C39.5538 55.9122 39.5003 56.3676 39.5306 56.8266C39.5377 57.1699 39.5609 57.5133 39.5965 57.8406C39.5431 57.805 39.486 57.7837 39.4237 57.7979C39.2775 57.8281 39.1403 57.9366 38.9639 58.0292C39.1011 58.6518 39.2419 59.1819 39.1029 59.7245C38.9639 60.3685 39.2882 61.1672 39.1332 61.7987C39.4967 64.3159 40.174 66.8741 41.6265 69.0355C41.7209 69.1778 41.8082 69.3397 41.8813 69.4962C42.7546 71.1222 43.8417 72.677 45.2995 73.8315C45.4243 73.9365 45.533 74.0841 45.6471 74.2104C45.7504 74.1784 45.8431 74.1517 45.934 74.1233C46.2887 74.4951 46.7859 74.7317 46.6986 75.0821C46.6576 75.2493 46.9873 75.5784 47.1798 75.614C47.6877 75.6958 47.857 76.057 48.1956 76.3096C48.6126 76.6138 49.0297 76.9198 49.493 77.1564C49.9475 77.4054 50.3913 77.6776 50.86 77.9L52.2982 78.5048C52.5352 78.6151 52.7847 78.688 53.036 78.7592L53.7863 78.9798C54.5188 79.2306 55.2869 79.3302 56.0408 79.4601L56.604 79.5544C56.7929 79.5739 56.9818 79.5793 57.1707 79.5917C57.5467 79.6131 57.921 79.6326 58.2899 79.6522C58.4895 79.5953 58.6713 79.5526 58.8442 79.4939C59.017 79.4263 59.1846 79.3622 59.3574 79.2946C59.7531 79.3124 60.2842 79.2626 60.5194 79.3587C60.8473 79.5028 61.1949 79.5135 61.5549 79.4814C61.9149 79.453 62.2873 79.38 62.6652 79.3142C62.9575 79.2733 63.2426 79.1879 63.5278 79.1061C63.8129 79.026 64.0981 78.9478 64.3832 78.8784C67.0654 78.1846 69.5462 76.8486 71.7454 75.1835C72.772 74.4025 73.6737 73.4597 74.5007 72.4724C74.948 72.0028 75.3044 71.4602 75.6912 70.9443C76.094 70.4373 76.4076 69.8698 76.7355 69.3148C77.1169 68.7206 77.3486 68.0357 77.6854 67.4415C77.8173 67.1943 77.967 66.9541 78.0686 66.6944C78.172 66.4347 78.27 66.1749 78.3627 65.9134C78.5498 65.3904 78.7423 64.8692 78.8421 64.3195C78.9544 63.7751 79.1041 63.2397 79.1825 62.6918L79.375 61.0445C79.4195 60.7029 79.4053 60.3311 79.3696 60.0233C79.3286 59.7369 79.2146 59.5146 79.1041 59.1855C79.2591 59.0983 79.35 58.9417 79.4035 58.7461V58.7389ZM66.9905 40.7876C67.0208 40.8036 67.0404 40.8339 67.0636 40.8588L66.8783 40.7556C66.9157 40.7663 66.9585 40.7698 66.9905 40.7876ZM43.1627 46.6991C43.1253 46.7578 43.0878 46.8165 43.0469 46.8734C43.0344 46.8894 43.0023 46.893 42.9791 46.9018C43.0397 46.8342 43.1021 46.7667 43.1627 46.6973V46.6991ZM39.6963 63.6559L39.6429 63.5368L39.6518 63.414L39.7142 63.4745L39.6963 63.6577V63.6559ZM43.0486 70.9478V70.7966C43.1092 70.8767 43.1716 70.955 43.2251 71.0386C43.2429 71.0688 43.2358 71.1115 43.2393 71.1489L43.0504 70.9478H43.0486ZM49.7782 77.0229L49.8013 76.9785L49.8905 77.0532L49.7782 77.0212V77.0229ZM75.2741 71.1204L75.3401 71.0101L75.3615 71.0475L75.2741 71.1204ZM79.0559 60.7011L79.0417 60.5588L79.0987 60.5802L79.0559 60.7011ZM79.1593 58.2835L79.0898 58.1377L79.1344 58.0505L79.1771 58.1608L79.1593 58.2835Z" fill="#4C9DBE"/>
</g>
<g id="Group_4">
<path id="Vector_7" d="M43.3571 54.4783C43.3571 54.4783 43.3624 54.4694 43.366 54.464C43.366 54.464 43.366 54.4622 43.366 54.4604L43.3588 54.4765L43.3571 54.4783Z" fill="white"/>
<path id="Vector_8" d="M75.6271 58.8331C75.6574 58.673 75.6485 58.4809 75.6289 58.2799L75.5309 57.2285C75.4899 56.8799 75.4097 56.5347 75.3509 56.1878C75.2528 55.4905 75.0301 54.8198 74.8305 54.1527C74.7538 53.8592 74.6184 53.5853 74.5097 53.3024L74.1693 52.4627C73.9019 51.9219 73.6328 51.3829 73.3637 50.8403C73.1427 50.465 72.9128 50.1323 72.617 49.9704C72.2908 49.773 72.0039 49.4225 71.7704 49.0205C71.5869 48.7127 71.4318 48.3943 71.2073 48.1132C71.0522 47.9033 70.8829 47.6738 70.6958 47.5048C70.5532 47.3785 70.3679 47.3625 70.2182 47.2522C70.0792 47.1419 70.0007 46.9267 69.8564 46.7932C69.7744 46.7185 69.6193 46.7203 69.4982 46.6883C69.2273 46.3076 69.0669 46.1404 68.91 45.9981C68.7532 45.854 68.5946 45.7383 68.2756 45.5106C66.7482 44.4877 65.0534 43.7317 63.289 43.2727C62.9379 43.1909 62.5779 43.093 62.2518 43.134C62.1627 43.1375 61.931 43.1197 61.8864 43.0895C61.653 42.9205 61.3571 42.844 61.0488 42.796C60.8955 42.7728 60.7387 42.7568 60.5837 42.739C60.4268 42.7319 60.2736 42.7266 60.1239 42.7195C59.4662 42.6732 58.805 42.6145 58.1456 42.675C57.8159 42.6946 57.4844 42.7034 57.1547 42.7319L56.171 42.8778C56.0498 43.0361 55.9054 43.1589 55.7183 43.2282C55.5329 43.3065 55.3084 43.3545 55.0143 43.335L55.05 43.3421C54.7773 43.3243 54.4939 43.3634 54.2106 43.4221C53.9272 43.4844 53.6563 43.6072 53.3801 43.6925C53.2268 43.7424 53.0343 43.8455 52.9541 43.9291C52.6832 44.1924 52.3072 44.3721 51.9543 44.4272C51.7262 44.4664 51.5141 44.5322 51.3163 44.6176C51.1202 44.7065 50.9527 44.8435 50.7905 44.9823C50.5286 45.2207 50.2327 45.4128 49.9404 45.612C49.6589 45.8291 49.3684 46.0336 49.0832 46.2435C48.2723 46.8715 47.5113 47.5635 46.8163 48.3231C46.5917 48.5366 46.3992 48.775 46.1907 49.0045C46.1889 49.008 46.1854 49.0116 46.1836 49.0151C45.9448 49.2002 45.6846 49.3834 45.5759 49.7374C45.4547 50.2195 45.1642 50.6375 44.8844 51.0876C44.8559 51.0378 44.8291 51.0093 44.8167 50.9649C44.8095 50.9417 44.8398 50.8866 44.8416 50.8564C44.8416 50.8421 44.8113 50.8528 44.7846 50.851C44.699 50.9987 44.5671 51.2068 44.56 51.3082C44.544 51.632 44.4531 51.9184 44.3159 52.1906C44.1768 52.4627 44.0467 52.7438 43.8774 53.0195L43.8721 52.984C43.8864 53.2864 43.8222 53.5426 43.7153 53.7809C43.6333 54.0229 43.5067 54.2452 43.3642 54.4676C43.3713 54.6651 43.4123 54.8536 43.3766 55.0529C43.3036 55.4176 43.3036 55.7983 43.259 56.1683C43.2234 56.5401 43.1806 56.9101 43.2038 57.2837C43.2091 57.563 43.2287 57.8423 43.2572 58.1073C43.2145 58.0789 43.1681 58.0611 43.1164 58.0718C42.9988 58.0967 42.8848 58.1838 42.7422 58.2603C42.8527 58.7673 42.9685 59.1978 42.8562 59.639C42.744 60.1638 43.0077 60.8131 42.8812 61.3254C43.177 63.373 43.7277 65.4526 44.9093 67.2084C44.986 67.324 45.0572 67.4557 45.1178 67.582C45.8272 68.9055 46.7129 70.1668 47.8981 71.1079C47.9996 71.1932 48.0887 71.3124 48.1814 71.4156C48.2652 71.3907 48.34 71.3676 48.4149 71.3444C48.7036 71.6469 49.1064 71.839 49.0369 72.1254C49.003 72.2624 49.2721 72.5292 49.429 72.5577C49.8424 72.6235 49.9797 72.9188 50.2541 73.1234C50.5927 73.3707 50.9331 73.6197 51.3092 73.8119C51.6781 74.0147 52.0399 74.2352 52.4195 74.4167L53.5886 74.9095C53.7811 74.9984 53.9842 75.0571 54.1874 75.1158L54.7969 75.2955C55.3922 75.5001 56.0177 75.5801 56.6308 75.6851L57.0888 75.7616C57.2421 75.7776 57.3953 75.7811 57.5486 75.7918C57.8551 75.8078 58.1581 75.8256 58.4593 75.8416C58.6215 75.7954 58.7694 75.7598 58.9102 75.7118C59.051 75.6566 59.1864 75.605 59.3272 75.5499C59.6498 75.5641 60.0811 75.525 60.2736 75.6015C60.5391 75.7189 60.8225 75.7278 61.1148 75.7011C61.407 75.678 61.71 75.6193 62.0183 75.5641C62.2571 75.5303 62.487 75.4609 62.7187 75.3951C62.9504 75.3293 63.1821 75.267 63.4156 75.2101C65.597 74.6462 67.6144 73.5592 69.4019 72.2072C70.236 71.5722 70.9702 70.8054 71.6421 70.0031C72.0057 69.6224 72.2944 69.1813 72.6099 68.7596C72.936 68.3469 73.1926 67.8862 73.46 67.4343C73.7701 66.9522 73.959 66.3954 74.2316 65.9116C74.3386 65.7105 74.4616 65.5149 74.5435 65.3049C74.6273 65.095 74.7075 64.8815 74.7841 64.6699C74.9356 64.2447 75.0924 63.8195 75.1744 63.373C75.2653 62.93 75.3865 62.4942 75.4507 62.0495L75.6075 60.7099C75.6449 60.4324 75.6324 60.13 75.6021 59.8792C75.5683 59.6461 75.4756 59.4647 75.3865 59.1978C75.5113 59.1267 75.5861 59.0004 75.6307 58.8403L75.6271 58.8331ZM65.5328 44.2369C65.5577 44.2511 65.5738 44.2743 65.5934 44.2938L65.4419 44.2102C65.4722 44.2191 65.5061 44.2227 65.5328 44.2369ZM46.1586 49.0436C46.1283 49.0916 46.098 49.1397 46.0642 49.1859C46.0553 49.1984 46.0285 49.2019 46.0089 49.209C46.0588 49.1539 46.1087 49.0988 46.1586 49.0436ZM43.341 62.8304L43.2982 62.7326L43.3054 62.633L43.3553 62.6828L43.341 62.8304ZM46.066 68.7596V68.6369C46.1159 68.7027 46.1658 68.765 46.2085 68.8326C46.2228 68.8575 46.2175 68.8913 46.2192 68.9215L46.066 68.7579V68.7596ZM51.5373 73.6998L51.5569 73.6642L51.63 73.7247L51.5373 73.6998ZM72.2677 68.902L72.3211 68.813L72.339 68.8433L72.2677 68.902ZM75.342 60.4289L75.3313 60.3132L75.3776 60.331L75.342 60.4289ZM75.4257 58.4631L75.3687 58.3439L75.4061 58.2745L75.4418 58.3635L75.4275 58.4631H75.4257Z" fill="white"/>
</g>
<g id="Group_5">
<path id="Vector_9" d="M49.8762 56.7535C49.8762 56.7535 49.8798 56.7481 49.8816 56.7463L49.878 56.7553L49.8762 56.7535Z" fill="black"/>
<path id="Vector_10" d="M67.7159 59.1622C67.7338 59.0732 67.7284 58.9682 67.7159 58.8562L67.6625 58.2745C67.6393 58.0805 67.5948 57.8902 67.5627 57.6999C67.5092 57.3138 67.3862 56.9438 67.2757 56.5738C67.233 56.4119 67.1581 56.2589 67.0975 56.1041L66.9086 55.6398C66.7607 55.341 66.6128 55.0421 66.4631 54.7433C66.3401 54.5351 66.2136 54.3519 66.0496 54.2612C65.8696 54.1526 65.711 53.9587 65.5809 53.7364C65.4793 53.5656 65.3938 53.3895 65.269 53.2347C65.1835 53.1191 65.089 52.991 64.9856 52.8985C64.9072 52.8291 64.8039 52.8202 64.7219 52.758C64.6452 52.6975 64.6007 52.5783 64.5223 52.5036C64.4777 52.4626 64.3904 52.4626 64.3244 52.4466C64.1747 52.2367 64.0856 52.1442 64.0001 52.0642C63.9128 51.9841 63.8254 51.9201 63.649 51.7955C62.8042 51.2298 61.8686 50.8118 60.892 50.5592C60.6977 50.5147 60.4999 50.4596 60.3181 50.4827C60.27 50.4845 60.1417 50.4756 60.1167 50.4578C59.9866 50.3653 59.8244 50.3226 59.6533 50.2959C59.5678 50.2834 59.4822 50.2745 59.3949 50.2639C59.3076 50.2603 59.2238 50.2568 59.1401 50.2532C58.7765 50.2283 58.4112 50.1963 58.0458 50.2283C57.864 50.239 57.6805 50.2443 57.4987 50.2603L56.9551 50.3404C56.8874 50.4275 56.809 50.4951 56.7038 50.5343C56.6005 50.577 56.4775 50.6054 56.3153 50.593L56.3349 50.5965C56.1834 50.5876 56.0284 50.609 55.8715 50.641C55.7147 50.6748 55.565 50.7424 55.4117 50.7904C55.3262 50.8189 55.2193 50.874 55.1765 50.9203C55.0268 51.0662 54.8183 51.1658 54.624 51.196C54.4975 51.2174 54.3798 51.253 54.2711 51.301C54.1624 51.349 54.0697 51.4255 53.9806 51.502C53.8345 51.6337 53.6723 51.7404 53.5101 51.8507C53.3551 51.9699 53.1929 52.0837 53.0361 52.1994C52.5887 52.5463 52.1664 52.9287 51.7832 53.3486C51.6584 53.466 51.5515 53.5976 51.4375 53.7239C51.4375 53.7257 51.4339 53.7275 51.4339 53.731C51.302 53.8342 51.1577 53.9356 51.0988 54.1295C51.0311 54.3964 50.8725 54.6276 50.7157 54.8749C50.6996 54.8482 50.6854 54.8322 50.6782 54.8073C50.6747 54.7948 50.6907 54.7646 50.6925 54.7468C50.6925 54.7397 50.6765 54.745 50.6604 54.7433C50.6141 54.8251 50.541 54.9389 50.5357 54.9959C50.5268 55.1755 50.4769 55.3321 50.4002 55.4833C50.3236 55.6327 50.2523 55.7893 50.1578 55.9405L50.1543 55.9209C50.1614 56.0881 50.1275 56.2304 50.067 56.3621C50.0224 56.4955 49.9511 56.6183 49.8727 56.741C49.8763 56.8495 49.8994 56.9545 49.8798 57.0648C49.8406 57.2658 49.8406 57.4775 49.8157 57.6821C49.7961 57.8884 49.7711 58.093 49.7854 58.2994C49.7889 58.4541 49.7996 58.6071 49.8157 58.7548C49.7925 58.7388 49.7658 58.7299 49.7372 58.7352C49.6713 58.7494 49.6089 58.7975 49.5305 58.8402C49.5911 59.1195 49.6553 59.3578 49.5929 59.6016C49.5305 59.8915 49.6767 60.2509 49.6072 60.5337C49.7711 61.6651 50.0759 62.8143 50.7281 63.7856C50.7709 63.8497 50.8101 63.9226 50.8422 63.992C51.2343 64.7231 51.7244 65.4223 52.3784 65.9399C52.4337 65.988 52.4836 66.0538 52.5353 66.1107C52.5816 66.0965 52.6226 66.084 52.6636 66.0716C52.824 66.2388 53.0468 66.3455 53.0076 66.5021C52.9897 66.5768 53.1377 66.7244 53.225 66.7405C53.4531 66.7778 53.5297 66.9397 53.6812 67.0535C53.8684 67.1905 54.0555 67.3275 54.264 67.4342C54.469 67.5463 54.6668 67.6691 54.8789 67.7687L55.5258 68.0409C55.6327 68.0907 55.745 68.1227 55.8573 68.1547L56.1941 68.2543C56.5238 68.3664 56.8696 68.4109 57.2082 68.4696L57.4612 68.5123C57.5468 68.5212 57.6306 68.523 57.7161 68.5283C57.8854 68.5372 58.0529 68.5461 58.2187 68.555C58.3078 68.5301 58.3898 68.5105 58.4682 68.4838C58.5448 68.4536 58.6214 68.4251 58.6999 68.3949C58.8781 68.402 59.1169 68.3806 59.222 68.4233C59.37 68.4874 59.525 68.4927 59.6872 68.4785C59.8494 68.466 60.0169 68.434 60.1862 68.4038C60.3181 68.386 60.4464 68.3468 60.5729 68.3095C60.7013 68.2739 60.8296 68.2383 60.9579 68.2081C62.1644 67.8968 63.2783 67.2955 64.2674 66.5483C64.729 66.1979 65.1353 65.7727 65.506 65.3297C65.7074 65.1198 65.8678 64.8743 66.0407 64.6431C66.2207 64.4154 66.3633 64.161 66.5094 63.9102C66.6805 63.6433 66.7856 63.3356 66.9354 63.0687C66.9942 62.9566 67.0619 62.8499 67.1082 62.7325C67.1546 62.6169 67.1991 62.4995 67.2401 62.382C67.3239 62.1472 67.4112 61.9124 67.4558 61.6651C67.5057 61.4196 67.5734 61.1795 67.609 60.9322L67.6963 60.1922C67.716 60.0392 67.7106 59.8719 67.6928 59.7332C67.675 59.6033 67.6233 59.5037 67.5734 59.3561C67.6429 59.3169 67.6839 59.2475 67.7088 59.1586L67.7159 59.1622ZM62.1359 51.0929C62.1502 51.1 62.1591 51.1142 62.1698 51.1249L62.086 51.0786C62.1038 51.084 62.1217 51.0857 62.1359 51.0929ZM51.425 53.7506C51.4072 53.7773 51.3911 53.804 51.3733 53.8289C51.368 53.836 51.3537 53.8378 51.343 53.8413C51.3697 53.8111 51.3982 53.7808 51.4268 53.7506H51.425ZM49.8673 61.3734L49.8442 61.32L49.8477 61.2649L49.8763 61.2915L49.8691 61.3734H49.8673ZM51.3733 64.652V64.5844C51.4 64.6199 51.4285 64.6555 51.4517 64.6929C51.4606 64.7053 51.4553 64.7249 51.4571 64.7427L51.3715 64.652H51.3733ZM54.3977 67.3827L54.4084 67.3631L54.4493 67.3969L54.3994 67.3827H54.3977ZM65.8589 64.7302L65.8892 64.6804L65.8981 64.6964L65.8589 64.7285V64.7302ZM67.5591 60.0463L67.5538 59.9822L67.5787 59.9929L67.5591 60.0463ZM67.6055 58.9593L67.5734 58.8935L67.593 58.8544L67.6126 58.9042L67.6037 58.9593H67.6055Z" fill="black"/>
</g>
</g>
<g id="Group_6">
<g id="Group_7">
<path id="Vector_11" d="M38.2796 4.38312C38.4596 5.59992 38.6699 6.81494 38.9462 8.01039C39.381 9.88539 39.9157 11.7266 40.4771 13.5607L41.3361 16.3074L41.4644 16.7094L41.4929 16.7859L41.5446 16.9407C41.6426 17.2627 41.7959 17.5704 42.2539 17.7875C42.3751 17.8444 42.5373 17.8889 42.7137 17.9298C42.7636 17.9405 42.9311 17.9102 43.1379 17.8906C43.2216 17.8035 43.2947 17.7465 43.3197 17.6985C43.4462 17.4708 43.3642 17.2947 43.8454 16.9816C43.8811 16.9585 43.8579 16.9442 43.8597 16.9265C43.8793 16.7165 43.922 16.4995 43.9096 16.2985C43.9042 16.222 43.8846 16.1508 43.7902 16.1028C43.767 16.0904 43.7385 16.0815 43.7046 16.0726C43.6868 16.069 43.669 16.0654 43.6494 16.0619C43.6298 16.0566 43.6137 16.0779 43.5656 15.9854C43.4052 15.7239 43.2181 15.4802 43.0007 15.2631C42.7476 15.0088 42.5801 14.5889 42.8189 14.1726C43.0862 13.7066 42.9793 13.2191 42.5694 12.6943C41.869 11.796 41.541 10.6165 41.5303 9.47624C41.5214 8.60633 41.4305 7.96236 40.8995 7.3415C40.7052 7.11558 40.625 6.70464 40.4593 6.41112C40.142 5.85075 40.6375 5.74935 40.6606 5.26903C39.9816 4.4863 39.406 3.44028 38.3082 2.63086C38.2868 3.41893 38.2101 3.90814 38.2814 4.3849L38.2796 4.38312ZM43.3321 16.5369C43.3375 16.512 43.35 16.4871 43.3607 16.4622C43.3892 16.4568 43.4409 16.4444 43.4409 16.4444C43.4462 16.4657 43.4409 16.4888 43.4409 16.512C43.3892 16.5244 43.3321 16.5386 43.3321 16.5386V16.5369Z" fill="#BAA360"/>
<path id="Vector_12" d="M46.5971 7.66725C47.1959 8.40907 47.6308 9.22738 47.1745 10.2272C46.8965 10.8462 47.6468 11.4066 47.3795 12.0168C47.3563 12.0701 47.588 12.5042 47.7377 12.6483C48.1636 13.0575 48.2813 13.6107 48.0977 14.1053C47.9943 14.3828 47.9426 14.6727 47.9302 14.9698C47.932 15.073 47.9124 15.0516 47.9034 15.0677C47.8927 15.0783 47.8838 15.089 47.8767 15.0979C47.8625 15.1175 47.8571 15.137 47.8571 15.1548C47.8696 15.3381 47.9034 15.516 47.9961 15.6832C48.03 15.7454 48.0549 15.8184 48.3668 15.8148C47.9159 15.9696 48.3793 15.9376 48.4898 15.9767C48.545 15.9963 48.5504 16.0301 48.5753 16.0568C48.6627 16.1528 48.7357 16.2524 48.8409 16.3449C48.8747 16.3752 48.987 16.3876 49.1064 16.4197C49.2918 16.3467 49.4433 16.3022 49.4896 16.2667C49.6143 16.1759 49.7248 16.0852 49.7836 16.0034C50.01 15.6885 50.1419 15.3914 50.1151 15.1228C50.1062 15.0356 50.1009 14.9467 50.0973 14.8595L50.092 14.7279V14.6621L50.0884 14.646L50.0688 14.5108L50.026 14.2173C49.7943 12.6536 49.5591 11.0882 49.2918 9.5298C48.9175 7.33814 48.3828 5.17495 47.8749 3.0242C47.6825 2.20411 47.4062 1.41604 46.7272 0.912598C46.3512 1.91592 46.091 2.87122 45.9787 3.903C45.911 4.53275 46.4331 4.41178 46.6114 4.93835C46.5632 5.48982 46.4919 6.16582 46.4688 6.85071C46.4599 7.11044 46.5508 7.39685 46.5971 7.67081V7.66547V7.66725ZM48.2421 15.0232C48.2421 15.0232 48.2813 15.0143 48.3027 15.0107C48.292 15.0196 48.2795 15.0285 48.251 15.0516C48.2438 15.0356 48.2367 15.0303 48.2403 15.025L48.2421 15.0232Z" fill="#BAA360"/>
<path id="Vector_13" d="M33.7653 13.2672C33.0863 12.8866 33.4855 11.8672 32.9081 11.4278C33.015 10.1434 32.2558 9.05293 32.0954 7.8219C32.0401 7.37894 32.0009 6.9342 31.9457 6.36138C32.5801 6.35605 32.8867 6.73318 33.1094 7.20816C33.8401 8.76296 34.6083 10.3089 35.2392 11.9206C35.9734 13.8205 36.7059 15.7169 37.4384 17.6132L37.6968 18.2803C37.7378 18.3906 37.7752 18.5009 37.8091 18.613C37.8732 18.8264 37.7716 19.1004 37.7431 19.3477C37.7414 19.3637 37.7182 19.3886 37.7021 19.4099C37.6006 19.5505 37.3849 19.6803 37.1265 19.7533C36.7718 19.8547 36.7237 19.8209 36.7202 19.7604C36.7184 19.723 36.656 19.6999 36.533 19.7141C35.9093 19.8013 35.8522 19.6483 35.7079 19.5274C35.6009 19.4402 35.5225 19.3406 35.5582 19.1965C35.5796 19.1075 35.5831 19.0257 35.5742 18.9492C35.5706 18.9101 35.5635 18.8745 35.5546 18.8371L35.5403 18.782L35.3728 18.3515C34.9077 17.1685 34.4336 15.9908 34.0237 14.7847C33.8597 14.3026 33.8401 13.7689 33.7564 13.2584C33.7724 13.3722 33.7724 13.4878 33.8063 13.5928C33.8223 13.6444 33.899 13.6746 33.9489 13.7155C33.9203 13.6675 33.8847 13.623 33.8651 13.5714C33.8277 13.47 33.7974 13.3669 33.7653 13.2637V13.2672Z" fill="#BAA360"/>
<path id="Vector_14" d="M19.3599 28.929C19.2708 28.8578 19.3403 28.7066 19.1264 28.7831C18.4474 29.0304 18.6203 28.696 18.451 28.5946C18.3119 28.5127 18.2513 28.3757 18.1711 28.253C18.1195 28.1765 18.0749 28.1089 18.0357 28.0502C17.9805 27.9648 17.9323 27.8883 17.8878 27.8172C17.8022 27.6766 17.7434 27.5574 17.6953 27.4276C17.6009 27.1696 17.5581 26.8743 17.4654 26.273C17.2444 26.0827 17.0252 25.8479 16.7704 25.6842C16.3854 25.4387 16.1804 25.0847 16.1448 24.6257C16.0824 23.8181 15.7206 23.1634 15.2894 22.5284C14.7351 21.7118 14.4036 20.7725 14.4321 19.5166C14.6513 19.6269 14.8456 19.6625 14.965 19.7959C16.3551 21.3543 17.6828 23.0371 18.9411 24.7912C19.2529 25.2359 19.563 25.6789 19.8731 26.12L20.3294 26.7925L20.3953 26.8814C20.4773 27.0006 20.5415 27.1323 20.5896 27.2746C20.6484 27.4507 20.4826 27.7656 20.3686 28.0449C20.3329 28.1338 20.1619 28.3046 19.9836 28.4682C19.8945 28.5501 19.6557 28.712 19.3617 28.9254L19.3599 28.929Z" fill="#BAA360"/>
<path id="Vector_15" d="M54.3763 -0.000104221C54.9572 0.113748 55.0767 0.711473 55.1569 1.22737C55.4883 3.371 55.7877 5.5253 56.0052 7.68849C56.0729 8.36983 55.9232 9.08496 55.8537 10.1701C56.203 10.9262 56.3206 12.1697 56.383 13.4701L56.4062 13.9379L56.4133 14.0429L56.4276 14.1461L56.4685 14.3524C56.4988 14.4894 56.5327 14.6282 56.5559 14.7651C56.5951 15.0088 56.5077 15.2454 55.9089 15.4909C55.827 15.5283 55.7075 15.5657 55.6309 15.5941C55.2174 15.651 55.0107 15.6244 54.918 15.5799C54.779 15.5158 54.7149 15.4394 54.6311 15.3682C54.3103 15.0925 54.4137 14.7776 54.4066 14.4752L54.403 14.1656C54.346 13.326 54.2871 12.4845 54.2301 11.6431C54.1089 9.79476 54.0038 7.94466 53.9289 6.09456C53.8523 4.25335 54.0234 2.41037 54.1321 0.567379C54.1446 0.364579 54.2925 0.181348 54.3763 -0.00366211V-0.000104221Z" fill="#BAA360"/>
<path id="Vector_16" d="M25.5655 10.8284C26.0948 10.8266 26.3051 11.3781 26.5813 11.7783C27.5259 13.1552 28.3885 14.6051 29.1958 16.094C29.6004 16.8394 29.9907 17.5937 30.3703 18.3569L30.9334 19.5043L31.4503 20.5877C31.518 20.7371 31.5554 20.9008 31.6909 21.0199C31.8798 21.1854 31.8156 21.4629 31.7497 21.7386C31.7336 21.8027 31.6267 21.9094 31.5109 22.0126C31.4004 22.1069 30.9905 22.3168 30.8657 22.3257C30.5271 22.3577 30.1617 22.4057 30.0388 22.315C29.7786 22.1247 29.6877 21.8507 29.6556 21.5483C29.6538 21.5287 29.6485 21.5109 29.6414 21.4949L29.5522 21.3188L29.1441 20.5076C28.8839 19.9615 28.6594 19.4011 28.5685 18.7856C28.5435 18.613 28.433 18.4191 28.3243 18.275C26.9788 16.5281 26.6009 14.2813 25.6261 12.3227C25.4087 11.8904 25.2786 11.3283 25.5637 10.8284H25.5655Z" fill="#BAA360"/>
<path id="Vector_17" d="M10.5434 25.4458C10.8 25.6255 11.0424 25.7304 11.2099 25.9243C12.2258 27.0984 13.2506 28.2921 14.2165 29.5463C14.4589 29.8594 14.6959 30.176 14.9294 30.4962C14.9971 30.5923 14.9989 30.6119 15.0274 30.6795C15.0702 30.7933 15.0898 30.9249 15.0791 31.0779C15.0666 31.2576 14.8385 31.5885 14.6977 31.8553C14.6781 31.8945 14.6193 31.9639 14.5337 32.0386C14.3876 32.1649 14.2094 32.3161 14.0383 32.4388C13.9224 32.5224 13.73 32.6345 13.6925 32.6363C13.5054 32.647 13.2987 32.6701 13.4608 32.4121C13.5125 32.3321 13.5713 32.2574 13.4377 32.3143C13.0545 32.478 13.1329 32.2858 13.2666 32.0492C13.3486 31.9051 13.4252 31.7611 13.4876 31.633C13.5107 31.633 13.468 31.5476 13.4448 31.4924C13.4163 31.4337 13.3842 31.3786 13.345 31.327C13.2648 31.2274 13.1561 31.1509 12.9921 31.126C12.8816 31.1082 12.7195 30.9854 12.723 30.8983C12.7569 30.0462 12.1331 29.5712 11.6769 29.0962C10.9034 28.2886 10.6325 27.2479 10.4383 26.024C10.4187 25.8923 10.4899 25.7215 10.5434 25.4458Z" fill="#BAA360"/>
<path id="Vector_18" d="M24.5711 25.663C24.5283 25.5918 24.5639 25.5331 24.4909 25.5456C23.5891 25.7074 24.1558 25.0243 23.8742 24.8304C24.0257 24.6828 24.0667 24.5956 24.0667 24.5298C24.0631 24.5067 24.072 24.5138 24.0507 24.4693L23.8849 24.1722C23.7744 23.9748 23.6639 23.7773 23.5516 23.5763C23.4697 23.4215 23.3806 23.2312 23.3823 23.0764C23.4108 21.5892 22.7425 20.2194 22.0136 18.8941C21.4059 17.7858 20.8891 16.6419 20.5558 15.3825C20.497 15.1601 20.5273 14.9128 20.5112 14.5659C21.2312 14.9004 21.5716 15.5586 21.8996 16.1403C22.6534 17.4798 23.3378 18.8674 24.0471 20.2319C24.5087 21.1124 24.9685 21.9895 25.4301 22.87L25.7616 23.5087L25.7829 23.603C25.7954 23.667 25.8061 23.7328 25.8115 23.8004C25.8346 24.0975 25.8934 24.3768 25.4621 24.9123C25.3873 25.0048 25.3374 25.0866 25.2126 25.2004C25.1217 25.2841 24.9239 25.4104 24.5711 25.663Z" fill="#BAA360"/>
<path id="Vector_19" d="M5.50158 31.0799C6.08614 31.0301 6.3998 31.3307 6.72416 31.5994C7.31941 32.0957 7.8808 32.6632 8.41902 33.2609C8.68813 33.5598 8.95189 33.8657 9.21209 34.1735L9.60061 34.6396L9.70041 34.7659C9.80913 34.9064 9.86616 35.0879 9.94992 35.2498C9.99804 35.3423 9.89645 35.5451 9.7218 35.7959C9.65586 35.8884 9.47764 36.0574 9.27269 36.2744C9.20853 36.2655 9.15685 36.2744 9.14794 36.2531C9.10873 36.1499 8.95368 36.1446 8.68991 36.2442C8.37625 36.3616 8.39585 36.3403 8.74516 35.8973C8.65962 35.8493 8.58298 35.7977 8.49209 35.7585C8.46179 35.7443 8.43862 35.7408 8.34239 35.7746C7.51011 35.7016 7.30337 35.0808 7.08416 34.419C6.94872 34.0081 6.78475 33.6878 6.47644 33.3908C6.07366 33.003 5.83307 32.3732 5.54257 31.7968C5.4695 31.651 5.51762 31.3859 5.50158 31.0799Z" fill="#BAA360"/>
<path id="Vector_20" d="M4.99725 39.7558C5.03646 39.5655 5.06498 39.3823 5.0026 39.2791C4.94913 39.1901 4.87963 39.1154 4.80478 39.046L4.72814 38.9749L4.51072 38.7543L4.07765 38.3113L2.85507 37.059C2.69467 36.8971 2.52358 36.7103 2.1814 36.986C2.17071 37.1692 2.12259 37.3881 2.15467 37.493C2.24556 37.7901 2.31506 38.1067 2.47189 38.2704C2.84794 38.6636 3.15982 39.1581 3.13843 39.8643C3.13487 40.0067 3.16338 40.1134 3.22754 40.1828C3.28279 40.2415 3.41824 40.3109 3.48952 40.2361C3.87982 40.0173 3.80141 40.2468 3.74794 40.4478C3.7123 40.5919 3.68735 40.7271 3.69982 40.825C3.70339 40.8588 3.81745 40.8214 3.91368 40.736C4.30755 40.398 4.30755 40.4976 4.54814 40.3251C4.88854 39.9942 4.97943 39.8412 4.99547 39.7594L4.99725 39.7558ZM3.42002 39.9586L3.47348 39.9622L3.40933 40.0209L3.42002 39.9586Z" fill="#BAA360"/>
</g>
<g id="Group_8">
<path id="Vector_21" d="M107.894 24.6773C107.354 25.1344 106.816 25.6219 106.316 26.1627C105.532 27.0112 104.807 27.9363 104.103 28.8809L103.06 30.3058L102.795 30.6848C102.633 30.9 102.517 31.1526 102.665 31.5867C102.704 31.7023 102.781 31.8428 102.87 31.9887C102.895 32.0296 103.025 32.1399 103.176 32.284C103.29 32.3071 103.378 32.3356 103.428 32.3356C103.665 32.3321 103.734 32.188 104.253 32.4174C104.292 32.4352 104.285 32.4103 104.297 32.405C104.449 32.3303 104.62 32.2698 104.745 32.1755C104.791 32.1399 104.827 32.0937 104.796 32.0012C104.789 31.978 104.778 31.9514 104.762 31.9229L104.736 31.8766C104.727 31.8589 104.707 31.8517 104.723 31.7948C104.755 31.6098 104.766 31.4106 104.741 31.1971C104.713 30.948 104.835 30.7114 105.21 30.7755C105.623 30.852 105.805 30.651 105.834 30.208C105.882 29.4519 106.324 28.8916 106.896 28.5963C107.331 28.3739 107.594 28.1498 107.639 27.5698C107.655 27.3599 107.819 27.1945 107.883 26.9881C108.008 26.5932 108.295 26.9739 108.534 26.8814C108.599 26.1324 108.842 25.412 108.783 24.2734C108.386 24.4442 108.106 24.4994 107.894 24.6773ZM104.217 31.8393C104.237 31.834 104.262 31.8304 104.285 31.8268C104.306 31.8446 104.345 31.8766 104.349 31.8802C104.338 31.8927 104.32 31.8998 104.304 31.9087C104.263 31.8749 104.217 31.8393 104.217 31.8393Z" fill="#BAA360"/>
<path id="Vector_22" d="M110.421 32.1115C110.439 32.7217 110.38 33.202 109.713 33.0633C109.294 32.985 109.515 33.6521 109.1 33.5827C109.063 33.5774 109.027 33.8371 109.063 33.9741C109.164 34.3654 109.024 34.5593 108.692 34.5344C108.507 34.5202 108.346 34.5451 108.209 34.6003C108.106 34.6145 108.09 34.5825 108.063 34.6074C107.961 34.691 107.878 34.7906 107.84 34.9258C107.826 34.9756 107.797 35.0237 108.013 35.2496C107.614 34.9863 107.949 35.3083 108.001 35.4061C108.027 35.4542 108.01 35.4719 108.011 35.5004C108.013 35.6036 108.006 35.6979 108.024 35.8099C108.029 35.8455 108.1 35.9327 108.165 36.0323C108.336 36.1373 108.468 36.228 108.521 36.2476C108.66 36.3009 108.788 36.3454 108.877 36.3543C109.211 36.3952 109.467 36.3739 109.601 36.2458C109.644 36.2049 109.69 36.1657 109.736 36.1266L109.808 36.0697L109.843 36.0412L109.852 36.0341L109.89 35.9932L109.97 35.9078C110.394 35.4488 110.813 34.9881 111.21 34.506C111.768 33.8282 112.24 33.0312 112.752 32.2432C112.946 31.9443 113.094 31.5814 112.991 30.9392C112.488 30.8147 112.027 30.7791 111.583 30.8876C111.312 30.9552 111.597 31.3484 111.485 31.5903C111.255 31.6579 110.961 31.7308 110.681 31.8482C110.574 31.8927 110.508 32.0208 110.424 32.1097H110.426L110.421 32.1115ZM108.398 34.8351C108.398 34.8351 108.43 34.86 108.446 34.8742C108.434 34.8689 108.419 34.8653 108.389 34.8529C108.393 34.8404 108.393 34.8351 108.398 34.8351Z" fill="#BAA360"/>
<path id="Vector_23" d="M100.503 23.496C100.401 22.7916 101.275 22.7827 101.266 22.1405C102.15 21.8043 102.474 20.7867 103.173 20.2495C103.422 20.0591 103.684 19.8848 104.007 19.6606C104.285 20.2335 104.196 20.6177 104.008 20.9593C103.399 22.0765 102.825 23.215 102.15 24.2539C101.355 25.4742 100.556 26.6875 99.7473 27.89L99.4425 28.3526C99.3855 28.4344 99.3267 28.5162 99.2625 28.5945C99.1431 28.7422 98.8758 28.792 98.6744 28.888C98.6601 28.8951 98.628 28.888 98.6013 28.8863C98.4338 28.8738 98.2021 28.7706 97.9865 28.6087C97.687 28.3899 97.6835 28.3383 97.7262 28.3045C97.753 28.285 97.7334 28.228 97.6443 28.1427C97.1969 27.705 97.2843 27.5823 97.2878 27.4115C97.2914 27.287 97.3217 27.1767 97.4536 27.134C97.5356 27.1091 97.5979 27.0717 97.6514 27.029C97.6781 27.0077 97.7031 26.9846 97.7262 26.9597L97.7601 26.9223L97.9579 26.6305C98.5015 25.8247 99.0379 25.0135 99.6243 24.2468C99.8595 23.9408 100.205 23.7362 100.498 23.4907C100.432 23.5423 100.355 23.5832 100.303 23.6473C100.278 23.6793 100.298 23.754 100.298 23.8091C100.314 23.7682 100.325 23.7238 100.348 23.69C100.394 23.6224 100.448 23.5636 100.499 23.4996L100.503 23.496Z" fill="#BAA360"/>
<path id="Vector_24" d="M80.1984 19.4899C80.2109 19.3601 80.3802 19.3138 80.1984 19.1804C79.6157 18.7517 79.9988 18.6663 79.9935 18.4439C79.9881 18.2607 80.0737 18.1077 80.1378 17.9494C80.1824 17.8302 80.2234 17.7252 80.259 17.6327C80.3125 17.4993 80.3588 17.3819 80.4016 17.2734C80.4907 17.0599 80.5727 16.8927 80.6689 16.7326C80.8614 16.4106 81.1145 16.1099 81.6242 15.5158C81.6919 15.1191 81.8024 14.685 81.8273 14.2652C81.8683 13.6301 82.0947 13.1053 82.4974 12.7086C83.2068 12.013 83.6274 11.1111 83.9998 10.1291C84.481 8.86074 85.1707 7.80404 86.2971 7.04443C86.2989 7.39489 86.3559 7.66173 86.2899 7.89655C85.5361 10.6379 84.6646 13.3063 83.6986 15.932C83.4509 16.5885 83.2032 17.2413 82.9573 17.8924L82.5741 18.8673L82.5331 18.9847C82.4743 19.1359 82.3959 19.28 82.2996 19.417C82.1802 19.5842 81.8202 19.6518 81.5172 19.7408C81.421 19.7692 81.1769 19.7461 80.9363 19.7123C80.8168 19.6945 80.546 19.5967 80.2002 19.4899H80.1984Z" fill="#BAA360"/>
<path id="Vector_25" d="M116.195 37.0019C116.379 37.4929 116.313 37.6637 116.247 37.7918C115.976 38.3237 115.725 38.8164 115.448 39.2469C115.363 39.3821 115.151 39.3554 114.901 39.4444C114.967 39.7931 114.817 40.0332 114.62 40.2378L114.548 40.3125L114.522 40.3428L114.486 40.3926C114.463 40.4282 114.443 40.4637 114.424 40.5011C114.384 40.5758 114.347 40.6541 114.302 40.7235C114.222 40.8462 114.058 40.8747 113.506 40.5491C113.427 40.4993 113.328 40.4335 113.258 40.3872C112.935 40.1115 112.8 39.9514 112.754 39.8678C112.684 39.7433 112.673 39.6685 112.649 39.5796C112.55 39.2434 112.779 39.1936 112.918 39.069L113.064 38.9463L113.577 38.4517C113.95 38.0995 114.329 37.7615 114.712 37.4484C115.097 37.1335 115.577 37.0215 115.99 36.8738C116.036 36.8578 116.127 36.9557 116.193 37.0001L116.195 37.0019Z" fill="#BAA360"/>
<path id="Vector_26" d="M98.2253 15.1653C98.4569 15.6954 98.1611 16.1063 97.9971 16.5315C97.4393 17.9778 96.8066 19.3547 96.1205 20.6942C95.7783 21.3631 95.4219 22.0249 95.0547 22.6778L94.4969 23.6544L93.9623 24.5652C93.8821 24.6969 93.7716 24.8125 93.7555 24.9797C93.7324 25.2145 93.4722 25.3088 93.2084 25.4013C93.1478 25.4227 92.9981 25.3942 92.8448 25.3604C92.7005 25.3284 92.2977 25.1025 92.2175 25.0082C91.9965 24.752 91.7488 24.4816 91.7524 24.334C91.7595 24.0209 91.9324 23.8003 92.1605 23.6135C92.1747 23.601 92.1872 23.5886 92.1961 23.5726L92.287 23.4107L92.7023 22.6706C92.9892 22.185 93.31 21.7225 93.7395 21.3542C93.8589 21.2511 93.9516 21.066 94.0068 20.9024C94.6627 18.8957 96.1864 17.5437 97.1684 15.8075C97.3876 15.4179 97.7405 15.0639 98.2217 15.1617L98.2253 15.1653Z" fill="#BAA360"/>
<path id="Vector_27" d="M79.1274 5.90608C79.0793 6.4451 79.0936 6.89161 78.9884 7.30611C78.3575 9.8073 77.7142 12.2996 76.987 14.7634C76.7999 15.379 76.6145 15.9927 76.4274 16.6064L76.4025 16.6794L76.3918 16.7043L76.3704 16.7541C76.3543 16.7879 76.3383 16.8199 76.3187 16.8537C76.2439 16.9836 76.1405 17.1063 76.0015 17.2202C75.8393 17.3518 75.4276 17.4087 75.1193 17.4959C75.0747 17.5084 74.9821 17.5119 74.8716 17.4941C74.6809 17.4621 74.4528 17.4212 74.2532 17.3625C74.1177 17.3233 73.9163 17.2291 73.8949 17.1935C73.7844 17.0191 73.649 16.8359 73.9591 16.7825C74.0553 16.7648 74.1516 16.763 74.0286 16.6776C73.6775 16.4374 73.8842 16.3538 74.1605 16.2916C74.3298 16.2542 74.4955 16.2133 74.6399 16.167C74.6488 16.2026 74.713 16.0461 74.7522 15.9536C74.7949 15.8504 74.8324 15.7436 74.8627 15.6369C74.9197 15.4216 74.9411 15.1975 74.8858 14.9591C74.8502 14.799 74.8912 14.4415 74.9749 14.3489C75.8072 13.4328 75.9623 12.1146 76.1993 10.9743C76.6021 9.04413 77.4682 7.59074 78.5322 6.23874C78.6462 6.09287 78.8423 6.05729 79.1257 5.9043L79.1274 5.90608Z" fill="#BAA360"/>
<path id="Vector_28" d="M85.8659 21.7955C85.9033 21.7154 85.9728 21.7083 85.9211 21.6567C85.2813 21.0074 86.1831 21.0519 86.192 20.6943C86.4023 20.7299 86.5003 20.7085 86.5556 20.6676C86.5734 20.6498 86.5734 20.6641 86.6001 20.616L86.7712 20.2727C86.8853 20.045 86.9993 19.8173 87.1152 19.5878C87.2078 19.4135 87.3255 19.2089 87.4627 19.1128C88.7708 18.1878 89.5692 16.7984 90.3231 15.3255C90.9504 14.1033 91.6526 12.9559 92.5152 11.9793C92.6667 11.8067 92.8805 11.7195 93.1497 11.5381C93.2013 12.4863 92.8324 13.1551 92.5152 13.7867C91.7863 15.2347 90.9861 16.6383 90.2108 18.0633C89.7118 18.9883 89.2164 19.9098 88.7174 20.8331L88.3538 21.5037L88.2861 21.5767C88.2397 21.6247 88.1898 21.671 88.1364 21.7154C87.8993 21.9076 87.6962 22.121 87.0047 22.0766C86.8853 22.0694 86.789 22.0766 86.6233 22.0392C86.5039 22.0125 86.2829 21.9325 85.8676 21.7973L85.8659 21.7955Z" fill="#BAA360"/>
<path id="Vector_29" d="M71.3232 2.44775C71.6618 3.65388 71.5246 4.62874 71.423 5.60538C71.2358 7.38788 70.9596 9.15615 70.6459 10.9209C70.4802 11.8032 70.3162 12.682 70.1505 13.5626L69.8333 15.1565C69.778 15.4002 69.6586 15.6333 69.5731 15.8717C69.5232 16.0086 69.2968 16.1012 68.9867 16.1652C68.8727 16.1901 68.6285 16.1705 68.3327 16.1723C68.3024 16.0958 68.2649 16.0549 68.2774 16.0229C68.3398 15.8788 68.2525 15.7169 68.019 15.5283C67.741 15.3042 67.7677 15.306 68.3362 15.2473C68.3255 15.1103 68.322 14.9786 68.3024 14.8417C68.2988 14.7901 68.2828 14.7776 68.2044 14.6833C67.8729 13.109 68.3612 11.5969 68.8851 10.179C69.2131 9.2878 69.4376 8.50684 69.5713 7.46082C69.7459 6.08747 70.2343 4.72124 70.6477 3.38882C70.7529 3.05082 71.0327 2.83378 71.3232 2.44775Z" fill="#BAA360"/>
<path id="Vector_30" d="M62.9754 15.2721C63.1465 15.0978 63.3051 14.9199 63.3479 14.7313C63.3835 14.5676 63.3978 14.404 63.4049 14.2385V14.1763L63.4085 14.146L63.4192 13.9948L63.503 12.8776L63.6723 10.6415L64.1517 4.29601C64.2123 3.44923 64.2907 2.59 63.8273 1.82861C63.6473 2.11324 63.4121 2.33739 63.3336 2.65404C63.1091 3.55241 62.8578 4.48102 62.8008 5.41319C62.6635 7.66533 62.3926 9.80006 61.76 11.8405C61.6334 12.2497 61.5586 12.6766 61.5372 13.1018C61.5265 13.3153 61.5283 13.5287 61.5425 13.7404C61.5461 13.7902 61.5515 13.8436 61.5568 13.8988C61.5621 13.9503 61.5675 14.0179 61.5782 14.0055C61.596 14.0179 61.6192 14.0286 61.6441 14.0411C62.0665 14.2403 61.8402 14.4182 61.6548 14.6014C61.5229 14.7313 61.4053 14.8647 61.3412 14.9981C61.318 15.0444 61.4214 15.1333 61.5479 15.144C62.0558 15.1885 61.9827 15.3166 62.2643 15.3984C62.7313 15.4144 62.9059 15.3433 62.979 15.2703L62.9754 15.2721ZM61.8348 13.0288L61.8633 13.205L61.776 13.1872L61.8348 13.0288Z" fill="#BAA360"/>
</g>
</g>
<g id="Group_9">
<g id="Group_10">
<path id="Vector_31" d="M80.1789 117.617C79.9989 116.4 79.7886 115.185 79.5124 113.989C79.0775 112.114 78.5429 110.273 77.9815 108.439L77.1225 105.692L76.9942 105.29L76.9656 105.214L76.914 105.059C76.8159 104.737 76.6627 104.429 76.2046 104.212C76.0835 104.155 75.9213 104.111 75.7448 104.07C75.6949 104.059 75.5274 104.09 75.3207 104.109C75.2369 104.196 75.1638 104.253 75.1389 104.301C75.0124 104.529 75.0943 104.705 74.6132 105.018C74.5775 105.041 74.6007 105.056 74.5989 105.073C74.5793 105.283 74.5365 105.5 74.549 105.701C74.5543 105.778 74.5739 105.849 74.6684 105.897C74.6916 105.91 74.7201 105.918 74.754 105.927C74.7718 105.931 74.7896 105.934 74.8092 105.938C74.8288 105.943 74.8448 105.922 74.893 106.014C75.0534 106.276 75.2405 106.52 75.4579 106.737C75.711 106.991 75.8785 107.411 75.6397 107.827C75.3724 108.293 75.4793 108.781 75.8892 109.306C76.5896 110.204 76.9175 111.383 76.9282 112.524C76.9371 113.394 77.028 114.038 77.5591 114.658C77.7534 114.884 77.8336 115.295 77.9993 115.589C78.3165 116.149 77.8211 116.251 77.7979 116.731C78.4769 117.514 79.0526 118.56 80.1504 119.369C80.1718 118.581 80.2484 118.092 80.1771 117.615L80.1789 117.617ZM75.1264 105.463C75.1211 105.488 75.1086 105.513 75.0979 105.538C75.0694 105.543 75.0177 105.556 75.0177 105.556C75.0124 105.534 75.0177 105.511 75.0177 105.488C75.0694 105.475 75.1264 105.461 75.1264 105.461V105.463Z" fill="#BAA360"/>
<path id="Vector_32" d="M71.8614 114.331C71.2626 113.589 70.8278 112.771 71.284 111.771C71.562 111.152 70.8117 110.592 71.079 109.982C71.1022 109.928 70.8705 109.494 70.7208 109.35C70.2949 108.941 70.1773 108.388 70.3608 107.893C70.4642 107.616 70.5159 107.326 70.5283 107.028C70.5266 106.925 70.5462 106.947 70.5551 106.931C70.5658 106.92 70.5747 106.909 70.5818 106.9C70.5961 106.881 70.6014 106.861 70.6014 106.843C70.5889 106.66 70.5551 106.482 70.4624 106.315C70.4285 106.253 70.4036 106.18 70.0917 106.183C70.5426 106.029 70.0792 106.061 69.9687 106.022C69.9135 106.002 69.9081 105.968 69.8832 105.942C69.7959 105.845 69.7228 105.746 69.6176 105.653C69.5838 105.623 69.4715 105.611 69.3521 105.579C69.1668 105.652 69.0153 105.696 68.9689 105.732C68.8442 105.822 68.7337 105.913 68.6749 105.995C68.4485 106.31 68.3167 106.607 68.3434 106.875C68.3523 106.963 68.3576 107.052 68.3612 107.139L68.3665 107.27V107.336L68.3701 107.352L68.3897 107.487L68.4325 107.781C68.6642 109.345 68.8994 110.91 69.1668 112.468C69.541 114.66 70.0757 116.823 70.5836 118.974C70.7761 119.794 71.0523 120.582 71.7313 121.086C72.1074 120.082 72.3676 119.127 72.4798 118.095C72.5476 117.466 72.0254 117.586 71.8472 117.06C71.8953 116.508 71.9666 115.832 71.9897 115.148C71.9986 114.888 71.9078 114.601 71.8614 114.327V114.333V114.331ZM70.2165 106.975C70.2165 106.975 70.1773 106.984 70.1559 106.988C70.1666 106.979 70.179 106.97 70.2076 106.947C70.2147 106.963 70.2218 106.968 70.2182 106.973L70.2165 106.975Z" fill="#BAA360"/>
<path id="Vector_33" d="M84.6932 108.731C85.3722 109.112 84.973 110.131 85.5504 110.57C85.4435 111.855 86.2027 112.945 86.3631 114.176C86.4184 114.619 86.4576 115.064 86.5128 115.637C85.8783 115.642 85.5718 115.265 85.349 114.79C84.6183 113.235 83.8502 111.689 83.2193 110.078C82.4851 108.178 81.7526 106.281 81.0201 104.385L80.7617 103.718C80.7207 103.608 80.6833 103.497 80.6494 103.385C80.5853 103.172 80.6868 102.898 80.7154 102.65C80.7171 102.633 80.7403 102.61 80.7563 102.588C80.8579 102.448 81.0736 102.318 81.332 102.245C81.6866 102.143 81.7348 102.177 81.7383 102.238C81.7401 102.275 81.8025 102.298 81.9255 102.284C82.5492 102.197 82.6063 102.35 82.7506 102.471C82.8575 102.558 82.936 102.658 82.9003 102.802C82.8789 102.891 82.8754 102.972 82.8843 103.049C82.8878 103.088 82.895 103.124 82.9039 103.161L82.9181 103.216L83.0857 103.647C83.5508 104.83 84.0249 106.007 84.4348 107.213C84.5987 107.696 84.6183 108.229 84.7021 108.74C84.6861 108.626 84.6861 108.51 84.6522 108.405C84.6362 108.354 84.5595 108.323 84.5096 108.283C84.5381 108.331 84.5738 108.375 84.5934 108.427C84.6308 108.528 84.6611 108.631 84.6932 108.734V108.731Z" fill="#BAA360"/>
<path id="Vector_34" d="M99.0985 93.0691C99.1876 93.1402 99.1181 93.2915 99.332 93.215C100.011 92.9677 99.8381 93.3021 100.007 93.4035C100.146 93.4854 100.207 93.6223 100.287 93.7451C100.339 93.8216 100.383 93.8892 100.423 93.9479C100.478 94.0333 100.526 94.1098 100.571 94.1809C100.656 94.3215 100.715 94.4407 100.763 94.5705C100.858 94.8285 100.9 95.1238 100.993 95.7251C101.214 95.9154 101.433 96.1502 101.688 96.3139C102.073 96.5594 102.278 96.9134 102.314 97.3724C102.376 98.18 102.738 98.8347 103.169 99.4697C103.723 100.286 104.055 101.226 104.026 102.481C103.807 102.371 103.613 102.336 103.493 102.202C102.103 100.644 100.776 98.961 99.5174 97.2069C99.2055 96.7622 98.8954 96.3192 98.5853 95.8781L98.129 95.2056L98.0631 95.1167C97.9811 94.9975 97.9169 94.8658 97.8688 94.7235C97.81 94.5474 97.9758 94.2325 98.0898 93.9532C98.1255 93.8643 98.2965 93.6935 98.4748 93.5298C98.5639 93.448 98.8027 93.2861 99.0967 93.0727L99.0985 93.0691Z" fill="#BAA360"/>
<path id="Vector_35" d="M64.0822 122C63.5012 121.886 63.3818 121.288 63.3016 120.772C62.9701 118.629 62.6707 116.475 62.4533 114.311C62.3855 113.63 62.5352 112.915 62.6047 111.83C62.2554 111.074 62.1378 109.83 62.0754 108.53L62.0523 108.062L62.0451 107.957L62.0309 107.854L61.9899 107.647C61.9596 107.51 61.9257 107.372 61.9026 107.235C61.8634 106.991 61.9507 106.754 62.5495 106.509C62.6315 106.472 62.7509 106.434 62.8275 106.406C63.241 106.349 63.4477 106.375 63.5404 106.42C63.6794 106.484 63.7436 106.56 63.8273 106.632C64.1481 106.907 64.0447 107.222 64.0519 107.525L64.0554 107.832C64.1125 108.672 64.1713 109.514 64.2283 110.355C64.3495 112.203 64.4547 114.053 64.5295 115.903C64.6061 117.745 64.4351 119.588 64.3263 121.431C64.3139 121.633 64.1659 121.817 64.0822 122.002V122Z" fill="#BAA360"/>
<path id="Vector_36" d="M92.8931 111.172C92.3638 111.173 92.1535 110.622 91.8772 110.222C90.9327 108.845 90.0701 107.395 89.2627 105.906C88.8582 105.16 88.4679 104.406 88.0883 103.643L87.5251 102.496L87.0083 101.412C86.9406 101.263 86.9031 101.097 86.7677 100.98C86.5788 100.815 86.6429 100.537 86.7089 100.261C86.7249 100.197 86.8318 100.09 86.9477 99.9873C87.0582 99.893 87.4681 99.6831 87.5928 99.6742C87.9315 99.644 88.2968 99.5941 88.4198 99.6849C88.68 99.8752 88.7709 100.149 88.8029 100.452C88.8047 100.471 88.8101 100.489 88.8172 100.505L88.9063 100.681L89.3144 101.492C89.5746 102.038 89.7992 102.599 89.8901 103.214C89.915 103.387 90.0255 103.581 90.1342 103.725C91.4798 105.472 91.8576 107.719 92.8325 109.677C93.0499 110.109 93.18 110.672 92.8948 111.172H92.8931Z" fill="#BAA360"/>
<path id="Vector_37" d="M107.915 96.5539C107.658 96.3743 107.416 96.2693 107.249 96.0754C106.233 94.9013 105.208 93.7076 104.242 92.4535C104 92.1404 103.763 91.8237 103.529 91.5035C103.461 91.4075 103.46 91.3879 103.431 91.3203C103.388 91.2064 103.369 91.0748 103.379 90.9218C103.392 90.7421 103.62 90.4112 103.761 90.1444C103.78 90.1053 103.839 90.0359 103.925 89.9612C104.071 89.8349 104.249 89.6837 104.42 89.5609C104.536 89.4773 104.729 89.3652 104.766 89.3634C104.953 89.3528 105.16 89.3296 104.998 89.5876C104.948 89.6676 104.887 89.7424 105.023 89.6854C105.406 89.5218 105.327 89.7139 105.194 89.9505C105.112 90.0946 105.035 90.2387 104.973 90.3668C104.95 90.3668 104.992 90.4522 105.016 90.5073C105.044 90.566 105.076 90.6212 105.115 90.6728C105.196 90.7724 105.304 90.8489 105.468 90.8738C105.579 90.8916 105.741 91.0143 105.737 91.1015C105.703 91.9536 106.327 92.4286 106.783 92.9035C107.557 93.7112 107.828 94.7519 108.022 95.9758C108.042 96.1074 107.97 96.2782 107.917 96.5539H107.915Z" fill="#BAA360"/>
<path id="Vector_38" d="M93.8875 96.3369C93.9302 96.4081 93.8946 96.4668 93.9677 96.4543C94.8695 96.2924 94.3027 96.9756 94.5843 97.1695C94.4328 97.3171 94.3918 97.4043 94.3918 97.4701C94.3954 97.4932 94.3865 97.4861 94.4079 97.5306L94.5736 97.8277C94.6841 98.0251 94.7946 98.2226 94.9069 98.4236C94.9889 98.5784 95.078 98.7687 95.0762 98.9235C95.0477 100.411 95.716 101.78 96.4449 103.106C97.0526 104.214 97.5695 105.358 97.9027 106.617C97.9616 106.84 97.9313 107.087 97.9473 107.434C97.2273 107.1 96.8869 106.441 96.559 105.86C95.8051 104.52 95.1207 103.132 94.4114 101.768C93.9498 100.887 93.49 100.01 93.0285 99.1299L92.697 98.4912L92.6756 98.3969C92.6631 98.3329 92.6524 98.2671 92.6471 98.1995C92.6239 97.9024 92.5651 97.6231 92.9964 97.0876C93.0712 96.9951 93.1211 96.9133 93.2459 96.7994C93.3368 96.7158 93.5346 96.5895 93.8875 96.3369Z" fill="#BAA360"/>
<path id="Vector_39" d="M112.957 90.9202C112.372 90.97 112.059 90.6693 111.734 90.4007C111.139 89.9044 110.578 89.3369 110.039 88.7392C109.77 88.4403 109.507 88.1343 109.246 87.8266L108.858 87.3605L108.758 87.2342C108.649 87.0937 108.592 86.9122 108.509 86.7503C108.46 86.6578 108.562 86.455 108.737 86.2042C108.803 86.1117 108.981 85.9427 109.186 85.7256C109.25 85.7345 109.302 85.7256 109.311 85.747C109.35 85.8502 109.505 85.8555 109.769 85.7559C110.082 85.6385 110.063 85.6598 109.713 86.1028C109.799 86.1508 109.875 86.2024 109.966 86.2415C109.997 86.2558 110.02 86.2593 110.116 86.2255C110.948 86.2985 111.155 86.9193 111.374 87.5811C111.51 87.992 111.674 88.3122 111.982 88.6093C112.385 88.9971 112.625 89.6269 112.916 90.2032C112.989 90.3491 112.941 90.6142 112.957 90.9202Z" fill="#BAA360"/>
<path id="Vector_40" d="M113.461 82.2424C113.422 82.4328 113.393 82.616 113.456 82.7192C113.509 82.8081 113.579 82.8828 113.654 82.9522L113.73 83.0234L113.948 83.244L114.381 83.6869L115.603 84.9393C115.764 85.1012 115.935 85.288 116.277 85.0122C116.288 84.829 116.336 84.6102 116.304 84.5052C116.213 84.2081 116.143 83.8915 115.987 83.7278C115.611 83.3347 115.299 82.8401 115.32 82.1339C115.324 81.9916 115.295 81.8848 115.231 81.8155C115.176 81.7568 115.04 81.6874 114.969 81.7621C114.579 81.9809 114.657 81.7514 114.711 81.5504C114.746 81.4063 114.771 81.2711 114.759 81.1733C114.755 81.1395 114.641 81.1768 114.545 81.2622C114.151 81.6002 114.151 81.5006 113.91 81.6731C113.57 82.004 113.479 82.157 113.463 82.2389L113.461 82.2424ZM115.038 82.0396L114.985 82.036L115.049 81.9773L115.038 82.0396Z" fill="#BAA360"/>
</g>
<g id="Group_11">
<path id="Vector_41" d="M10.5648 97.3224C11.1048 96.8652 11.643 96.3778 12.142 95.837C12.9262 94.9884 13.6516 94.0634 14.3555 93.1188L15.3981 91.6938L15.6636 91.3149C15.8258 91.0997 15.9417 90.8471 15.7937 90.413C15.7545 90.2974 15.6779 90.1568 15.5888 90.011C15.5638 89.9701 15.4337 89.8598 15.2823 89.7157C15.1682 89.6925 15.0809 89.6641 15.031 89.6641C14.7939 89.6676 14.7244 89.8117 14.2058 89.5822C14.1666 89.5645 14.1737 89.5894 14.1613 89.5947C14.0098 89.6694 13.8387 89.7299 13.7139 89.8242C13.6676 89.8598 13.632 89.906 13.6623 89.9985C13.6694 90.0216 13.6801 90.0483 13.6961 90.0768L13.7228 90.123C13.7318 90.1408 13.7514 90.1479 13.7353 90.2049C13.7032 90.3899 13.6926 90.5891 13.7175 90.8026C13.746 91.0516 13.623 91.2882 13.2488 91.2242C12.8353 91.1477 12.6535 91.3487 12.625 91.7917C12.5769 92.5477 12.1349 93.1081 11.5628 93.4034C11.128 93.6258 10.8642 93.8499 10.8197 94.4299C10.8036 94.6398 10.6397 94.8052 10.5755 95.0116C10.4508 95.4065 10.1638 95.0258 9.92501 95.1183C9.85907 95.8672 9.61669 96.5877 9.6755 97.7262C10.0729 97.5555 10.3527 97.5003 10.5648 97.3224ZM14.2415 90.1604C14.2219 90.1657 14.1969 90.1693 14.1737 90.1729C14.1524 90.1551 14.1131 90.123 14.1096 90.1213C14.1203 90.1088 14.1381 90.1017 14.1541 90.0928C14.1951 90.1266 14.2415 90.1622 14.2415 90.1622V90.1604Z" fill="#BAA360"/>
<path id="Vector_42" d="M8.0377 89.8883C8.01987 89.2781 8.07869 88.7978 8.74522 88.9366C9.16404 89.0148 8.94305 88.3477 9.3583 88.4171C9.39572 88.4225 9.43137 88.1627 9.39572 88.0258C9.29414 87.6344 9.43493 87.4405 9.76642 87.4654C9.95176 87.4796 10.1122 87.4547 10.2494 87.3996C10.3528 87.3853 10.3688 87.4174 10.3955 87.3924C10.4971 87.3088 10.5809 87.2092 10.6183 87.074C10.6326 87.0242 10.6611 86.9762 10.4454 86.7502C10.8446 87.0135 10.5096 86.6915 10.4579 86.5937C10.4312 86.5457 10.449 86.5279 10.4472 86.4994C10.4454 86.3962 10.4526 86.302 10.4347 86.1899C10.4294 86.1543 10.3581 86.0671 10.2939 85.9675C10.1229 85.8626 9.99097 85.7718 9.93751 85.7523C9.7985 85.6989 9.67018 85.6544 9.58107 85.6455C9.2478 85.6046 8.99117 85.626 8.8575 85.754C8.81473 85.795 8.76839 85.8341 8.72206 85.8732L8.65077 85.9302L8.61512 85.9586L8.60621 85.9657L8.56879 86.0066L8.48859 86.092C8.06443 86.551 7.64561 87.0118 7.24819 87.4938C6.69036 88.1716 6.21808 88.9686 5.7066 89.7567C5.51234 90.0555 5.36442 90.4184 5.46778 91.0606C5.97036 91.1852 6.43195 91.2207 6.87571 91.1122C7.1466 91.0446 6.86145 90.6515 6.97373 90.4095C7.20363 90.3419 7.49769 90.269 7.7775 90.1516C7.88443 90.1071 7.95037 89.979 8.03413 89.8901H8.03235L8.0377 89.8883ZM10.0605 87.1647C10.0605 87.1647 10.0284 87.1398 10.0124 87.1256C10.0248 87.1309 10.0391 87.1345 10.0694 87.147C10.0658 87.1594 10.0658 87.1647 10.0605 87.1647Z" fill="#BAA360"/>
<path id="Vector_43" d="M17.9556 98.5037C18.0572 99.2082 17.1839 99.2171 17.1928 99.8593C16.3089 100.196 15.9845 101.213 15.2859 101.75C15.0364 101.941 14.7744 102.115 14.4518 102.339C14.1738 101.766 14.2629 101.382 14.4518 101.04C15.0613 99.9233 15.6352 98.7848 16.3106 97.7459C17.1055 96.5255 17.9039 95.3123 18.713 94.1097L19.0178 93.6472C19.0748 93.5654 19.1336 93.4835 19.1978 93.4053C19.3172 93.2576 19.5845 93.2078 19.7859 93.1117C19.8002 93.1046 19.8322 93.1117 19.859 93.1135C20.0265 93.126 20.2582 93.2292 20.4738 93.391C20.7732 93.6098 20.7768 93.6614 20.734 93.6952C20.7073 93.7148 20.7269 93.7717 20.816 93.8571C21.2633 94.2947 21.176 94.4175 21.1724 94.5883C21.1689 94.7128 21.1386 94.8231 21.0067 94.8658C20.9247 94.8907 20.8623 94.928 20.8089 94.9707C20.7821 94.9921 20.7572 95.0152 20.734 95.0401L20.7002 95.0775L20.5023 95.3692C19.9588 96.1751 19.4223 96.9863 18.836 97.753C18.6007 98.059 18.255 98.2636 17.9627 98.5091C18.0287 98.4575 18.1053 98.4166 18.157 98.3525C18.1819 98.3205 18.1623 98.2458 18.1623 98.1906C18.1463 98.2316 18.1356 98.276 18.1124 98.3098C18.0661 98.3774 18.0126 98.4361 17.9609 98.5002L17.9556 98.5037Z" fill="#BAA360"/>
<path id="Vector_44" d="M38.26 102.508C38.2475 102.638 38.0782 102.684 38.26 102.818C38.8427 103.246 38.4596 103.332 38.4649 103.554C38.4685 103.737 38.3847 103.89 38.3206 104.049C38.276 104.168 38.235 104.273 38.1994 104.365C38.1459 104.499 38.0996 104.616 38.0568 104.725C37.9677 104.938 37.8857 105.105 37.7895 105.265C37.597 105.587 37.3439 105.888 36.8342 106.482C36.7665 106.879 36.656 107.313 36.631 107.733C36.59 108.368 36.3637 108.893 35.9609 109.289C35.2516 109.985 34.831 110.887 34.4586 111.869C33.9774 113.137 33.2877 114.194 32.1613 114.954C32.1595 114.603 32.1025 114.336 32.1684 114.101C32.9223 111.36 33.7938 108.692 34.7597 106.066C35.0075 105.409 35.2552 104.757 35.5011 104.106L35.8843 103.131L35.9253 103.013C35.9841 102.862 36.0625 102.718 36.1588 102.581C36.2782 102.414 36.6382 102.346 36.9411 102.257C37.0374 102.229 37.2815 102.252 37.5221 102.286C37.6415 102.303 37.9124 102.401 38.2582 102.508H38.26Z" fill="#BAA360"/>
<path id="Vector_45" d="M2.2634 84.998C2.07984 84.507 2.14578 84.3362 2.21172 84.2082C2.48261 83.6763 2.7339 83.1835 3.01014 82.753C3.09568 82.6178 3.30776 82.6445 3.55727 82.5555C3.49133 82.2069 3.64103 81.9667 3.83886 81.7621L3.91014 81.6874L3.93688 81.6572L3.97252 81.6073C3.99569 81.5735 4.01529 81.5362 4.0349 81.4988C4.0741 81.4241 4.11153 81.3458 4.15609 81.2765C4.23628 81.1537 4.40025 81.1252 4.95272 81.4508C5.03114 81.5006 5.13094 81.5664 5.20045 81.6127C5.52302 81.8884 5.65847 82.0485 5.70481 82.1321C5.77431 82.2567 5.785 82.3314 5.81174 82.4203C5.90976 82.7565 5.68164 82.8064 5.54263 82.9309L5.39649 83.0536L4.88322 83.5482C4.51074 83.9004 4.13114 84.2384 3.74796 84.5515C3.36301 84.8664 2.8836 84.9784 2.47014 85.1261C2.4238 85.1421 2.33291 85.0443 2.26697 84.9998L2.2634 84.998Z" fill="#BAA360"/>
<path id="Vector_46" d="M20.2332 106.834C20.0015 106.304 20.2973 105.893 20.4613 105.468C21.0191 104.022 21.6518 102.645 22.3379 101.306C22.6801 100.637 23.0365 99.9749 23.4037 99.322L23.9615 98.3454L24.4961 97.4345C24.5763 97.3029 24.6868 97.1873 24.7029 97.0201C24.726 96.7852 24.9862 96.6909 25.25 96.5984C25.3106 96.5771 25.4603 96.6056 25.6136 96.6394C25.7579 96.6714 26.1607 96.8973 26.2409 96.9916C26.4619 97.2478 26.7096 97.5182 26.7061 97.6658C26.6989 97.9789 26.5261 98.1995 26.2979 98.3863C26.2837 98.3987 26.2712 98.4112 26.2623 98.4272L26.1714 98.5891L25.7562 99.3291C25.4692 99.8148 25.1484 100.277 24.7189 100.646C24.5995 100.749 24.5068 100.934 24.4516 101.097C23.7957 103.104 22.272 104.456 21.29 106.192C21.0708 106.582 20.7179 106.936 20.2367 106.838L20.2332 106.834Z" fill="#BAA360"/>
<path id="Vector_47" d="M39.3311 116.094C39.3792 115.555 39.3649 115.108 39.4701 114.694C40.101 112.193 40.7443 109.7 41.4715 107.237C41.6586 106.621 41.8439 106.007 42.0311 105.394L42.056 105.321L42.0667 105.296L42.0881 105.246C42.1041 105.212 42.1202 105.18 42.1398 105.146C42.2146 105.016 42.318 104.894 42.457 104.78C42.6192 104.648 43.0309 104.591 43.3392 104.504C43.3837 104.492 43.4764 104.488 43.5869 104.506C43.7776 104.538 44.0057 104.579 44.2053 104.638C44.3408 104.677 44.5422 104.771 44.5636 104.807C44.6741 104.981 44.8095 105.164 44.4994 105.217C44.4032 105.235 44.3069 105.237 44.4299 105.322C44.781 105.563 44.5742 105.646 44.298 105.708C44.1287 105.746 43.963 105.787 43.8186 105.833C43.8097 105.797 43.7455 105.954 43.7063 106.046C43.6636 106.15 43.6261 106.255 43.5958 106.363C43.5388 106.578 43.5174 106.803 43.5727 107.041C43.6083 107.201 43.5673 107.559 43.4836 107.651C42.6513 108.567 42.4962 109.885 42.2592 111.026C41.8564 112.956 40.9903 114.409 39.9263 115.761C39.8122 115.907 39.6162 115.943 39.3328 116.096L39.3311 116.094Z" fill="#BAA360"/>
<path id="Vector_48" d="M32.5926 100.203C32.5552 100.283 32.4857 100.29 32.5374 100.341C33.1772 100.991 32.2754 100.946 32.2665 101.304C32.0562 101.268 31.9582 101.289 31.9029 101.33C31.8851 101.348 31.8851 101.334 31.8584 101.382L31.6873 101.725C31.5732 101.953 31.4592 102.181 31.3433 102.41C31.2506 102.585 31.133 102.789 30.9958 102.885C29.6877 103.81 28.8892 105.2 28.1354 106.673C27.5081 107.895 26.8059 109.042 25.9433 110.019C25.7918 110.191 25.5779 110.278 25.3088 110.46C25.2572 109.512 25.6261 108.843 25.9433 108.211C26.6722 106.763 27.4724 105.36 28.2477 103.935C28.7467 103.01 29.2421 102.088 29.7411 101.165L30.1047 100.494L30.1724 100.421C30.2188 100.373 30.2687 100.327 30.3221 100.283C30.5592 100.09 30.7623 99.877 31.4538 99.9215C31.5732 99.9286 31.6695 99.9215 31.8352 99.9588C31.9546 99.9855 32.1756 100.066 32.5909 100.201L32.5926 100.203Z" fill="#BAA360"/>
<path id="Vector_49" d="M47.1353 119.551C46.7967 118.344 46.9339 117.37 47.0355 116.393C47.2226 114.61 47.4989 112.842 47.8125 111.077C47.9783 110.195 48.1422 109.316 48.308 108.436L48.6252 106.842C48.6805 106.598 48.7999 106.365 48.8854 106.127C48.9353 105.99 49.1617 105.897 49.4718 105.833C49.5858 105.808 49.83 105.828 50.1258 105.826C50.1543 105.902 50.1935 105.943 50.1811 105.975C50.1187 106.119 50.206 106.281 50.4395 106.47C50.7175 106.694 50.6908 106.692 50.1223 106.751C50.1329 106.888 50.1365 107.02 50.1561 107.157C50.1597 107.208 50.1757 107.221 50.2541 107.315C50.5856 108.889 50.0973 110.401 49.5733 111.819C49.2454 112.71 49.0209 113.491 48.8872 114.537C48.7125 115.911 48.2242 117.277 47.8108 118.609C47.7056 118.947 47.4258 119.164 47.1353 119.551Z" fill="#BAA360"/>
<path id="Vector_50" d="M55.4831 106.726C55.312 106.9 55.1534 107.078 55.1107 107.267C55.075 107.43 55.0608 107.594 55.0536 107.76V107.822L55.0501 107.852L55.0394 108.003L54.9556 109.12L54.7863 111.357L54.3069 117.702C54.2463 118.549 54.1679 119.408 54.6312 120.169C54.8112 119.885 55.0465 119.661 55.1249 119.344C55.3495 118.446 55.6008 117.517 55.6578 116.585C55.795 114.333 56.0659 112.198 56.6986 110.158C56.8251 109.748 56.9 109.321 56.9214 108.896C56.932 108.683 56.9303 108.469 56.916 108.258C56.9124 108.208 56.9071 108.154 56.9017 108.099C56.8964 108.048 56.8911 107.98 56.8804 107.993C56.8625 107.98 56.8394 107.969 56.8144 107.957C56.392 107.758 56.6184 107.58 56.8037 107.397C56.9356 107.267 57.0532 107.133 57.1174 107C57.1406 106.954 57.0372 106.865 56.9107 106.854C56.4027 106.81 56.4758 106.682 56.1942 106.6C55.7273 106.584 55.5526 106.655 55.4796 106.728L55.4831 106.726ZM56.6237 108.969L56.5952 108.793L56.6825 108.811L56.6237 108.969Z" fill="#BAA360"/>
</g>
</g>
</g>
<defs>
<clipPath id="clip0_188_7705">
<rect width="120" height="122" fill="white"/>
</clipPath>
</defs>
</svg>
