<svg width="160" height="185" viewBox="0 0 160 185" fill="none" xmlns="http://www.w3.org/2000/svg">
<g id="Layer_1" clip-path="url(#clip0_188_7672)">
<path id="Vector" d="M61.2479 87.684C61.1018 87.7988 60.9452 87.9032 60.7782 87.9866C61.1487 90.3714 63.5283 91.8274 65.8296 91.9056C68.3135 91.9891 70.7766 90.8672 72.8378 89.5574C74.9721 88.2006 76.6629 86.3481 77.2108 83.8224C77.7431 81.3959 77.2787 78.8128 76.6838 76.4436C75.3479 71.147 71.9872 66.7323 65.9757 67.8073C63.6222 68.2247 61.0391 69.1432 59.2701 70.7974C57.5324 72.4203 56.5827 75.2486 58.1951 77.3047C58.2838 77.4195 58.3412 77.5395 58.3673 77.6595C58.6439 77.9674 58.9205 78.2805 59.1918 78.5988C60.9504 80.6549 63.3822 83.3423 62.2498 86.2489C65.8139 87.7779 70.4165 84.1772 71.7785 80.3783C70.787 81.4637 69.5607 82.2986 68.037 82.5752C66.0383 82.9405 64.0397 82.069 62.9282 80.3626C60.4025 76.4906 63.9823 71.6793 68.3396 72.1594C73.2397 72.6969 75.0295 78.2388 72.8639 82.2099C70.7609 86.0663 65.6574 89.9227 61.2426 87.684H61.2479Z" fill="black"/>
<path id="Vector_2" d="M34.4603 69.4093C32.9731 68.6578 31.4806 67.8959 29.9621 67.2019C29.2002 66.8523 28.3235 66.367 27.4468 66.4296C25.4012 66.5757 25.5839 68.5169 26.5649 69.6232C27.5877 70.7765 29.3411 71.3714 30.724 71.9767C32.2634 72.6551 33.8237 73.2761 35.3892 73.8762C38.3115 74.9929 41.2651 76.0157 44.1925 77.1063C47.7358 78.4266 51.253 79.8564 54.5927 81.615C53.6169 80.9001 52.6254 80.2217 51.6965 79.5642C48.9778 77.6334 46.1599 75.8487 43.2793 74.1684C40.3936 72.4829 37.4452 70.9121 34.4603 69.4093Z" fill="black"/>
<path id="Vector_3" d="M69.8425 74.4137C66.8315 72.723 62.3959 75.5983 64.1858 79.0946C65.0938 80.8688 67.0924 81.3437 68.8301 80.5296C70.2704 79.8512 71.1993 78.5153 71.9507 77.169C71.9716 77.1273 71.9977 77.0959 72.0238 77.0646C71.7368 76.0262 71.0479 75.0973 69.8425 74.4189V74.4137Z" fill="black"/>
<path id="Vector_4" d="M38.4758 31.2685C41.4554 30.684 44.4612 30.2561 47.4722 29.9952C47.0756 20.2682 44.3725 10.8021 39.6186 2.33789C35.2299 3.20414 30.8987 4.35739 26.6875 5.8655C32.8191 13.1242 36.9155 21.8911 38.4758 31.2737V31.2685Z" fill="black"/>
<path id="Vector_5" d="M49.1946 29.8542C51.1202 29.7289 53.051 29.6715 54.9766 29.6872C55.9837 19.7201 54.0164 9.68001 49.3042 0.866211C46.6585 1.15322 44.0285 1.52372 41.4141 1.99338C46.1158 10.5463 48.7824 20.0802 49.1946 29.8542Z" fill="black"/>
<path id="Vector_6" d="M57.9253 105.045C60.5971 105.056 63.1593 103.944 65.8467 104.273C70.6581 104.858 73.1994 108.964 73.6221 113.468C74.0604 118.117 72.4636 125.079 77.6611 127.636C82.702 130.114 87.6438 126.389 90.2582 122.235C79.571 115.534 71.7591 104.821 65.9668 93.5807C62.7679 93.4555 59.7152 91.7074 59.1046 88.3676C57.6591 88.3937 56.0258 87.8823 54.7108 87.5849C54.1628 87.4596 53.6201 87.3396 53.0722 87.2144C55.744 90.6533 53.187 95.6577 53.0513 99.6967C52.947 102.854 54.6795 105.04 57.9253 105.051V105.045Z" fill="black"/>
<path id="Vector_7" d="M12.7914 130.213C10.8971 129.958 9.00806 129.702 7.1138 129.446C7.06161 129.859 7.07727 130.286 7.20773 130.725C7.47386 131.617 8.13138 132.066 8.70539 132.645C11.3094 132.123 13.8872 131.476 16.4286 130.688C16.3294 130.683 16.2355 130.673 16.1676 130.667C15.0457 130.506 13.9238 130.365 12.7966 130.213H12.7914Z" fill="black"/>
<path id="Vector_8" d="M8.96185 138.834C11.8737 137.279 14.629 135.349 16.9407 132.99C17.2225 132.724 17.4834 132.432 17.7235 132.118C17.7235 132.103 17.7235 132.092 17.7183 132.077C14.9943 132.948 12.2442 133.673 9.45238 134.258C9.42629 134.957 9.09753 135.683 8.95663 136.382C8.78965 137.196 8.72703 138.041 8.96707 138.834H8.96185Z" fill="black"/>
<path id="Vector_9" d="M31.6392 34.7072C30.3346 37.3164 29.9276 40.4787 31.4722 42.8009C31.3053 42.9 31.1435 43.0044 30.9817 43.1088C32.2863 43.0931 33.7579 42.66 34.6293 42.3521C36.748 41.6007 38.8771 40.8858 41.0427 40.2595C45.1704 39.075 49.3712 38.167 53.6189 37.546C61.2847 36.4241 69.4097 35.8448 76.992 37.786C83.3688 39.4194 88.655 43.1192 92.6522 48.3167C96.9626 53.9212 99.5718 60.5224 102.171 67.0402C103.626 70.6878 105.098 74.3354 106.935 77.8108C107.41 78.7084 107.911 80.0234 108.991 80.2739C109.847 80.4722 110.092 80.3104 110.478 79.4598C110.588 79.2198 110.65 78.8702 110.697 78.6197C110.963 77.0907 110.645 75.3426 110.421 73.8345C109.455 67.2698 106.919 60.9973 103.266 55.4711C95.4336 43.6097 82.6748 35.9909 68.9505 32.9486C64.6088 31.9832 60.2149 31.4927 55.8106 31.404C55.6802 31.4249 55.555 31.4249 55.4297 31.3988C47.4195 31.2788 39.3989 32.4894 31.6601 34.6603C31.6497 34.6811 31.6392 34.6968 31.6288 34.7177L31.6392 34.7072Z" fill="black"/>
<path id="Vector_10" d="M13.646 14.2461C21.0457 18.9374 27.1459 25.3507 31.498 32.9121C33.2514 32.4268 35.0152 31.9937 36.7894 31.6128C35.2239 22.3189 31.1588 13.6199 24.9699 6.49683C23.7853 6.95082 22.6112 7.43091 21.4475 7.94753C18.76 9.13731 16.1613 10.4993 13.646 12.0126C12.7954 12.524 12.8268 13.7295 13.646 14.2513V14.2461Z" fill="black"/>
<path id="Vector_11" d="M91.7384 123.117C89.0666 127.401 84.6153 130.882 79.2926 129.948C74.236 129.06 72.2531 124.567 72.0234 119.881C71.8825 117.006 72.3 114.021 71.4912 111.214C70.5466 107.91 67.7392 105.802 64.2898 105.938C61.5502 106.048 58.9567 107.149 56.1857 106.611C54.0201 106.188 52.3972 104.764 51.7032 102.671C50.9256 100.328 51.4683 97.8756 52.0111 95.5482C52.6373 92.8555 53.4044 89.1609 50.6804 87.3136C50.4038 87.1258 50.289 86.8544 50.2942 86.5883C39.3304 84.1409 28.2832 81.85 17.1055 80.8794C19.4276 84.5636 23.2788 87.1571 27.6257 87.7833C31.9934 88.4147 36.6482 86.2386 40.8594 88.0546C49.1879 91.6449 43.573 102.661 46.824 108.813C47.852 110.76 49.6837 112.273 51.7814 112.946C53.707 113.562 55.7317 113.306 57.7147 113.259C61.1536 113.181 64.2951 114.073 65.7092 117.497C67.3843 121.556 65.5579 125.982 66.6851 130.135C67.7183 133.95 70.5519 137.076 73.9438 138.996C79.6788 142.247 86.2278 141.543 91.9889 138.965C91.9889 138.819 91.9889 138.673 91.9889 138.527C95.0938 134.931 96.8002 130.365 96.8941 125.689C95.1042 124.938 93.3874 124.077 91.7332 123.122L91.7384 123.117Z" fill="black"/>
<path id="Vector_12" d="M112.048 26.8014C108.312 30.136 107.195 34.6759 106 39.3411C105.045 43.0723 103.772 46.866 100.918 49.5482C102.556 51.4477 104.059 53.4724 105.4 55.612C107.66 54.5266 108.844 52.4183 109.977 50.2788C111.052 48.2437 112.163 46.2816 113.64 44.5073C116.578 40.9693 120.466 38.2922 124.687 36.5128C131.727 33.5488 139.387 33.34 146.787 34.7229C144.199 30.162 141.109 25.9717 137.498 22.2406C128.737 21.056 118.999 20.5916 112.043 26.7962L112.048 26.8014Z" fill="black"/>
<path id="Vector_13" d="M138.47 66.6176C133.591 65.7565 128.576 65.7565 123.66 66.2627C119.412 66.7011 114.857 67.4264 111.512 70.2756C111.606 70.6827 111.694 71.0949 111.773 71.5072C111.929 72.3003 112.117 73.1823 112.274 74.0955C123.895 71.2828 135.125 77.1273 143.396 84.9966C148.479 89.834 153.112 95.6734 155.638 102.202C157.313 98.9922 158.571 95.6055 159.244 91.9527C160.037 87.6528 160.147 83.2798 159.828 78.9329C154.709 72.1125 146.772 68.0787 138.47 66.6176Z" fill="black"/>
<path id="Vector_14" d="M111.789 80.7072C116.548 82.4449 121.031 84.8401 125.122 87.8302C134.964 95.0263 142.014 104.806 146.872 115.696C148.573 112.779 150.671 110.055 152.56 107.295C153.265 106.267 153.927 105.223 154.548 104.164C152.242 97.2963 147.378 91.17 142.17 86.2125C134.306 78.7294 123.588 73.0362 112.509 75.8124C112.671 77.4822 112.603 79.1469 111.909 80.5037C111.873 80.5767 111.831 80.6393 111.789 80.702V80.7072Z" fill="black"/>
<path id="Vector_15" d="M147.872 36.7008C139.929 34.9839 131.601 35.0831 124.128 38.642C119.891 40.6615 116.055 43.6881 113.456 47.628C111.286 50.9208 110.091 55.2572 106.297 57.0889C107.121 58.5135 107.883 59.9798 108.567 61.4984C108.635 61.6549 108.703 61.8115 108.77 61.968C114.787 54.5632 123.951 50.9886 133.297 49.9554C140.112 49.1987 147.626 49.3344 154.118 51.8392C152.808 47.8889 151.31 44.0221 149.63 40.3014C149.077 39.0803 148.487 37.8801 147.872 36.706V36.7008Z" fill="black"/>
<path id="Vector_16" d="M10.0517 49.6683C7.87561 51.0772 7.13982 54.7144 6.37272 56.9896C5.29252 60.2042 4.4054 63.4813 3.72702 66.8054C3.18431 69.4667 2.19282 72.77 2.75118 75.4939C3.18953 77.6335 4.62979 78.4319 6.38838 78.6615C7.28593 78.6615 8.18349 78.6719 9.08105 78.6928C9.19585 78.6928 9.30544 78.6824 9.42024 78.6771C9.42024 78.6824 9.41502 78.6928 9.40981 78.698C15.8753 78.865 22.32 79.5538 28.7177 80.5557C36.2948 81.7403 43.7935 83.358 51.2715 85.0331C53.3275 85.4923 55.3835 85.9672 57.4448 86.4264C58.0814 86.5673 58.8068 86.7656 59.4434 86.6403C53.9433 82.6431 47.6186 80.1748 41.2679 77.8683C38.5126 76.8664 35.7521 75.8853 33.0281 74.7999C30.6329 73.8449 27.6949 72.9578 25.7433 71.2201C24.2769 69.9155 23.442 67.5359 24.8353 65.8661C26.2651 64.1544 28.6081 64.6867 30.3719 65.4903C36.1174 68.0995 41.7427 71.1262 47.102 74.4555C49.8468 76.1567 52.5186 77.9727 55.0861 79.9295C57.1578 81.5055 59.2921 83.0762 60.7271 85.2836C60.7376 85.3044 60.748 85.3201 60.7584 85.341C60.9463 84.5895 60.7062 83.7337 60.3775 83.0606C59.6104 81.5003 58.4154 80.0339 57.116 78.6667C57.069 78.6302 57.0221 78.5832 56.9803 78.5258C56.9803 78.5258 56.9803 78.5206 56.9751 78.5154C55.9001 77.4039 54.7625 76.3602 53.7345 75.4052C44.1693 66.4923 32.1827 60.9139 21.5477 53.4412C21.5164 53.5038 21.4851 53.5612 21.459 53.6238L17.9888 51.6356C15.7449 50.3519 12.6817 47.9671 10.0517 49.6683Z" fill="black"/>
<path id="Vector_17" d="M154.808 53.9892C148.431 51.1087 140.802 50.9364 133.924 51.6201C124.651 52.5437 115.243 56.1026 109.523 63.7893C110.113 65.3078 110.63 66.8629 111.058 68.4336C114.324 66.0018 118.363 65.1669 122.387 64.6764C127.673 64.0293 133.037 63.9928 138.303 64.8434C146.381 66.148 154.067 69.8112 159.541 75.8698C159.489 75.421 159.437 74.9774 159.374 74.5339C158.456 67.6769 156.911 60.7313 154.808 53.9892Z" fill="black"/>
<path id="Vector_18" d="M73.9161 32.4529C77.2559 21.9796 77.5846 10.7915 74.8607 0.166918C71.2496 0.010367 67.6332 -0.0313798 64.0273 0.0260221C67.2784 9.86262 67.8733 20.4194 65.7651 30.5951C68.5047 31.0387 71.2287 31.6545 73.9161 32.4581V32.4529Z" fill="black"/>
<path id="Vector_19" d="M116.835 8.34424C110.464 10.5307 104.786 14.2097 101.911 20.7848C100.09 24.949 99.3486 29.489 97.8979 33.7785C96.9325 36.6382 95.6123 40.4423 92.7422 41.8983C95.2679 43.8082 97.6213 45.9268 99.7661 48.249C103.247 44.8884 103.977 39.9101 105.224 35.4014C106.44 31.0128 108.486 27.2243 112.191 24.469C118.975 19.4228 127.392 19.3393 135.486 20.263C133.106 18.0295 130.528 15.9839 127.731 14.1471C124.271 11.8771 120.619 9.96193 116.83 8.34424H116.835Z" fill="black"/>
<path id="Vector_20" d="M112.475 115.607C110.508 120.064 108.504 124.531 107.982 129.426C107.351 135.333 109.438 141.381 113.519 145.686C115.747 148.034 118.502 149.803 120.783 152.089C125.474 139.508 122.328 125.084 112.475 115.607Z" fill="black"/>
<path id="Vector_21" d="M64.0769 30.3395C64.0769 30.303 64.0769 30.2664 64.0873 30.2247C66.1851 20.1689 65.5067 9.75308 62.2296 0.057373C60.1005 0.109557 57.9766 0.198269 55.8632 0.323509C54.2925 0.41744 52.727 0.537462 51.1562 0.683576C55.7588 9.59131 57.7157 19.7201 56.6929 29.7237C59.1612 29.802 61.6243 30.0055 64.0717 30.3395H64.0769Z" fill="black"/>
<path id="Vector_22" d="M90.2448 16.8135C89.4047 21.0352 89.1542 25.3455 88.4184 29.588C87.9331 32.3642 87.0355 35.0882 84.8125 36.8781C86.9833 38.0157 89.0759 39.2942 91.0745 40.6927C91.0745 40.6927 91.0797 40.6927 91.085 40.6927C93.548 40.103 94.7013 37.3164 95.5623 35.1821C96.4077 33.0791 97.0078 30.8926 97.6027 28.7114C98.6933 24.6828 99.7318 20.529 101.986 16.9648C104.945 12.2892 109.448 9.32516 114.432 7.36827C109.078 5.28615 103.494 3.76239 97.8375 2.69263C93.6002 5.91757 91.3041 11.543 90.2552 16.8187L90.2448 16.8135Z" fill="black"/>
<path id="Vector_23" d="M83.1682 36.0432C83.2309 35.9388 83.3196 35.8397 83.4396 35.7614C86.8315 33.4497 86.9411 28.1843 87.3899 24.5315C87.8908 20.4612 88.3448 16.3543 89.5607 12.4197C90.7296 8.64161 92.7491 4.94701 95.6349 2.28565C94.9043 2.16041 94.1738 2.0456 93.4432 1.93602C87.9117 1.1063 82.302 0.547935 76.6714 0.250488C79.3275 11.016 78.9622 22.3763 75.5703 32.9644C76.0243 33.1105 76.4731 33.267 76.9219 33.4236C79.0562 34.1802 81.1435 35.0517 83.1735 36.038L83.1682 36.0432Z" fill="black"/>
<path id="Vector_24" d="M121.682 173.103C123.732 174.09 125.935 174.622 128.163 174.752C129.123 173.489 130.021 172.169 130.84 170.802C137.817 159.181 138.954 144.971 135.448 132.019C132.233 120.132 125.256 109.653 116.463 101.153C116.505 105.207 115.227 109.184 113.578 113.066C113.458 113.353 113.332 113.635 113.207 113.922C124.16 124.025 127.526 139.951 122.073 153.529C123.231 155.032 124.098 156.879 124.197 158.732C124.698 159.17 125.147 159.708 125.528 160.344C127.74 164.044 125.455 168.965 120.998 169.017C119.887 169.028 119.887 167.306 120.998 167.29C124.839 167.243 125.721 162.552 123.221 160.204C123.211 160.193 123.2 160.188 123.195 160.177C121.019 158.962 117.752 159.65 116.411 162.072C113.885 166.627 117.674 171.172 121.671 173.098L121.682 173.103Z" fill="black"/>
<path id="Vector_25" d="M2.70237 123.727C4.41921 124.155 6.16736 124.463 7.92595 124.667C7.7694 125.554 7.48239 126.415 7.09101 127.286C7.01795 127.448 6.9449 127.61 6.87184 127.771C9.76803 128.163 12.6642 128.544 15.5604 128.946C17.2355 129.18 19.2393 129.692 18.9002 131.837C18.5766 133.908 15.8735 135.693 14.355 136.883C12.7164 138.172 10.963 139.299 9.13139 140.29C9.25663 140.426 9.38187 140.567 9.48102 140.729C10.0289 141.574 9.80456 142.153 9.62191 143.077C9.13661 145.524 9.67932 147.403 11.8658 148.77C14.2193 150.236 17.2198 151.019 19.8969 151.651C20.4552 151.781 21.0136 151.901 21.5772 152.011C32.9532 152.788 44.0213 147.439 50.4764 137.932C51.0974 137.018 52.5951 137.879 51.9689 138.803C46.787 146.443 38.9073 151.484 30.1666 153.159C29.6187 156.879 29.0655 160.595 28.5176 164.316C28.1836 166.586 27.834 168.856 27.5104 171.126C27.2339 173.041 26.9521 175.06 27.5417 176.949C28.6428 180.472 32.1809 181.474 35.458 181.948C40.3058 182.653 45.1746 183.3 50.0485 183.811C59.7338 184.829 69.5443 185.184 79.193 183.613C82.9398 183.003 87.0936 182.392 89.3688 178.995C91.5292 175.77 91.4718 171.522 91.6075 167.807C91.9363 158.821 92.0615 149.835 91.9989 140.843C85.8256 143.411 78.8695 143.896 72.8527 140.374C69.7843 138.579 67.1856 135.886 65.7401 132.619C64.9 130.72 64.5295 128.716 64.5347 126.639C64.5399 124.291 65.02 121.89 64.5347 119.563C63.9763 116.896 62.2699 115.247 59.5251 115.018C57.5108 114.851 55.4965 115.211 53.4822 115.028C49.9233 114.705 46.6514 112.508 45.112 109.257C43.2699 105.364 44.3396 101.074 44.0996 96.9571C43.9691 94.7079 43.4212 92.1823 41.6783 90.6011C39.9614 89.0408 37.6132 88.9677 35.4215 89.1347C31.1476 89.4531 27.4061 90.074 23.3149 88.3468C19.8447 86.8804 16.9694 84.2869 15.1534 80.9889C15.1012 80.9002 15.0751 80.8115 15.0594 80.7227C12.9251 80.5714 10.7856 80.467 8.64608 80.4253C7.38324 83.3476 6.19345 86.3012 5.0976 89.2913C4.29397 91.4882 3.34945 93.9252 4.89408 96.0177C5.7238 97.1449 6.66311 97.7294 6.68398 99.2949C6.69963 100.49 6.27173 101.695 5.8647 102.802C3.82954 108.354 1.69523 113.865 0.181908 119.589C-0.439077 121.943 0.406297 123.164 2.68672 123.732L2.70237 123.727ZM29.6969 177.455C29.4256 177.638 29.102 177.742 28.742 177.904C28.5437 177.737 28.3193 177.622 28.2201 177.44C28.0427 177.106 28.1419 176.74 28.3871 176.511C28.8411 176.093 29.5769 176.234 29.8587 176.803C29.9787 177.048 29.9057 177.315 29.6969 177.455ZM37.5923 180.294C37.2375 180.31 36.9348 180.018 36.9348 179.663C36.9348 179.365 37.1696 179.099 37.4671 179.057C37.8428 179.005 38.1455 179.24 38.1715 179.616C38.2029 180.023 37.9837 180.279 37.5871 180.294H37.5923ZM89.6924 157.495C89.755 157.532 89.7654 157.652 89.802 157.74C89.7341 157.793 89.6715 157.845 89.6037 157.897C89.5515 157.782 89.4993 157.673 89.4471 157.558C89.5306 157.537 89.6454 157.469 89.6976 157.5L89.6924 157.495ZM81.6196 144.314C81.5465 144.929 81.2595 145.42 80.7794 145.801C80.0436 146.38 79.1356 146.276 78.6138 145.503C78.3738 145.149 78.2537 144.715 78.0763 144.314H81.6196ZM77.6223 180.101C77.9615 180.112 78.2903 180.456 78.2694 180.774C78.2433 181.16 77.8258 181.5 77.4449 181.442C77.1788 181.406 76.9648 181.098 76.9857 180.78C77.0065 180.393 77.2936 180.091 77.6223 180.101ZM73.6198 147.93C73.7607 147.961 73.9329 148.16 73.9642 148.306C74.0321 148.629 73.7764 148.984 73.5311 148.927C73.3433 148.88 73.1972 148.671 73.0928 148.582C73.0928 148.128 73.3224 147.862 73.6251 147.93H73.6198ZM58.0117 178.17C58.2048 178.217 58.3666 178.405 58.6171 178.588C58.4344 178.797 58.3457 178.984 58.2048 179.047C57.9074 179.172 57.6047 178.953 57.5838 178.645C57.563 178.41 57.7926 178.118 58.0117 178.176V178.17ZM50.8 147.565C50.2416 147.57 49.8659 147.137 49.8659 146.484C49.8659 145.957 50.2416 145.519 50.7321 145.483C51.3531 145.43 51.7967 145.806 51.8175 146.391C51.8384 147.085 51.4314 147.554 50.8052 147.565H50.8ZM52.6368 168.824C52.8977 168.871 53.0752 169.09 53.0491 169.341C53.0073 169.717 52.6838 169.967 52.3394 169.904C52.0419 169.847 51.828 169.57 51.8541 169.273C51.8802 168.949 52.2298 168.756 52.642 168.829L52.6368 168.824ZM28.7107 102.144C26.6546 100.599 24.2698 99.7645 21.8746 99.6602C23.2262 100.965 22.5373 103.616 20.4396 103.861C19.3072 103.991 18.1748 103.365 17.7417 102.306C17.4651 101.627 17.5068 100.871 17.7939 100.219C16.4736 100.646 15.2003 101.32 14.0419 102.243C13.1808 102.932 11.9545 101.716 12.8208 101.022C17.7417 97.0927 24.4994 96.8422 29.5769 100.652C30.4536 101.309 29.5926 102.807 28.7054 102.144H28.7107ZM12.9512 94.7967C18.3157 93.132 24.0246 93.2781 29.2847 95.2454C30.3179 95.6316 29.8691 97.3015 28.8255 96.9101C23.8263 95.0419 18.5088 94.8749 13.4104 96.4613C12.3459 96.7901 11.8919 95.1254 12.9512 94.7967Z" fill="black"/>
<path id="Vector_26" d="M22.3333 51.8913C28.7363 56.4051 35.5984 60.225 42.1735 64.4831C46.917 67.5568 51.5561 70.9017 55.6369 74.8311C55.6682 71.6271 58.5226 68.663 61.6223 67.348C66.3815 65.3181 71.8555 65.172 75.3623 69.4823C78.3941 73.2082 79.9127 79.5903 78.8847 84.2868C77.841 89.0668 72.8992 92.3909 68.3384 93.3772C68.1766 93.4137 68.0148 93.4398 67.8531 93.4659C74.4491 106.053 83.649 117.977 96.841 123.795C96.8306 123.691 96.8306 123.586 96.8202 123.477C97.4098 122.767 97.9682 122.036 98.5057 121.29C98.49 121.222 98.4796 121.16 98.4848 121.102C98.5005 121.014 98.6831 120.878 98.7718 120.894C98.777 120.894 98.7823 120.894 98.7875 120.899C101.386 117.199 103.401 113.061 104.809 108.761C107.403 100.824 107.899 92.4796 107.387 84.1824C107.335 84.0885 107.288 83.9841 107.262 83.8693C107.21 83.6345 107.199 83.384 107.173 83.1544C107.205 82.8987 107.21 82.6535 107.267 82.4134C107.346 82.0794 107.544 81.8237 107.8 81.6724C107.278 81.3593 106.792 80.9105 106.411 80.3626C104.178 77.1637 102.79 73.1613 101.334 69.5606C98.3491 62.1871 95.6095 54.4743 90.4329 48.2958C85.1519 41.992 77.9088 38.981 69.8047 38.4122C64.6646 38.0522 59.4306 38.3705 54.2749 39.1428C54.1862 39.5446 53.8209 39.8421 53.3304 39.8264C53.2469 39.769 53.0851 39.7064 53.0277 39.5968C52.986 39.5185 52.9651 39.4403 52.9547 39.3515C50.1315 39.816 47.3397 40.4109 44.6053 41.0945C42.5232 41.6163 40.4619 42.2112 38.4163 42.8739C36.4386 43.5158 34.4712 44.4499 32.4152 44.8047C31.2985 44.9978 30.0774 44.8726 29.0441 44.4342C26.3515 46.4276 24.0345 48.8594 22.3281 51.9017L22.3333 51.8913ZM75.5136 95.3132C75.3727 95.2714 75.2005 95.0992 75.1744 94.9583C75.1118 94.6557 75.3675 94.353 75.6128 94.3582C75.8163 94.3582 75.9728 94.6087 75.952 94.8905C75.9311 95.1619 75.738 95.381 75.5136 95.3132ZM104.037 102.561C104.34 102.515 104.663 102.781 104.752 103.146C104.809 103.376 104.637 103.616 104.376 103.673C103.995 103.756 103.635 103.548 103.594 103.224C103.557 102.942 103.781 102.598 104.032 102.561H104.037ZM91.7114 81.5263C91.2 81.5002 90.96 81.1975 91.0017 80.6235C91.033 80.1382 91.2835 79.9034 91.7531 79.9243C92.395 79.9504 92.7968 80.2791 92.7655 80.7488C92.729 81.2549 92.3167 81.5576 91.7166 81.5263H91.7114ZM94.4458 91.9734C94.7641 91.9526 94.952 92.1404 94.905 92.3283C94.8528 92.5527 94.6806 92.6623 94.4719 92.6101C94.3623 92.584 94.1901 92.4066 94.2058 92.3387C94.2475 92.1822 94.3832 92.0517 94.4406 91.9682L94.4458 91.9734ZM92.2958 69.7119C92.9273 69.6702 93.3865 70.0929 93.5639 70.8808C93.5848 70.9748 93.6004 71.0739 93.6109 71.1679C93.6578 71.8306 93.256 72.3472 92.6507 72.415C91.8993 72.4985 91.4192 72.1228 91.3357 71.387C91.3252 71.2879 91.3252 71.194 91.32 71.0948C91.32 70.2494 91.6696 69.7537 92.3011 69.7067L92.2958 69.7119ZM90.0467 78.4214C90.1981 78.2126 90.4799 78.1031 90.6155 78.0091C91.1217 78.0404 91.4035 78.4892 91.2887 78.8701C91.1687 79.272 90.7251 79.559 90.2816 79.5016C90.1981 79.4911 90.0937 79.4285 90.0467 79.3555C89.8328 79.0476 89.8432 78.6927 90.0467 78.4162V78.4214ZM88.3612 113.718C88.5856 113.901 88.8935 114.031 88.9874 114.251C89.1126 114.538 89.1179 114.903 89.0866 115.226C89.0448 115.628 88.6117 115.842 88.2047 115.738C87.8394 115.644 87.615 115.404 87.5471 115.044C87.4741 114.658 87.4323 114.261 87.7976 113.984C87.9437 113.875 88.1368 113.823 88.3664 113.718H88.3612ZM87.3384 106.804C87.448 106.846 87.5367 106.955 87.6985 107.096C87.5002 107.185 87.3645 107.295 87.2706 107.268C87.1871 107.242 87.1349 107.06 87.1192 106.94C87.114 106.903 87.2862 106.783 87.3384 106.804ZM86.5243 109.293C86.4617 109.872 86.0443 110.222 85.5172 110.149C85.392 110.133 85.2406 110.039 85.1676 109.94C84.9432 109.643 85.0319 109.152 85.3346 108.902C85.632 108.651 86.1486 108.667 86.3834 108.954C86.4669 109.058 86.493 109.21 86.5296 109.293H86.5243ZM86.0443 104.2C86.0599 104.8 85.5746 105.186 84.844 105.155C84.3639 105.134 84.0978 104.811 84.1135 104.263C84.1343 103.579 84.4996 103.13 85.0162 103.162C85.5798 103.198 86.0286 103.652 86.0443 104.2ZM84.2596 58.0646C84.4527 58.1115 84.6144 58.2994 84.8649 58.482C84.6823 58.6908 84.5935 58.8786 84.4527 58.9412C84.1552 59.0665 83.8525 58.8473 83.8317 58.5394C83.8108 58.3046 84.0404 58.0124 84.2596 58.0698V58.0646ZM79.8188 87.971C79.7927 88.4719 79.6361 88.8163 79.3126 89.072C79.0569 89.2808 78.6133 89.2912 78.3524 89.1086C78.0967 88.9259 78.008 88.5137 78.1489 88.1797C78.3367 87.7309 78.702 87.5222 79.1612 87.4491C79.5161 87.3969 79.8396 87.6996 79.8188 87.9605V87.971ZM78.8847 48.7185C79.1456 48.7655 79.323 48.9846 79.2969 49.2351C79.2552 49.6108 78.9316 49.8613 78.5872 49.7987C78.2898 49.7413 78.0758 49.4647 78.1019 49.1673C78.128 48.8437 78.4776 48.6507 78.8899 48.7237L78.8847 48.7185ZM63.7149 58.9465C64.0906 58.8943 64.3933 59.1291 64.4194 59.5048C64.4507 59.9119 64.2315 60.1676 63.8349 60.1832C63.4801 60.1989 63.1774 59.9066 63.1774 59.5518C63.1774 59.2544 63.4122 58.9882 63.7097 58.9465H63.7149ZM54.6297 56.3999C55.0837 55.9824 55.8195 56.1233 56.1013 56.6921C56.2213 56.9374 56.1483 57.2035 55.9396 57.3444C55.6682 57.5271 55.3447 57.6314 54.9846 57.7932C54.7863 57.6262 54.5619 57.5114 54.4628 57.3288C54.2853 56.9948 54.3845 56.6295 54.6297 56.3999ZM49.8341 44.1629C50.0846 44.215 50.2672 44.5647 50.1837 44.8778C50.1159 45.1283 49.9698 45.3161 49.6775 45.3161C49.3905 45.3161 49.1818 44.9978 49.234 44.6795C49.2862 44.3716 49.5888 44.1107 49.8341 44.1629Z" fill="black"/>
<path id="Vector_27" d="M110.348 82.0063C110.066 82.1107 109.774 82.1577 109.476 82.1577C109.873 82.8256 109.81 83.8328 109.257 84.3859C108.955 84.6886 108.595 84.7825 108.203 84.7095C111.021 87.6004 113.541 90.7575 115.081 94.4782C115.217 94.4782 115.352 94.5304 115.478 94.6452C115.545 94.7026 115.566 94.807 115.65 94.9583C115.577 95.0731 115.514 95.2297 115.42 95.3549C115.441 95.4071 115.462 95.4593 115.478 95.5062C115.843 96.5343 116.093 97.557 116.255 98.5746C121.797 103.683 126.692 109.518 130.522 116.025C131.112 117.032 131.675 118.05 132.213 119.088C132.239 119.088 132.265 119.083 132.296 119.088C133.001 119.14 133.491 118.853 133.982 118.425C134.258 118.185 134.618 118.211 134.942 118.415C135.266 118.618 135.375 118.921 135.344 119.292C135.297 119.792 134.994 120.038 134.451 119.996C134.305 119.986 134.164 119.923 134.024 119.912C133.935 119.907 133.841 119.959 133.726 119.991C133.434 120.325 133.272 120.685 133.209 121.087C138.397 132.009 140.505 144.397 138.188 156.363C136.909 162.985 134.196 169.304 130.287 174.757C135.918 174.455 141.465 171.689 144.925 167.217C151.682 158.481 147.544 147.204 145.092 137.707C143.719 132.405 142.686 126.827 144.293 121.452C144.695 120.1 145.233 118.806 145.864 117.559C141.298 106.997 134.472 97.2909 125.492 90.2827C125.251 90.4653 124.933 90.5697 124.547 90.5645C123.723 90.5488 123.222 90.0217 123.206 89.1659C123.206 88.9729 123.227 88.7954 123.269 88.6337C119.344 85.8784 115.039 83.624 110.364 82.0168C110.358 82.0168 110.353 82.0168 110.348 82.0116V82.0063ZM141.089 159.541C141.235 159.525 141.501 159.676 141.538 159.802C141.637 160.167 141.653 160.558 141.684 160.835C141.658 161.237 141.648 161.524 141.611 161.811C141.564 162.15 141.074 162.322 140.813 162.098C140.437 161.774 140.186 161.362 140.077 160.882C139.946 160.276 140.442 159.609 141.094 159.541H141.089ZM139.727 141.005C140.004 140.969 140.275 141.219 140.286 141.527C140.296 141.84 140.092 142.117 139.816 142.153C139.55 142.184 139.268 141.924 139.252 141.626C139.237 141.318 139.445 141.042 139.722 141.01L139.727 141.005ZM136.575 115.472C136.883 115.487 137.102 115.743 137.076 116.056C137.05 116.374 136.815 116.578 136.497 116.568C136.189 116.557 135.98 116.312 136.001 115.983C136.022 115.67 136.262 115.456 136.581 115.472H136.575ZM134.493 102.217C134.77 102.201 134.942 102.332 134.989 102.603C135.036 102.864 134.874 103.089 134.509 103.13C134.415 103.031 134.222 102.901 134.149 102.718C134.05 102.483 134.253 102.233 134.493 102.217ZM131.32 114.861C131.654 114.835 131.957 115.132 131.962 115.487C131.962 115.821 131.675 116.119 131.331 116.15C130.997 116.176 130.673 115.863 130.694 115.529C130.71 115.174 130.981 114.887 131.32 114.866V114.861ZM125.935 105.338C126.186 105.379 126.373 105.525 126.389 105.912C126.285 105.979 126.144 106.126 125.987 106.146C125.768 106.178 125.533 105.896 125.559 105.666C125.58 105.458 125.711 105.296 125.935 105.338Z" fill="black"/>
</g>
<defs>
<clipPath id="clip0_188_7672">
<rect width="160" height="184.678" fill="white"/>
</clipPath>
</defs>
</svg>
