<svg width="135" height="30" viewBox="0 0 135 30" fill="none" xmlns="http://www.w3.org/2000/svg">
<g clip-path="url(#clip0_543_88150)">
<path d="M86.9588 10.5533C86.9588 8.71631 86.6016 3.1626 76.6233 3.1626H64.8484V27.4348H73.7986V17.3045L77.8029 27.4668H88.3982L82.4494 16.5832C85.2091 15.8477 86.9588 13.9431 86.9588 10.5533ZM75.4292 12.7848H73.676V9.39143H75.4292C77.5252 9.39143 78.3477 10.2264 78.3477 11.1823C78.3477 12.1381 77.5576 12.7848 75.4292 12.7848Z" fill="black"/>
<path d="M62.2113 3.1626H53.1493L47.6478 11.9924V3.1626H38.9141V27.4668H47.6478V18.8537L48.0519 18.3669L53.3441 27.4668H62.7272L54.7438 14.501L62.2113 3.1626Z" fill="black"/>
<path d="M95.072 3.1626L89.8303 27.4668H98.8238L99.7654 21.5648H102.543L103.485 27.4668H113.773L105.941 3.1626H95.0684H95.072ZM100.768 8.68078H100.963L101.252 10.7878L102.218 17.642H100.003L100.577 10.7665L100.772 8.68433L100.768 8.68078Z" fill="black"/>
<path d="M124.708 3.1626L123.286 15.8761L122.897 19.2765H122.572L122.186 15.8761L120.696 3.1626H110.408L117.915 27.4668H128.138L135 3.1626H124.708Z" fill="black"/>
<path d="M29.026 26.2124H0V30.0002H29.026V26.2124Z" fill="black"/>
<path d="M29.026 0H0V3.78775H29.026V0Z" fill="black"/>
<path d="M29.026 5.14502H0V7.30184H29.026V5.14502Z" fill="black"/>
<path d="M29.026 22.769H0V24.9259H29.026V22.769Z" fill="black"/>
<path d="M4.62482 8.60596H0V21.4474H4.62482V8.60596Z" fill="black"/>
<path d="M10.7252 8.60596H6.10034V21.4474H10.7252V8.60596Z" fill="black"/>
<path d="M16.8255 8.60596H12.2007V21.4474H16.8255V8.60596Z" fill="black"/>
<path d="M22.9256 8.60596H18.3008V21.4474H22.9256V8.60596Z" fill="black"/>
<path d="M29.0259 8.60596H24.4011V21.4474H29.0259V8.60596Z" fill="black"/>
</g>
<defs>
<clipPath id="clip0_543_88150">
<rect width="135" height="30" fill="white"/>
</clipPath>
</defs>
</svg>
