<svg width="241" height="130" viewBox="0 0 241 130" fill="none" xmlns="http://www.w3.org/2000/svg">
<g id="Layer_1" clip-path="url(#clip0_188_7834)">
<path id="Vector" d="M151.307 123.874C151.611 123.371 151.862 122.836 152.063 122.288C130.703 125.241 108.936 124.835 87.6929 121.063C87.9189 122.552 88.3838 123.978 89.3136 125.196C91.2442 127.705 94.4017 128.162 97.3332 128.601C105.082 129.761 112.914 130.142 120.74 129.942C128.514 129.742 136.34 129.091 144.037 127.943C146.949 127.511 149.706 126.512 151.301 123.868L151.307 123.874Z" fill="black"/>
<path id="Vector_2" d="M96.3462 27.9203C93.5439 27.9074 90.7416 27.8945 87.9392 27.8816C87.8424 28.8939 87.7391 29.9127 87.6422 30.9251C90.4381 31.0154 93.2211 31.2153 96.004 31.5119C96.1202 30.3125 96.23 29.1196 96.3462 27.9203Z" fill="black"/>
<path id="Vector_3" d="M215.331 51.5011C212.728 50.4824 209.784 50.2373 207.072 50.8048C201.526 51.9719 197.212 56.4597 195.094 61.5537C191.724 69.6719 193.642 77.9512 197.477 85.4568C198.2 84.7088 198.917 83.948 199.621 83.1806C199.634 83.1677 199.64 83.1613 199.653 83.1484C200.292 82.452 200.919 81.7427 201.545 81.0334C201.597 80.9689 201.655 80.9045 201.706 80.84C197.858 74.8497 196.496 66.9637 200.641 60.7348C203.708 56.118 209.448 53.8031 214.62 55.3636C214.904 54.0804 215.15 52.7908 215.337 51.5011H215.331Z" fill="black"/>
<path id="Vector_4" d="M214.136 57.3623C209.397 55.8535 204.225 58.336 201.778 62.8045C198.872 68.1048 200.125 74.2692 203.095 79.2149C203.353 78.9118 203.605 78.6023 203.857 78.2928C204.347 77.6932 204.838 77.0999 205.316 76.4938C205.193 76.1585 205.077 75.8232 204.98 75.475C203.87 71.5739 204.625 67.1892 207.976 64.6358C209.274 63.6492 210.811 63.0882 212.348 63.0109C213.039 61.1603 213.633 59.271 214.13 57.3688L214.136 57.3623Z" fill="black"/>
<path id="Vector_5" d="M206.663 74.3399C208.536 71.4382 210.157 68.369 211.493 65.1836C210.06 65.5318 208.723 66.4539 207.826 67.6984C206.257 69.8843 206.063 72.1475 206.663 74.3399Z" fill="black"/>
<path id="Vector_6" d="M108.267 68.0855C108.299 68.0017 108.338 67.9179 108.37 67.8341C108.428 67.6857 108.48 67.531 108.532 67.3762C108.577 67.2473 108.622 67.1183 108.661 66.9829C108.706 66.8346 108.751 66.6798 108.796 66.5251C108.835 66.3897 108.874 66.2543 108.906 66.1124C108.945 65.9641 108.984 65.8158 109.016 65.661C109.048 65.5127 109.08 65.3644 109.106 65.2097C109.132 65.0678 109.164 64.926 109.184 64.7906C109.229 64.5197 109.268 64.2425 109.294 63.9716C109.306 63.8556 109.313 63.746 109.319 63.6299C109.332 63.4494 109.345 63.2624 109.358 63.0818C109.358 62.9529 109.358 62.8239 109.365 62.7014C109.365 62.5273 109.365 62.3532 109.365 62.1791C109.365 62.0566 109.358 61.9276 109.352 61.8051C109.339 61.6181 109.326 61.4311 109.306 61.2441C109.294 61.1345 109.287 61.0313 109.274 60.9217C109.235 60.6315 109.197 60.3478 109.139 60.0577C109.126 60.0061 109.113 59.9545 109.1 59.9029C109.048 59.6643 108.99 59.4257 108.926 59.1872C108.9 59.0904 108.867 58.9937 108.835 58.8906C108.777 58.6971 108.712 58.5037 108.641 58.3167C108.603 58.2135 108.564 58.1103 108.525 58.0136C108.448 57.8202 108.364 57.6267 108.28 57.4397C108.241 57.3495 108.202 57.2656 108.157 57.1754C108.022 56.8981 107.879 56.6273 107.718 56.3629C104.89 51.6236 98.7751 49.702 93.5385 50.8111C87.9919 51.9782 83.6787 56.4661 81.5608 61.5601C76.563 73.5922 83.1815 85.9919 90.452 95.6769C90.6264 95.7479 90.7878 95.8639 90.9169 96.0509C94.4037 101.003 98.5879 105.388 103.353 109.102C104.619 109.179 105.884 109.244 107.15 109.302C107.615 109.321 108.086 109.34 108.551 109.353C109.326 109.386 110.107 109.411 110.888 109.431C111.489 109.45 112.083 109.463 112.683 109.476C113.29 109.489 113.891 109.495 114.498 109.502C115.208 109.508 115.925 109.521 116.635 109.521C116.9 109.521 117.158 109.521 117.423 109.521C119.502 109.521 121.581 109.482 123.66 109.418C124.655 109.386 125.649 109.353 126.643 109.308C126.721 109.308 126.805 109.302 126.882 109.295C127.967 109.244 129.045 109.192 130.13 109.128C122.124 107.496 114.272 105.065 107.079 101.145C100.054 97.3147 93.7128 92.066 89.1413 85.4696C84.673 79.0279 81.4445 70.4326 84.8345 62.811C87.7078 56.3565 94.7782 52.7907 101.474 55.8277C106.498 58.1039 108.9 63.4751 108.08 68.5498C108.144 68.4015 108.215 68.2532 108.273 68.0984L108.267 68.0855Z" fill="black"/>
<path id="Vector_7" d="M94.4491 64.6292C97.2256 62.5142 101.106 62.3208 103.747 64.7646C103.947 64.9516 104.135 65.1515 104.315 65.3514C104.354 65.3965 104.393 65.4352 104.432 65.4804C104.587 65.6673 104.735 65.8608 104.871 66.0607C104.922 66.1316 104.968 66.209 105.019 66.2799C105.116 66.4282 105.206 66.5765 105.29 66.7313C105.374 66.8796 105.452 67.0279 105.523 67.1762C105.568 67.2729 105.62 67.3696 105.665 67.4728C105.794 67.7565 105.91 68.0531 106.007 68.3497C107.06 62.2047 102.159 55.9372 95.1529 56.7754C87.4239 57.6975 84.4924 66.6217 85.8225 73.2567C87.2431 80.3239 91.8663 86.6301 97.0513 91.4726C107.815 101.532 122.266 105.929 136.529 108.205C135.451 107.174 134.399 106.116 133.378 105.027C133.294 104.936 133.217 104.846 133.133 104.762C132.707 104.304 132.281 103.847 131.867 103.376C131.357 102.808 130.86 102.228 130.369 101.641C130.279 101.583 130.195 101.519 130.118 101.416C127.522 98.1657 124.991 94.7805 122.847 91.1824C114.976 92.672 106.879 91.0857 100.202 86.6365C100.131 86.585 100.067 86.5334 100.009 86.4753C96.4185 83.4834 92.7703 80.1046 91.4466 75.462C90.336 71.5609 91.0915 67.1762 94.4426 64.6228L94.4491 64.6292Z" fill="black"/>
<path id="Vector_8" d="M55.325 64.6292C58.1015 62.5143 61.9821 62.3208 64.623 64.7647C64.8232 64.9516 65.0105 65.1515 65.1913 65.3514C65.23 65.3966 65.2687 65.4417 65.3075 65.4868C65.4689 65.6803 65.6174 65.8737 65.7595 66.0801C65.8047 66.1445 65.8499 66.2155 65.8886 66.28C65.9919 66.4412 66.0888 66.6024 66.1792 66.7636C66.2438 66.8796 66.3083 67.0021 66.3664 67.1182C66.431 67.2536 66.502 67.389 66.5601 67.5309C66.6118 67.647 66.6635 67.7695 66.7087 67.892C66.7732 68.0661 66.8378 68.2402 66.8959 68.4143V68.4207C67.9419 62.482 63.6028 56.2725 56.9005 56.524C49.7978 56.7948 46.466 63.4879 46.9309 69.8586C47.3635 75.8231 50.2433 81.4974 53.9303 86.1078C61.8788 96.0443 73.8243 101.39 85.1627 106.471C85.5566 106.645 85.7051 106.955 85.6922 107.264C86.0926 107.322 86.4993 107.387 86.8997 107.445C87.8037 107.574 88.7076 107.69 89.6181 107.806C90.0119 107.857 90.4058 107.902 90.7997 107.954C91.2323 108.006 91.6649 108.057 92.104 108.109C93.2792 108.244 94.4608 108.367 95.6424 108.483C85.873 104.678 76.336 99.0621 72.9849 88.6033C72.507 88.6871 72.0228 88.7451 71.5385 88.7902C71.5127 88.7902 71.4933 88.7902 71.4675 88.7902C71.2608 88.8096 71.0478 88.8225 70.8411 88.8354C70.7895 88.8354 70.7378 88.8354 70.6797 88.8354C70.4989 88.8418 70.3181 88.8483 70.1373 88.8483C70.0728 88.8483 70.0082 88.8483 69.9436 88.8483C69.7757 88.8483 69.6014 88.8483 69.427 88.8418C69.356 88.8418 69.2915 88.8418 69.2204 88.8354C69.0461 88.8289 68.8782 88.816 68.7039 88.8096C68.6393 88.8096 68.5747 88.8031 68.5102 88.7967C68.3294 88.7838 68.1486 88.7645 67.9613 88.7451C67.9097 88.7451 67.858 88.7322 67.7999 88.7258C67.5739 88.7 67.3414 88.6677 67.1154 88.6355C67.1154 88.6355 67.1025 88.6355 67.0961 88.6355C66.8572 88.5968 66.6183 88.5517 66.3729 88.5065C66.3406 88.5065 66.3083 88.4936 66.2825 88.4872C66.0823 88.4485 65.8822 88.4034 65.682 88.3582C65.611 88.3389 65.5399 88.3195 65.4689 88.3066C65.3075 88.2679 65.1525 88.2228 64.9911 88.1841C64.9072 88.1583 64.8232 88.1325 64.7393 88.1132C64.5972 88.0681 64.4487 88.0229 64.3067 87.9778C64.2163 87.952 64.1323 87.9198 64.0419 87.8875C63.8999 87.8424 63.7643 87.7908 63.6222 87.7392C63.5318 87.707 63.4414 87.6747 63.351 87.6425C63.209 87.5909 63.0669 87.5329 62.9313 87.4748C62.8474 87.4426 62.7634 87.4039 62.6795 87.3717C62.5245 87.3072 62.376 87.2362 62.221 87.1653C62.15 87.1331 62.079 87.1008 62.008 87.0686C61.7884 86.9654 61.5689 86.8558 61.3494 86.7398C61.1879 86.7075 61.0265 86.6366 60.8715 86.5141C57.2814 83.5222 53.6139 80.1369 52.2966 75.4878C51.186 71.5867 51.9415 67.202 55.2927 64.6486L55.325 64.6292Z" fill="black"/>
<path id="Vector_9" d="M79.9436 85.8497C79.8855 85.8884 79.8274 85.9271 79.7693 85.9594C79.2979 86.2624 78.8136 86.5397 78.3294 86.7912C78.2842 86.8105 78.2454 86.8363 78.2002 86.8556C77.9742 86.9717 77.7547 87.0813 77.5287 87.1845C77.5029 87.1974 77.477 87.2103 77.4512 87.2232C76.9282 87.4618 76.3987 87.6746 75.8563 87.8551C75.837 87.8551 75.8241 87.868 75.8047 87.8744C75.5399 87.9647 75.2688 88.0485 74.9976 88.1324C78.3552 98.4235 88.3248 103.634 97.9909 107.186C96.8222 106.103 95.6922 104.975 94.6139 103.801C94.601 103.782 94.5816 103.769 94.5687 103.75C94.0651 103.208 93.5743 102.653 93.0901 102.092C93.0061 101.989 92.9157 101.893 92.8318 101.789C92.3604 101.235 91.8891 100.674 91.4371 100.1C91.3273 100.042 91.2175 99.9582 91.1207 99.8357C87.4144 95.193 83.8307 90.2731 81.3319 84.8696C81.1123 85.0437 80.8928 85.2049 80.6668 85.3661C80.6022 85.4113 80.5377 85.4564 80.4795 85.5015C80.3052 85.6241 80.1309 85.7401 79.9565 85.8562L79.9436 85.8497Z" fill="black"/>
<path id="Vector_10" d="M69.0069 68.4274C69.2975 67.7374 69.5428 67.0346 69.7365 66.3124C69.7495 66.2544 69.7688 66.1963 69.7817 66.1319C69.8334 65.932 69.8786 65.7321 69.9238 65.5322C69.9432 65.4484 69.9561 65.3645 69.9755 65.2872C70.0142 65.0937 70.0529 64.8938 70.0788 64.7004C70.0917 64.623 70.0981 64.5392 70.1111 64.4618C70.1563 64.1136 70.195 63.7654 70.2144 63.4172C70.2208 63.3076 70.2337 63.1915 70.2337 63.0819C70.2337 62.9272 70.2337 62.7724 70.2337 62.6176C70.2337 62.4758 70.2337 62.3339 70.2337 62.1856C70.2337 62.0373 70.2208 61.8955 70.2144 61.7472C70.2079 61.586 70.1885 61.4312 70.1756 61.27C70.1627 61.141 70.1498 61.0121 70.1369 60.8767C70.1111 60.6574 70.0723 60.4382 70.0336 60.219C70.0207 60.1351 70.0013 60.0449 69.9884 59.961C69.9367 59.6967 69.8721 59.4323 69.7947 59.1744C69.7688 59.0776 69.7365 58.9809 69.7043 58.8842C69.6461 58.6908 69.5816 58.4973 69.5106 58.3103C69.4718 58.2072 69.4331 58.104 69.3943 58.0073C69.3168 57.8138 69.2329 57.6204 69.149 57.4334C69.1102 57.3431 69.0715 57.2593 69.0263 57.169C68.8907 56.8982 68.7486 56.6274 68.5937 56.3566C65.7655 51.6172 59.6507 49.6957 54.4141 50.8047C48.8675 51.9718 44.5543 56.4597 42.4364 61.5537C37.9165 72.4316 42.8948 83.6062 49.2614 92.8076C57.2746 98.4174 66.3725 102.57 75.7803 105.356C75.7997 105.433 75.8255 105.51 75.8449 105.588C76.568 105.73 77.2912 105.865 78.0144 105.994C78.6537 106.11 79.2994 106.226 79.9386 106.336C73.1458 103.234 66.437 99.8941 60.5095 95.3159C54.9178 90.9957 50.0556 85.5148 47.2275 78.9829C44.6963 73.1409 43.3985 65.4806 47.1758 59.8514C50.682 54.6349 57.9009 52.9133 63.3248 56.1631C67.7155 58.7939 69.7301 63.6945 68.9875 68.4209L69.0069 68.4274Z" fill="black"/>
<path id="Vector_11" d="M171.067 64.6293C173.843 62.5143 177.724 62.3209 180.365 64.7647C180.572 64.9517 180.752 65.1516 180.933 65.358C180.972 65.4031 181.011 65.4482 181.049 65.4869C181.217 65.6868 181.379 65.8931 181.521 66.1059C181.547 66.1446 181.572 66.1898 181.598 66.2284C181.727 66.4219 181.844 66.6218 181.96 66.8281C181.986 66.8733 182.005 66.9119 182.031 66.9571C182.147 67.1828 182.257 67.4149 182.36 67.647C182.386 67.7115 182.412 67.7695 182.438 67.834C182.535 68.0726 182.625 68.3112 182.702 68.5562C183.051 66.0414 182.838 63.488 181.611 61.1538C180.016 58.1232 177.027 56.4402 173.617 56.5047C166.734 56.6272 162.595 63.3784 162.699 69.6846C162.815 76.9065 167.309 83.0451 172.19 87.9779C175.335 91.1632 178.757 94.0455 182.399 96.6248C187.222 93.865 191.755 90.6474 195.868 86.9139C195.403 86.0241 194.958 85.1214 194.551 84.2057C190.754 90.1509 182.56 91.3954 176.911 86.8108C176.794 86.714 176.71 86.6109 176.659 86.5077C176.659 86.5077 176.652 86.5077 176.646 86.5012C173.056 83.5093 169.388 80.1241 168.071 75.475C166.96 71.5739 167.716 67.1892 171.067 64.6358V64.6293Z" fill="black"/>
<path id="Vector_12" d="M184.768 68.382C184.897 68.0789 185.014 67.7694 185.123 67.4535C185.143 67.389 185.162 67.3309 185.188 67.2665C185.298 66.9505 185.395 66.6281 185.485 66.3057C185.498 66.2477 185.517 66.1896 185.53 66.1316C185.582 65.9317 185.627 65.7318 185.672 65.5255C185.692 65.4417 185.705 65.3643 185.724 65.2804C185.763 65.087 185.801 64.8871 185.827 64.6937C185.84 64.6163 185.847 64.5389 185.86 64.4551C185.911 64.1069 185.943 63.7523 185.963 63.3976C185.969 63.288 185.982 63.1784 185.982 63.0688C185.982 62.914 185.982 62.7592 185.982 62.6045C185.982 62.4626 185.982 62.3208 185.982 62.1789C185.982 62.0306 185.969 61.8888 185.963 61.7404C185.95 61.5792 185.937 61.4245 185.924 61.2633C185.911 61.1343 185.898 61.0054 185.885 60.87C185.86 60.6507 185.821 60.4315 185.782 60.2187C185.769 60.1349 185.75 60.0446 185.737 59.9608C185.685 59.6964 185.621 59.432 185.543 59.1677C185.517 59.0709 185.485 58.9742 185.453 58.8775C185.395 58.684 185.33 58.4906 185.259 58.3036C185.22 58.2004 185.182 58.0973 185.143 58.0005C185.065 57.8071 184.981 57.6137 184.897 57.4267C184.859 57.3364 184.82 57.2526 184.775 57.1623C184.639 56.8915 184.497 56.6207 184.336 56.3498C181.508 51.6105 175.393 49.689 170.156 50.798C164.61 51.9651 160.296 56.453 158.178 61.547C153.207 73.5147 159.728 85.8499 166.96 95.5156C167.083 95.5929 167.199 95.7026 167.289 95.8444C167.464 96.1217 167.651 96.386 167.832 96.6569C168.277 97.2372 168.729 97.8111 169.175 98.3721C169.297 98.5268 169.368 98.6945 169.394 98.8557C170.156 99.8616 170.963 100.829 171.809 101.764C174.747 100.558 177.62 99.2103 180.41 97.7144C176.497 94.8707 172.829 91.6789 169.53 88.1583C165.32 83.664 161.704 78.312 160.845 72.0896C160.07 66.4669 161.84 60.4444 166.482 56.9108C170.505 53.848 176.549 53.4933 180.597 56.7174C184.207 59.5997 185.207 64.0618 184.749 68.4013C184.749 68.3884 184.762 68.3755 184.762 68.3626L184.768 68.382Z" fill="black"/>
<path id="Vector_13" d="M133.455 66.222C136.231 64.107 140.112 63.9135 142.753 66.3574C142.972 66.5573 143.172 66.77 143.36 66.9893C143.373 67.0022 143.385 67.0151 143.398 67.0344C143.573 67.2343 143.728 67.4471 143.876 67.6663C143.902 67.705 143.934 67.7437 143.96 67.7824C144.089 67.9758 144.212 68.1822 144.328 68.3885C144.367 68.453 144.406 68.5175 144.438 68.5884C144.535 68.7754 144.625 68.9688 144.709 69.1687C144.748 69.259 144.787 69.3428 144.825 69.4331C144.812 67.6599 144.399 65.8931 143.573 64.2488C141.997 61.128 138.607 58.3553 134.92 59.1742C127.54 60.812 125.358 70.5099 126.791 76.8097C128.425 83.98 133.551 89.6156 139.163 94.0777C145.013 98.7332 151.547 102.499 158.417 105.433C158.488 105.465 158.553 105.497 158.605 105.536C159.786 105.304 160.968 105.072 162.149 104.82C162.195 104.807 162.246 104.801 162.292 104.788C163.499 104.537 164.706 104.266 165.914 103.995C167.218 103.556 168.51 103.086 169.795 102.589C168.458 101.055 167.218 99.4425 166.088 97.7402C163.589 94.5033 161.22 91.1245 159.276 87.5329C153.671 92.5302 145.516 92.8139 139.472 88.3196C139.324 88.2809 139.175 88.2164 139.033 88.1003C135.443 85.1084 131.776 81.7232 130.459 77.0741C129.348 73.173 130.103 68.7883 133.455 66.2349V66.222Z" fill="black"/>
<path id="Vector_14" d="M147.228 69.7877C147.228 69.7877 147.228 69.7813 147.228 69.7748C147.344 69.4911 147.447 69.201 147.551 68.9108C147.57 68.8528 147.589 68.7883 147.609 68.7303C147.693 68.4852 147.764 68.2338 147.835 67.9823C147.854 67.9113 147.874 67.8469 147.893 67.7759C147.97 67.4664 148.048 67.1569 148.106 66.8474C148.112 66.8087 148.119 66.7765 148.125 66.7378C148.164 66.5186 148.203 66.2993 148.229 66.0736C148.242 65.9963 148.248 65.9189 148.261 65.8351C148.287 65.6352 148.306 65.4288 148.326 65.2289C148.332 65.1322 148.338 65.029 148.345 64.9323C148.358 64.7389 148.364 64.5519 148.371 64.3584C148.371 64.2424 148.371 64.1328 148.371 64.0167C148.371 63.8361 148.371 63.6556 148.364 63.4751C148.351 63.1978 148.325 62.9205 148.3 62.6433C148.287 62.5143 148.261 62.3853 148.242 62.2628C148.216 62.0887 148.19 61.9146 148.158 61.7405C148.132 61.6116 148.106 61.4826 148.074 61.3601C148.035 61.186 147.996 61.0183 147.951 60.8442C147.919 60.7217 147.88 60.5992 147.848 60.4767C147.796 60.3026 147.738 60.122 147.673 59.948C147.635 59.8319 147.589 59.7223 147.551 59.6062C147.473 59.4128 147.396 59.2258 147.305 59.0388C147.26 58.9485 147.221 58.8518 147.176 58.7615C147.041 58.4842 146.892 58.207 146.731 57.9361C143.902 53.1968 137.788 51.2753 132.551 52.3843C127.005 53.5514 122.691 58.0393 120.573 63.1333C115.44 75.4879 122.556 88.2293 130.052 98.0239C130.065 98.0433 130.084 98.0562 130.097 98.0755C132.964 101.783 136.167 105.214 139.647 108.334C140.874 108.205 142.101 108.064 143.328 107.915C143.599 107.883 143.87 107.844 144.148 107.812C145.142 107.69 146.137 107.561 147.124 107.419C147.357 107.387 147.583 107.354 147.815 107.322C148.894 107.167 149.972 107.006 151.05 106.838C151.179 106.819 151.309 106.8 151.438 106.774C152.652 106.581 153.859 106.381 155.073 106.168C155.086 106.168 155.099 106.168 155.105 106.161C148.493 103.118 142.23 99.2813 136.638 94.6258C131.55 90.3894 127.069 85.1149 125.171 78.6668C123.492 72.9602 124.151 66.4476 127.889 61.6696C131.486 57.0721 137.426 55.3247 142.204 59.2838C145.568 62.0694 147.157 66.4605 146.815 70.7163C146.963 70.4068 147.099 70.0972 147.228 69.7813V69.7877Z" fill="black"/>
<path id="Vector_15" d="M113.6 28.4488C110.798 28.4359 107.995 28.4231 105.193 28.4102C105.096 29.4225 104.993 30.4413 104.896 31.4537C107.692 31.5439 110.475 31.7438 113.258 32.0404C113.374 30.8411 113.484 29.6482 113.6 28.4488Z" fill="black"/>
<path id="Vector_16" d="M185.452 27.8688C182.649 27.8559 179.847 27.843 177.045 27.8301C176.948 28.8424 176.844 29.8612 176.748 30.8736C179.543 30.9639 182.326 31.1637 185.109 31.4604L185.452 27.8688Z" fill="black"/>
<path id="Vector_17" d="M141.77 110.179C140.847 110.282 139.924 110.379 139 110.469C128.107 111.546 117.15 111.81 106.231 111.268C105.011 111.21 103.797 111.139 102.583 111.056C93.8465 110.475 85.1424 109.386 76.5288 107.767C77.7298 111.352 79.4345 114.757 82.2368 117.31C82.5532 117.6 82.8889 117.871 83.2247 118.129C106.063 122.765 129.605 123.442 152.657 120.147C152.689 119.967 152.721 119.786 152.747 119.606C156.227 118.471 159.004 116.221 160.528 112.855C161.387 110.965 161.787 108.973 161.948 106.948C158.203 107.728 154.439 108.418 150.655 108.999C147.704 109.45 144.74 109.843 141.77 110.172V110.179Z" fill="black"/>
<path id="Vector_18" d="M27.4624 68.1177C27.5914 68.3756 27.7203 68.6335 27.8557 68.8914C27.7784 68.7173 27.6945 68.5432 27.6236 68.3692C27.5785 68.266 27.5269 68.1886 27.4689 68.1177H27.4624Z" fill="#F6F2EB"/>
<path id="Vector_19" d="M45.0531 25.631C42.2508 25.6181 39.4485 25.6052 36.6461 25.5923C36.5493 26.6046 36.446 27.6234 36.3491 28.6358C39.145 28.7261 41.928 28.926 44.7109 29.2226L45.0531 25.631Z" fill="black"/>
<path id="Vector_20" d="M204.295 26.9659C201.493 26.953 198.691 26.9401 195.888 26.9272C195.791 27.9396 195.688 28.9584 195.591 29.9707C198.387 30.061 201.17 30.2609 203.953 30.5575C204.069 29.3582 204.179 28.1653 204.295 26.9659Z" fill="black"/>
<path id="Vector_21" d="M61.9633 26.6822C59.161 26.6693 56.3586 26.6565 53.5563 26.6436C53.4594 27.6559 53.3561 28.6747 53.2593 29.6871C56.0552 29.7773 58.8381 29.9772 61.6211 30.2738C61.7373 29.0745 61.8471 27.8816 61.9633 26.6822Z" fill="black"/>
<path id="Vector_22" d="M78.436 27.3268C75.6336 27.3139 72.8313 27.301 70.029 27.2881C69.9321 28.3004 69.8288 29.3192 69.7319 30.3316C72.5278 30.4219 75.3108 30.6218 78.0937 30.9184C78.21 29.719 78.3197 28.5261 78.436 27.3268Z" fill="black"/>
<path id="Vector_23" d="M148.663 28.3072C145.86 28.2943 143.058 28.2815 140.256 28.2686C140.159 29.2809 140.055 30.2997 139.958 31.3121C142.754 31.4023 145.537 31.6022 148.32 31.8988C148.437 30.6995 148.546 29.5066 148.663 28.3072Z" fill="black"/>
<path id="Vector_24" d="M167.237 28.2555C164.434 28.2426 161.632 28.2297 158.83 28.2168C158.733 29.2291 158.63 30.2479 158.533 31.2603C161.329 31.3506 164.112 31.5505 166.895 31.8471C167.011 30.6477 167.121 29.4548 167.237 28.2555Z" fill="black"/>
<path id="Vector_25" d="M131.538 28.5006C128.735 28.4877 125.933 28.4748 123.131 28.4619C123.034 29.4743 122.93 30.4931 122.833 31.5054C125.629 31.5957 128.412 31.7956 131.195 32.0922C131.312 30.8928 131.421 29.6999 131.538 28.5006Z" fill="black"/>
<path id="Vector_26" d="M15.7002 19.125C7.51916 21.4398 2.48917 29.2678 0.900747 37.2183C-0.732873 45.3816 0.0161384 54.151 1.95969 62.1918C2.43751 64.1585 2.99927 66.138 3.65143 68.0918C4.15507 68.1369 4.49083 68.5947 4.45855 69.2202C4.44564 69.4459 4.36815 69.6393 4.24547 69.7876C6.06634 74.7398 8.53937 79.4727 11.9164 83.4641C16.5073 88.8933 23.3775 92.5945 30.6352 91.9368C33.6442 91.666 37.0728 90.37 39.6233 88.2808C34.8774 84.1669 30.9129 79.2276 27.9233 73.6952C27.2001 73.476 26.4834 73.1149 25.7795 72.5668C23.003 70.3938 21.3759 66.9182 20.1749 63.6942C20.0651 63.3976 19.9618 63.101 19.8585 62.8044C19.5485 62.9978 19.1611 63.0429 18.7931 62.8624C18.3023 62.6303 18.1215 62.1467 18.1603 61.6437C18.199 61.1665 18.3282 60.6894 18.4638 60.2251C18.5283 59.9994 18.6833 59.8511 18.8641 59.7544C17.9795 56.7883 17.3144 53.7512 16.998 50.6755C16.5719 46.5745 16.4556 42.0093 17.76 38.0437C18.0957 37.012 18.5929 36.0125 19.2838 35.1936C20.0974 29.6547 21.731 24.3092 24.1653 19.241C21.4598 18.4092 18.4961 18.319 15.6873 19.1121L15.7002 19.125ZM6.42148 33.7041C6.4473 33.7428 6.47313 33.7879 6.49896 33.8266C6.43439 33.8782 6.36982 33.9234 6.30525 33.9749C6.27942 33.9362 6.22131 33.8653 6.22777 33.8589C6.28588 33.8008 6.35691 33.7557 6.42148 33.7041ZM5.98886 40.681C6.01469 40.7519 6.0276 40.7906 6.04697 40.8357C6.00823 40.8486 5.96303 40.868 5.92429 40.8808C5.94366 40.8228 5.96303 40.7648 5.99531 40.681H5.98886ZM6.04697 48.8378L5.92429 48.8829L5.94366 48.7475L6.04697 48.8378ZM4.89763 61.1536C4.76849 61.2633 4.58769 61.3535 4.41981 61.3793C3.98719 61.4374 3.52874 61.0569 3.37377 60.554C3.21881 60.0446 3.40606 59.5352 3.84514 59.3159C3.94845 59.2644 4.07113 59.2579 4.19381 59.2257C4.65872 59.2901 4.96865 59.5481 5.11071 59.9865C5.23985 60.3992 5.28505 60.8312 4.90408 61.1536H4.89763ZM6.4473 53.7835C6.07925 53.777 5.78223 53.4998 5.73058 53.1129C5.67892 52.7389 5.95657 52.3649 6.29879 52.3391C6.6281 52.3133 6.93158 52.6099 6.99615 53.0226C7.05426 53.4417 6.80244 53.7964 6.45376 53.7899L6.4473 53.7835ZM14.6929 50.8947C14.7639 50.9721 14.8866 51.043 14.8931 51.1204C14.8931 51.1978 14.7768 51.2816 14.7123 51.3654C14.6219 51.3203 14.5379 51.2752 14.4475 51.23C14.5315 51.1204 14.6089 51.0044 14.6929 50.8947ZM14.2538 61.547C13.6662 61.5599 13.2917 61.1214 13.324 60.4701C13.3434 60.0381 13.7114 59.7609 14.2151 59.7931C14.7768 59.8253 15.0932 60.1864 15.0545 60.7474C15.0222 61.2439 14.7252 61.5341 14.2538 61.547ZM24.4107 86.6559C24.5527 86.6107 24.7722 86.8106 25.1145 86.9783C24.8433 87.2362 24.7141 87.449 24.5398 87.5005C24.2944 87.5779 24.0297 87.4167 24.0426 87.1524C24.0555 86.9718 24.2428 86.7074 24.4107 86.6494V86.6559ZM23.3775 76.7451C23.6294 76.7258 23.9135 77.0031 23.9587 77.3126C24.0232 77.7188 23.6875 78.1057 23.2355 78.1508C22.8868 78.1831 22.5058 77.8413 22.5317 77.5125C22.564 77.132 22.9514 76.7774 23.3775 76.7451ZM22.325 85.5274C22.3638 85.4887 22.4348 85.4823 22.4929 85.4565C22.6092 85.4694 22.7512 85.4436 22.8352 85.5016C23.1645 85.708 23.3323 86.0239 23.3388 86.4108C23.3388 86.701 23.003 86.9976 22.7318 86.9525C22.3832 86.8944 22.2282 86.643 22.1249 86.3528C22.0216 86.0433 22.0732 85.7531 22.325 85.5274ZM18.5025 64.2358C18.425 64.2616 18.3669 64.3068 18.3346 64.2939C18.3023 64.281 18.2959 64.21 18.283 64.1585C18.3475 64.1842 18.4121 64.2036 18.5025 64.2358ZM17.0174 86.9396C16.7591 87.1653 16.63 87.3522 16.4556 87.4103C16.2232 87.4877 16.0101 87.378 15.9326 87.1137C15.8487 86.8235 16.0876 86.4818 16.3717 86.5398C16.559 86.5785 16.7204 86.7461 17.0174 86.9396ZM19.0966 30.2608C18.8835 30.3576 18.5348 30.177 18.5606 29.9449C18.5865 29.745 18.7414 29.558 18.8706 29.2872C19.0966 29.4677 19.2773 29.5387 19.3355 29.6741C19.4388 29.9126 19.3548 30.1448 19.0966 30.2673V30.2608Z" fill="black"/>
<path id="Vector_27" d="M239.091 44.6015C239.433 44.5951 239.704 44.724 239.859 44.9562C239.717 43.0798 239.478 41.2227 239.117 39.3979C237.528 31.4474 232.498 23.6194 224.317 21.3046C220.611 20.2535 216.634 20.7436 213.334 22.4523C215.032 26.7081 216.408 31.067 217.46 35.5226C217.822 35.5484 218.19 35.6322 218.584 35.7934C220.488 36.5736 221.631 38.3469 222.251 40.2362C222.387 40.6553 222.509 41.0809 222.613 41.5064C222.729 41.4677 222.845 41.429 222.968 41.4226C223.02 41.4226 223.078 41.5903 223.162 41.7386C223.013 41.803 222.852 41.932 222.729 41.8998C222.716 41.8998 222.71 41.8869 222.703 41.8804C223.51 45.4333 223.375 49.3215 223.013 52.868C222.942 53.5579 222.845 54.2479 222.742 54.9314C222.574 56.0211 222.374 57.0979 222.135 58.1747C221.547 60.7927 220.76 63.3719 219.83 65.8802C219.636 66.409 219.423 66.9442 219.203 67.4729C218.829 68.3692 218.416 69.2719 217.944 70.136C217.725 70.5357 217.492 70.9355 217.247 71.316C217.247 71.316 217.247 71.3224 217.26 71.3289C217.253 71.3289 217.247 71.3289 217.241 71.3353C216.414 72.6314 215.433 73.8114 214.232 74.7463C212.301 76.2552 210.299 76.3068 208.201 76.1327C208.026 76.3584 207.852 76.5776 207.684 76.8033C207.226 77.3965 206.767 77.9768 206.296 78.5636C205.728 79.2665 205.153 79.9629 204.578 80.6528C204.746 80.5432 204.972 80.4723 205.179 80.4851C205.579 80.5109 205.825 80.7753 205.805 81.3234C205.683 81.4266 205.502 81.7038 205.282 81.749C204.804 81.8457 204.249 81.3363 204.32 80.9623C204.32 80.9623 204.32 80.9559 204.32 80.9494C202.454 83.1482 200.517 85.2825 198.502 87.3459C198.334 87.5136 198.173 87.6877 198.005 87.8618C198.631 88.8161 199.439 89.6737 200.355 90.4346C202.912 92.5366 206.36 93.8456 209.382 94.1164C212.598 94.4066 215.742 93.8456 218.642 92.6527C218.616 92.3303 219.003 92.0143 219.346 92.1111C219.417 92.1304 219.488 92.1884 219.552 92.2529C222.826 90.7312 225.757 88.4163 228.101 85.6501C230.936 82.2971 233.138 78.4153 234.849 74.3272C234.5 74.3014 234.261 74.0435 234.274 73.6695C234.287 73.3342 234.468 73.1214 234.797 73.0569C234.984 73.0183 235.165 73.0763 235.307 73.1924C236.444 70.3101 237.348 67.331 238.058 64.3778C239.498 58.4262 240.279 52.0877 239.93 45.8782C239.866 46.0265 239.756 46.1491 239.608 46.2135C239.072 46.4457 238.49 46.5875 237.89 46.7745C237.632 46.5553 237.361 46.4134 237.212 46.1942C237.025 45.904 237.167 45.4527 237.464 45.2399C237.955 44.8788 238.484 44.6273 239.11 44.608L239.091 44.6015ZM216.582 24.8446C216.052 24.9348 215.671 24.606 215.316 24.2836C215 23.9999 214.981 23.9225 214.677 22.807C214.955 22.304 215.271 21.8075 215.826 21.5109C216.646 21.066 217.447 21.3884 217.634 22.2782C217.705 22.6264 217.731 22.994 217.718 23.3486C217.705 23.8967 217.053 24.7607 216.582 24.8381V24.8446ZM203.784 85.7145C203.784 85.7145 203.558 85.592 203.558 85.5211C203.558 85.3857 203.636 85.2438 203.72 85.0053C203.887 85.1858 204.068 85.2954 204.062 85.3921C204.055 85.5082 203.894 85.6243 203.778 85.7145H203.784ZM208.775 88.9966C208.272 88.9644 207.962 88.5582 208.013 87.9843C208.046 87.5974 208.336 87.3524 208.75 87.3653C209.318 87.3782 209.725 87.707 209.757 88.1842C209.789 88.6484 209.331 89.0289 208.782 88.9966H208.775ZM211.623 77.4545C211.203 77.4223 210.951 77.1386 210.984 76.7453C211.016 76.4228 211.274 76.223 211.61 76.2552C212.043 76.2939 212.294 76.5712 212.249 76.958C212.211 77.274 211.952 77.4803 211.616 77.4545H211.623ZM214.051 89.0547C213.825 89.1449 213.566 88.8999 213.65 88.6678C213.696 88.5388 213.876 88.3841 213.999 88.3776C214.122 88.3776 214.244 88.5517 214.419 88.6871C214.277 88.8419 214.186 89.0031 214.057 89.0547H214.051ZM214.212 82.8903C213.554 82.929 213.031 82.4776 213.005 81.8392C212.972 81.1106 213.483 80.5561 214.193 80.5367C214.884 80.5238 215.426 81.0784 215.433 81.807C215.439 82.3615 214.884 82.8516 214.212 82.8903ZM217.499 86.6431C217.131 86.5979 216.776 86.2111 216.885 85.9273C216.995 85.6501 217.202 85.4244 217.55 85.4437C217.919 85.4631 218.209 85.8177 218.144 86.1659C218.099 86.4432 217.776 86.6753 217.499 86.6431ZM221.082 64.0876C221.005 64.1199 220.844 64.0554 220.772 63.9845C220.695 63.9071 220.624 63.7588 220.643 63.6621C220.779 63.0882 221.16 62.7207 221.722 62.5788C221.819 62.553 221.973 62.7593 222.083 62.8432C221.98 63.5073 221.618 63.8813 221.076 64.0941L221.082 64.0876ZM231.226 73.7146C231.213 73.7533 231.194 73.7985 231.181 73.8372C231.142 73.8243 231.11 73.8114 231.071 73.7985C231.123 73.7727 231.175 73.7404 231.226 73.7146ZM227.378 34.4329C227.643 34.4329 227.772 34.6586 227.72 34.9165C227.675 35.168 227.488 35.3614 227.229 35.2518C227.055 35.1808 226.932 34.9745 226.668 34.7037C227.003 34.5683 227.191 34.4329 227.378 34.4329ZM226.093 36.5414C226.551 36.464 226.952 36.78 226.952 37.2249C226.952 37.6053 226.674 37.9148 226.3 37.9471C225.912 37.9793 225.596 37.7278 225.538 37.341C225.48 36.9734 225.744 36.6059 226.093 36.5414ZM223.872 86.5592C223.142 86.6044 222.639 86.2368 222.561 85.6049C222.516 85.2438 222.723 84.8054 223.039 84.7086C223.381 84.6119 223.749 84.5474 224.104 84.5474C224.621 84.5474 224.944 84.9795 224.924 85.5405C224.905 86.153 224.53 86.5141 223.872 86.5528V86.5592ZM224.886 69.5814C224.86 69.2074 225.15 68.827 225.48 68.8077C225.828 68.7819 226.196 69.1236 226.196 69.4589C226.196 69.8393 225.893 70.1231 225.499 70.1231C225.196 70.1231 224.911 69.8651 224.886 69.575V69.5814ZM226.028 72.2961C225.757 72.2896 225.615 72.0768 225.615 71.806C225.615 71.5416 225.712 71.3418 226.145 71.3095C226.222 71.4449 226.384 71.619 226.416 71.8189C226.461 72.0704 226.319 72.3154 226.028 72.3025V72.2961ZM226.635 57.3429L226.623 57.1946L226.752 57.2591L226.635 57.3429ZM226.823 53.9964C226.151 53.9383 225.673 53.5708 225.667 53.113C225.667 52.4424 226.125 51.9459 226.745 51.9588C227.307 51.9717 227.643 52.3844 227.617 53.0485C227.598 53.6804 227.301 54.0351 226.816 53.9964H226.823ZM228.372 60.1285C228.075 60.1221 227.759 59.8255 227.836 59.5546C227.895 59.3612 228.082 59.1484 228.263 59.0646C228.527 58.9485 228.85 59.2258 228.882 59.5353C228.915 59.8512 228.669 60.135 228.366 60.1285H228.372ZM227.933 48.1609C227.966 48.0319 228.211 47.8385 228.263 47.8642C228.437 47.9545 228.566 48.1286 228.773 48.3285C228.54 48.4897 228.411 48.6574 228.288 48.6509C228.024 48.638 227.869 48.4188 227.933 48.1673V48.1609ZM228.405 42.6864C228.011 42.7445 227.72 42.5059 227.681 42.0932C227.636 41.6031 227.901 41.2678 228.366 41.2421C228.773 41.2163 229.108 41.4742 229.121 41.8224C229.141 42.2737 228.857 42.6155 228.405 42.6864ZM230.071 47.3677C229.586 47.4451 229.154 46.897 229.257 46.4263C229.334 46.0652 229.703 45.7944 230.045 45.8395C230.452 45.8976 230.71 46.3038 230.619 46.9422C230.497 47.0453 230.303 47.3291 230.071 47.3677ZM231.026 76.9C230.8 76.8226 230.568 76.4938 230.523 76.2487C230.413 75.5588 230.987 74.9849 231.691 74.9914C232.111 74.9914 232.473 75.3589 232.479 75.7909C232.498 76.5067 231.704 77.1386 231.02 76.9H231.026ZM232.589 53.113C232.531 53.2484 232.363 53.4096 232.234 53.416C232.111 53.4225 231.975 53.2484 231.795 53.113C231.95 52.9647 232.033 52.8035 232.163 52.7583C232.408 52.6681 232.673 52.8938 232.589 53.113ZM237.793 41.0551C237.871 41.068 237.929 41.2034 237.993 41.2872C237.929 41.371 237.864 41.4484 237.8 41.5322C237.709 41.4226 237.619 41.3194 237.522 41.2098C237.612 41.1582 237.709 41.0486 237.793 41.0615V41.0551ZM237.296 52.8099C237.277 52.9196 237.283 53.171 237.193 53.3774C237.102 53.5837 236.96 53.8029 236.773 53.9126C236.54 54.0544 236.321 53.8868 236.179 53.6804C235.888 53.242 235.572 52.8099 235.346 52.3328C235.165 51.9459 235.52 51.4881 235.953 51.4365C236.799 51.3333 237.277 51.7782 237.289 52.8035L237.296 52.8099ZM236.805 44.1695C236.469 44.1695 236.237 44.0018 236.172 43.6794C236.095 43.2861 236.495 42.8992 237.07 42.8928C237.186 43.0153 237.457 43.1765 237.541 43.4086C237.677 43.7826 237.27 44.1695 236.805 44.1695Z" fill="black"/>
<path id="Vector_28" d="M28.5619 6.29345C26.0824 9.0081 25.1591 12.9801 26.2632 16.2751C39.2805 17.3971 52.3237 18.3256 65.3668 19.0478C113.529 21.6979 161.828 21.5367 209.971 18.6222C210.688 16.8232 211.314 14.9403 211.644 13.0575C211.282 13.0059 211.037 12.806 211.004 12.503C210.972 12.1806 211.082 11.9162 211.379 11.7485C211.527 11.6647 211.682 11.626 211.831 11.6389C211.882 11.0457 211.895 10.4589 211.87 9.87214C211.76 9.95597 211.618 10.014 211.469 10.0269C211.101 10.0527 210.746 9.80766 210.675 9.47236C210.597 9.14351 210.882 8.73728 211.211 8.69214C211.418 8.66635 211.618 8.72438 211.779 8.84045C211.656 7.90548 211.418 6.98985 211.037 6.09356C210.404 6.04198 209.777 6.1258 209.145 6.18384C208.932 6.20318 208.88 6.1387 208.525 5.55192C208.848 5.49389 209.125 5.42941 209.403 5.40362C209.848 5.35848 210.158 5.15214 210.397 4.84908C210.217 4.55247 210.023 4.25586 209.803 3.96569C209.28 3.2693 208.673 2.69542 208.015 2.21826C207.937 2.23115 207.827 2.28274 207.763 2.33432C207.498 2.52132 207.182 2.68252 206.975 2.37946C206.827 2.16023 206.807 1.80558 206.82 1.52186C206.82 1.52186 206.82 1.52186 206.82 1.51542C205.645 0.935088 204.334 0.599787 202.972 0.432136C203.127 0.490169 203.243 0.683612 203.333 0.773885C203.224 1.16722 203.023 1.27684 202.785 1.17367C202.662 1.12208 202.526 0.935088 202.52 0.799678C202.507 0.599787 202.63 0.438584 202.804 0.412792C202.778 0.412792 202.759 0.412792 202.733 0.406344C199.052 0.0130103 195.249 0.206453 191.549 0.167765C191.136 0.167765 190.729 0.167765 190.316 0.154868C190.484 0.470825 190.581 0.831918 190.607 1.22525C190.613 1.36066 190.452 1.50897 190.394 1.60569C190.271 1.63793 190.206 1.67662 190.161 1.66372C189.515 1.47673 188.941 1.18012 188.579 0.593339C188.502 0.464377 188.437 0.296726 188.418 0.135524C173.657 0.000114126 158.883 -0.0256782 144.11 0.0194584C129.833 0.0645951 115.557 0.180661 101.287 0.335415C101.21 0.831918 100.816 1.02536 100.39 1.19301C99.8665 1.39935 99.4662 1.34132 99.2531 1.02536C99.1175 0.82547 99.1304 0.580442 99.2595 0.354759C92.4216 0.432136 85.5836 0.515962 78.7521 0.599787C78.5326 1.14143 78.1323 1.34777 77.3445 1.34132C77.2218 1.32197 77.0346 1.30908 76.8602 1.27039C76.5761 1.21236 76.2985 0.915743 76.2662 0.632027C75.6399 0.638475 75.02 0.644923 74.3937 0.65782C74.3937 0.715852 74.4001 0.780333 74.3937 0.838366C74.3549 1.27684 73.8771 1.65083 73.367 1.65083C72.8246 1.65083 72.4307 1.23815 72.3597 0.683612C64.5015 0.786781 56.6434 0.902847 48.7917 1.01246C48.1653 1.01891 47.5261 1.02536 46.8804 1.03181C46.9256 1.06405 46.9643 1.09629 47.0095 1.13498C46.9514 1.2188 46.8933 1.30263 46.8417 1.38645C46.7642 1.32197 46.6286 1.27039 46.6221 1.19946C46.6157 1.14787 46.6609 1.09629 46.7061 1.03826C40.3007 1.09629 33.1528 1.29618 28.5813 6.2999L28.5619 6.29345ZM209.648 13.9796C209.732 13.986 209.855 14.1021 209.874 14.1924C209.939 14.4696 209.726 14.6889 209.364 14.7533C209.261 14.7147 209.112 14.7018 209.067 14.6244C208.919 14.3858 209.3 13.9538 209.648 13.9796ZM205.477 13.496C205.348 13.4057 205.174 13.3219 205.187 13.2832C205.225 13.1413 205.322 13.0124 205.393 12.877C205.516 12.9608 205.645 13.0446 205.768 13.1284C205.671 13.2509 205.574 13.3735 205.477 13.496ZM204.115 2.83083C204.366 2.62449 204.664 2.54711 204.935 2.74055C205.27 2.98558 205.6 3.2564 205.858 3.57236C205.981 3.72066 206.032 4.03662 205.955 4.21072C205.877 4.39126 205.619 4.50733 205.419 4.6234C205.322 4.67498 205.187 4.64919 204.999 4.66209C204.825 4.6234 204.586 4.59116 204.366 4.52023C204.005 4.39771 203.747 4.15269 203.689 3.7658C203.63 3.37891 203.811 3.07585 204.108 2.83727L204.115 2.83083ZM203.262 9.09837C203.45 8.5116 203.566 8.04089 203.753 7.60242C204.082 6.84154 204.657 6.78351 205.264 7.41542C205.6 7.76362 205.69 7.77651 206.336 7.51859C206.917 7.89258 206.471 8.69214 207.059 9.18865C207.434 9.16285 207.898 9.11127 208.363 9.10482C208.454 9.10482 208.622 9.22089 208.635 9.29826C208.66 9.45947 208.667 9.73029 208.576 9.78832C208.176 10.0462 207.763 10.33 207.317 10.446C206.562 10.6395 205.755 10.6459 205.141 11.2391C205.025 11.3552 204.799 11.4261 204.638 11.4068C203.617 11.2649 202.604 11.3036 201.577 11.3165C201.441 11.3165 201.222 11.0006 201.177 10.8007C201.093 10.4396 201.228 10.1107 201.512 9.82701C202.003 9.3305 202.662 9.21444 203.262 9.11127V9.09837ZM201.099 4.47509C201.17 4.55892 201.248 4.63629 201.319 4.72012C201.241 4.79105 201.164 4.92001 201.08 4.92646C201.015 4.92646 200.86 4.77815 200.873 4.72657C200.899 4.62984 201.015 4.55892 201.093 4.48154L201.099 4.47509ZM197.554 2.5987C197.625 2.66962 197.761 2.747 197.755 2.81793C197.748 2.90176 197.625 2.97268 197.554 3.05651C197.483 2.98558 197.412 2.91465 197.341 2.83727C197.412 2.7599 197.483 2.67607 197.554 2.5987ZM197.826 12.0258C198.052 12.1032 198.226 12.3547 198.516 12.619C198.219 12.877 198.045 13.1284 197.819 13.1994C197.503 13.3025 197.122 12.9221 197.115 12.5932C197.115 12.2579 197.496 11.9033 197.826 12.0194V12.0258ZM195.036 12.877C195.101 12.748 195.269 12.6642 195.436 12.5159C195.546 12.7029 195.695 12.8447 195.682 12.9737C195.675 13.0962 195.527 13.2832 195.411 13.3154C195.185 13.3799 194.933 13.0833 195.036 12.877ZM186.745 10.1817C186.868 9.75608 187.139 9.42723 187.598 9.3434C187.992 9.27247 188.308 9.47236 188.515 9.78832C188.708 10.0849 188.837 10.4138 188.928 10.6008C188.979 11.2649 188.547 11.8388 188.03 11.9549C187.921 11.9807 187.785 11.9807 187.675 11.942C187.062 11.7163 186.565 10.7878 186.739 10.1752L186.745 10.1817ZM179.907 1.66372C179.953 1.52831 180.166 1.32842 180.25 1.35421C180.43 1.4058 180.572 1.5799 180.85 1.80558C180.527 1.99257 180.346 2.18602 180.179 2.17957C179.901 2.16667 179.823 1.89585 179.907 1.66372ZM177.292 7.52504C177.325 7.56373 177.331 7.6411 177.312 7.69269C177.221 8.02154 176.969 8.14406 176.66 8.13761C176.459 8.13761 176.259 8.05378 175.865 7.96351C176.188 7.69269 176.33 7.51859 176.511 7.42832C176.776 7.28646 177.066 7.24777 177.292 7.52504ZM174.438 4.75881C174.49 4.42995 174.819 4.20427 175.245 4.20427C175.736 4.20427 176.072 4.52023 176.04 4.9587C176.014 5.37138 175.62 5.65509 175.142 5.60995C174.684 5.56482 174.361 5.17793 174.432 4.75881H174.438ZM168.905 13.7603C169.311 13.6959 169.744 13.6701 170.157 13.7217C170.655 13.7797 170.848 14.1343 170.771 14.8114C169.867 14.9919 169.06 15.0887 168.278 14.7405C168.214 14.1859 168.414 13.8377 168.905 13.7603ZM164.895 9.49815C165.534 9.52395 165.96 10.0333 165.915 10.7297C165.857 11.5744 165.392 12.0774 164.727 12.0194C163.978 11.9549 163.403 11.2907 163.442 10.5492C163.474 9.94307 164.126 9.47236 164.901 9.5046L164.895 9.49815ZM158.251 13.8119C158.677 13.6443 159.096 13.7797 159.4 14.115C159.503 14.2311 159.581 14.4567 159.536 14.5921C159.497 14.7147 159.29 14.7985 159.135 14.863C159.032 14.9081 158.896 14.8888 158.728 14.9081C158.599 14.8888 158.412 14.8823 158.238 14.8436C157.973 14.7856 157.792 14.5728 157.844 14.3278C157.889 14.1279 158.063 13.8829 158.238 13.8119H158.251ZM143.703 13.3283C143.819 13.3219 144.058 13.5411 144.045 13.6378C144.007 14.0763 143.793 14.4374 143.374 14.6373C143.329 14.6566 143.257 14.6373 143.199 14.6308C143.154 14.5986 143.09 14.5728 143.064 14.5277C142.786 14.0247 143.122 13.3735 143.703 13.3348V13.3283ZM142.211 1.22525C142.211 1.27684 142.218 1.32842 142.224 1.38001C142.173 1.39935 142.121 1.44449 142.076 1.43159C142.037 1.42514 142.011 1.35421 141.979 1.31553C142.056 1.28328 142.134 1.25749 142.211 1.22525ZM141.708 12.9156C141.708 12.9156 141.902 13.0897 141.889 13.122C141.824 13.2445 141.708 13.3477 141.611 13.4637C141.508 13.3477 141.437 13.2703 141.372 13.1994C141.482 13.1026 141.585 12.9995 141.708 12.9221V12.9156ZM139.202 1.61859C139.235 1.50252 139.448 1.43804 139.667 1.29618C139.939 1.46383 140.223 1.61214 140.468 1.81848C140.513 1.85716 140.423 2.17957 140.32 2.2376C139.984 2.4246 139.635 2.34077 139.377 2.05706C139.274 1.94099 139.17 1.7411 139.202 1.61859ZM114.433 9.1822C114.33 9.06613 114.156 8.95007 114.143 8.82755C114.13 8.70504 114.298 8.56963 114.427 8.36974C114.576 8.56963 114.743 8.70504 114.737 8.82755C114.73 8.95007 114.543 9.06613 114.433 9.1822ZM135.638 7.47345C135.722 7.36384 135.929 7.27356 136.064 7.29291C136.374 7.3316 136.581 7.67979 136.445 8.03444C136.31 8.06668 136.11 8.1634 135.916 8.14406C135.632 8.11181 135.464 7.71203 135.638 7.4799V7.47345ZM122.653 12.3418C123.099 12.3676 123.499 12.7996 123.564 13.3219C123.673 14.1859 123.312 14.6115 122.479 14.5986C122.356 14.5857 122.234 14.5793 122.117 14.5664C121.33 14.4761 120.987 13.8506 121.323 13.1349C121.549 12.6642 122.13 12.3095 122.653 12.3418ZM120.742 7.60886C121.142 7.654 121.381 7.95706 121.349 8.36329C121.31 8.82111 120.929 9.10482 120.451 9.02744C120.07 8.96941 119.819 8.65345 119.844 8.26012C119.87 7.8152 120.238 7.55083 120.742 7.60886ZM116.183 13.5927C116.19 13.986 115.944 14.3536 115.634 14.3987C115.15 14.4696 114.659 14.057 114.679 13.5991C114.698 13.1607 115.053 12.7738 115.434 12.7673C115.828 12.7673 116.17 13.1413 116.177 13.5927H116.183ZM111.657 1.96033C111.922 1.77979 112.245 1.63148 112.49 1.87651C113.052 2.45684 113.833 2.37946 114.498 2.63738C115.215 2.91465 115.499 3.28864 115.492 3.98503C115.48 5.17148 114.802 5.99039 113.801 5.95815C113.097 5.93236 112.458 5.63575 112.115 5.02318C111.734 4.34613 111.45 3.6046 111.192 2.86307C111.063 2.48263 111.341 2.17957 111.657 1.96033ZM110.656 13.4186C111.102 13.2638 111.599 13.2509 112.077 13.1994C112.451 13.1607 112.8 13.4379 112.871 13.7861C112.942 14.1408 112.761 14.5793 112.471 14.7211C112.309 14.7985 112.141 14.8823 111.967 14.8952C111.076 14.9726 110.178 15.0371 109.094 14.7856C109.442 13.8958 110.056 13.6314 110.656 13.425V13.4186ZM102.288 14.676C102.243 14.6953 102.191 14.7276 102.152 14.7276C102.114 14.7276 102.075 14.676 102.036 14.6437C102.12 14.6566 102.204 14.6631 102.288 14.676ZM91.5563 14.6308C91.227 14.7211 90.8783 14.3213 91.001 13.9731C91.0592 13.8055 91.3239 13.5927 91.4724 13.5991C91.7565 13.6185 92.0019 13.8248 91.989 14.302C91.8857 14.3858 91.7371 14.5793 91.5563 14.6244V14.6308ZM95.366 7.9893C95.3337 7.98285 95.3079 7.92482 95.282 7.88613C95.3531 7.86034 95.4176 7.83455 95.4887 7.8152C95.4887 7.86034 95.4951 7.90548 95.5016 7.95061C95.4564 7.96351 95.4112 8.0022 95.3724 7.9893H95.366ZM95.3983 2.50842C95.8632 2.46329 96.2441 2.78569 96.2312 3.21771C96.2183 3.5917 95.9342 3.85607 95.5274 3.87542C95.0302 3.90121 94.6492 3.57881 94.688 3.17902C94.7267 2.81793 95.0108 2.54711 95.4047 2.50842H95.3983ZM90.1875 7.8152C90.2972 7.20908 90.8009 6.91247 91.382 7.04143C92.0987 7.20263 92.5636 7.60886 92.7057 8.3375C92.7638 8.63411 92.809 8.93072 92.8413 9.09837C92.88 10.1688 91.6919 11.0199 90.8332 10.6524C90.6782 10.5879 90.5168 10.4331 90.4586 10.2848C90.1423 9.49171 90.0389 8.6599 90.1939 7.8152H90.1875ZM88.3924 9.95597C88.457 10.014 88.528 10.072 88.5926 10.1236C88.5603 10.1623 88.5345 10.201 88.5022 10.2461C88.4376 10.1881 88.3666 10.1365 88.3085 10.072C88.302 10.0656 88.3601 9.99466 88.3924 9.95597ZM81.9096 2.55356C82.2389 2.60514 82.4197 2.83083 82.4649 3.15323C82.5165 3.52722 82.226 3.85607 81.8127 3.87542C81.5093 3.87542 81.2897 3.69487 81.2122 3.37891C81.1089 2.96624 81.5093 2.49553 81.9096 2.56001V2.55356ZM77.4543 12.6835C77.4672 12.6384 77.5253 12.5803 77.5705 12.5674C77.9773 12.4836 78.4422 12.9156 78.3324 13.2703C78.2937 13.3154 78.2678 13.3799 78.2162 13.3928C77.8804 13.496 77.3574 13.0124 77.4478 12.6835H77.4543ZM50.9871 13.8313C50.7481 14.302 50.3091 14.4761 49.799 14.4761C49.3534 14.4761 48.9854 14.2955 48.7529 13.9086C48.669 13.7668 48.6109 13.5669 48.6302 13.4121C48.7077 12.8383 49.4309 12.245 50.167 12.2257C50.2962 12.3224 50.5738 12.4578 50.7352 12.6771C50.9871 13.0059 51.1872 13.4057 50.9741 13.8313H50.9871ZM56.9985 9.82056C56.695 9.84635 56.469 9.48526 56.5788 9.19509C56.6757 8.95007 56.8887 8.79531 57.1341 8.90493C57.3149 8.98876 57.4311 9.20799 57.67 9.46591C57.3666 9.63356 57.1858 9.80121 56.9985 9.82056ZM72.6051 10.0978C72.7019 10.0849 72.8375 10.2913 72.9796 10.4267C72.8569 10.6008 72.7923 10.7813 72.6696 10.8523C72.4824 10.9619 72.2047 10.6846 72.2758 10.4331C72.3145 10.2913 72.4759 10.1172 72.6051 10.0978ZM68.9891 14.5728C69.0408 14.5728 69.0925 14.5986 69.1506 14.6179C69.1312 14.6631 69.1183 14.734 69.0989 14.7405C69.0473 14.7405 68.9956 14.7147 68.9439 14.6953C68.9633 14.6502 68.9762 14.5728 68.9956 14.5728H68.9891ZM64.1787 4.37837C64.2497 4.1011 64.508 3.99148 64.7469 4.08176C64.9277 4.15269 65.0633 4.36547 65.3539 4.64919C64.9535 4.7717 64.7469 4.88777 64.5467 4.88132C64.2755 4.86842 64.1077 4.66209 64.1787 4.37837ZM65.102 9.17575L64.9664 9.24023V9.11127L65.102 9.1822V9.17575ZM63.5653 10.9361C64.2885 11.4842 65.1214 11.4971 65.9673 11.5358C66.4193 11.5551 66.7615 11.9742 66.7873 12.3805C66.8196 12.8641 66.4064 13.3735 65.935 13.3928C65.6961 13.4057 65.4443 13.3928 65.2183 13.3219C64.3272 13.0317 63.6169 12.4578 63.0552 11.7292C62.9519 11.5938 63.01 11.2714 63.1004 11.0779C63.1456 10.9748 63.4813 10.8716 63.5653 10.9361ZM62.7646 8.10537C62.7646 8.10537 62.9067 8.06023 62.9196 8.07957C62.9712 8.1634 63.0035 8.26657 63.0358 8.35684C62.9389 8.36974 62.8356 8.38264 62.7388 8.39553C62.7388 8.29881 62.7388 8.19564 62.7646 8.09892V8.10537ZM56.3528 1.76689C56.4045 1.35421 56.6757 1.13498 57.0502 1.03181C57.2826 0.967328 57.5215 0.928639 57.6184 0.909295C58.2253 0.909295 58.6192 1.17367 58.7484 1.567C58.9033 2.05061 58.7032 2.52777 58.2318 2.79214C57.7863 3.04361 57.3343 3.13389 56.8629 2.84372C56.4561 2.59225 56.3076 2.22471 56.3593 1.76689H56.3528ZM54.0218 11.7614C53.9766 12.2773 53.4213 12.6835 52.8402 12.6255C52.2978 12.5674 51.9362 12.0387 52.0266 11.4326C52.0977 10.949 52.5626 10.6008 53.0727 10.6459C53.615 10.6911 54.0735 11.2262 54.0283 11.7614H54.0218ZM51.2001 3.22416C51.3486 2.85017 51.8458 2.66962 52.4528 2.747C52.8338 2.79859 53.0404 3.04361 53.0662 3.49498C53.0791 3.67553 53.0791 3.85607 53.0533 4.03017C53.0275 4.20427 52.95 4.37192 52.9048 4.52023C52.7821 4.5976 52.6917 4.68143 52.5819 4.72657C52.117 4.90711 51.6134 5.05542 51.2647 4.59116C50.9548 4.18493 51.0193 3.68197 51.2066 3.21126L51.2001 3.22416ZM48.0104 7.38963C48.1847 7.22198 48.3655 7.06722 48.5528 6.91247C49.9862 5.73892 50.2703 5.72602 51.9169 6.65455C52.4399 6.94471 52.6723 7.36384 52.7627 7.94416C53.0339 9.73029 51.6521 10.5556 50.1606 10.5363C49.2243 10.6717 48.4495 10.1365 47.836 9.33695C47.3647 8.72438 47.4486 7.93772 48.0104 7.39608V7.38963ZM47.5842 10.4847C47.8425 10.4525 48.0556 10.5298 48.1201 10.8329C48.1524 11.1424 47.9523 11.4197 47.6359 11.4713C47.3518 11.5164 47.1774 11.3552 47.1064 11.0973C47.016 10.7749 47.2097 10.5298 47.5778 10.4847H47.5842ZM34.8381 9.21444C34.0116 9.21444 33.5209 8.87269 33.5596 8.3246C33.5984 7.70558 34.102 7.26711 34.7606 7.27356C35.2643 7.27356 35.6065 7.73782 35.613 8.42777C35.613 8.87914 35.2836 9.22089 34.8381 9.22089V9.21444ZM40.404 14.7018C40.1393 14.7018 39.9262 14.5277 39.9908 14.2633C40.036 14.0892 40.2684 13.9667 40.4622 13.7732C40.6365 13.9989 40.7979 14.1214 40.8173 14.2568C40.856 14.5277 40.6752 14.7018 40.404 14.6953V14.7018ZM45.886 4.73946C45.7052 4.66209 45.5115 4.45575 45.4599 4.2623C45.3759 3.98504 45.6988 3.64973 45.9635 3.64973C46.2347 3.64973 46.493 3.95279 46.4865 4.2623C46.4736 4.57826 46.1701 4.85553 45.8925 4.73946H45.886Z" fill="black"/>
<path id="Vector_29" d="M22.777 33.3236C20.9368 42.035 21.5373 51.23 24.1782 59.8188C24.2686 59.6899 24.4235 59.5674 24.5591 59.5029C24.9207 59.3352 25.2888 59.6834 25.179 60.0897C25.1274 60.3024 24.953 60.483 24.8497 60.6635C24.656 60.6055 24.501 60.6055 24.4365 60.5281C24.4171 60.5088 24.3977 60.4894 24.3783 60.4701C25.2177 63.0945 26.2444 65.6544 27.4583 68.124C27.5164 68.1949 27.5745 68.2787 27.6133 68.3755C27.6908 68.5496 27.7683 68.7237 27.8457 68.8978C28.7433 70.6581 29.7247 72.3668 30.803 74.0175C30.6868 74.0175 30.5641 74.0175 30.4479 74.024C33.2567 78.8665 36.8533 83.2061 41.0955 86.8686C41.1988 86.7461 41.3086 86.63 41.4119 86.5075C42.3933 87.4102 43.4006 88.2807 44.4273 89.1254C42.1092 85.1663 40.2819 80.9557 39.3715 76.4033C37.9703 69.362 38.8872 61.85 43.265 55.9887C46.9197 51.0946 52.6858 47.935 58.891 48.5282C64.6764 49.0828 69.9905 52.6292 71.6823 58.3551C73.4063 64.1906 71.3013 70.6516 67.0914 74.8945C66.2971 75.694 65.2511 74.8364 65.3802 73.9015C65.7418 71.2835 65.2447 68.0595 63.172 66.2089C60.6473 63.965 56.9797 65.1643 55.1588 67.692C53.8029 69.5813 53.4736 71.5286 53.8029 73.4437C53.8545 73.4437 54.003 73.6306 53.9837 73.6822C53.9643 73.7403 53.9255 73.7919 53.8868 73.8434C54.8166 78.0992 58.891 82.1228 61.9839 84.7407C62.0097 84.7536 62.0291 84.7601 62.0549 84.7729C68.0534 88.0615 75.2659 87.3715 80.4767 82.9288C79.6308 80.8332 78.9529 78.6602 78.5009 76.4033C77.6744 72.2379 77.6615 67.9112 78.6946 63.8553C78.5138 63.6297 78.2878 63.4362 78.1716 63.1847C77.9197 62.6495 78.1199 62.1982 78.6365 62.0241C78.8625 61.9467 79.082 61.8693 79.3144 61.792C79.9601 59.9671 80.8383 58.2262 81.9683 56.5948C81.5356 56.1757 81.0191 55.8597 80.4444 55.5889C80.2507 55.4986 80.0957 55.2665 79.986 55.0666C79.902 54.9183 79.8827 54.7184 79.902 54.5443C79.9214 54.3831 80.0312 54.2283 80.199 53.8414C81.1095 54.4734 81.9295 55.0215 82.7173 55.576C86.3849 50.9205 91.9895 47.9479 98.0204 48.5282C103.806 49.0828 109.12 52.6292 110.812 58.3551C111.548 60.8505 111.58 63.462 111.051 65.9639C111.206 66.1831 111.225 66.4475 111.076 66.7054C111.012 66.815 110.915 66.8988 110.805 66.9698C109.985 69.9423 108.384 72.7086 106.221 74.8945C105.427 75.694 104.38 74.8364 104.51 73.9015C104.535 73.6951 104.555 73.4823 104.568 73.276C104.322 72.9923 104.238 72.5861 104.51 72.1669C104.548 72.1089 104.574 72.0509 104.613 71.9993C104.606 71.7349 104.587 71.4641 104.561 71.1997V71.1868C104.535 70.9289 104.497 70.6645 104.452 70.4066C104.452 70.4066 104.452 70.3937 104.452 70.3873C104.406 70.1358 104.348 69.8843 104.284 69.6393C104.277 69.6135 104.271 69.5812 104.258 69.5555C104.193 69.3233 104.122 69.0976 104.038 68.872C104.038 68.8591 104.025 68.8397 104.025 68.8268C103.941 68.6011 103.845 68.3819 103.741 68.1627C103.722 68.1175 103.696 68.0788 103.677 68.0337C103.573 67.8338 103.464 67.6339 103.341 67.4469C103.334 67.434 103.322 67.4211 103.315 67.4018C103.186 67.2083 103.05 67.0214 102.902 66.8408C102.87 66.7957 102.831 66.757 102.792 66.7183C102.637 66.5442 102.476 66.3701 102.295 66.2089C99.7702 63.965 96.1026 65.1643 94.2818 67.692C91.9314 70.9547 92.661 74.4109 94.54 77.5188C95.1341 77.0417 95.8508 76.8805 96.5998 77.061C97.2907 77.2287 97.9687 77.5446 98.5886 77.9057C98.8533 78.0605 99.0212 78.4667 99.1245 78.7956C99.6927 80.6204 99.3828 81.0524 97.4586 81.2007C97.4328 81.2007 97.4005 81.2007 97.3747 81.2007C98.7048 82.6386 100.132 83.9218 101.372 84.9599C107.402 88.932 114.647 90.5053 121.763 89.2995C119.826 85.7531 118.302 82.0003 117.501 77.9831C116.1 70.9418 117.017 63.4298 121.395 57.5684C125.049 52.6743 130.815 49.5148 137.021 50.108C142.806 50.6625 148.12 54.209 149.812 59.9349C150.974 63.8682 150.393 68.0853 148.604 71.7156C148.637 71.7156 148.669 71.7027 148.701 71.7027C148.701 71.7542 148.714 71.8058 148.721 71.8574C148.656 71.8639 148.598 71.8703 148.533 71.8768C147.7 73.5275 146.616 75.0492 145.331 76.3646C145.589 76.4485 145.647 76.7128 145.712 76.9643C145.783 77.2287 145.705 77.435 145.428 77.5253C145.124 77.6285 144.859 77.4157 144.821 77.061C144.808 76.945 144.821 76.8289 144.846 76.7322C144.136 77.0094 143.4 76.2808 143.51 75.4877C143.542 75.2491 143.568 75.0041 143.587 74.7591C143.348 74.8816 143.187 74.9847 143.032 74.9783C142.754 74.9783 142.67 74.7333 142.735 74.4882C142.793 74.2368 142.993 74.0756 143.232 74.1594C143.361 74.2045 143.458 74.3464 143.607 74.5205C143.691 72.9149 143.452 71.1804 142.735 69.7231C142.729 70.0584 142.58 70.2003 142.341 70.1874C142.199 70.1809 141.992 70.0649 141.934 69.9423C141.825 69.6909 141.96 69.4329 142.225 69.4071C142.373 69.3942 142.535 69.5039 142.664 69.5812C142.315 68.9106 141.87 68.2981 141.302 67.7951C138.777 65.5512 135.109 66.7505 133.288 69.2782C128.82 75.4877 135.471 82.3936 140.042 86.2754C140.165 86.314 140.288 86.3721 140.404 86.4688C145.809 90.8213 153.37 90.3506 158.303 85.6305C156.882 82.7031 155.765 79.6338 155.12 76.3969C154.881 75.204 154.719 74.0046 154.622 72.7924C153.964 72.6505 153.615 72.1153 153.802 71.4512C153.919 71.045 154.177 70.8386 154.519 70.8386C154.435 65.5576 155.772 60.3218 159.007 55.9822C162.661 51.0881 168.427 47.9286 174.633 48.5218C180.418 49.0763 185.732 52.6228 187.424 58.3487C187.979 60.2251 188.134 62.1724 187.953 64.0875C188.128 64.21 188.276 64.4615 188.257 64.6678C188.237 64.9257 188.076 65.1385 187.798 65.2417C187.198 68.8526 185.409 72.2894 182.833 74.888C182.039 75.6876 180.993 74.83 181.122 73.895C181.483 71.2771 180.986 68.053 178.914 66.2024C176.389 63.9585 172.721 65.1579 170.9 67.6855C166.29 74.0949 173.522 81.2394 178.087 85.0438C178.197 85.1405 178.274 85.2372 178.332 85.3404C178.339 85.3404 178.345 85.3468 178.352 85.3533C180.231 86.875 182.387 87.5843 184.512 87.5843C184.434 86.9975 184.686 86.3785 185.17 86.0368C185.919 85.5209 187.03 85.6241 187.669 86.2689C187.85 86.4494 187.94 86.6945 187.966 86.9524C190.317 86.0626 192.363 84.2636 193.552 81.7424C192.912 80.0078 192.389 78.2281 192.021 76.3904C191.815 75.3587 191.666 74.3206 191.563 73.2825C191.427 73.3147 191.272 73.334 191.104 73.3405C190.459 73.3663 189.981 72.6828 190.323 71.9928C190.478 71.6769 190.717 71.3803 190.975 71.1417C191.098 71.0256 191.253 70.9611 191.421 70.9418C191.317 65.6221 192.654 60.3476 195.908 55.9822C199.563 51.0881 205.329 47.9286 211.534 48.5218C212.923 48.6572 214.285 48.9667 215.576 49.431C216.067 44.9302 215.99 40.3972 215.273 35.9544C215.325 35.9286 215.383 35.9093 215.434 35.89C214.44 31.6794 213.149 27.5461 211.56 23.5161C211.515 23.5483 211.47 23.5741 211.431 23.6063C210.953 22.6133 210.437 21.6332 209.881 20.666C196.644 21.4656 183.395 22.0652 170.139 22.4521C130.415 23.5999 90.64 22.8326 50.9941 20.1953C50.9941 20.2017 50.9941 20.2082 50.9941 20.2211C50.852 21.2205 50.9941 22.1297 51.4396 23.0325C51.6721 23.4967 51.2071 23.9932 50.6648 23.9352C50.1676 23.8836 49.7479 23.5032 49.7091 22.9938C49.6833 22.6972 49.735 22.3941 49.7866 22.1039C49.9093 21.4462 50.0449 20.795 50.1805 20.1437C42.5612 19.6343 34.9549 19.0604 27.3486 18.4092C27.5939 18.7509 27.8716 19.0798 28.1815 19.3893C27.9232 19.8213 27.6779 20.2598 27.4325 20.6983C26.9934 20.4339 26.535 20.1953 26.0701 19.9761C23.9715 24.2898 22.4735 28.8422 21.6147 33.5364C22.0151 33.3945 22.4025 33.3236 22.7705 33.3172L22.777 33.3236ZM57.3607 79.8853C57.1799 79.8144 56.9862 79.6145 56.9216 79.4275C56.8247 79.1373 57.1088 78.7827 57.3865 78.8472C57.5737 78.8858 57.7223 79.0857 57.8062 79.1567C57.8514 79.6338 57.5996 79.982 57.3607 79.8918V79.8853ZM94.7337 74.398C94.7208 74.3593 94.6821 74.3077 94.695 74.2819C94.7079 74.2561 94.7789 74.2303 94.8048 74.2432C94.8306 74.2561 94.8371 74.3141 94.85 74.3593C94.8112 74.3722 94.7725 74.3851 94.7273 74.4044L94.7337 74.398ZM100.442 73.7919C99.9252 73.8047 99.5507 73.3082 99.6088 72.6763C99.6411 72.283 99.9381 71.9799 100.28 71.9993C100.758 72.0186 101.152 72.4378 101.165 72.9278C101.178 73.3469 100.81 73.7854 100.442 73.7919ZM104.529 76.8547C104.445 77.1964 104.322 77.5511 104.122 77.8348C103.644 78.499 102.463 78.6989 101.843 78.2797C101.359 77.9509 101.12 76.7128 101.449 76.1261C101.527 75.9842 101.701 75.8552 101.856 75.8101C102.14 75.7263 102.443 75.7134 102.611 75.6876C103.102 75.7327 103.464 75.7521 103.819 75.8037C104.329 75.881 104.658 76.3388 104.535 76.8547H104.529ZM174.181 71.6575C173.832 71.6446 173.535 71.3093 173.561 70.9547C173.587 70.5936 173.877 70.2841 174.219 70.2454C174.555 70.2067 174.813 70.5227 174.794 70.9547C174.768 71.3996 174.536 71.664 174.187 71.6575H174.181ZM210.269 46.9291C210.327 46.7485 210.546 46.6131 210.779 46.3746C211.031 46.6712 211.27 46.8517 211.366 47.0903C211.47 47.3289 211.082 47.5997 210.766 47.5481C210.456 47.4965 210.185 47.1999 210.275 46.9226L210.269 46.9291ZM191.227 48.2703C190.782 48.2316 190.388 47.8834 190.368 47.503C190.349 47.1161 190.769 46.7228 191.188 46.7292C191.634 46.7357 191.918 47.0838 191.886 47.5739C191.86 47.9866 191.563 48.2961 191.227 48.2703ZM202.649 37.5729C202.514 37.7857 202.269 37.9276 201.946 38.2048C201.804 37.8631 201.662 37.6761 201.668 37.4891C201.674 37.1731 201.875 36.9539 202.23 36.9668C202.527 36.9732 202.798 37.3408 202.649 37.5729ZM204.005 41.2354C203.644 41.2612 203.308 40.9968 203.25 40.6422C203.179 40.236 203.515 39.862 203.973 39.8297C204.335 39.804 204.683 40.0748 204.729 40.4165C204.78 40.8421 204.464 41.2096 204.005 41.2354ZM206.098 38.4692C205.691 38.553 205.252 38.6497 204.858 38.5788C204.548 38.5208 204.219 38.2564 204.012 37.9985C203.747 37.6696 203.967 37.3085 204.193 37.0184C204.696 36.3671 205.284 35.9093 206.188 36.1479C206.821 36.3155 207.098 36.6766 207.034 37.315C206.976 37.9662 206.698 38.3402 206.098 38.4692ZM206.427 24.8895C206.466 24.7541 206.711 24.5478 206.776 24.5736C206.956 24.6509 207.098 24.8379 207.286 25.012C207.111 25.2248 207.027 25.4054 206.892 25.4634C206.633 25.573 206.336 25.2248 206.427 24.896V24.8895ZM193.933 26.0308C193.978 25.5795 194.255 25.2893 194.591 25.1474C194.753 24.9862 194.985 24.8766 195.282 24.8766C198.659 24.8895 202.043 24.9089 205.42 24.9218C205.93 24.9218 206.498 25.3925 206.44 25.947C206.259 27.8556 206.072 29.7643 205.891 31.6729C205.846 32.1694 205.452 32.7626 204.864 32.6982C201.41 32.2984 197.949 32.0598 194.468 31.976C193.958 31.9631 193.39 31.5117 193.448 30.9507L193.926 26.0308H193.933ZM192.77 55.7307C192.77 55.7307 192.854 55.821 192.848 55.8468C192.815 55.9306 192.757 56.0016 192.706 56.0725C192.654 56.0016 192.596 55.9306 192.544 55.8597C192.622 55.8146 192.693 55.763 192.77 55.7307ZM191.15 30.983C191.64 31.0603 191.963 31.473 191.944 32.0018C191.924 32.5563 191.414 32.9948 190.865 32.9174C190.465 32.8658 190.149 32.4531 190.175 32.0211C190.213 31.3956 190.672 30.9056 191.15 30.983ZM189.839 53.1902C190.601 53.2934 191.188 53.8415 191.15 54.4218C191.111 55.073 190.594 55.4922 189.923 55.4148C189.258 55.3374 188.799 54.7442 188.838 54.0027C188.864 53.5319 189.361 53.1257 189.839 53.1902ZM178.223 37.4633C178.113 37.444 177.951 37.2054 177.971 37.0893C177.99 36.9539 178.158 36.7733 178.294 36.7411C178.397 36.7153 178.546 36.883 178.642 36.9474C178.623 37.2956 178.507 37.5084 178.216 37.4633H178.223ZM181.574 50.669C181.161 50.6367 180.799 50.2176 180.844 49.8307C180.876 49.5406 181.283 49.3278 181.69 49.3794C182.09 49.431 182.362 49.734 182.323 50.0822C182.284 50.4175 181.929 50.7012 181.574 50.6754V50.669ZM182.943 44.9495C182.852 44.9302 182.794 44.7174 182.723 44.5884C182.878 44.5369 183.027 44.4595 183.188 44.453C183.233 44.453 183.291 44.6336 183.382 44.7819C183.233 44.8464 183.078 44.9689 182.949 44.9495H182.943ZM175.091 26.94C175.136 26.4886 175.414 26.1985 175.75 26.0566C175.911 25.8954 176.144 25.7858 176.441 25.7858C179.818 25.7987 183.201 25.818 186.578 25.8309C187.088 25.8309 187.656 26.3016 187.605 26.8497C187.424 28.7584 187.237 30.667 187.056 32.5756C187.011 33.0721 186.617 33.6654 186.029 33.5944C184.841 33.459 183.647 33.343 182.458 33.2462C182.458 33.2785 182.465 33.3043 182.465 33.3365C182.465 33.8137 182.058 34.207 181.529 34.2264C181.07 34.2393 180.715 33.9168 180.702 33.4655C180.702 33.3365 180.715 33.2204 180.741 33.1108C179.043 32.9948 177.338 32.9174 175.633 32.8723C175.123 32.8594 174.555 32.408 174.607 31.847L175.085 26.9271L175.091 26.94ZM165.147 42.3896C164.792 42.6089 164.211 42.596 163.959 42.3252C163.843 42.2026 163.74 42.0092 163.74 41.8544C163.753 41.1967 163.804 40.5455 163.849 39.7782C164.134 39.8362 164.431 39.804 164.54 39.9329C164.889 40.3456 165.186 40.8034 165.457 41.2741C165.677 41.6481 165.502 42.1704 165.141 42.3896H165.147ZM170.384 39.9781C170.242 40.539 169.674 40.855 169.118 40.6744C168.111 40.3456 167.601 39.4106 167.937 38.3918C168.014 38.1468 168.305 37.9727 168.415 37.8502C169.706 37.7599 170.655 38.8819 170.384 39.9781ZM164.443 23.8385C164.579 23.8578 164.695 24.019 164.915 24.1802C164.708 24.4253 164.566 24.6638 164.359 24.8057C164.198 24.9153 163.927 24.6445 163.933 24.3995C163.933 24.0706 164.153 23.7933 164.443 23.832V23.8385ZM156.876 27.3269C156.921 26.8755 157.199 26.5854 157.534 26.4435C157.696 26.2823 157.928 26.1727 158.225 26.1727C161.602 26.1856 164.986 26.2049 168.363 26.2178C168.873 26.2178 169.441 26.6885 169.383 27.2366C169.202 29.1453 169.015 31.0539 168.834 32.9625C168.789 33.459 168.395 34.0523 167.814 33.9878C164.36 33.588 160.899 33.3494 157.418 33.2656C156.908 33.2527 156.34 32.8013 156.398 32.2403L156.876 27.3204V27.3269ZM142.903 40.855C142.393 42.4735 141.437 43.0344 139.733 42.6991C139.442 42.6411 139.158 42.5315 138.848 42.4348C138.415 41.6352 138.57 40.9904 138.764 40.352C138.912 39.862 139.281 39.5331 139.758 39.3784C140.804 39.0302 141.779 39.1978 142.645 39.8749C142.961 40.1199 143.019 40.4746 142.903 40.8485V40.855ZM148.301 49.6889C148.101 49.6373 147.862 49.4632 147.791 49.2762C147.655 48.9409 148.049 48.496 148.385 48.5992C148.572 48.6572 148.708 48.8764 148.792 48.9538C148.818 49.4503 148.592 49.7598 148.301 49.6889ZM153.654 81.5102C153.673 81.5618 153.693 81.6134 153.712 81.665C153.66 81.6843 153.596 81.7295 153.563 81.7101C153.531 81.6908 153.525 81.6134 153.505 81.5682C153.557 81.5489 153.609 81.5296 153.654 81.5102ZM151.975 49.8952C152.356 49.9081 152.685 50.2176 152.692 50.5658C152.698 51.0043 152.169 51.3912 151.659 51.3202C151.387 51.2816 151.148 50.972 151.161 50.6625C151.181 50.1918 151.517 49.8759 151.975 49.8952ZM138.299 27.372C138.344 26.9207 138.622 26.6305 138.958 26.4886C139.119 26.3274 139.352 26.2178 139.649 26.2178C143.026 26.2307 146.409 26.2501 149.786 26.263C150.296 26.263 150.864 26.7337 150.806 27.2818C150.625 29.1904 150.438 31.099 150.257 33.0077C150.212 33.5042 149.818 34.0974 149.231 34.0329C145.776 33.6331 142.315 33.3945 138.835 33.3107C138.325 33.2978 137.757 32.8465 137.815 32.2855L138.293 27.3656L138.299 27.372ZM54.3904 45.4009C53.7189 45.4009 53.1442 45.0978 52.4921 44.9044C52.5889 44.6336 52.5954 44.3885 52.7052 44.337C53.3832 43.9952 54.087 43.9759 54.7133 44.4595C54.8618 44.5755 54.9587 44.8657 54.9393 45.0591C54.9135 45.3235 54.6487 45.4009 54.3969 45.4073L54.3904 45.4009ZM58.6714 46.0199C58.6262 46.2134 58.4519 46.3746 58.3873 46.4713C57.9224 46.5358 57.5802 46.2907 57.6577 46.0199C57.7093 45.8394 57.9095 45.6266 58.0903 45.5621C58.3873 45.4525 58.736 45.7362 58.6779 46.0199H58.6714ZM60.2211 37.9147C59.9887 38.3789 59.9047 38.4047 58.8651 38.5595C58.5358 37.6052 58.6262 37.2505 59.3042 36.941C59.5948 36.8056 59.8918 36.7991 60.1307 37.07C60.3567 37.3279 60.3696 37.6245 60.2211 37.9147ZM72.1214 33.9749C72.0245 33.8911 72.0245 33.6912 71.9793 33.5429C72.1278 33.5042 72.3151 33.3945 72.4055 33.4526C72.5088 33.5171 72.5281 33.7234 72.6185 33.9555C72.399 33.9684 72.1988 34.0458 72.1214 33.9749ZM103.322 38.7916C103.263 38.9012 103.063 38.9399 102.928 39.0044C102.882 38.9012 102.773 38.7787 102.799 38.7078C102.857 38.5724 102.986 38.4692 103.167 38.2693C103.251 38.5208 103.373 38.6949 103.328 38.7916H103.322ZM110.941 48.5089C111.005 47.9157 111.432 47.5739 112.187 47.6319C112.297 47.7609 112.594 47.9608 112.613 48.18C112.671 48.799 112.077 49.2504 111.425 49.1537C111.154 49.115 110.909 48.7861 110.941 48.5089ZM111.67 69.0074C111.522 68.9751 111.36 68.8268 111.283 68.685C111.109 68.3948 111.18 68.0788 111.419 67.8661C111.683 67.6275 112.032 67.4211 112.394 67.6533C112.568 67.7629 112.645 68.0208 112.71 68.1175C112.639 68.7365 112.168 69.1105 111.677 69.0074H111.67ZM113.369 59.4706C113.33 59.4642 113.311 59.3997 113.278 59.361C113.349 59.3352 113.42 59.3094 113.498 59.2836C113.498 59.3288 113.498 59.3804 113.504 59.4255C113.459 59.4448 113.407 59.4835 113.369 59.4706ZM134.47 39.5976C134.644 39.6363 134.78 39.8362 134.896 39.9329C134.767 40.352 134.522 40.3778 134.302 40.3005C134.173 40.2553 134.005 40.0812 133.999 39.9652C133.999 39.6943 134.231 39.546 134.47 39.5976ZM120.872 30.5832L121.162 27.559C121.207 27.1077 121.485 26.8175 121.821 26.6756C121.982 26.5144 122.215 26.4048 122.512 26.4048C125.889 26.4177 129.272 26.4371 132.649 26.45C133.159 26.45 133.728 26.9207 133.669 27.4688C133.489 29.3774 133.301 31.286 133.121 33.1947C133.075 33.6912 132.681 34.2844 132.1 34.2135C128.646 33.8137 125.185 33.5751 121.705 33.4913C121.195 33.4784 120.626 33.027 120.684 32.466L120.814 31.17C120.704 30.9701 120.639 30.8476 120.568 30.7186C120.671 30.6735 120.768 30.609 120.872 30.5703V30.5832ZM116.617 47.503C116.868 47.3805 117.256 47.7093 117.172 47.9737C117.114 48.1542 116.907 48.2896 116.688 48.5347C116.474 48.2961 116.229 48.1349 116.236 47.993C116.248 47.8189 116.442 47.5932 116.623 47.503H116.617ZM112.077 24.5026C112.336 24.5349 112.529 24.7154 112.458 24.9669C112.407 25.141 112.181 25.2635 111.922 25.515C111.754 25.2184 111.574 25.0443 111.58 24.8766C111.587 24.6251 111.806 24.4704 112.077 24.5026ZM104.871 23.8836C105.336 23.9094 105.665 24.2318 105.659 24.6574C105.659 25.0959 105.317 25.4247 104.871 25.4247C104.348 25.4247 103.967 25.0443 103.987 24.5413C104 24.1544 104.4 23.8578 104.871 23.8836ZM103.231 27.5074C103.276 27.0561 103.554 26.7659 103.89 26.6241C104.051 26.4628 104.284 26.3532 104.581 26.3532C107.958 26.3661 111.341 26.3855 114.718 26.3984C115.228 26.3984 115.796 26.8691 115.745 27.4172C115.564 29.3258 115.377 31.2344 115.196 33.1431C115.151 33.6396 114.757 34.2328 114.169 34.1683C113.84 34.1296 113.511 34.1038 113.188 34.0652C113.046 34.1038 112.904 34.1425 112.755 34.1877C112.697 34.1232 112.639 34.0587 112.581 34.0007C109.656 33.7041 106.724 33.5171 103.78 33.4461C103.27 33.4332 102.702 32.9819 102.753 32.4273L103.231 27.5074ZM85.9781 26.9787C86.0233 26.5273 86.3009 26.2372 86.6367 26.0953C86.7981 25.9341 87.0306 25.8245 87.3276 25.8245C88.3284 25.8245 89.3357 25.8309 90.3365 25.8374C90.2784 25.7729 90.2332 25.6826 90.2268 25.5795C90.2268 25.4569 90.3946 25.3215 90.5625 25.0765C90.7433 25.2893 90.9177 25.4247 90.9758 25.5988C90.9951 25.6504 90.9241 25.76 90.8402 25.8374C93.0485 25.8503 95.2568 25.8567 97.465 25.8696C97.9752 25.8696 98.5434 26.3403 98.4853 26.8949C98.3045 28.8035 98.1172 30.7121 97.9364 32.6208C97.8912 33.1173 97.4973 33.7105 96.9098 33.6396C95.5602 33.4848 94.2043 33.3623 92.8548 33.2527C92.8612 33.2914 92.8677 33.3365 92.8612 33.3752C92.8354 33.6525 92.5513 33.8717 92.0928 33.8524C92.0024 33.717 91.7571 33.5106 91.7506 33.2914C91.7506 33.2462 91.7506 33.2011 91.7635 33.1624C90.0201 33.0399 88.2703 32.9561 86.5205 32.9174C86.0103 32.9045 85.4421 32.4531 85.5002 31.8986L85.9781 26.9787ZM83.8602 30.3833C83.9247 30.0609 84.1249 29.8416 84.4736 29.8352C84.7964 29.8352 85.0612 29.9706 85.1645 30.2995C85.2161 30.4671 85.2226 30.6541 85.2613 30.9443C85.1386 31.1055 85.016 31.415 84.8029 31.5182C84.4284 31.6923 83.9764 31.3698 83.8731 30.9185C83.8343 30.7444 83.8279 30.5574 83.8666 30.3833H83.8602ZM81.6648 41.906C81.71 41.4676 81.8843 41.0742 82.2717 40.8743C82.5107 40.7518 82.8852 40.6873 83.1047 40.7905C83.3178 40.8872 83.5244 41.229 83.5438 41.4805C83.5761 41.8158 83.4986 42.1962 83.3371 42.4928C83.2209 42.712 82.8981 42.8281 82.7818 42.9119C82.0199 42.9377 81.6002 42.4864 81.6583 41.8996L81.6648 41.906ZM77.5775 22.5875C77.7325 22.4586 77.9908 22.3619 78.1845 22.3877C78.4621 22.4263 78.7204 22.5875 78.9916 22.6972C78.9851 22.8197 78.9722 22.9357 78.9593 23.0583C78.6817 23.0647 78.404 23.1034 78.1264 23.0776C77.7131 23.0454 77.4032 22.7358 77.5775 22.5875ZM70.1972 21.5043C70.591 21.5365 70.901 21.8202 70.901 22.1555C70.901 22.6069 70.449 22.9099 69.8679 22.839C69.5579 22.8003 69.3319 22.5231 69.3707 22.2329C69.4417 21.7493 69.7581 21.4656 70.1907 21.5043H70.1972ZM68.0664 26.3855C68.1116 25.9341 68.3892 25.6439 68.725 25.5021C68.8864 25.3409 69.1189 25.2313 69.4159 25.2313C72.7929 25.2442 76.1763 25.2635 79.5533 25.2764C80.0634 25.2764 80.6317 25.7471 80.58 26.3016C80.3992 28.2103 80.212 30.1189 80.0312 32.0276C79.986 32.5241 79.5921 33.1173 79.011 33.0464C78.3265 32.969 77.6421 32.898 76.9576 32.8336C77.429 32.9109 77.9197 33.3107 78.036 33.7814C78.1199 34.1103 78.1264 34.4907 78.0682 34.826C77.9649 35.4192 77.5194 35.7352 76.9124 35.7352C76.3184 35.7352 75.8987 35.4064 75.7696 34.8067C75.7179 34.5745 75.6985 34.336 75.6856 34.2264C75.7114 33.2462 76.0989 32.9045 76.6735 32.8207C76.7252 32.8142 76.7768 32.8207 76.8285 32.8207C74.0972 32.5563 71.3594 32.3886 68.6087 32.3242C68.0986 32.3113 67.5304 31.8599 67.5885 31.2989L68.0664 26.379V26.3855ZM66.3746 23.1614C66.4521 23.2066 66.4715 23.3549 66.5167 23.458C66.4327 23.529 66.3553 23.5934 66.2713 23.6644C66.2067 23.529 66.1422 23.3871 66.0776 23.2517C66.1809 23.2195 66.3165 23.1292 66.3746 23.1614ZM64.7216 35.9415C64.8185 35.9867 64.8895 36.0963 64.9541 36.193C64.9864 36.2382 65.0057 36.322 64.9864 36.3671C64.5408 37.2183 65.0057 37.8695 65.4319 38.5337C65.4642 38.5853 65.4706 38.6497 65.5223 38.8303C65.1672 39.488 64.6312 39.7072 63.9533 39.9136C63.2559 38.8109 63.4109 37.7148 63.8306 36.6315C63.9339 36.3671 64.1728 36.1479 64.3794 35.9351C64.4375 35.8771 64.6183 35.8964 64.7152 35.9351L64.7216 35.9415ZM51.5881 25.7471C51.6333 25.2957 51.911 25.0056 52.2467 24.8637C52.4082 24.7025 52.6406 24.5929 52.9376 24.5929C56.3146 24.6058 59.6981 24.6251 63.0751 24.638C63.5852 24.638 64.1534 25.1087 64.0953 25.6633C63.9145 27.5719 63.7273 29.4806 63.5465 31.3892C63.5013 31.8857 63.1074 32.4789 62.5263 32.408C59.0718 32.0082 55.6108 31.7696 52.1305 31.6858C51.6204 31.6729 51.0522 31.2215 51.1038 30.667L51.5817 25.7471H51.5881ZM35.7491 65.3384C35.6974 64.8161 36.0526 64.4099 36.5691 64.4034C37.034 64.4034 37.3827 64.7 37.4215 65.1256C37.4602 65.6415 37.0857 66.0799 36.6014 66.0799C36.1624 66.0799 35.7943 65.7575 35.7491 65.3384ZM36.5369 35.4644C36.3625 35.4128 36.214 35.1807 36.1236 34.9872C36.0978 34.9356 36.3109 34.6906 36.44 34.6648C36.6918 34.6068 36.8985 34.7293 36.963 35.1549C36.8533 35.2387 36.6531 35.4966 36.5369 35.4644ZM36.6789 49.8759C36.6402 49.9146 36.5691 49.9146 36.511 49.9404C36.4077 49.8888 36.2334 49.8565 36.2205 49.7856C36.1624 49.5083 36.1301 49.2182 36.1494 48.9345C36.1494 48.8764 36.4852 48.7475 36.5691 48.8055C36.9501 49.057 36.9824 49.5922 36.6789 49.8759ZM38.0155 80.7042C37.6152 80.7751 37.2859 80.6075 37.0534 80.3302C36.9178 80.169 36.8016 79.8531 36.8662 79.6854C36.963 79.4533 37.2407 79.2921 37.4279 79.118C37.7572 79.1889 38.0349 79.176 38.2092 79.305C38.4288 79.4726 38.6225 79.7305 38.7064 79.9949C38.7968 80.2786 38.3771 80.6462 38.022 80.7107L38.0155 80.7042ZM42.7291 40.6358C42.4644 40.6358 42.2707 40.4746 42.303 40.2037C42.3223 40.0683 42.4967 39.9523 42.671 39.7395C42.8647 39.92 43.1036 40.0425 43.1488 40.2102C43.2134 40.4681 42.9874 40.6358 42.7291 40.6358ZM34.6837 24.6961C34.7289 24.2447 35.0065 23.9545 35.3423 23.8127C35.5037 23.6515 35.7362 23.5419 36.0332 23.5419C39.4102 23.5548 42.7937 23.5741 46.1707 23.587C46.6808 23.587 47.249 24.0577 47.1974 24.6122C47.0166 26.5209 46.8293 28.4295 46.6485 30.3382C46.6033 30.8347 46.2094 31.4279 45.6283 31.3634C42.1738 30.9636 38.7129 30.725 35.2325 30.6412C34.7224 30.6283 34.1542 30.1769 34.2123 29.6224L34.6902 24.7025L34.6837 24.6961ZM33.8443 66.8537C34.2188 66.8795 34.4964 67.1826 34.49 67.5436C34.4835 67.8983 34.1607 68.1562 33.7733 68.124C33.3729 68.0917 33.0953 67.8145 33.1276 67.4598C33.1534 67.1116 33.4956 66.8279 33.8507 66.8537H33.8443ZM33.0888 59.5545C33.1211 59.5545 33.1663 59.7479 33.2244 59.9091C33.0501 59.9285 32.8951 59.9736 32.7401 59.9542C32.6885 59.9478 32.6627 59.7673 32.6239 59.6641C32.7789 59.6254 32.9274 59.5609 33.0824 59.5545H33.0888ZM31.1259 37.315C31.1969 37.0893 31.4875 36.9281 31.6102 36.8056C32.1526 36.8636 32.4302 37.1538 32.4302 37.5407C32.4302 37.8437 32.1655 38.1146 31.862 38.1146C31.41 38.1146 30.9968 37.7148 31.1259 37.315ZM24.4752 51.3074C23.9328 51.3654 23.5777 51.0494 23.5325 50.4627C23.4937 49.9533 23.7456 49.6115 24.1911 49.5599C24.7787 49.4954 25.2177 49.792 25.2436 50.2692C25.2759 50.8108 24.9401 51.2558 24.4687 51.3074H24.4752ZM26.2832 47.2515C26.2186 47.1548 26.0313 47 26.0055 46.813C25.9668 46.5551 26.3477 46.2585 26.606 46.3552C26.7803 46.4197 26.9741 46.6325 27.0192 46.813C27.0838 47.0645 26.7416 47.2966 26.2896 47.2451L26.2832 47.2515ZM27.6456 39.1398C28.0072 39.2881 28.259 39.7975 28.1621 40.2037C27.9232 41.229 27.1226 41.848 26.0507 41.8416C25.1596 41.8416 24.7076 41.229 24.9788 40.3972C25.3017 39.3977 26.6835 38.7465 27.652 39.1398H27.6456ZM23.7843 35.2387C24.359 35.2194 24.9272 35.6836 24.9207 36.1672C24.9143 36.6637 24.3202 37.1602 23.7908 37.1087C23.2936 37.0635 22.8803 36.6379 22.8609 36.1672C22.8416 35.6901 23.2677 35.2645 23.7778 35.2452L23.7843 35.2387Z" fill="black"/>
</g>
<defs>
<clipPath id="clip0_188_7834">
<rect width="240" height="130" fill="white" transform="translate(0.00146484)"/>
</clipPath>
</defs>
</svg>
