<svg width="206" height="206" viewBox="0 0 206 206" fill="none" xmlns="http://www.w3.org/2000/svg">
<circle cx="103" cy="103" r="102" fill="white" stroke="black" stroke-width="2"/>
<circle cx="103" cy="103" r="90" fill="white" stroke="black"/>
<path fill-rule="evenodd" clip-rule="evenodd" d="M125.764 118.526L103.003 79.1015L80.2414 118.526H125.764ZM104.541 78.2136C103.857 77.0297 102.148 77.0297 101.465 78.2136L78.7035 117.638C78.0199 118.822 78.8743 120.301 80.2414 120.301H125.764C127.131 120.301 127.986 118.822 127.302 117.638L104.541 78.2136Z" fill="black"/>
<path fill-rule="evenodd" clip-rule="evenodd" d="M117.147 113.555L102.998 89.0478L88.8488 113.555L117.147 113.555ZM104.536 88.1599C103.852 86.976 102.143 86.976 101.46 88.1599L87.3109 112.667C86.6274 113.851 87.4818 115.331 88.8488 115.331H117.147C118.514 115.331 119.368 113.851 118.685 112.667L104.536 88.1599Z" fill="black"/>
<path fill-rule="evenodd" clip-rule="evenodd" d="M109.77 109.291L103.003 97.5708L96.2365 109.291H109.77ZM104.541 96.6828C103.858 95.4989 102.149 95.4989 101.466 96.6829L94.6986 108.404C94.015 109.587 94.8695 111.067 96.2365 111.067H109.77C111.137 111.067 111.992 109.587 111.308 108.404L104.541 96.6828Z" fill="black"/>
<path d="M101.767 104.675C102.313 103.728 103.681 103.728 104.227 104.675C104.774 105.622 104.091 106.806 102.997 106.806C101.903 106.806 101.22 105.622 101.767 104.675Z" fill="black"/>
<path fill-rule="evenodd" clip-rule="evenodd" d="M133.147 122.789L103.003 70.5786L72.8596 122.789L133.147 122.789ZM104.541 69.6907C103.858 68.5068 102.149 68.5068 101.465 69.6907L71.3216 121.901C70.6381 123.085 71.4925 124.565 72.8596 124.565H133.147C134.514 124.565 135.368 123.085 134.685 121.901L104.541 69.6907Z" fill="black"/>
<path fill-rule="evenodd" clip-rule="evenodd" d="M140.53 127.05L103.004 62.0539L65.4787 127.05H140.53ZM104.542 61.166C103.859 59.9821 102.15 59.9821 101.466 61.166L63.9408 126.162C63.2572 127.346 64.1116 128.826 65.4787 128.826H140.53C141.897 128.826 142.752 127.346 142.068 126.162L104.542 61.166Z" fill="black"/>
<path fill-rule="evenodd" clip-rule="evenodd" d="M149.139 132.023L103.001 52.1094L56.8625 132.023H149.139ZM104.539 51.2214C103.855 50.0375 102.146 50.0375 101.463 51.2214L55.3246 131.135C54.641 132.319 55.4954 133.799 56.8625 133.799H149.139C150.506 133.799 151.36 132.319 150.677 131.135L104.539 51.2214Z" fill="black"/>
</svg>
