<svg width="180" height="210" viewBox="0 0 180 210" fill="none" xmlns="http://www.w3.org/2000/svg">
<g clip-path="url(#clip0_1845_48184)">
<path d="M50.7978 126.629C54.4643 127.329 58.4628 127.315 62.1758 127.269C69.0636 127.189 75.8851 126.242 82.5405 124.502C82.4209 124.449 82.308 124.376 82.1951 124.262C81.7899 123.849 81.3781 123.449 80.953 123.049C78.7545 121.529 76.6822 119.856 74.7294 118.056C71.5677 115.877 68.2002 113.99 64.7728 112.237C63.2717 111.471 61.7573 110.731 60.2429 109.991C58.6887 109.238 57.0481 108.238 55.3278 107.951C51.0303 107.244 49.9344 113.284 49.2436 116.37C48.8118 118.296 48.5262 120.249 48.4133 122.223C48.2937 124.342 48.3867 126.162 50.7978 126.622V126.629Z" fill="#0C0C0C"/>
<path d="M75.9773 116.357C78.2024 117.89 80.3212 119.57 82.3006 121.43C82.739 121.73 83.1774 122.023 83.6224 122.309C84.2069 122.683 84.2135 123.343 83.9279 123.803C83.8814 123.949 83.8017 124.083 83.6954 124.196C84.2334 124.049 84.7715 123.896 85.3028 123.736C85.449 123.696 85.5752 123.689 85.7014 123.703C85.7479 123.683 85.7877 123.663 85.8408 123.643C86.3656 123.469 87.0099 123.843 87.1361 124.383C87.1825 124.569 87.2224 124.762 87.2689 124.949C87.3486 125.302 87.2689 125.636 87.063 125.889C87.0298 129.122 87.1228 132.348 87.3752 135.568C87.4947 137.061 87.4416 138.781 87.9398 140.207C88.677 142.307 91.0416 141.214 92.4431 140.487C94.0837 139.641 94.9405 138.761 94.8941 136.761C94.8608 135.375 94.635 133.975 94.4955 132.595C94.1767 129.442 93.8512 126.289 93.5324 123.136C93.4859 122.703 93.6719 122.416 93.9509 122.263C94.0372 122.103 94.1634 121.963 94.3228 121.883C94.4158 121.836 94.5088 121.783 94.6018 121.736C94.9206 121.57 95.2727 121.563 95.5715 121.696C103.907 120.93 112.15 119.37 120.167 116.983C123.415 116.017 126.995 114.944 129.267 112.251C131.838 109.211 132.05 104.978 131.671 101.199C131.485 99.319 131.353 97.0326 130.662 95.2462C129.632 92.5665 127.341 94.0863 125.581 95.2262C122.525 97.1926 119.596 99.3657 116.82 101.719C112.888 105.065 109.281 108.771 106.02 112.764C104.884 114.73 103.529 116.584 101.855 118.277C101.031 119.11 99.5103 117.997 100.201 116.997C101.51 115.11 102.898 113.277 104.346 111.497C108.211 104.758 109.381 96.5327 111.499 89.1203C112.735 84.8208 114.116 80.528 114.794 76.0952C115.544 71.1758 115.066 66.4631 113.339 61.797C112.529 59.6106 111.606 57.4309 110.569 55.3445C109.739 53.6847 108.623 51.7316 106.697 51.2317C101.563 49.8852 99.776 57.0109 98.9657 60.5572C94.7346 79.0549 93.1339 98.0925 94.0439 117.037C94.0771 117.763 93.4926 118.097 92.928 118.043C92.3302 118.257 91.48 117.937 91.4069 117.09C90.4173 105.445 89.4342 93.793 88.4446 82.1478C88.0128 77.0151 87.5744 71.8891 87.1427 66.7564C86.7442 62.0703 86.3921 57.0709 83.7751 53.0114C81.6231 49.6785 77.764 47.1788 73.7256 48.4987C68.1263 50.3251 69.5743 56.0911 70.5972 60.5372C75.0341 79.8348 81.3043 98.6991 89.2615 116.823C89.8062 118.063 88.2453 119.003 87.4416 117.89C82.1678 110.531 77.2393 102.925 72.7227 95.0795C70.7832 91.7199 68.9234 88.3137 67.13 84.8675C65.5093 81.7545 64.1942 77.8817 61.6502 75.382C60.0561 73.8222 57.5056 72.8556 55.493 74.2355C54.0716 75.2153 53.3609 77.0951 53.2745 78.7616C53.0686 82.6811 55.5926 86.5939 57.3063 89.9668C62.2015 99.5856 68.0665 109.011 75.9839 116.344L75.9773 116.357Z" fill="#0C0C0C"/>
<path d="M45.5382 188.788C47.0393 192.754 50.7589 194.86 54.6844 195.833C59.7656 197.093 65.2387 197.253 70.4395 197.567C82.5414 198.293 94.6766 198.053 106.772 197.313C112.657 196.953 118.582 196.58 124.44 195.907C128.359 195.453 132.782 194.46 134.961 190.787C137.04 187.295 136.223 182.862 135.054 178.782C131.082 180.082 127.057 181.215 122.992 182.188C97.3135 188.328 70.2004 188.034 44.6946 181.282C44.5286 183.888 44.6681 186.475 45.5448 188.788H45.5382Z" fill="#0C0C0C"/>
<path d="M68.9777 166.357C68.6721 166.31 68.3998 166.017 68.4662 165.744C61.3592 164.871 54.3451 163.324 47.6698 160.844C46.9126 164.884 46.2616 168.943 45.7369 173.023C45.4845 174.949 45.1258 177.029 44.8867 179.142C50.227 180.575 55.6403 181.742 61.1068 182.595C85.5963 186.435 110.889 184.375 134.442 176.736C134.124 175.696 133.805 174.696 133.539 173.756C132.37 169.597 131.108 165.471 129.78 161.358C128.83 161.631 127.88 161.891 126.924 162.138C111.527 166.09 95.1011 167.164 79.2597 166.584C76.0383 166.464 72.8035 166.237 69.5888 165.871C69.695 166.117 69.2965 166.397 68.971 166.344L68.9777 166.357ZM47.5436 174.483C46.8594 174.403 46.3878 173.79 46.4277 173.023C46.4543 172.536 46.9657 172.116 47.4572 172.183C48.241 172.29 48.8454 172.856 48.8056 173.456C48.7657 174.13 48.2343 174.563 47.5436 174.483ZM48.8853 167.097C48.427 167.057 48.0218 166.697 48.0019 166.304C47.9819 165.904 48.4137 165.497 48.8454 165.504C49.3037 165.511 49.596 165.871 49.5628 166.377C49.5362 166.804 49.2373 167.124 48.8853 167.097ZM50.4063 175.169C50.3532 175.096 50.2934 175.023 50.2403 174.949C50.32 174.903 50.393 174.849 50.4727 174.816C50.4794 174.816 50.5591 174.909 50.5524 174.936C50.5192 175.023 50.4595 175.096 50.4063 175.169ZM129.501 164.997C129.534 164.871 129.786 164.691 129.899 164.711C130.105 164.757 130.404 164.904 130.444 165.064C130.597 165.671 130.444 166.257 130.079 167.057C129.428 166.304 129.328 165.671 129.501 164.997ZM121.411 163.671C121.484 163.824 121.583 163.957 121.603 164.104C121.61 164.157 121.444 164.237 121.351 164.311C121.258 164.177 121.158 164.057 121.092 163.911C121.078 163.884 121.258 163.784 121.411 163.671ZM113.746 165.257C113.765 165.297 113.785 165.337 113.799 165.377C113.772 165.411 113.746 165.444 113.719 165.477C113.726 165.404 113.739 165.331 113.746 165.251V165.257ZM106.579 170.783C106.619 170.697 106.771 170.67 106.904 170.59C107.03 170.683 107.21 170.75 107.296 170.89C107.469 171.157 107.502 171.476 107.27 171.716C107.183 171.803 106.904 171.816 106.805 171.743C106.472 171.503 106.413 171.15 106.579 170.783ZM98.741 180.682C98.8141 180.789 99.0333 180.975 99.0133 181.122C98.9868 181.309 98.7742 181.569 98.6082 181.595C98.4554 181.622 98.1764 181.422 98.0967 181.249C97.9705 180.982 98.2694 180.682 98.741 180.675V180.682ZM96.8812 171.676C96.9742 171.79 97.1868 171.95 97.2266 172.143C97.2864 172.436 97.0274 172.57 96.7683 172.57C96.496 172.57 96.2967 172.41 96.2901 172.123C96.2901 171.836 96.4694 171.683 96.8812 171.67V171.676ZM84.7129 167.65C84.8391 167.65 84.9852 167.637 85.0782 167.697C85.7158 168.097 86.3535 168.004 87.0442 167.81C87.5424 167.67 88.0007 168.17 88.0007 168.704C88.0007 169.11 87.7018 169.47 87.3365 169.47C87.1505 169.47 86.9513 169.47 86.7852 169.403C86.2605 169.197 85.8354 169.337 85.397 169.657C85.1645 169.823 84.8324 169.923 84.5468 169.93C83.9689 169.937 83.4575 169.37 83.4841 168.843C83.5173 168.237 84.1284 167.637 84.7062 167.65H84.7129ZM79.718 167.244C80.0435 167.037 80.4287 166.897 80.7475 167.184C80.9999 167.41 81.146 167.757 81.259 167.93C81.2324 168.923 80.6877 169.55 79.9173 169.617C79.5719 169.65 79.1534 169.357 79.0671 169.03C78.8811 168.31 79.1136 167.63 79.718 167.25V167.244ZM75.1947 170.803C75.8324 170.81 76.3239 171.33 76.3305 171.99C76.3305 172.603 75.8656 173.056 75.2877 173.003C74.7231 172.95 74.391 172.516 74.3844 171.83C74.3777 171.237 74.7231 170.797 75.1947 170.803ZM73.6737 173.463C73.7467 173.53 73.8131 173.596 73.8862 173.663C73.8065 173.716 73.7268 173.783 73.6405 173.823C73.6205 173.83 73.5142 173.736 73.5209 173.723C73.5607 173.63 73.6205 173.55 73.6737 173.463ZM70.9105 172.163C71.3423 172.163 71.7076 172.53 71.7342 173.003C71.7607 173.436 71.3755 173.856 70.9438 173.87C70.5187 173.883 70.1068 173.47 70.1135 173.036C70.1201 172.583 70.4987 172.163 70.9039 172.156L70.9105 172.163Z" fill="#0C0C0C"/>
<path d="M19.3539 68.5625C19.427 68.5159 19.5133 68.4759 19.6129 68.4626C19.7923 68.4359 19.9783 68.4292 20.1045 68.4159C20.5296 68.4426 20.9082 68.4426 21.041 68.9025C21.1606 69.3358 21.0144 69.6957 20.576 69.9957C20.2705 70.2023 19.945 70.409 19.5664 70.1757C19.5332 70.1557 19.5067 70.129 19.4735 70.1024C20.6225 83.8006 23.0203 97.4389 25.9495 110.864C27.4639 117.816 29.1112 124.742 30.8381 131.641C32.213 137.147 33.754 142.66 36.2581 147.766C37.7592 150.832 39.6655 153.679 41.9902 156.132C47.2641 158.711 52.8501 160.611 58.5955 161.931C74.1314 165.49 90.6438 165.13 106.419 163.544C114.077 162.771 121.722 161.464 129.115 159.338C129.029 159.071 128.942 158.798 128.849 158.531C131.347 156.852 133.678 154.912 135.81 152.685C141.994 146.213 146.119 138.134 149.108 129.708C148.809 129.495 148.636 129.068 148.689 128.595C148.736 128.222 149.088 127.942 149.473 127.968C149.546 127.968 149.626 127.988 149.692 128.015C150.35 126.062 150.954 124.089 151.505 122.123C155.285 108.664 157.277 94.7526 158.672 80.861C159.39 73.7152 159.934 66.5495 160.472 59.3904C160.997 52.4046 161.595 45.3721 160.99 38.3663C160.977 38.1997 160.957 38.0397 160.944 37.873C152.987 38.053 145.023 38.2063 137.066 38.313C97.8704 38.8729 58.662 38.5863 19.4735 37.4998C18.4971 47.8451 18.5635 58.2238 19.3539 68.5625ZM29.9282 120.976C29.8883 120.696 30.1938 120.436 30.5592 120.476C30.8846 120.509 31.1636 120.636 31.2034 121.016C31.2366 121.349 30.9842 121.656 30.6854 121.649C30.2802 121.636 29.9946 121.376 29.9282 120.969V120.976ZM31.1902 124.202C31.044 124.196 30.8315 124.076 30.7717 123.949C30.6588 123.689 30.7983 123.422 31.0706 123.396C31.2566 123.376 31.4625 123.556 31.602 123.616C31.6285 124.049 31.4625 124.216 31.1902 124.202ZM31.9009 129.155C31.6152 129.155 31.5289 128.902 31.5953 128.648C31.6551 128.388 31.861 128.222 32.1068 128.308C32.2795 128.368 32.3924 128.588 32.6381 128.848C32.2927 129.002 32.0935 129.155 31.9009 129.155ZM32.8108 123.622C32.8108 123.622 32.678 123.562 32.678 123.529C32.678 123.436 32.7178 123.336 32.7378 123.242C32.8308 123.289 32.9237 123.336 33.0167 123.382C32.9503 123.462 32.8839 123.549 32.8108 123.622ZM34.3717 131.788C34.0595 131.895 33.7872 131.675 33.7474 131.308C33.7075 130.921 33.8869 130.575 34.1459 130.568C34.5179 130.608 34.5843 130.921 34.664 131.215C34.737 131.488 34.6573 131.701 34.3717 131.795V131.788ZM36.4241 112.124C35.9127 112.11 35.5142 111.684 35.5275 111.157C35.5407 110.677 35.9924 110.344 36.5769 110.384C37.0419 110.417 37.3872 110.777 37.3806 111.217C37.374 111.73 36.9422 112.137 36.4241 112.124ZM37.4869 125.955C37.4869 125.902 37.467 125.809 37.4736 125.809C37.5599 125.789 37.6529 125.782 37.7393 125.769C37.7393 125.822 37.7526 125.875 37.7592 125.929C37.6662 125.935 37.5799 125.949 37.4869 125.955ZM37.3208 102.992C37.1149 102.938 36.8692 102.758 36.7961 102.565C36.6566 102.218 37.0618 101.758 37.4072 101.865C37.5998 101.925 37.7393 102.152 37.8256 102.232C37.8522 102.745 37.6197 103.065 37.3208 102.992ZM40.7747 104.685C40.4958 104.645 40.25 104.325 40.2633 104.005C40.2832 103.518 40.6286 103.192 41.1002 103.212C41.4921 103.225 41.8308 103.545 41.8375 103.905C41.8441 104.358 41.2995 104.758 40.7747 104.685ZM41.2397 91.1397C39.6987 92.8129 35.9791 91.6197 34.6706 90.1265C32.8308 88.0201 34.4049 84.4872 35.4478 82.3742C35.6404 81.9742 35.9658 81.8276 36.2979 81.8409C37.6994 80.821 39.8581 81.4209 40.9408 82.9341C42.2692 84.7939 42.9135 89.34 41.2463 91.1464L41.2397 91.1397ZM42.7342 136.094C42.7009 136.074 42.6943 135.994 42.6744 135.947C42.7275 135.927 42.7806 135.907 42.8271 135.887C42.8471 135.941 42.867 135.994 42.8869 136.047C42.8338 136.067 42.7674 136.114 42.7342 136.094ZM44.1821 126.935C43.2788 126.922 42.7607 126.302 42.9866 125.502C43.146 124.942 43.5777 124.736 44.1224 124.956C44.5342 125.122 44.8995 125.322 45.019 125.802C45.1785 126.415 44.7866 126.942 44.1755 126.935H44.1821ZM48.6523 158.678C48.2737 158.785 47.9017 158.425 47.9615 158.051C48.008 157.785 48.194 157.638 48.4663 157.625C48.8117 157.611 49.0508 157.831 49.0707 158.318C48.9777 158.405 48.8316 158.625 48.6456 158.678H48.6523ZM49.3829 153.185C49.0375 153.219 48.6722 152.879 48.6656 152.519C48.6589 152.225 48.9312 151.985 49.2634 151.979C49.6287 151.979 49.808 152.179 49.8678 152.532C49.8944 152.825 49.6552 153.152 49.3829 153.179V153.185ZM51.7874 134.834C51.3888 134.794 51.1231 134.508 51.1298 134.121C51.1298 133.814 51.4021 133.528 51.6877 133.521C52.1062 133.514 52.4649 133.914 52.4383 134.361C52.4184 134.648 52.1195 134.868 51.7874 134.834ZM54.5106 141.767C54.2516 141.987 53.9195 142 53.6737 141.807C53.4545 141.633 53.2752 141.353 53.1689 141.087C53.0294 140.74 53.4014 140.334 53.9394 140.387C54.0922 140.507 54.4309 140.674 54.6235 140.94C54.7962 141.18 54.7697 141.533 54.504 141.767H54.5106ZM59.6051 146.639C59.5055 146.959 59.3062 147.186 58.9409 147.186C58.6287 147.186 58.3697 146.873 58.4096 146.553C58.456 146.153 58.8014 145.873 59.18 145.92C59.4656 145.96 59.6981 146.326 59.6051 146.639ZM65.1646 158.658C64.9985 159.131 64.5867 159.438 64.1882 159.351C63.8428 159.278 63.6701 159.018 63.6568 158.685C63.6369 158.125 63.9889 157.691 64.4937 157.625C64.8723 157.571 65.231 157.905 65.2177 158.291C65.2044 158.411 65.2044 158.545 65.1646 158.658ZM71.5078 160.384C71.1691 160.791 70.5181 160.758 70.186 160.364C69.7676 159.878 69.5019 159.318 69.5085 158.665C69.5085 158.278 69.6281 157.918 70.0133 157.738C70.372 157.565 70.7506 157.585 71.0761 157.811C71.6207 158.185 71.913 158.718 71.9329 159.558C71.8399 159.751 71.727 160.111 71.5012 160.384H71.5078ZM71.8466 145.033C71.2687 145.093 70.8104 144.793 70.7573 144.313C70.7108 143.866 71.1425 143.413 71.6672 143.36C72.1521 143.307 72.637 143.726 72.6635 144.213C72.6835 144.613 72.3181 144.98 71.8466 145.033ZM74.603 157.205C74.51 156.718 74.8886 156.198 75.3802 156.132C75.9182 156.058 76.4163 156.412 76.4628 156.892C76.5093 157.371 76.0975 157.978 75.699 158.025C75.2739 158.078 74.6761 157.631 74.603 157.205ZM76.8879 164.284C76.2702 164.257 75.885 163.937 75.8783 163.417C75.865 162.584 76.3632 162.038 77.0872 162.104C77.7182 162.164 78.0901 162.571 78.0968 163.217C78.1034 163.937 77.6783 164.311 76.8879 164.277V164.284ZM77.4658 142.933C77.0407 143.16 76.5425 143.253 76.3101 143.333C75.3935 143.353 74.8621 143.067 74.6695 142.593C74.3839 141.887 74.6362 141.02 75.254 140.6C76.0245 140.067 77.1669 140.174 77.8245 140.84C78.3691 141.393 78.2097 142.533 77.4658 142.933ZM86.1404 148.339C86.0009 148.846 85.6954 149.212 85.0577 149.466C84.3802 149.226 83.736 149.026 83.1182 148.759C82.9256 148.679 82.7197 148.413 82.7064 148.219C82.6931 148.026 82.8658 147.679 83.0252 147.633C83.7824 147.419 84.5596 147.219 85.3433 147.146C85.9079 147.093 86.2998 147.766 86.147 148.339H86.1404ZM88.6843 152.379C88.6113 152.319 88.5382 152.265 88.4784 152.192C88.4718 152.185 88.5382 152.112 88.5648 152.072C88.6378 152.132 88.7043 152.192 88.7773 152.252C88.7441 152.292 88.7175 152.339 88.6843 152.379ZM90.9094 157.425C90.8563 157.425 90.7965 157.425 90.7434 157.425C90.7434 157.325 90.75 157.218 90.7633 157.118C90.7633 157.111 90.8696 157.118 90.9227 157.118C90.9227 157.218 90.9161 157.318 90.9094 157.418V157.425ZM101.012 125.989C100.753 126.109 100.388 125.742 100.487 125.449C100.554 125.255 100.766 125.016 100.946 124.989C101.085 124.962 101.271 125.229 101.524 125.429C101.304 125.675 101.191 125.909 101.012 125.989ZM102.44 144.113C102.161 144.1 101.988 143.94 101.969 143.66C101.949 143.347 102.234 143.013 102.526 143.073C102.726 143.113 102.892 143.307 103.005 143.387C103.025 143.833 102.759 144.12 102.44 144.113ZM105.11 161.324C105.031 161.184 104.924 161.058 104.891 160.911C104.878 160.844 105.051 160.658 105.07 160.671C105.203 160.738 105.316 160.838 105.496 160.978C105.329 161.131 105.217 161.231 105.11 161.331V161.324ZM108.803 133.974C108.71 133.974 108.531 133.841 108.538 133.808C108.591 133.621 108.684 133.441 108.81 133.168C109.022 133.368 109.215 133.461 109.235 133.581C109.275 133.861 109.062 133.988 108.803 133.974ZM111.752 136.874C111.287 136.994 110.889 136.814 110.65 136.387C110.384 135.907 110.397 135.428 110.683 134.968C111.002 134.454 111.454 134.161 112.085 134.214C112.563 134.254 112.868 134.688 112.835 135.328C112.795 136.227 112.47 136.681 111.746 136.874H111.752ZM112.789 144.44C112.689 144.22 112.549 144.046 112.589 143.953C112.636 143.846 112.842 143.793 112.988 143.773C113.034 143.773 113.174 143.973 113.154 144.026C113.087 144.16 112.961 144.26 112.795 144.44H112.789ZM116.787 156.725C116.369 157.425 115.804 157.805 115.014 157.818C114.834 157.685 114.462 157.531 114.296 157.251C113.911 156.585 114.144 155.538 114.695 155.018C115.133 154.605 116.09 154.618 116.588 155.038C117.066 155.452 117.146 156.118 116.787 156.718V156.725ZM116.588 127.202C116.296 127.255 116.116 127.062 116.156 126.782C116.176 126.642 116.389 126.402 116.468 126.422C116.661 126.462 116.827 126.629 117.086 126.795C116.847 126.995 116.727 127.169 116.588 127.195V127.202ZM120.699 160.911C120.467 160.958 120.188 160.998 119.975 160.911C119.776 160.838 119.544 160.624 119.497 160.431C119.291 159.598 119.703 159.091 120.527 159.091C121.178 159.091 121.569 159.385 121.569 159.878C121.569 160.411 121.271 160.784 120.693 160.904L120.699 160.911ZM121.709 152.959C121.383 153.005 121.124 152.792 121.085 152.432C121.038 152.059 121.217 151.706 121.47 151.672C121.795 151.632 122.181 151.952 122.254 152.325C122.307 152.619 122.061 152.905 121.716 152.959H121.709ZM124.499 121.176C124.306 121.149 124.14 120.943 123.821 120.709C124.14 120.489 124.306 120.289 124.499 120.263C124.764 120.223 124.97 120.429 124.957 120.716C124.95 120.989 124.764 121.216 124.492 121.176H124.499ZM126.252 145.66C126.186 145.686 126.066 145.593 125.973 145.553C126.02 145.46 126.04 145.313 126.113 145.28C126.179 145.253 126.299 145.346 126.392 145.386C126.345 145.48 126.325 145.626 126.252 145.653V145.66ZM126.431 130.601C126.365 130.701 126.319 130.848 126.226 130.888C126.06 130.955 125.867 130.995 125.688 130.981C125.236 130.941 124.851 130.601 124.957 130.308C125.03 130.108 125.249 129.888 125.448 129.828C125.927 129.688 126.352 129.975 126.438 130.415C126.451 130.475 126.438 130.535 126.438 130.601H126.431ZM131.964 154.432C131.659 155.305 131.041 155.878 130.224 156.252C130.131 156.292 129.939 156.272 129.885 156.205C129.772 156.072 129.633 155.865 129.666 155.732C129.899 154.852 130.437 154.199 131.227 153.752C131.466 153.619 131.964 153.832 131.978 153.945C131.978 154.192 132.011 154.325 131.978 154.432H131.964ZM131.307 115.137C131.38 115.243 131.599 115.43 131.579 115.577C131.553 115.763 131.34 116.023 131.174 116.05C131.021 116.077 130.742 115.877 130.663 115.703C130.536 115.437 130.835 115.137 131.307 115.13V115.137ZM133.957 135.661C133.877 136.001 133.439 136.287 133.1 136.194C132.688 136.081 132.27 135.954 131.905 135.741C131.745 135.648 131.612 135.308 131.652 135.114C131.692 134.928 131.944 134.768 132.137 134.641C132.223 134.581 132.376 134.634 132.662 134.634C132.854 134.701 133.206 134.808 133.545 134.941C133.864 135.068 134.037 135.314 133.957 135.661ZM139.829 106.171C139.742 106.258 139.463 106.271 139.364 106.198C139.032 105.958 138.972 105.605 139.138 105.238C139.178 105.151 139.33 105.125 139.463 105.045C139.59 105.138 139.769 105.205 139.855 105.345C140.028 105.611 140.061 105.931 139.829 106.171ZM139.849 99.3254C139.762 99.2587 139.583 99.1854 139.51 99.0587C139.39 98.8588 139.596 98.4988 139.822 98.5188C139.968 98.5255 140.154 98.6455 140.234 98.7721C140.367 98.9854 140.181 99.272 139.855 99.3254H139.849ZM143.183 141.5C142.844 141.467 142.612 141.247 142.578 140.914C142.512 140.34 143.083 139.78 143.615 139.94C143.847 140.007 144.013 140.314 144.133 140.427C144.1 141.14 143.694 141.547 143.183 141.5ZM146.285 99.932C146.291 99.8586 146.305 99.7853 146.311 99.7053C146.331 99.7453 146.351 99.7853 146.364 99.8253C146.338 99.8586 146.311 99.892 146.285 99.9253V99.932ZM147.56 94.526C146.099 96.1924 142.605 97.8922 141.004 95.4725C140.201 94.2593 140.553 92.6462 140.765 91.313C141.071 89.36 141.489 87.4402 141.987 85.5271C142.08 85.1738 142.299 84.9538 142.559 84.8538C144.598 83.2407 147.308 85.3804 148.357 87.3002C149.632 89.6332 149.32 92.5262 147.567 94.526H147.56ZM153.91 98.7654C153.817 98.6321 153.717 98.5121 153.651 98.3655C153.638 98.3388 153.817 98.2388 153.97 98.1255C154.043 98.2788 154.142 98.4122 154.162 98.5588C154.169 98.6121 153.996 98.6921 153.91 98.7654ZM156.759 38.7663C157.304 38.5196 157.935 38.6063 158.28 39.0129C158.473 39.2462 158.659 39.5062 158.779 39.7861C159.064 40.4461 158.765 41.266 158.181 41.5393C157.616 41.7992 156.739 41.5059 156.434 40.8993C156.275 40.5794 156.235 40.1994 156.168 39.9728C156.215 39.3929 156.301 38.9729 156.759 38.7663ZM155.119 66.6628C155.165 66.7494 155.225 66.8361 155.252 66.9294C155.258 66.9561 155.165 67.0494 155.152 67.0427C155.066 66.9894 154.993 66.9228 154.913 66.8628C154.979 66.7961 155.046 66.7294 155.119 66.6628ZM154.295 82.8474C154.767 82.8474 155.086 83.1741 155.086 83.6673C155.086 84.1206 154.72 84.4472 154.242 84.4206C153.85 84.4006 153.584 84.1206 153.565 83.7007C153.531 83.2007 153.837 82.8541 154.302 82.8474H154.295ZM150.19 52.1446C150.257 52.1246 150.356 52.2379 150.503 52.3379C150.383 52.4512 150.277 52.5445 150.164 52.6445C150.104 52.5579 149.991 52.4712 149.998 52.3912C149.998 52.3046 150.104 52.1779 150.19 52.1513V52.1446ZM146.995 46.8253C147.035 46.8453 147.042 46.9252 147.062 46.9786C147.009 46.9986 146.942 47.0452 146.909 47.0252C146.869 47.0052 146.863 46.9252 146.836 46.8719C146.889 46.8519 146.956 46.8053 146.989 46.8253H146.995ZM144.877 51.598C145.136 51.418 145.474 51.3647 145.7 51.6247C145.833 51.778 145.939 52.1179 145.86 52.2579C145.7 52.5379 145.401 52.7445 145.189 52.9578C144.983 52.8512 144.85 52.8178 144.784 52.7379C144.498 52.4046 144.545 51.8446 144.883 51.6047L144.877 51.598ZM140.074 40.9727C140.672 40.8193 141.257 40.5927 141.861 40.4594C142.253 40.3727 142.585 40.5594 142.784 40.9327C142.944 41.226 142.964 41.5126 142.784 41.8126C142.432 42.3991 142.1 42.9857 141.748 43.5657C141.655 43.7256 141.536 43.879 141.409 44.0056C140.958 44.4589 140.48 44.8655 139.776 44.6122C138.998 44.3322 138.54 43.7056 138.527 42.9257C138.513 41.7859 138.945 41.2526 140.074 40.9593V40.9727ZM140.719 51.7113C140.719 52.1713 140.347 52.5512 139.895 52.5445C139.51 52.5445 139.184 52.2113 139.171 51.838C139.158 51.4114 139.55 51.1181 140.088 51.1447C140.433 51.1647 140.719 51.418 140.719 51.7113ZM134.668 48.4584C134.86 48.5117 135.013 48.7184 135.279 48.9383C135.046 49.1783 134.927 49.4116 134.747 49.4716C134.495 49.5583 134.282 49.3983 134.229 49.1116C134.163 48.765 134.402 48.3851 134.668 48.4584ZM135.046 61.6701C136.308 58.5905 138.049 55.7975 140.147 53.2311C140.573 52.7179 141.137 52.8178 141.509 53.1711C146.783 51.698 151.479 56.3774 152.455 61.3634C153.372 66.0362 153.046 74.6884 147.799 76.7949C145.063 77.8947 142.167 76.9882 139.616 75.8216C137.192 74.7151 134.409 73.4553 133.578 70.6689C132.702 67.7227 133.93 64.3631 135.04 61.6634L135.046 61.6701ZM124.984 63.9431C125.422 63.8031 125.761 64.0098 125.827 64.3831C125.88 64.7097 125.661 65.0097 125.349 65.0297C124.984 65.0497 124.585 64.7564 124.519 64.3031C124.638 64.2098 124.791 64.0098 124.984 63.9431ZM121.961 60.8168C122.479 60.2036 123.21 60.0236 123.987 60.3169C124.339 60.4502 124.519 60.8568 124.406 61.2435C124.206 61.9034 123.662 62.23 122.732 62.2167C122.606 62.1833 122.42 62.15 122.254 62.0767C121.789 61.89 121.636 61.1968 121.968 60.8102L121.961 60.8168ZM123.821 93.5261C123.775 93.6328 123.735 93.7327 123.688 93.8394C123.562 93.7661 123.436 93.6861 123.303 93.6128C123.383 93.5261 123.449 93.3928 123.542 93.3728C123.622 93.3528 123.728 93.4728 123.821 93.5261ZM121.198 71.3622C121.271 71.4222 121.324 71.4955 121.383 71.5688C121.297 71.6088 121.204 71.6488 121.118 71.6888C121.098 71.6022 121.071 71.5155 121.071 71.4289C121.071 71.4022 121.184 71.3489 121.204 71.3622H121.198ZM119.597 85.7137C119.67 85.6871 119.909 85.8737 119.942 85.9937C120.009 86.247 119.856 86.467 119.59 86.4736C119.464 86.4736 119.324 86.3137 119.079 86.147C119.291 85.9537 119.424 85.7804 119.597 85.7137ZM94.4763 56.2574C94.5958 56.2507 94.7353 56.4307 94.9279 56.584C94.7287 56.7374 94.5892 56.9173 94.4696 56.9107C94.3434 56.8973 94.2305 56.6974 94.1176 56.584C94.2371 56.4707 94.3501 56.2707 94.4763 56.2641V56.2574ZM91.0024 54.5776C91.0688 54.9509 91.1552 55.1509 91.122 55.3375C91.1021 55.4309 90.8696 55.4775 90.7367 55.5508C90.677 55.3975 90.564 55.2375 90.584 55.0909C90.6039 54.9642 90.77 54.8509 91.0024 54.5776ZM60.1033 59.537C60.5483 59.5303 60.8007 59.757 60.8206 60.1769C60.8406 60.5102 60.5749 60.7968 60.2826 60.7768C59.904 60.7435 59.5985 60.4702 59.5321 60.0969C59.4789 59.8036 59.7446 59.5437 60.1033 59.537ZM54.6368 68.5492C54.7564 68.3826 55.0021 68.2226 55.1881 68.2226C55.4937 68.2226 55.6929 68.6225 55.5933 68.9025C55.4937 69.1825 55.1416 69.3025 54.8361 69.1491C54.5837 69.0225 54.4774 68.7759 54.6368 68.5559V68.5492ZM51.1165 50.3048C51.2826 50.2782 51.4885 50.4581 51.8272 50.6115C51.515 50.9181 51.3357 51.1247 51.1165 51.278C51.0833 51.3047 50.811 51.1181 50.7778 50.9981C50.6914 50.6914 50.7578 50.3648 51.1165 50.3048ZM48.918 51.9113C49.3696 51.9113 49.7748 52.4179 49.7416 52.9378C49.715 53.3711 49.3165 53.7511 48.898 53.7511C48.4132 53.7511 48.0346 53.2778 48.0811 52.7379C48.1209 52.2846 48.4995 51.918 48.918 51.9113ZM51.2494 106.911C53.4147 105.185 56.0782 105.778 58.4228 106.804C61.4849 108.144 64.4804 109.697 67.4428 111.251C67.9676 111.531 68.4923 111.81 69.017 112.097C67.1506 109.904 65.4037 107.604 63.7697 105.218C61.4516 101.832 59.3527 98.2922 57.4 94.6793C55.4804 91.1331 53.428 87.4869 52.0597 83.6807C50.8973 80.4611 50.6848 76.7149 52.8966 73.8885C54.8228 71.4155 57.9778 70.8423 60.7675 72.1954C64.2945 73.9085 65.8753 77.7281 67.5491 81.041C69.648 85.2005 71.8598 89.3 74.1713 93.3395C77.1071 98.4655 80.2156 103.492 83.4769 108.418C80.0695 99.952 77.0075 91.3464 74.3374 82.6141C72.71 77.2881 71.2222 71.9221 69.8805 66.5161C69.1831 63.7165 68.4923 60.9102 67.9078 58.0905C67.496 56.1041 67.1639 54.011 67.662 52.0113C68.5587 48.4184 72.0525 46.2187 75.606 46.0387C79.3588 45.852 82.7197 48.0451 84.9116 50.9647C87.1168 53.8977 88.0932 57.3906 88.6378 60.9502C88.6976 60.9235 88.7574 60.9035 88.8238 60.8835C89.4814 60.6902 90.0526 60.8168 90.5308 61.3101C91.0489 61.8501 91.215 62.4766 90.9626 63.0099C90.6504 63.6832 90.1057 64.0964 89.3817 64.1698C89.2555 64.1831 89.1426 64.1698 89.0297 64.1498C89.5943 69.8624 90.0127 75.6017 90.4976 81.321C90.9626 86.8203 91.4275 92.3262 91.8991 97.8256C91.9987 95.4459 92.1382 93.0728 92.3176 90.6998C92.2578 90.5798 92.2246 90.4798 92.2246 90.3798C92.2246 90.2198 92.2844 90.0865 92.3773 89.9932C92.6563 86.507 93.015 83.0274 93.4667 79.5612C94.1508 74.3418 95.0209 69.1425 96.0903 63.9898C96.967 59.7703 97.525 54.3243 100.819 51.1847C103.304 48.8183 106.99 48.2051 109.713 50.5248C112.742 53.1045 114.23 57.9839 115.532 61.6034C119.238 71.8755 115.764 81.5676 113.021 91.5863C112.37 93.9594 111.792 96.3857 111.175 98.8054C111.254 98.7254 111.347 98.6521 111.44 98.5921C111.493 98.5588 111.686 98.7721 111.779 98.8388C111.779 99.272 111.5 99.5787 111.241 99.4654C111.181 99.4387 111.108 99.3587 111.062 99.2787C110.451 101.645 109.793 103.998 108.983 106.278C109.873 105.345 110.783 104.438 111.713 103.545C111.699 103.518 111.686 103.492 111.679 103.458C111.493 102.738 111.726 102.058 112.33 101.678C112.656 101.472 113.041 101.332 113.36 101.618C113.433 101.685 113.493 101.758 113.546 101.832C114.316 101.132 115.093 100.445 115.897 99.7787C118.468 97.6323 121.164 95.6192 123.961 93.7861C126.013 92.4396 128.849 90.3332 131.214 92.2529C133.226 93.8861 133.306 97.3123 133.618 99.6587C134.077 103.065 134.203 106.618 133.007 109.897C130.709 116.197 124.313 118.063 118.454 119.683C113.001 121.196 107.455 122.316 101.856 123.089C101.935 123.156 102.022 123.262 102.128 123.349C101.942 123.502 101.803 123.702 101.69 123.689C101.563 123.669 101.364 123.462 101.371 123.342C101.371 123.282 101.424 123.202 101.49 123.142C99.5774 123.402 97.6645 123.616 95.7383 123.796C96.2231 128.175 97.0534 132.715 97.0468 137.101C97.0468 139.227 96.0106 140.674 94.5228 141.713C94.5958 141.693 94.6689 141.673 94.7419 141.673C95.1205 141.66 95.4991 141.96 95.539 142.3C95.5855 142.713 95.167 143.127 94.722 143.1C94.3501 143.073 94.0379 142.747 94.0246 142.367C94.0246 142.213 94.0777 142.067 94.1774 141.953C93.4135 142.44 92.5434 142.833 91.6467 143.167C88.4851 144.346 86.2002 142.793 85.6954 139.554C85.0046 135.128 84.9382 130.521 84.9847 126.042C84.2939 126.235 83.6031 126.422 82.9123 126.602C82.9123 126.602 82.9123 126.615 82.9057 126.622C82.6001 127.135 82.1485 127.442 81.4046 127.462C81.119 127.475 80.8732 127.349 80.7071 127.149C74.2576 128.642 67.6554 129.415 61.0266 129.395C57.5527 129.388 54.0125 129.242 50.5719 128.715C47.9947 128.322 46.487 126.835 46.3143 124.189C46.1017 120.956 46.7858 117.43 47.6161 114.324C48.2936 111.784 49.1305 108.638 51.2826 106.918L51.2494 106.911ZM53.1955 94.8926C53.2088 94.2127 53.2619 93.5394 53.3084 92.7462C53.6007 92.8062 53.9062 92.7729 54.0191 92.9062C54.3778 93.3328 54.6833 93.8061 54.9623 94.2927C55.1881 94.6793 55.0088 95.2192 54.6368 95.4459C54.2715 95.6725 53.6737 95.6592 53.4147 95.3859C53.2951 95.2592 53.1888 95.0592 53.1888 94.8993L53.1955 94.8926ZM70.6443 86.227C70.6244 85.5604 71.0163 85.0805 71.5809 85.0872C72.0525 85.0872 72.451 85.5471 72.4576 86.0937C72.4576 86.587 72.0392 86.9936 71.4945 87.0136C71.0229 87.0269 70.6576 86.6936 70.6443 86.227ZM72.5705 80.6077C72.5373 80.3277 72.7432 80.0278 72.9492 80.1078C73.1418 80.1811 73.3012 80.3611 73.5868 80.5877C73.3344 80.8077 73.1883 81.0343 73.0156 81.0677C72.7499 81.1143 72.6038 80.8743 72.5705 80.6077ZM34.9695 52.3112C35.0625 52.0246 35.2751 51.778 35.647 51.6647C35.8064 51.618 35.9658 51.5713 36.1252 51.5247C36.2116 51.4913 36.2913 51.4647 36.371 51.4513C38.7555 50.7714 41.3592 50.3248 43.6109 51.6513C45.8692 52.9778 46.3873 55.5508 46.5268 57.9772C46.7261 61.3434 46.467 64.823 45.7563 68.1159C45.2781 70.349 44.2818 72.2887 41.8574 72.722C39.5659 73.1353 36.5703 72.1554 34.5112 71.2222C32.0005 70.0757 30.3931 67.956 29.8484 65.2496C28.8588 60.3102 31.0972 55.3242 34.9629 52.3179L34.9695 52.3112ZM29.0447 85.2005C29.1709 85.1805 29.3304 85.3271 29.4698 85.4071C29.3835 85.5538 29.3503 85.7071 29.2706 85.7404C29.0381 85.8204 28.7658 85.8271 28.706 85.5204C28.6861 85.4338 28.9053 85.2205 29.0381 85.2005H29.0447ZM27.5038 93.3395C27.6565 92.8328 28.0351 92.4929 28.5267 92.3329C29.6027 91.973 30.6056 92.1463 31.4957 92.8462C31.8212 93.0995 31.8809 93.4661 31.7614 93.8527C31.2366 95.5258 30.2536 96.1058 28.5001 95.7592C28.2012 95.6992 27.9089 95.5858 27.5901 95.4859C27.1451 94.6593 27.3045 93.9927 27.5038 93.3328V93.3395ZM23.0934 92.5596C23.2727 92.5995 23.4122 92.8062 23.5318 92.9062C23.3989 93.3395 23.1465 93.3661 22.9207 93.2861C22.7879 93.2395 22.6152 93.0595 22.6085 92.9395C22.6085 92.6595 22.8477 92.5062 23.0934 92.5596Z" fill="#0C0C0C"/>
</g>
<defs>
<clipPath id="clip0_1845_48184">
<rect width="142.5" height="160.5" fill="white" transform="translate(18.75 37.4998)"/>
</clipPath>
</defs>
</svg>
