<svg width="64" height="75" viewBox="0 0 64 75" fill="none" xmlns="http://www.w3.org/2000/svg">
<g clip-path="url(#clip0_1854_88273)">
<path d="M18.0615 45.0233C19.3651 45.2721 20.7868 45.2674 22.107 45.2508C24.556 45.2224 26.9814 44.8858 29.3478 44.2672C29.3053 44.2483 29.2651 44.2222 29.225 44.1819C29.0809 44.035 28.9345 43.8927 28.7834 43.7505C28.0017 43.2102 27.2648 42.6153 26.5705 41.9754C25.4464 41.2003 24.249 40.5296 23.0304 39.9063C22.4967 39.6337 21.9582 39.3706 21.4198 39.1076C20.8671 38.8397 20.2838 38.4842 19.6722 38.3823C18.1442 38.1311 17.7545 40.2784 17.5089 41.3757C17.3554 42.0607 17.2538 42.7551 17.2137 43.4567C17.1712 44.2103 17.2042 44.8574 18.0615 45.0209V45.0233Z" fill="#0C0C0C"/>
<path d="M27.0148 41.3711C27.8059 41.9162 28.5593 42.5135 29.2631 43.1747C29.4189 43.2814 29.5748 43.3857 29.733 43.4876C29.9409 43.6203 29.9432 43.8549 29.8417 44.0185C29.8251 44.0706 29.7968 44.118 29.759 44.1583C29.9503 44.1062 30.1416 44.0516 30.3305 43.9948C30.3825 43.9805 30.4274 43.9782 30.4722 43.9829C30.4888 43.9758 30.5029 43.9687 30.5218 43.9616C30.7084 43.9 30.9375 44.0327 30.9823 44.2247C30.9989 44.291 31.013 44.3598 31.0296 44.4261C31.0579 44.5517 31.0296 44.6702 30.9564 44.7603C30.9446 45.9098 30.9776 47.0569 31.0674 48.2017C31.1099 48.7325 31.091 49.344 31.2681 49.8512C31.5302 50.5978 32.371 50.2091 32.8693 49.9508C33.4526 49.6498 33.7573 49.3369 33.7407 48.6259C33.7289 48.1329 33.6486 47.6352 33.599 47.1446C33.4857 46.0236 33.37 44.9025 33.2566 43.7815C33.2401 43.6274 33.3062 43.5255 33.4054 43.471C33.4361 43.4141 33.481 43.3643 33.5376 43.3359C33.5707 43.3193 33.6038 43.3003 33.6368 43.2837C33.7502 43.2245 33.8753 43.2221 33.9816 43.2695C36.9455 42.997 39.8763 42.4424 42.7268 41.5939C43.8816 41.2502 45.1545 40.8686 45.9622 39.9111C46.8762 38.8304 46.9518 37.3254 46.8171 35.9815C46.751 35.3132 46.7038 34.5002 46.4582 33.8651C46.0921 32.9123 45.2774 33.4527 44.6515 33.8579C43.5652 34.5571 42.5237 35.3298 41.5365 36.1664C40.1384 37.3562 38.8561 38.6739 37.6965 40.0936C37.2926 40.7928 36.8109 41.4517 36.2157 42.0537C35.9229 42.3499 35.3821 41.9541 35.6277 41.5986C36.0929 40.9279 36.5865 40.2761 37.1014 39.6433C38.4758 37.2472 38.8915 34.3225 39.6448 31.687C40.0841 30.1583 40.5753 28.6319 40.8162 27.0558C41.0831 25.3067 40.913 23.6311 40.299 21.972C40.0109 21.1946 39.6826 20.4196 39.3142 19.6778C39.019 19.0876 38.6222 18.3932 37.9374 18.2154C36.1118 17.7367 35.4765 20.2703 35.1884 21.5312C33.6841 28.1081 33.1149 34.8771 33.4384 41.6128C33.4503 41.8712 33.2424 41.9897 33.0417 41.9707C32.8291 42.0466 32.5269 41.9328 32.5009 41.6318C32.149 37.4913 31.7995 33.3484 31.4476 29.2079C31.2941 27.3829 31.1382 25.5603 30.9847 23.7353C30.843 22.0692 30.7178 20.2916 29.7873 18.8482C29.0222 17.6632 27.6501 16.7744 26.2142 17.2437C24.2233 17.8931 24.7382 19.9432 25.1018 21.5241C26.6794 28.3854 28.9088 35.0928 31.7381 41.537C31.9317 41.9778 31.3767 42.312 31.091 41.9162C29.2158 39.2996 27.4635 36.5954 25.8576 33.8058C25.168 32.6113 24.5067 31.4002 23.8691 30.1748C23.2928 29.068 22.8252 27.691 21.9207 26.8022C21.3539 26.2476 20.4471 25.904 19.7315 26.3946C19.2261 26.743 18.9734 27.4113 18.9427 28.0039C18.8695 29.3975 19.7669 30.7887 20.3762 31.988C22.1167 35.408 24.2021 38.7593 27.0171 41.3663L27.0148 41.3711Z" fill="#0C0C0C"/>
<path d="M16.1927 67.1244C16.7264 68.5346 18.0489 69.2835 19.4446 69.6296C21.2513 70.0775 23.1973 70.1344 25.0465 70.2458C29.3494 70.5041 33.6641 70.4188 37.9646 70.1557C40.0571 70.0277 42.1636 69.895 44.2466 69.6556C45.64 69.4945 47.2128 69.1413 47.9874 67.8354C48.7266 66.5935 48.4362 65.0174 48.0205 63.5669C46.6082 64.0291 45.1771 64.432 43.7318 64.778C34.6017 66.9608 24.9614 66.8566 15.8927 64.4557C15.8337 65.3824 15.8833 66.302 16.195 67.1244H16.1927Z" fill="#0C0C0C"/>
<path d="M24.5266 59.149C24.418 59.1324 24.3212 59.0281 24.3448 58.931C21.8178 58.6205 19.3239 58.0706 16.9505 57.189C16.6812 58.6252 16.4498 60.0686 16.2632 61.5191C16.1735 62.204 16.046 62.9435 15.9609 63.6948C17.8597 64.2044 19.7844 64.6192 21.7281 64.9225C30.4354 66.2877 39.4286 65.5553 47.803 62.8392C47.6896 62.4695 47.5762 62.114 47.4818 61.7798C47.0661 60.3009 46.6174 58.8338 46.1451 57.3715C45.8074 57.4686 45.4697 57.5611 45.1296 57.6488C39.6553 59.0542 33.815 59.4358 28.1824 59.2296C27.037 59.1869 25.8869 59.1064 24.7439 58.976C24.7817 59.0637 24.64 59.1632 24.5243 59.1443L24.5266 59.149ZM16.9056 62.0381C16.6623 62.0097 16.4947 61.7917 16.5088 61.5191C16.5183 61.3461 16.7001 61.1968 16.8749 61.2205C17.1536 61.2584 17.3685 61.4598 17.3543 61.6732C17.3401 61.9125 17.1512 62.0666 16.9056 62.0381ZM17.3826 59.4121C17.2197 59.3979 17.0756 59.2699 17.0685 59.1301C17.0615 58.9879 17.215 58.8433 17.3685 58.8456C17.5314 58.848 17.6353 58.976 17.6235 59.1561C17.6141 59.3078 17.5078 59.4216 17.3826 59.4121ZM17.9235 62.2823C17.9046 62.2562 17.8833 62.2301 17.8644 62.204C17.8928 62.1875 17.9187 62.1685 17.9471 62.1566C17.9494 62.1566 17.9778 62.1898 17.9754 62.1993C17.9636 62.2301 17.9424 62.2562 17.9235 62.2823ZM46.0459 58.6655C46.0577 58.6205 46.1474 58.5565 46.1876 58.5636C46.2608 58.5802 46.3671 58.6323 46.3813 58.6892C46.4356 58.9049 46.3813 59.1135 46.2514 59.3979C46.0199 59.1301 45.9845 58.9049 46.0459 58.6655ZM43.1694 58.1939C43.1954 58.2484 43.2308 58.2958 43.2379 58.3479C43.2403 58.3669 43.1812 58.3953 43.1482 58.4214C43.1151 58.374 43.0797 58.3313 43.0561 58.2792C43.0513 58.2697 43.1151 58.2342 43.1694 58.1939ZM40.4441 58.758C40.4512 58.7722 40.4583 58.7864 40.463 58.8006C40.4535 58.8125 40.4441 58.8243 40.4346 58.8362C40.437 58.8101 40.4417 58.784 40.4441 58.7556V58.758ZM37.8959 60.7227C37.91 60.6919 37.9644 60.6825 38.0116 60.654C38.0565 60.6872 38.1202 60.7109 38.1509 60.7607C38.2123 60.8555 38.2241 60.9692 38.1415 61.0546C38.1108 61.0854 38.0116 61.0901 37.9762 61.064C37.8581 60.9787 37.8368 60.8531 37.8959 60.7227ZM35.1091 64.2423C35.1351 64.2802 35.213 64.3466 35.206 64.3987C35.1965 64.4651 35.1209 64.5575 35.0619 64.567C35.0076 64.5765 34.9084 64.5054 34.8801 64.4438C34.8352 64.349 34.9415 64.2423 35.1091 64.2399V64.2423ZM34.4479 61.0403C34.4809 61.0806 34.5565 61.1375 34.5707 61.2062C34.5919 61.3105 34.4998 61.3579 34.4077 61.3579C34.3109 61.3579 34.24 61.3011 34.2377 61.1991C34.2377 61.0972 34.3015 61.0427 34.4479 61.038V61.0403ZM30.1213 59.6088C30.1662 59.6088 30.2182 59.6041 30.2512 59.6254C30.478 59.7676 30.7047 59.7344 30.9503 59.6657C31.1274 59.6159 31.2904 59.7937 31.2904 59.9833C31.2904 60.1279 31.1841 60.2558 31.0542 60.2558C30.9881 60.2558 30.9172 60.2558 30.8582 60.2321C30.6716 60.1587 30.5205 60.2084 30.3646 60.3222C30.2819 60.3815 30.1639 60.417 30.0623 60.4194C29.8568 60.4218 29.675 60.2203 29.6844 60.0331C29.6962 59.8174 29.9135 59.6041 30.119 59.6088H30.1213ZM28.3454 59.4642C28.4611 59.3908 28.5981 59.341 28.7114 59.4429C28.8012 59.5235 28.8531 59.6467 28.8933 59.7084C28.8838 60.0615 28.6902 60.2843 28.4162 60.308C28.2934 60.3198 28.1446 60.2156 28.1139 60.0994C28.0478 59.8435 28.1305 59.6017 28.3454 59.4666V59.4642ZM26.7371 60.7299C26.9638 60.7322 27.1386 60.9171 27.141 61.1517C27.141 61.3698 26.9756 61.5309 26.7702 61.512C26.5694 61.493 26.4514 61.339 26.449 61.0949C26.4466 60.8839 26.5694 60.7275 26.7371 60.7299ZM26.1963 61.6755C26.2223 61.6992 26.2459 61.7229 26.2719 61.7466C26.2435 61.7656 26.2152 61.7893 26.1845 61.8035C26.1774 61.8059 26.1396 61.7727 26.142 61.768C26.1561 61.7348 26.1774 61.7063 26.1963 61.6755ZM25.2139 61.2134C25.3674 61.2134 25.4972 61.3437 25.5067 61.512C25.5161 61.666 25.3792 61.8154 25.2257 61.8201C25.0745 61.8248 24.9281 61.6779 24.9305 61.5238C24.9328 61.3627 25.0674 61.2134 25.2115 61.211L25.2139 61.2134Z" fill="#0C0C0C"/>
<path d="M6.88234 24.3776C6.90832 24.361 6.93902 24.3468 6.97445 24.342C7.03821 24.3325 7.10434 24.3302 7.14921 24.3254C7.30035 24.3349 7.43497 24.3349 7.4822 24.4984C7.52471 24.6525 7.47275 24.7805 7.31688 24.8871C7.20825 24.9606 7.09253 25.0341 6.95791 24.9511C6.94611 24.944 6.93666 24.9345 6.92485 24.9251C7.33341 29.7956 8.18597 34.6447 9.22745 39.4181C9.76591 41.8901 10.3516 44.3526 10.9656 46.8056C11.4545 48.7633 12.0024 50.7233 12.8927 52.5388C13.4265 53.629 14.1042 54.6411 14.9308 55.5133C16.806 56.4305 18.7921 57.1059 20.8349 57.5752C26.3588 58.8408 32.2298 58.7129 37.8387 58.1488C40.5617 57.8739 43.28 57.4093 45.9085 56.6533C45.8778 56.5585 45.8471 56.4613 45.814 56.3665C46.702 55.7692 47.5309 55.0795 48.289 54.2879C50.4877 51.9866 51.9543 49.1141 53.017 46.1183C52.9107 46.0424 52.8493 45.8908 52.8682 45.7225C52.8848 45.5897 53.0099 45.4902 53.1469 45.4997C53.1729 45.4997 53.2012 45.5068 53.2248 45.5163C53.4586 44.8218 53.6736 44.1203 53.8696 43.4211C55.2133 38.6359 55.9218 33.6896 56.4178 28.7504C56.6728 26.2096 56.8665 23.6618 57.0578 21.1163C57.2444 18.6325 57.4569 16.1321 57.242 13.6411C57.2373 13.5819 57.2302 13.525 57.2255 13.4657C54.3962 13.5297 51.5646 13.5842 48.7354 13.6222C34.7993 13.8212 20.8585 13.7193 6.92485 13.333C6.57769 17.0114 6.60131 20.7016 6.88234 24.3776ZM10.6421 43.0135C10.6279 42.9139 10.7365 42.8215 10.8664 42.8357C10.9822 42.8476 11.0813 42.8926 11.0955 43.0277C11.1073 43.1462 11.0176 43.2552 10.9113 43.2529C10.7672 43.2481 10.6657 43.1557 10.6421 43.0111V43.0135ZM11.0908 44.1606C11.0388 44.1582 10.9633 44.1156 10.942 44.0705C10.9019 43.9781 10.9515 43.8833 11.0483 43.8738C11.1144 43.8667 11.1876 43.9307 11.2372 43.952C11.2467 44.1061 11.1876 44.1653 11.0908 44.1606ZM11.3435 45.9216C11.2419 45.9216 11.2112 45.8315 11.2348 45.7414C11.2561 45.649 11.3293 45.5897 11.4167 45.6206C11.4781 45.6419 11.5182 45.7201 11.6056 45.8125C11.4828 45.867 11.412 45.9216 11.3435 45.9216ZM11.667 43.9544C11.667 43.9544 11.6198 43.9331 11.6198 43.9212C11.6198 43.888 11.634 43.8525 11.641 43.8193C11.6741 43.8359 11.7072 43.8525 11.7402 43.8691C11.7166 43.8975 11.693 43.9283 11.667 43.9544ZM12.222 46.8577C12.111 46.8957 12.0142 46.8174 12 46.6871C11.9858 46.5496 12.0496 46.4264 12.1417 46.424C12.274 46.4382 12.2976 46.5496 12.3259 46.6539C12.3519 46.7511 12.3236 46.8269 12.222 46.8601V46.8577ZM12.9518 39.866C12.7699 39.8613 12.6282 39.7096 12.6329 39.5224C12.6377 39.3517 12.7983 39.2332 13.0061 39.2474C13.1714 39.2593 13.2942 39.3873 13.2918 39.5437C13.2895 39.7262 13.136 39.8708 12.9518 39.866ZM13.3296 44.7839C13.3296 44.765 13.3225 44.7318 13.3249 44.7318C13.3556 44.7247 13.3887 44.7223 13.4194 44.7176C13.4194 44.7365 13.4241 44.7555 13.4265 44.7744C13.3934 44.7768 13.3627 44.7816 13.3296 44.7839ZM13.2706 36.619C13.1974 36.6 13.11 36.5361 13.084 36.4673C13.0344 36.3441 13.1785 36.1805 13.3013 36.2185C13.3698 36.2398 13.4194 36.3204 13.4501 36.3488C13.4595 36.5313 13.3769 36.6451 13.2706 36.619ZM14.4986 37.221C14.3994 37.2068 14.3121 37.093 14.3168 36.9793C14.3239 36.8062 14.4467 36.6901 14.6144 36.6972C14.7537 36.702 14.8741 36.8157 14.8765 36.9437C14.8789 37.1049 14.6852 37.2471 14.4986 37.221ZM14.664 32.405C14.1161 32.9999 12.7935 32.5757 12.3283 32.0448C11.6741 31.2958 12.2338 30.0397 12.6046 29.2884C12.6731 29.1462 12.7888 29.094 12.9069 29.0988C13.4052 28.7361 14.1727 28.9494 14.5577 29.4874C15.03 30.1487 15.2591 31.7651 14.6663 32.4074L14.664 32.405ZM15.1953 48.3888C15.1835 48.3817 15.1812 48.3533 15.1741 48.3367C15.193 48.3296 15.2119 48.3224 15.2284 48.3153C15.2355 48.3343 15.2426 48.3533 15.2496 48.3722C15.2307 48.3793 15.2071 48.3959 15.1953 48.3888ZM15.7102 45.1323C15.389 45.1276 15.2048 44.9072 15.2851 44.6228C15.3417 44.4237 15.4952 44.3502 15.6889 44.4284C15.8353 44.4877 15.9652 44.5588 16.0077 44.7294C16.0644 44.9475 15.9251 45.1347 15.7078 45.1323H15.7102ZM17.2995 56.4186C17.1649 56.4565 17.0327 56.3286 17.0539 56.1958C17.0705 56.101 17.1366 56.0489 17.2334 56.0442C17.3562 56.0394 17.4412 56.1176 17.4483 56.2906C17.4153 56.3215 17.3633 56.3997 17.2972 56.4186H17.2995ZM17.5593 54.4657C17.4365 54.4775 17.3066 54.3567 17.3043 54.2287C17.3019 54.1244 17.3987 54.0391 17.5168 54.0367C17.6467 54.0367 17.7105 54.1078 17.7317 54.2334C17.7412 54.3377 17.6562 54.4538 17.5593 54.4633V54.4657ZM18.4142 47.9409C18.2725 47.9266 18.1781 47.8247 18.1804 47.6873C18.1804 47.5782 18.2773 47.4763 18.3788 47.474C18.5276 47.4716 18.6551 47.6138 18.6457 47.7726C18.6386 47.8745 18.5323 47.9527 18.4142 47.9409ZM19.3825 50.4057C19.2904 50.484 19.1723 50.4887 19.0849 50.42C19.007 50.3583 18.9432 50.2588 18.9055 50.164C18.8559 50.0408 18.9881 49.8962 19.1794 49.9151C19.2337 49.9578 19.3542 50.0171 19.4227 50.1119C19.4841 50.1972 19.4746 50.3228 19.3802 50.4057H19.3825ZM21.1939 52.1383C21.1585 52.252 21.0876 52.3326 20.9577 52.3326C20.8467 52.3326 20.7546 52.2212 20.7688 52.1075C20.7853 51.9653 20.9081 51.8657 21.0427 51.8823C21.1443 51.8965 21.227 52.0269 21.1939 52.1383ZM23.1706 56.4115C23.1115 56.5798 22.9651 56.6888 22.8234 56.658C22.7006 56.6319 22.6392 56.5395 22.6345 56.421C22.6274 56.2219 22.7526 56.0679 22.9321 56.0442C23.0667 56.0252 23.1942 56.1437 23.1895 56.2812C23.1848 56.3238 23.1848 56.3712 23.1706 56.4115ZM25.426 57.0254C25.3055 57.1699 25.0741 57.1581 24.956 57.0183C24.8072 56.8452 24.7127 56.6462 24.7151 56.4139C24.7151 56.2764 24.7576 56.1484 24.8946 56.0844C25.0221 56.0228 25.1567 56.0299 25.2724 56.1105C25.4661 56.2432 25.57 56.4328 25.5771 56.7315C25.544 56.8002 25.5039 56.9282 25.4236 57.0254H25.426ZM25.5464 51.5671C25.3409 51.5884 25.178 51.4818 25.1591 51.3111C25.1426 51.1523 25.2961 50.9912 25.4826 50.9722C25.655 50.9532 25.8274 51.1025 25.8369 51.2756C25.844 51.4178 25.7141 51.5481 25.5464 51.5671ZM26.5265 55.8948C26.4934 55.7218 26.628 55.537 26.8028 55.5133C26.9941 55.4872 27.1712 55.6128 27.1877 55.7834C27.2043 55.9541 27.0578 56.1698 26.9161 56.1864C26.765 56.2053 26.5525 56.0465 26.5265 55.8948ZM27.3389 58.4119C27.1193 58.4024 26.9823 58.2886 26.9799 58.1038C26.9752 57.8075 27.1523 57.6131 27.4097 57.6368C27.6341 57.6582 27.7663 57.8028 27.7687 58.0326C27.7711 58.2886 27.6199 58.4213 27.3389 58.4095V58.4119ZM27.5443 50.8205C27.3932 50.9011 27.2161 50.9343 27.1334 50.9627C26.8075 50.9698 26.6186 50.8679 26.5501 50.6996C26.4485 50.4484 26.5383 50.1403 26.7579 49.991C27.0319 49.8014 27.4381 49.8393 27.6719 50.0763C27.8655 50.273 27.8089 50.6783 27.5443 50.8205ZM30.6287 52.7426C30.5791 52.9228 30.4704 53.0531 30.2437 53.1432C30.0028 53.0579 29.7737 52.9868 29.5541 52.892C29.4856 52.8635 29.4124 52.7687 29.4077 52.7C29.403 52.6312 29.4644 52.508 29.521 52.4914C29.7903 52.4156 30.0666 52.3445 30.3453 52.3184C30.546 52.2994 30.6853 52.5388 30.631 52.7426H30.6287ZM31.5332 54.1789C31.5072 54.1576 31.4812 54.1386 31.4599 54.1125C31.4576 54.1102 31.4812 54.0841 31.4907 54.0699C31.5166 54.0912 31.5402 54.1125 31.5662 54.1339C31.5544 54.1481 31.545 54.1647 31.5332 54.1789ZM32.3243 55.9731C32.3054 55.9731 32.2842 55.9731 32.2653 55.9731C32.2653 55.9375 32.2676 55.8996 32.2724 55.864C32.2724 55.8617 32.3101 55.864 32.329 55.864C32.329 55.8996 32.3267 55.9351 32.3243 55.9707V55.9731ZM35.9164 44.7958C35.8243 44.8384 35.6944 44.7081 35.7298 44.6038C35.7534 44.5351 35.829 44.4497 35.8928 44.4403C35.9423 44.4308 36.0085 44.5256 36.0982 44.5967C36.0203 44.6844 35.9801 44.7673 35.9164 44.7958ZM36.4241 51.24C36.3249 51.2353 36.2635 51.1784 36.2564 51.0788C36.2494 50.9674 36.3509 50.8489 36.4548 50.8703C36.5257 50.8845 36.5847 50.9532 36.6249 50.9817C36.6319 51.1405 36.5375 51.2424 36.4241 51.24ZM37.3735 57.3595C37.3452 57.3098 37.3074 57.2647 37.2956 57.2126C37.2908 57.1889 37.3522 57.1225 37.3593 57.1273C37.4066 57.151 37.4467 57.1865 37.5105 57.2363C37.4514 57.2908 37.4113 57.3264 37.3735 57.3619V57.3595ZM38.6866 47.6351C38.6535 47.6351 38.5897 47.5877 38.5921 47.5759C38.611 47.5095 38.6441 47.4455 38.6889 47.3483C38.7645 47.4194 38.833 47.4526 38.8401 47.4953C38.8542 47.5948 38.7787 47.6399 38.6866 47.6351ZM39.7351 48.6661C39.5698 48.7088 39.4281 48.6448 39.3431 48.4931C39.2486 48.3224 39.2534 48.1518 39.3549 47.9883C39.4683 47.8058 39.6289 47.7015 39.8532 47.7204C40.0233 47.7347 40.1319 47.8887 40.1201 48.1162C40.1059 48.4362 39.9902 48.5974 39.7328 48.6661H39.7351ZM40.1036 51.3561C40.0681 51.2779 40.0185 51.2163 40.0327 51.1831C40.0492 51.1452 40.1225 51.1262 40.1744 51.1191C40.1909 51.1191 40.2405 51.1902 40.2335 51.2092C40.2098 51.2566 40.165 51.2922 40.1059 51.3561H40.1036ZM41.5253 55.7242C41.3765 55.9731 41.1757 56.1081 40.8947 56.1129C40.8309 56.0655 40.6987 56.011 40.6397 55.9114C40.5027 55.6744 40.5853 55.3023 40.7813 55.1175C40.9372 54.9705 41.2773 54.9753 41.4544 55.1246C41.6245 55.2715 41.6528 55.5085 41.5253 55.7218V55.7242ZM41.4544 45.2271C41.3505 45.2461 41.2867 45.1774 41.3009 45.0778C41.308 45.028 41.3836 44.9427 41.4119 44.9498C41.4804 44.964 41.5394 45.0233 41.6315 45.0826C41.5465 45.1537 41.504 45.2153 41.4544 45.2248V45.2271ZM42.9163 57.2126C42.8336 57.2292 42.7344 57.2434 42.6589 57.2126C42.588 57.1865 42.5053 57.1107 42.4888 57.042C42.4156 56.7457 42.562 56.5656 42.8549 56.5656C43.0863 56.5656 43.2257 56.6699 43.2257 56.8452C43.2257 57.0348 43.1194 57.1676 42.9139 57.2102L42.9163 57.2126ZM43.2752 54.3851C43.1595 54.4017 43.0674 54.3259 43.0533 54.1979C43.0367 54.0651 43.1005 53.9395 43.1902 53.9277C43.3059 53.9135 43.4429 54.0272 43.4689 54.1599C43.4878 54.2642 43.4004 54.3661 43.2776 54.3851H43.2752ZM44.2671 43.0846C44.1986 43.0751 44.1396 43.0016 44.0262 42.9187C44.1396 42.8405 44.1986 42.7694 44.2671 42.7599C44.3616 42.7457 44.4348 42.8191 44.4301 42.921C44.4277 43.0182 44.3616 43.0988 44.2648 43.0846H44.2671ZM44.8906 51.7899C44.867 51.7993 44.8245 51.7662 44.7914 51.7519C44.8079 51.7188 44.815 51.6666 44.841 51.6548C44.8646 51.6453 44.9071 51.6785 44.9402 51.6927C44.9237 51.7259 44.9166 51.778 44.8906 51.7875V51.7899ZM44.9544 46.4359C44.9308 46.4714 44.9142 46.5236 44.8812 46.5378C44.8221 46.5615 44.7536 46.5757 44.6899 46.571C44.5293 46.5567 44.3923 46.4359 44.4301 46.3316C44.4561 46.2605 44.534 46.1823 44.6048 46.1609C44.7749 46.1112 44.926 46.2131 44.9567 46.3695C44.9615 46.3908 44.9567 46.4122 44.9567 46.4359H44.9544ZM46.9216 54.9089C46.813 55.2194 46.5934 55.4232 46.3029 55.5559C46.2698 55.5701 46.2013 55.563 46.1824 55.5393C46.1423 55.4919 46.0927 55.4185 46.1045 55.3711C46.1871 55.0582 46.3784 54.8259 46.6595 54.6671C46.7445 54.6197 46.9216 54.6956 46.9263 54.7359C46.9263 54.8236 46.9382 54.871 46.9263 54.9089H46.9216ZM46.6878 40.9373C46.7138 40.9752 46.7917 41.0416 46.7846 41.0937C46.7752 41.1601 46.6996 41.2525 46.6406 41.262C46.5863 41.2715 46.4871 41.2004 46.4587 41.1387C46.4139 41.0439 46.5201 40.9373 46.6878 40.9349V40.9373ZM47.6301 48.2348C47.6018 48.3556 47.4459 48.4575 47.3255 48.4244C47.179 48.3841 47.0303 48.339 46.9004 48.2632C46.8437 48.23 46.7965 48.1091 46.8106 48.0404C46.8248 47.974 46.9145 47.9172 46.983 47.8721C47.0137 47.8508 47.068 47.8698 47.1696 47.8698C47.2381 47.8935 47.3632 47.9314 47.4837 47.9788C47.597 48.0238 47.6585 48.1115 47.6301 48.2348ZM49.7178 37.7495C49.6871 37.7803 49.5879 37.7851 49.5525 37.759C49.4344 37.6737 49.4132 37.5481 49.4722 37.4177C49.4864 37.3869 49.5407 37.3774 49.5879 37.349C49.6328 37.3822 49.6965 37.4059 49.7272 37.4556C49.7887 37.5504 49.8005 37.6642 49.7178 37.7495ZM49.7249 35.3155C49.6942 35.2918 49.6304 35.2657 49.6044 35.2207C49.5619 35.1496 49.6351 35.0216 49.7154 35.0287C49.7674 35.0311 49.8335 35.0737 49.8619 35.1187C49.9091 35.1946 49.843 35.2965 49.7272 35.3155H49.7249ZM50.9104 50.3109C50.79 50.2991 50.7073 50.2209 50.6955 50.1024C50.6719 49.8985 50.875 49.6995 51.0639 49.7563C51.1466 49.78 51.2056 49.8891 51.2481 49.9294C51.2363 50.183 51.0923 50.3275 50.9104 50.3109ZM52.0133 35.5311C52.0157 35.5051 52.0204 35.479 52.0228 35.4506C52.0299 35.4648 52.0369 35.479 52.0417 35.4932C52.0322 35.5051 52.0228 35.5169 52.0133 35.5288V35.5311ZM52.4668 33.609C51.9472 34.2015 50.705 34.8059 50.1358 33.9456C49.8501 33.5142 49.9752 32.9407 50.0508 32.4666C50.1594 31.7722 50.3082 31.0896 50.4853 30.4094C50.5184 30.2838 50.5963 30.2056 50.6884 30.17C51.4135 29.5965 52.377 30.3573 52.7502 31.0398C53.2036 31.8694 53.0926 32.898 52.4691 33.609H52.4668ZM54.7245 35.1164C54.6914 35.069 54.656 35.0263 54.6324 34.9742C54.6277 34.9647 54.6914 34.9291 54.7457 34.8889C54.7717 34.9434 54.8071 34.9908 54.8142 35.0429C54.8166 35.0619 54.7552 35.0903 54.7245 35.1164ZM55.7376 13.7833C55.9313 13.6956 56.1556 13.7264 56.2784 13.871C56.3469 13.954 56.4131 14.0464 56.4556 14.1459C56.5571 14.3806 56.4508 14.6721 56.243 14.7693C56.0423 14.8617 55.7305 14.7574 55.6219 14.5417C55.5652 14.428 55.5511 14.2929 55.5274 14.2123C55.544 14.0061 55.5747 13.8568 55.7376 13.7833ZM55.1543 23.7021C55.1708 23.7329 55.1921 23.7637 55.2015 23.7969C55.2039 23.8064 55.1708 23.8396 55.1661 23.8372C55.1354 23.8182 55.1094 23.7945 55.0811 23.7732C55.1047 23.7495 55.1283 23.7258 55.1543 23.7021ZM54.8615 29.4566C55.0291 29.4566 55.1425 29.5728 55.1425 29.7482C55.1425 29.9093 55.0126 30.0255 54.8426 30.016C54.7032 30.0089 54.6088 29.9093 54.6017 29.76C54.5899 29.5823 54.6985 29.459 54.8638 29.4566H54.8615ZM53.402 18.5401C53.4256 18.533 53.461 18.5732 53.513 18.6088C53.4705 18.6491 53.4327 18.6823 53.3925 18.7178C53.3713 18.687 53.3311 18.6562 53.3335 18.6278C53.3335 18.5969 53.3713 18.5519 53.402 18.5424V18.5401ZM52.266 16.6487C52.2802 16.6559 52.2825 16.6843 52.2896 16.7033C52.2707 16.7104 52.2471 16.727 52.2353 16.7198C52.2211 16.7127 52.2188 16.6843 52.2093 16.6653C52.2282 16.6582 52.2518 16.6416 52.2637 16.6487H52.266ZM51.5126 18.3457C51.6048 18.2817 51.7252 18.2628 51.8055 18.3552C51.8527 18.4097 51.8905 18.5306 51.8622 18.5804C51.8055 18.6799 51.6992 18.7534 51.6236 18.8292C51.5504 18.7913 51.5032 18.7794 51.4796 18.751C51.378 18.6325 51.3946 18.4334 51.515 18.3481L51.5126 18.3457ZM49.8052 14.5678C50.0177 14.5133 50.2256 14.4327 50.4405 14.3853C50.5798 14.3545 50.6979 14.4209 50.7687 14.5536C50.8254 14.6579 50.8325 14.7598 50.7687 14.8664C50.6436 15.075 50.5255 15.2836 50.4003 15.4898C50.3673 15.5467 50.3247 15.6012 50.2799 15.6462C50.1193 15.8074 49.9492 15.9519 49.6989 15.8619C49.4226 15.7623 49.2596 15.5395 49.2549 15.2623C49.2502 14.857 49.4037 14.6674 49.8052 14.5631V14.5678ZM50.0343 18.386C50.0343 18.5495 49.902 18.6846 49.7414 18.6823C49.6044 18.6823 49.4887 18.5638 49.484 18.431C49.4793 18.2794 49.6186 18.1751 49.8099 18.1846C49.9327 18.1917 50.0343 18.2817 50.0343 18.386ZM47.8828 17.2294C47.9513 17.2484 48.0056 17.3218 48.1001 17.4001C48.0174 17.4854 47.9749 17.5683 47.9111 17.5897C47.8214 17.6205 47.7458 17.5636 47.7269 17.4617C47.7033 17.3384 47.7883 17.2033 47.8828 17.2294ZM48.0174 21.9269C48.4661 20.8319 49.0849 19.8389 49.8312 18.9264C49.9823 18.7439 50.183 18.7794 50.3153 18.9051C52.1904 18.3813 53.8601 20.0451 54.2073 21.8179C54.5332 23.4793 54.4175 26.5557 52.5518 27.3046C51.5788 27.6957 50.5491 27.3733 49.6422 26.9586C48.7802 26.5651 47.7907 26.1172 47.4955 25.1265C47.1838 24.0789 47.6207 22.8844 48.0151 21.9245L48.0174 21.9269ZM44.4395 22.7351C44.5954 22.6853 44.7158 22.7588 44.7395 22.8915C44.7584 23.0077 44.6804 23.1143 44.5694 23.1214C44.4395 23.1285 44.2978 23.0243 44.2742 22.8631C44.3167 22.8299 44.371 22.7588 44.4395 22.7351ZM43.365 21.6235C43.5492 21.4055 43.809 21.3415 44.0853 21.4458C44.2105 21.4932 44.2742 21.6378 44.2341 21.7752C44.1632 22.0099 43.9696 22.126 43.6389 22.1213C43.5941 22.1094 43.5279 22.0976 43.4689 22.0715C43.3036 22.0051 43.2493 21.7586 43.3673 21.6212L43.365 21.6235ZM44.0262 33.2535C44.0097 33.2914 43.9955 33.327 43.979 33.3649C43.9341 33.3388 43.8893 33.3104 43.842 33.2843C43.8704 33.2535 43.894 33.2061 43.9271 33.199C43.9554 33.1919 43.9932 33.2345 44.0262 33.2535ZM43.0934 25.373C43.1194 25.3943 43.1383 25.4204 43.1595 25.4465C43.1288 25.4607 43.0958 25.4749 43.0651 25.4891C43.058 25.4583 43.0485 25.4275 43.0485 25.3967C43.0485 25.3872 43.0887 25.3683 43.0958 25.373H43.0934ZM42.5242 30.4758C42.5502 30.4663 42.6352 30.5327 42.647 30.5753C42.6707 30.6654 42.6163 30.7436 42.5219 30.746C42.477 30.746 42.4274 30.6891 42.34 30.6298C42.4156 30.5611 42.4628 30.4995 42.5242 30.4758ZM33.5925 20.0024C33.635 20 33.6846 20.064 33.7531 20.1185C33.6823 20.173 33.6327 20.237 33.5902 20.2347C33.5453 20.2299 33.5051 20.1588 33.465 20.1185C33.5075 20.0782 33.5476 20.0071 33.5925 20.0048V20.0024ZM32.3574 19.4051C32.381 19.5379 32.4117 19.609 32.3999 19.6753C32.3928 19.7085 32.3101 19.7251 32.2629 19.7512C32.2417 19.6967 32.2015 19.6398 32.2086 19.5876C32.2157 19.5426 32.2747 19.5023 32.3574 19.4051ZM21.371 21.1685C21.5292 21.1661 21.619 21.2467 21.6261 21.396C21.6332 21.5145 21.5387 21.6164 21.4348 21.6093C21.3002 21.5975 21.1915 21.5003 21.1679 21.3676C21.149 21.2633 21.2435 21.1709 21.371 21.1685ZM19.4274 24.3728C19.4699 24.3136 19.5573 24.2567 19.6234 24.2567C19.732 24.2567 19.8029 24.3989 19.7675 24.4984C19.732 24.598 19.6069 24.6406 19.4982 24.5861C19.4085 24.5411 19.3707 24.4534 19.4274 24.3752V24.3728ZM18.1757 17.8859C18.2348 17.8764 18.308 17.9404 18.4284 17.9949C18.3174 18.104 18.2536 18.1774 18.1757 18.232C18.1639 18.2414 18.0671 18.1751 18.0553 18.1324C18.0246 18.0234 18.0482 17.9073 18.1757 17.8859ZM17.394 18.4571C17.5546 18.4571 17.6987 18.6372 17.6869 18.8221C17.6774 18.9762 17.5357 19.1113 17.3869 19.1113C17.2145 19.1113 17.0799 18.943 17.0964 18.751C17.1106 18.5898 17.2452 18.4595 17.394 18.4571ZM18.2229 38.0126C18.9928 37.3988 19.9399 37.6097 20.7735 37.9747C21.8622 38.4511 22.9273 39.0033 23.9806 39.5555C24.1672 39.6551 24.3538 39.7546 24.5403 39.8565C23.8767 39.0768 23.2556 38.2591 22.6746 37.4106C21.8504 36.2066 21.1041 34.9481 20.4098 33.6635C19.7273 32.4026 18.9976 31.1062 18.5111 29.7529C18.0978 28.6082 18.0222 27.2762 18.8086 26.2713C19.4935 25.392 20.6153 25.1881 21.6072 25.6693C22.8612 26.2784 23.4233 27.6364 24.0184 28.8143C24.7647 30.2933 25.5511 31.7509 26.373 33.1871C27.4168 35.0097 28.5221 36.7968 29.6816 38.5483C28.4701 35.5383 27.3814 32.4785 26.432 29.3737C25.8534 27.48 25.3244 25.5721 24.8474 23.65C24.5994 22.6545 24.3538 21.6567 24.1459 20.6542C23.9995 19.9479 23.8814 19.2037 24.0586 18.4927C24.3774 17.2152 25.6196 16.4331 26.8831 16.3691C28.2174 16.3027 29.4124 17.0825 30.1917 18.1206C30.9758 19.1634 31.323 20.4053 31.5166 21.6709C31.5379 21.6615 31.5591 21.6543 31.5828 21.6472C31.8166 21.5785 32.0197 21.6235 32.1897 21.7989C32.3739 21.9909 32.4329 22.2137 32.3432 22.4033C32.2322 22.6427 32.0386 22.7896 31.7811 22.8157C31.7363 22.8204 31.6961 22.8157 31.656 22.8086C31.8567 24.8397 32.0055 26.8804 32.1779 28.9139C32.3432 30.8692 32.5085 32.8269 32.6762 34.7822C32.7116 33.9361 32.7612 33.0923 32.825 32.2486C32.8037 32.2059 32.7919 32.1704 32.7919 32.1348C32.7919 32.0779 32.8132 32.0305 32.8462 31.9974C32.9454 30.7578 33.073 29.5206 33.2335 28.2882C33.4768 26.4324 33.7862 24.5838 34.1664 22.7517C34.4781 21.2514 34.6765 19.3151 35.8479 18.1988C36.7311 17.3574 38.0418 17.1394 39.0101 17.9641C40.087 18.8814 40.616 20.6163 41.0789 21.9032C42.3967 25.5555 41.1616 29.0016 40.1862 32.5638C39.9548 33.4076 39.7493 34.2703 39.5297 35.1306C39.558 35.1022 39.5911 35.0761 39.6241 35.0548C39.643 35.0429 39.7115 35.1187 39.7446 35.1425C39.7446 35.2965 39.6454 35.4055 39.5533 35.3652C39.532 35.3558 39.5061 35.3273 39.4895 35.2989C39.2723 36.1403 39.0385 36.9769 38.7503 37.7875C39.0668 37.4556 39.3903 37.1333 39.721 36.8157C39.7163 36.8062 39.7115 36.7968 39.7092 36.7849C39.643 36.5289 39.7257 36.2872 39.9406 36.1521C40.0563 36.0786 40.1933 36.0289 40.3067 36.1308C40.3326 36.1545 40.3539 36.1805 40.3728 36.2066C40.6467 35.9578 40.923 35.7136 41.2088 35.4766C42.1228 34.7135 43.0816 33.9977 44.0758 33.3459C44.8056 32.8672 45.814 32.1182 46.6548 32.8008C47.3703 33.3815 47.3987 34.5997 47.5097 35.434C47.6726 36.6451 47.7175 37.9083 47.2924 39.0744C46.4753 41.3141 44.201 41.9778 42.118 42.5537C40.1791 43.0917 38.2072 43.4899 36.2163 43.7648C36.2446 43.7885 36.2753 43.8264 36.3131 43.8572C36.247 43.9117 36.1974 43.9828 36.1573 43.9781C36.1124 43.971 36.0415 43.8975 36.0439 43.8549C36.0439 43.8335 36.0628 43.8051 36.0864 43.7837C35.4063 43.8762 34.7261 43.952 34.0412 44.016C34.2136 45.5732 34.5088 47.1872 34.5065 48.7467C34.5065 49.5027 34.1381 50.0171 33.609 50.3868C33.635 50.3797 33.661 50.3726 33.687 50.3726C33.8216 50.3678 33.9562 50.4745 33.9704 50.5954C33.9869 50.7423 33.8381 50.8892 33.6799 50.8798C33.5476 50.8703 33.4366 50.7541 33.4319 50.6191C33.4319 50.5645 33.4508 50.5124 33.4862 50.4721C33.2146 50.6451 32.9053 50.785 32.5865 50.9035C31.4623 51.323 30.6499 50.7707 30.4704 49.6189C30.2248 48.0452 30.2012 46.4074 30.2177 44.8147C29.9721 44.8835 29.7265 44.9498 29.4809 45.0138C29.4809 45.0138 29.4809 45.0186 29.4785 45.0209C29.3699 45.2034 29.2093 45.3125 28.9448 45.3196C28.8433 45.3243 28.7559 45.2793 28.6968 45.2082C26.4037 45.7391 24.0562 46.014 21.6993 46.0069C20.4641 46.0045 19.2054 45.9524 17.9821 45.7651C17.0657 45.6253 16.5296 45.0968 16.4682 44.1559C16.3927 43.0064 16.6359 41.7526 16.9311 40.6481C17.172 39.7451 17.4696 38.6265 18.2348 38.015L18.2229 38.0126ZM18.9149 33.7394C18.9196 33.4976 18.9385 33.2582 18.9551 32.9762C19.059 32.9975 19.1676 32.9857 19.2078 33.0331C19.3353 33.1848 19.4439 33.353 19.5431 33.5261C19.6234 33.6635 19.5596 33.8555 19.4274 33.9361C19.2975 34.0167 19.0849 34.0119 18.9928 33.9148C18.9503 33.8697 18.9125 33.7986 18.9125 33.7417L18.9149 33.7394ZM25.1189 30.6583C25.1119 30.4213 25.2512 30.2506 25.4519 30.253C25.6196 30.253 25.7613 30.4165 25.7637 30.6109C25.7637 30.7863 25.6149 30.9308 25.4212 30.9379C25.2536 30.9427 25.1237 30.8242 25.1189 30.6583ZM25.8038 28.6603C25.792 28.5607 25.8652 28.4541 25.9384 28.4825C26.0069 28.5086 26.0636 28.5726 26.1651 28.6532C26.0754 28.7314 26.0234 28.812 25.962 28.8238C25.8676 28.8404 25.8156 28.7551 25.8038 28.6603ZM12.4346 18.5993C12.4676 18.4974 12.5432 18.4097 12.6754 18.3694C12.7321 18.3528 12.7888 18.3362 12.8455 18.3196C12.8762 18.3078 12.9045 18.2983 12.9329 18.2936C13.7807 18.0518 14.7065 17.893 15.5071 18.3647C16.31 18.8363 16.4942 19.7512 16.5438 20.6139C16.6147 21.8108 16.5226 23.048 16.2699 24.2188C16.0998 25.0127 15.7456 25.7024 14.8836 25.8565C14.0688 26.0034 13.0037 25.655 12.2716 25.3232C11.3789 24.9156 10.8074 24.1619 10.6137 23.1996C10.2619 21.4434 11.0577 19.6706 12.4322 18.6017L12.4346 18.5993ZM10.328 30.2933C10.3728 30.2862 10.4295 30.3383 10.4791 30.3667C10.4484 30.4189 10.4366 30.4734 10.4083 30.4853C10.3256 30.5137 10.2288 30.5161 10.2075 30.407C10.2004 30.3762 10.2784 30.3004 10.3256 30.2933H10.328ZM9.78008 33.1871C9.83439 33.007 9.96901 32.8861 10.1438 32.8293C10.5264 32.7013 10.883 32.7629 11.1994 33.0118C11.3151 33.1018 11.3364 33.2322 11.2939 33.3696C11.1073 33.9645 10.7578 34.1707 10.1343 34.0475C10.028 34.0261 9.92414 33.9859 9.81078 33.9503C9.65255 33.6564 9.70923 33.4194 9.78008 33.1848V33.1871ZM8.21195 32.9098C8.27571 32.9241 8.3253 32.9975 8.36781 33.0331C8.32058 33.1871 8.23084 33.1966 8.15054 33.1682C8.10331 33.1516 8.04191 33.0876 8.03955 33.0449C8.03955 32.9454 8.12456 32.8909 8.21195 32.9098Z" fill="#0C0C0C"/>
</g>
<defs>
<clipPath id="clip0_1854_88273">
<rect width="50.6667" height="57.0667" fill="white" transform="translate(6.66797 13.333)"/>
</clipPath>
</defs>
</svg>
