<svg width="64" height="75" viewBox="0 0 64 75" fill="none" xmlns="http://www.w3.org/2000/svg">
<g clip-path="url(#clip0_1854_88305)">
<path d="M33.2009 28.0141C33.4215 28.0055 33.6422 28.0003 33.8645 27.9985C33.98 27.9985 34.4299 28.0728 34.5247 27.9813C34.6936 27.9847 34.6833 27.8932 34.4936 27.7066C34.3782 27.6755 34.2627 27.6479 34.1455 27.6254C33.9007 27.5753 33.6542 27.539 33.406 27.5148C32.9286 27.4682 32.4442 27.4647 31.965 27.5045C31.4789 27.5442 29.3519 27.7809 29.2227 28.503C30.0638 28.332 30.9119 28.1989 31.7668 28.1143C32.2443 28.0676 32.7217 28.0348 33.2009 28.0158V28.0141Z" fill="#0C0C0C"/>
<path d="M19.7487 30.6277C19.9745 30.7625 20.6967 30.4636 20.9518 30.41C21.7861 30.2304 22.6203 30.0507 23.4546 29.8728C22.579 29.4634 21.5051 29.3683 20.6485 29.5895C20.4675 29.6361 20.2882 29.7018 20.1245 29.7933C19.9555 29.8883 19.254 30.334 19.747 30.6294L19.7487 30.6277Z" fill="#0C0C0C"/>
<path d="M21.6899 16.1907C21.1762 16.9871 20.7712 17.8699 20.0369 18.4953C19.2768 19.1414 18.3081 19.4782 17.5858 20.1744C16.8584 20.8758 16.3896 21.8018 16.0569 22.7468C15.2468 25.0565 14.7642 27.862 15.2175 30.3877C16.1328 31.2187 17.1963 31.9252 18.2029 32.5402C17.7737 30.5743 17.1808 28.6204 17.3152 26.5992C17.4393 24.7144 18.1805 22.7191 19.8766 21.7189C20.8401 21.1505 21.9743 21.0106 22.9775 20.539C24.1203 20 24.7046 19.1016 24.6322 17.8233C24.5771 16.8282 24.1048 15.7761 24.2254 14.7793C23.1774 14.4062 22.2087 15.3891 21.6899 16.1942V16.1907Z" fill="#0C0C0C"/>
<path d="M31.6076 42.6326C30.1011 42.8053 28.6291 43.1629 27.207 43.6933C28.6601 44.8611 30.8423 44.3688 31.6076 42.6326Z" fill="#0C0C0C"/>
<path d="M46.6964 7.05014C46.1896 5.97388 45.2657 5.12565 44.2246 4.57456C41.3495 3.05432 38.1194 3.82653 35.1719 4.72831C36.5508 6.13454 37.8022 7.66515 38.945 9.27522C38.9536 9.27177 38.9622 9.26831 38.9726 9.26486C41.3633 8.59457 43.8178 10.2703 43.9523 12.7856C43.9936 13.5475 43.8127 14.2972 43.804 15.0573C43.7954 15.9522 44.1608 16.4998 44.7038 17.1667C45.4777 18.1151 45.719 19.2466 45.1364 20.3661C45.1278 20.3816 45.1175 20.3955 45.1089 20.4093C45.5122 21.2851 45.9121 22.161 46.3068 23.0403C46.6016 23.6968 47.4496 24.9493 46.6343 25.5539C46.6274 25.5591 46.6222 25.5626 46.6153 25.566C47.3393 26.8444 46.7481 28.3422 46.7756 29.7363C46.7963 30.7521 47.2738 31.4293 47.9633 31.8439C51.0211 28.5495 52.1018 23.6761 50.3902 19.3434C49.8507 17.9769 49.0061 16.8471 48.2339 15.6136C47.846 14.9934 47.5151 14.3456 47.3548 13.6252C47.179 12.8357 47.1979 12.0151 47.2186 11.2118C47.2548 9.80212 47.3134 8.35617 46.6981 7.04668L46.6964 7.05014Z" fill="#0C0C0C"/>
<path d="M12.8361 25.0738C12.624 26.9482 13.3894 28.4684 14.5528 29.7295C14.3615 27.8932 14.6166 26.036 15.0389 24.2463C15.4112 22.6656 15.9473 21.0072 17.1211 19.8324C17.7382 19.214 18.5207 18.8615 19.2378 18.3813C20.11 17.7974 20.5598 16.9301 21.0993 16.0612C21.763 14.9901 22.8747 13.9173 24.1727 14.1851C24.5346 13.4509 23.3539 13.0345 22.8178 12.9326C22.2697 12.8289 21.7026 12.8514 21.1476 12.8756C18.4863 13.6219 16.0593 15.1231 14.3977 17.4121C14.3408 17.4916 14.2615 17.5279 14.184 17.5348C13.6669 18.3243 13.3962 19.2658 13.4773 20.2367C13.5497 21.1143 14.1081 21.9867 13.691 22.8401C13.3204 23.5985 12.9343 24.2135 12.8361 25.0755V25.0738Z" fill="#0C0C0C"/>
<path d="M30.6234 41.3577C30.0425 41.0605 29.565 41.1797 29.0807 41.5632C28.7325 41.8379 28.5481 41.7965 28.1327 41.7878C27.3811 41.7723 27.1743 42.4944 27.0898 43.1284C28.5119 42.6015 29.9822 42.2508 31.4869 42.0729C31.2336 41.7913 30.9578 41.5287 30.6234 41.3577Z" fill="#0C0C0C"/>
<path d="M45.0818 24.4882C44.5198 23.5795 43.9028 22.7054 43.2357 21.8727C41.8843 20.1901 40.3313 18.6629 38.6197 17.3482C35.4568 14.921 31.663 13.0708 27.6864 12.5007C26.6488 12.6372 25.9783 13.4993 25.9766 14.4425C26.0179 14.4753 26.0507 14.5254 26.061 14.598C26.4127 16.9803 29.2395 17.2031 31.1321 17.248C34.6432 17.3292 38.3732 18.3398 40.3486 21.5064C41.3379 23.0906 41.6103 24.9926 42.4997 26.6217C43.3064 28.0988 44.6439 29.1992 46.2246 29.7399C46.2263 28.3441 46.8261 26.8567 45.9901 25.6508C45.5833 25.4574 45.2886 24.8216 45.0818 24.4882Z" fill="#0C0C0C"/>
<path d="M29.6526 20.1657C30.7868 20.3523 31.9192 20.5734 33.0258 20.8879C35.0011 21.4493 36.9041 22.3286 38.4295 23.7314C39.1225 24.3689 39.7309 25.1134 40.1894 25.9375C40.6875 26.8324 40.8685 27.786 41.1736 28.7517C41.3581 29.3356 41.6545 29.9247 42.2302 30.2045C42.8335 30.4982 43.3075 30.1544 43.8195 29.859C44.0556 29.7225 44.2969 29.6241 44.5382 29.5705C43.5161 28.9382 42.6525 28.0624 42.0544 26.9982C41.084 25.2724 40.8289 23.2252 39.712 21.5754C38.6054 19.9412 36.8386 18.8649 34.9701 18.3242C33.9273 18.0218 32.8517 17.8802 31.7675 17.8387C30.7247 17.8007 29.6681 17.8284 28.6408 17.6072C27.7479 17.4138 26.8516 16.9663 26.2432 16.2839C26.3311 17.2669 26.2432 18.5539 26.9395 19.2622C27.6152 19.9481 28.7615 20.0224 29.6543 20.1675L29.6526 20.1657Z" fill="#0C0C0C"/>
<path d="M25.3538 13.7944C25.3952 13.81 25.4348 13.8307 25.4727 13.8531C25.621 13.2571 25.9812 12.7268 26.4931 12.3692C26.2829 12.3536 26.0743 12.3398 25.864 12.3312C24.997 12.2949 24.1231 12.3346 23.2578 12.4452C23.4819 12.5074 23.7008 12.5886 23.9111 12.7009C24.3627 12.941 24.7247 13.347 24.7867 13.81C24.9453 13.7288 25.1349 13.7098 25.3521 13.7944H25.3538Z" fill="#0C0C0C"/>
<path d="M42.3631 10.5797C41.546 9.78843 40.3826 9.52757 39.2949 9.77461C40.0102 10.8111 40.6808 11.8805 41.3133 12.9671C42.582 15.1473 43.7092 17.4087 44.7762 19.6942C44.7814 19.7046 44.7848 19.7149 44.79 19.7253C44.9744 19.1621 44.9279 18.5523 44.6211 18.0219C44.366 17.5814 43.9764 17.2359 43.6955 16.8126C43.0818 15.8901 43.2387 14.8191 43.3404 13.7756C43.4559 12.5784 43.2594 11.4452 42.3631 10.5779V10.5797Z" fill="#0C0C0C"/>
<path d="M34.1364 4.49867C32.4765 3.48287 30.639 2.75384 28.7275 2.38415C23.9426 1.45991 18.0648 2.80912 15.7258 7.51497C14.3693 10.2462 14.3744 13.3109 14.5658 16.2926C16.2343 14.3768 18.4509 13.0656 20.8641 12.3607C20.9054 12.3314 20.9572 12.3106 21.0192 12.3072C21.0295 12.3072 21.0399 12.3072 21.0502 12.3072C22.5085 11.9012 24.0339 11.7164 25.5542 11.7492C26.2816 11.7665 27.0038 11.8252 27.7191 11.9219C27.7846 11.915 27.8518 11.9116 27.9191 11.9099C28.0018 11.9081 28.0639 11.9358 28.1104 11.979C28.6516 12.0636 29.1877 12.1724 29.7203 12.3003C29.71 12.2675 29.7013 12.2346 29.7013 12.1966C29.7013 11.9634 29.8892 11.7734 30.1288 11.7613C30.3391 11.7509 30.5063 11.9012 30.5132 12.1051C30.5184 12.2692 30.458 12.3918 30.346 12.4609C36.7994 14.2196 42.4876 19.0308 45.8556 24.6678C45.9091 24.7594 45.9625 24.8509 46.0194 24.9425C46.1366 24.8354 46.2538 24.7283 46.371 24.6212C46.3917 24.5607 46.2124 24.229 46.1659 24.1219C46.0504 23.8576 45.9297 23.595 45.8108 23.3324C45.5747 22.8055 45.3368 22.2803 45.0972 21.7534C44.5887 20.6374 44.0733 19.5232 43.539 18.4193C42.5686 16.4153 41.5361 14.439 40.3881 12.5318C40.3657 12.5041 40.3468 12.4748 40.333 12.4419C40.2554 12.3141 40.1796 12.1863 40.102 12.0584C38.4145 9.32026 36.4495 6.72721 34.1346 4.49694L34.1364 4.49867ZM15.793 11.5505C15.6465 11.5661 15.5276 11.4797 15.5172 11.3484C15.5052 11.1912 15.6155 11.0599 15.7672 11.0547C15.8964 11.0495 16.0068 11.1549 16.0188 11.2931C16.0309 11.4313 15.9378 11.535 15.793 11.5505ZM24.6493 11.6524C24.5527 11.6645 24.4614 11.5851 24.4545 11.4866C24.4493 11.4089 24.5148 11.3432 24.6079 11.338C24.6924 11.3346 24.7682 11.3536 24.7958 11.4469C24.8234 11.5384 24.7492 11.6404 24.6493 11.6524ZM25.0785 5.37281C24.9888 5.39354 24.9199 5.2968 24.9268 5.18105C24.9319 5.09467 25.0009 5.0273 25.0767 5.03421C25.175 5.04457 25.2474 5.13268 25.2353 5.26916C25.1974 5.29507 25.144 5.35553 25.0785 5.37108V5.37281ZM29.2549 11.7198C29.2377 11.8269 29.1239 11.9116 29.0067 11.9047C28.8981 11.8995 28.8154 11.7976 28.8119 11.668C28.8085 11.5523 28.9119 11.4538 29.0291 11.459C29.1653 11.4659 29.2756 11.5937 29.2549 11.7198ZM33.4383 4.67833C33.4159 4.76126 33.3676 4.82345 33.2711 4.82345C33.1763 4.82345 33.1073 4.71807 33.1246 4.61269C33.1418 4.51076 33.2418 4.42438 33.3228 4.44166C33.4055 4.45893 33.4659 4.57468 33.4383 4.67833ZM42.6772 19.0135C42.7392 18.865 42.8599 18.7959 43.0116 18.7717C43.1288 18.7544 43.2356 18.8546 43.2287 18.941C43.2201 19.1068 43.1684 19.2208 43.0615 19.3055C42.9771 19.3746 42.8306 19.378 42.7444 19.3176C42.6599 19.2571 42.6306 19.1206 42.6772 19.0101V19.0135ZM41.4275 14.4096C41.4413 14.4165 41.4534 14.4234 41.4671 14.4303C41.4534 14.4511 41.4413 14.4735 41.4258 14.4908C41.4241 14.4943 41.4016 14.4787 41.3879 14.4718C41.4016 14.4511 41.4137 14.4303 41.4275 14.4096ZM40.0106 16.2736C40.0917 16.1821 40.214 16.1458 40.3071 16.1924C40.4071 16.2425 40.4278 16.3324 40.426 16.4723C40.4088 16.5259 40.3899 16.6192 40.3502 16.7038C40.3071 16.7954 40.1658 16.8368 40.0572 16.8075C39.971 16.7833 39.9141 16.6952 39.9124 16.5846C39.9124 16.4706 39.9279 16.3635 40.0089 16.2736H40.0106ZM39.1936 16.0249C39.3815 16.0128 39.5125 16.1804 39.5091 16.4274C39.5073 16.6537 39.3901 16.8005 39.2178 16.7988C38.9902 16.7954 38.8265 16.6278 38.8265 16.3963C38.8265 16.1959 38.9833 16.037 39.1936 16.0249ZM38.4283 13.9587C38.4507 13.9086 38.499 13.8482 38.5472 13.8378C38.5869 13.8292 38.642 13.8827 38.7334 13.9328C38.6472 13.995 38.6058 14.0416 38.5559 14.0572C38.4921 14.0797 38.4059 14.0088 38.43 13.9587H38.4283ZM37.9112 9.33408C38.0353 9.3168 38.1353 9.39454 38.1439 9.51893C38.1542 9.65367 38.0819 9.73832 37.9509 9.74351C37.8336 9.74869 37.7337 9.65195 37.7337 9.53447C37.7337 9.436 37.8112 9.3479 37.9095 9.33408H37.9112ZM35.3964 8.5895C35.436 8.6707 35.4119 8.7588 35.3429 8.80545C35.2533 8.86591 35.1464 8.90046 35.0275 8.95402C34.962 8.89874 34.8879 8.86073 34.8551 8.80027C34.7965 8.6897 34.8293 8.56877 34.9103 8.49276C35.0603 8.35456 35.3033 8.4012 35.3964 8.5895Z" fill="#0C0C0C"/>
<path d="M47.2285 70.5187C48.261 69.7689 49.0952 68.5769 49.0384 67.2484C48.9798 65.8992 48.0662 64.8005 47.0906 63.9557C45.9995 63.009 44.4241 61.9828 43.3589 60.7235C42.9176 62.4061 42.4074 64.0697 41.8265 65.7109C41.7041 66.0564 41.1543 65.9061 41.2767 65.5589C42.0747 63.3096 42.7383 61.0171 43.271 58.6936C44.0207 52.7595 44.2569 46.7683 43.9656 40.7927C43.9587 40.6338 43.9501 40.4749 43.9415 40.3159C43.8087 40.3263 43.676 40.3263 43.5416 40.3159C43.4002 40.3056 43.2589 40.2831 43.1193 40.2468C43.1158 40.2866 43.1106 40.3246 43.1072 40.3643C42.9193 42.4771 42.173 44.5191 40.9319 46.2449C39.2513 48.5823 36.7331 50.1785 33.9735 50.7814C32.7445 51.0509 31.4672 51.1235 30.1934 50.9749C28.1974 50.7434 26.3135 49.9695 24.7173 48.7982C24.869 50.4601 24.5881 52.1617 23.852 53.6664C22.7816 55.8604 20.8253 57.6156 18.5138 58.4034C17.371 58.7921 16.0972 58.8819 15.1044 59.6317C14.0943 60.3952 13.8375 61.57 14.2408 62.7464C15.0372 65.0648 17.1211 66.7422 19.0568 68.0984C23.1178 70.9419 27.9406 72.628 32.8634 73.0962C35.2972 73.3277 37.7569 73.2465 40.1718 72.8595C41.3887 72.6643 42.5935 72.3896 43.7725 72.0303C44.9636 71.6675 46.2081 71.2615 47.2268 70.5204L47.2285 70.5187ZM47.0217 65.8543C47.1337 65.8577 47.2423 65.9718 47.2354 66.0771C47.2268 66.205 47.0889 66.3173 46.9631 66.2983C46.8752 66.2844 46.8045 66.1842 46.8114 66.0789C46.8183 65.951 46.9131 65.8508 47.0217 65.8543ZM46.97 68.5009C47.2957 68.2158 47.8956 68.2141 48.2231 68.4992C48.5023 68.741 48.4971 69.0969 48.211 69.3353C48.0473 69.4718 47.8611 69.5357 47.6301 69.5357C47.3199 69.5322 47.0665 69.4113 46.8872 69.1539C46.7338 68.9345 46.77 68.6754 46.97 68.5009ZM20.4995 67.8254C20.403 67.8375 20.3116 67.758 20.3047 67.6596C20.2996 67.5818 20.3651 67.5162 20.4581 67.511C20.5426 67.5058 20.6184 67.5266 20.646 67.6198C20.6736 67.7114 20.5995 67.8133 20.4995 67.8254ZM20.9287 61.5458C20.8391 61.5665 20.7701 61.4698 20.777 61.354C20.7822 61.2676 20.8511 61.2003 20.927 61.2072C21.0252 61.2175 21.0976 61.3057 21.0855 61.4421C21.0476 61.468 20.9942 61.5285 20.9287 61.5441V61.5458ZM25.1052 67.8928C25.0879 67.9999 24.9742 68.0846 24.8569 68.0776C24.7484 68.0725 24.6656 67.9705 24.6622 67.841C24.6587 67.7252 24.7621 67.6268 24.8794 67.6319C25.0155 67.6388 25.1258 67.7667 25.1052 67.8928ZM25.9498 68.6978C25.7136 68.6978 25.5533 68.5665 25.5533 68.3713C25.5533 68.1381 25.7412 67.9481 25.9808 67.936C26.1911 67.9256 26.3583 68.0759 26.3652 68.2798C26.3738 68.5406 26.2169 68.6961 25.948 68.6978H25.9498ZM29.2902 60.8513C29.2678 60.9342 29.2196 60.9964 29.123 60.9964C29.0282 60.9964 28.9576 60.891 28.9765 60.7857C28.9938 60.6837 29.0937 60.5974 29.1747 60.6146C29.2575 60.6319 29.3178 60.7477 29.2902 60.8513ZM30.3313 59.1756C30.3038 59.1566 30.2503 59.1358 30.2314 59.0996C30.1469 58.9424 30.2589 58.7143 30.4313 58.678C30.5278 58.659 30.6278 58.7281 30.6468 58.8266C30.683 59.0184 30.5416 59.1842 30.3313 59.1756ZM31.1914 64.9784C31.1018 65.0389 30.9949 65.0734 30.876 65.127C30.8105 65.0717 30.7364 65.0337 30.7036 64.9732C30.645 64.8627 30.6778 64.7417 30.7588 64.6657C30.9088 64.5275 31.1518 64.5742 31.2449 64.7642C31.2845 64.8454 31.2604 64.9335 31.1914 64.9802V64.9784ZM33.7994 65.9182C33.6822 65.9234 33.5822 65.8266 33.5822 65.7092C33.5822 65.6107 33.6597 65.5226 33.758 65.5088C33.8821 65.4915 33.9821 65.5692 33.9907 65.6936C34.001 65.8284 33.9286 65.913 33.7976 65.9182H33.7994ZM34.4027 70.2319C34.3389 70.2544 34.2527 70.1835 34.2768 70.1334C34.2992 70.0833 34.3475 70.0229 34.3958 70.0125C34.4354 70.0039 34.4906 70.0574 34.5819 70.1075C34.4957 70.1697 34.4544 70.2164 34.4044 70.2319H34.4027ZM35.0663 72.9735C34.8387 72.9701 34.675 72.8025 34.675 72.571C34.675 72.3706 34.8318 72.2117 35.0421 72.1996C35.23 72.1875 35.361 72.3551 35.3576 72.6021C35.3558 72.8284 35.2386 72.9752 35.0663 72.9735ZM36.2004 72.8785C36.1574 72.9701 36.016 73.0115 35.9074 72.9822C35.8212 72.958 35.7644 72.8699 35.7626 72.7593C35.7626 72.6453 35.7781 72.5382 35.8592 72.4483C35.9402 72.3568 36.0625 72.3205 36.1556 72.3671C36.2556 72.4172 36.2763 72.5071 36.2746 72.647C36.2573 72.7006 36.2384 72.7939 36.1987 72.8785H36.2004ZM36.4866 68.8481C36.3211 68.8412 36.1591 68.6633 36.1625 68.494C36.166 68.3385 36.3211 68.202 36.4866 68.2107C36.6555 68.2193 36.7917 68.3921 36.7796 68.5838C36.7727 68.7117 36.6141 68.8533 36.4848 68.8481H36.4866ZM37.1916 69.0986C37.1536 69.0814 37.1088 69.0364 37.1036 68.9967C37.0985 68.9639 37.145 68.9241 37.1778 68.8706C37.2226 68.9121 37.2674 68.9362 37.2829 68.9725C37.3105 69.0382 37.2467 69.1228 37.1916 69.0986ZM37.2743 70.6655C37.2743 70.6655 37.2502 70.6534 37.2364 70.6465C37.2502 70.6258 37.2639 70.605 37.276 70.5843C37.2898 70.5912 37.3019 70.5981 37.3157 70.605C37.3019 70.6258 37.2898 70.6482 37.2743 70.6655ZM38.1637 55.0865C37.9793 55.0882 37.8552 54.9448 37.8552 54.7289C37.8552 54.5544 37.9793 54.4093 38.1413 54.3972C38.3464 54.3799 38.4929 54.5043 38.4998 54.6978C38.5067 54.9275 38.3723 55.083 38.1654 55.0865H38.1637ZM38.6705 62.4804C38.5722 62.4614 38.5015 62.3698 38.5102 62.2713C38.5188 62.1642 38.6343 62.1003 38.7704 62.1245C38.8566 62.1401 38.9152 62.2126 38.9066 62.2955C38.8928 62.4199 38.786 62.5028 38.6722 62.4821L38.6705 62.4804ZM40.6096 65.507C40.5113 65.5485 40.4114 65.476 40.4045 65.374C40.3976 65.2963 40.4734 65.1995 40.5458 65.2185C40.6096 65.2341 40.663 65.2963 40.7458 65.3568C40.6854 65.4259 40.6561 65.488 40.6096 65.5088V65.507ZM42.8676 72.1046C42.828 72.2376 42.6815 72.3326 42.5349 72.3136C42.5074 72.3101 42.4729 72.2894 42.4574 72.2652C42.3867 72.1633 42.3902 72.0458 42.4574 71.9543C42.5074 71.8852 42.6004 71.8489 42.6453 71.8178C42.8125 71.8282 42.9055 71.9767 42.8676 72.1028V72.1046ZM43.3158 69.9676C43.0676 69.9952 42.909 69.8708 42.8814 69.6273C42.878 69.5944 42.878 69.5633 42.8762 69.5305C42.8762 69.2507 42.9917 69.0865 43.2003 69.071C43.4088 69.0572 43.5605 69.1971 43.6191 69.458C43.626 69.489 43.6312 69.5219 43.6346 69.553C43.6502 69.7724 43.5174 69.9434 43.3175 69.9659L43.3158 69.9676Z" fill="#0C0C0C"/>
<path d="M21.312 41.717C21.636 42.8537 22.0445 44.0008 22.572 45.084C23.0201 46.003 23.5562 46.872 24.1974 47.6477C24.2319 47.6787 24.2681 47.7098 24.3026 47.7409C24.7249 48.1124 25.1765 48.4527 25.6539 48.7567C25.9918 48.9727 26.3382 49.1662 26.6933 49.3407C28.8548 50.4031 31.3145 50.7106 33.6587 50.2614C34.6998 50.061 35.7184 49.7121 36.6768 49.2128C40.1397 47.4075 42.3925 43.752 42.5718 39.8616C42.5821 39.6284 42.8027 39.5282 43.001 39.6145C43.4353 39.8046 43.9093 39.808 44.3334 39.6646C44.8608 39.098 45.3038 38.4467 45.6416 37.7574C46.369 36.27 46.6379 34.6444 46.7293 33.0015C46.7327 32.998 46.7362 32.9946 46.7396 32.9928C46.7344 32.7199 46.7207 32.4469 46.6862 32.174C46.5379 31.0027 45.5951 29.5533 44.2506 30.2668C43.4336 30.6987 42.7355 31.1858 41.8254 30.6417C40.9343 30.1078 40.6568 29.0903 40.4172 28.1471C39.3451 23.9232 35.341 21.9279 31.3937 21.0728C30.3992 20.8568 29.3891 20.7376 28.3946 20.5286C27.6499 20.3714 26.8794 20.1036 26.3813 19.4955C25.8142 18.8028 25.8332 17.8802 25.7556 17.0337C25.697 16.3928 25.6091 15.7536 25.4833 15.1231C25.4833 15.1214 25.4833 15.1196 25.4833 15.1179C25.4505 14.9952 25.4247 14.8709 25.4109 14.7482C25.3919 14.6808 25.3678 14.6169 25.3333 14.5651C25.0437 14.1332 24.8352 14.5253 24.7938 14.8087C24.6611 15.707 25.1041 16.7332 25.1851 17.6367C25.2626 18.497 25.1316 19.3798 24.568 20.0639C23.2718 21.6377 20.9121 21.3647 19.4745 22.7295C18.1732 23.9664 17.7836 25.9151 17.875 27.6461C17.9784 29.6207 18.6075 31.521 18.9574 33.4627C20.0968 36.0696 20.5363 39.0013 21.3103 41.7187L21.312 41.717ZM43.9162 31.749C45.49 32.7855 45.2331 34.7601 44.6902 36.3063C44.5695 36.6518 44.0179 36.5015 44.1403 36.1543C44.585 34.888 44.9642 33.1241 43.6284 32.2431C43.3233 32.041 43.6094 31.5469 43.9162 31.749ZM39.6794 45.4848C39.7656 45.5003 39.8242 45.5729 39.8156 45.6558C39.8018 45.7802 39.695 45.8631 39.5812 45.8424C39.4829 45.8234 39.4123 45.7318 39.4209 45.6333C39.4295 45.5262 39.545 45.4623 39.6812 45.4865L39.6794 45.4848ZM39.0503 37.7574C39.2554 37.7402 39.4019 37.8645 39.4088 38.058C39.4157 38.2878 39.2813 38.4433 39.0744 38.4467C38.89 38.4485 38.7659 38.3051 38.7659 38.0891C38.7659 37.9146 38.89 37.7695 39.052 37.7574H39.0503ZM22.5375 38.4174C22.5272 38.3949 22.5168 38.3724 22.5065 38.35C22.5185 38.3448 22.541 38.3327 22.541 38.3344C22.553 38.3552 22.5634 38.3776 22.5737 38.4001C22.5616 38.4053 22.5496 38.4104 22.5375 38.4156V38.4174ZM23.6855 32.2897C23.1994 32.1308 22.7099 32.0721 22.2341 32.1066C22.31 32.1584 22.3807 32.2206 22.441 32.2984C22.7961 32.7458 22.6737 33.4006 22.1824 33.6942C21.7205 33.9706 21.1172 33.8013 20.8449 33.3418C20.6932 33.0879 20.6777 32.8011 20.7621 32.5437C20.3502 32.7717 19.9761 33.0827 19.6555 33.4748C19.4228 33.7599 19.0212 33.3539 19.2522 33.0706C20.3691 31.7024 22.1617 31.1945 23.8354 31.7404C24.1836 31.8544 24.0337 32.4055 23.6838 32.2915L23.6855 32.2897ZM32.1005 48.3421C32.0108 48.4026 31.904 48.4371 31.785 48.4907C31.7195 48.4354 31.6454 48.3974 31.6127 48.3369C31.554 48.2264 31.5868 48.1054 31.6678 48.0294C31.8178 47.8912 32.0608 47.9379 32.1539 48.1279C32.1935 48.2091 32.1694 48.2972 32.1005 48.3439V48.3421ZM32.278 42.4615C32.278 42.4615 32.278 42.4719 32.2745 42.4771C31.4696 44.9959 28.2825 45.7422 26.4761 43.79C26.3537 43.6587 26.3796 43.4912 26.4882 43.3858C26.5554 42.7086 26.6519 41.983 27.2035 41.5166C27.4258 41.33 27.7137 41.1987 28.0067 41.1935C28.2394 41.1901 28.4308 41.2972 28.6755 41.1572C28.7772 41.0985 28.8617 40.9793 28.9599 40.9102C30.1992 40.0292 31.4782 41.1711 32.2539 42.0936C32.3538 42.2128 32.3504 42.3596 32.2763 42.4615H32.278ZM34.7084 49.2802C34.5912 49.2854 34.4912 49.1886 34.4912 49.0711C34.4912 48.9727 34.5688 48.8846 34.667 48.8708C34.7911 48.8535 34.8911 48.9312 34.8997 49.0556C34.91 49.1903 34.8376 49.275 34.7066 49.2802H34.7084ZM35.5357 30.5518C34.8497 30.1908 34.1223 30.0163 33.4035 30.0146C33.7328 30.3981 33.7483 30.963 33.426 31.3672C33.0778 31.8026 32.4521 31.882 31.9953 31.5659C31.6109 31.2999 31.4765 30.8075 31.6075 30.3825C30.9508 30.6658 30.3509 31.1064 29.8614 31.6955C29.6253 31.9788 29.2236 31.5711 29.4581 31.2912C31.0318 29.403 33.6604 28.9193 35.8253 30.0577C36.1511 30.2288 35.8615 30.7229 35.5375 30.5518H35.5357ZM31.0714 27.0484C31.773 26.9205 32.4883 26.8739 33.1984 26.924C33.7345 26.962 34.4481 26.9844 34.9169 27.2712C35.2427 27.4699 35.4323 27.881 35.1996 28.2265C34.9583 28.5859 34.4602 28.5651 34.081 28.5669C32.4055 28.579 30.7491 28.7517 29.1099 29.1024C28.9737 29.1318 28.8668 29.0696 28.8065 28.978C28.7376 28.9504 28.6824 28.8916 28.6669 28.7897C28.4618 27.5407 30.1699 27.2125 31.0697 27.0484H31.0714ZM19.7693 29.3374C20.7656 28.7327 22.1221 28.8467 23.1908 29.1767C24.2405 29.5015 25.1609 30.2063 25.4936 31.2688C25.5419 31.3137 25.5781 31.3741 25.5867 31.4519C25.7229 32.535 25.859 33.6182 25.9952 34.7014C26.121 35.693 26.2382 36.6984 26.5675 37.6486C26.7329 38.1254 26.957 38.6748 27.3138 39.0445C27.8171 39.5662 28.1377 39.0738 28.5497 38.7767C28.81 38.5901 29.0789 38.5469 29.3908 38.5884C29.5977 38.616 29.7907 38.7024 29.9941 38.7387C30.1251 38.7732 30.2578 38.7801 30.3906 38.7594C30.4268 38.3327 30.2699 38.134 29.9166 38.1651C29.5563 38.1237 29.5529 37.5519 29.9166 37.5933C30.4216 37.6521 31.0059 37.8093 31.1473 38.3776C31.2593 38.8251 30.9646 39.2034 30.5423 39.3105C30.313 39.3692 30.07 39.3399 29.8424 39.2898C29.6477 39.2466 29.4167 39.1326 29.215 39.1395C28.8944 39.1498 28.8186 39.307 28.6324 39.4833C28.2687 39.8288 27.8637 39.9894 27.3759 39.7821C26.2365 39.2984 25.8504 37.4344 25.6591 36.3685C25.3867 34.8361 25.2385 33.2762 25.0489 31.73C25.0248 31.7006 25.0075 31.6626 24.9972 31.6177C24.8696 31.0735 24.5559 30.6313 24.1388 30.2944C24.1181 30.3048 24.0957 30.3134 24.0681 30.3186C23.2546 30.4931 22.441 30.6676 21.6274 30.8421C21.0172 30.9733 20.3054 31.2498 19.6745 31.1876C19.266 31.1461 18.9523 30.8835 18.9488 30.4551C18.9454 29.9645 19.3797 29.5688 19.7641 29.3339L19.7693 29.3374Z" fill="#0C0C0C"/>
</g>
<defs>
<clipPath id="clip0_1854_88305">
<rect width="38.4" height="71.1111" fill="white" transform="translate(12.8008 2.11108)"/>
</clipPath>
</defs>
</svg>
