<svg width="180" height="210" viewBox="0 0 180 210" fill="none" xmlns="http://www.w3.org/2000/svg">
<g clip-path="url(#clip0_1845_48165)">
<path d="M93.3743 77.8517C93.9949 77.8274 94.6154 77.8129 95.2408 77.808C95.5656 77.808 96.8308 78.0169 97.0975 77.7594C97.5726 77.7691 97.5435 77.5116 97.0102 76.9869C96.6854 76.8994 96.3606 76.8217 96.031 76.7585C95.3426 76.6176 94.6493 76.5156 93.9512 76.4476C92.6084 76.3164 91.2461 76.3067 89.8984 76.4184C88.5314 76.5302 82.5491 77.1958 82.1855 79.2268C84.5513 78.7457 86.9364 78.3716 89.3409 78.1335C90.6838 78.0024 92.0266 77.91 93.3743 77.8566V77.8517Z" fill="#0C0C0C"/>
<path d="M55.5415 85.2031C56.1766 85.5821 58.2078 84.7415 58.9253 84.5909C61.2716 84.0856 63.618 83.5803 65.9643 83.0798C63.5017 81.9283 60.4815 81.6611 58.0721 82.283C57.5631 82.4142 57.0589 82.5988 56.5983 82.8563C56.1233 83.1236 54.1502 84.3771 55.5367 85.208L55.5415 85.2031Z" fill="#0C0C0C"/>
<path d="M61.0002 44.5986C59.5555 46.8385 58.4163 49.3213 56.3511 51.0802C54.2132 52.8973 51.4887 53.8448 49.4575 55.8029C47.4117 57.7755 46.0931 60.3798 45.1574 63.0375C42.879 69.5336 41.5216 77.4242 42.7965 84.5277C45.3707 86.8647 48.3619 88.852 51.193 90.5817C49.9859 85.0524 48.3182 79.5572 48.6964 73.8725C49.0454 68.5716 51.13 62.9598 55.9002 60.1466C58.6102 58.548 61.8 58.1545 64.6215 56.8281C67.8356 55.3121 69.479 52.7856 69.2754 49.1901C69.1203 46.3915 67.792 43.4325 68.1313 40.629C65.1838 39.5796 62.4594 42.3442 61.0002 44.6083V44.5986Z" fill="#0C0C0C"/>
<path d="M88.8951 118.966C84.6581 119.452 80.518 120.458 76.5186 121.95C80.6053 125.234 86.7426 123.849 88.8951 118.966Z" fill="#0C0C0C"/>
<path d="M131.333 18.8912C129.907 15.8642 127.309 13.4785 124.381 11.9286C116.295 7.6529 107.21 9.82476 98.9199 12.361C102.798 16.316 106.318 20.6209 109.532 25.1492C109.556 25.1395 109.58 25.1298 109.609 25.12C116.333 23.2349 123.237 27.9478 123.615 35.0221C123.731 37.1648 123.222 39.2735 123.198 41.4114C123.174 43.9282 124.201 45.4684 125.728 47.3439C127.905 50.0113 128.584 53.1938 126.945 56.3423C126.921 56.386 126.892 56.4249 126.868 56.4637C128.002 58.9271 129.127 61.3905 130.237 63.8636C131.066 65.7099 133.451 69.2325 131.158 70.933C131.139 70.9476 131.124 70.9573 131.105 70.967C133.141 74.5625 131.478 78.775 131.556 82.696C131.614 85.553 132.957 87.4576 134.896 88.6237C143.496 79.3581 146.535 65.6516 141.721 53.4659C140.204 49.6226 137.829 46.445 135.657 42.9759C134.566 41.2316 133.635 39.4096 133.184 37.3835C132.69 35.163 132.743 32.8551 132.801 30.5958C132.903 26.6311 133.068 22.5644 131.337 18.8814L131.333 18.8912Z" fill="#0C0C0C"/>
<path d="M36.1021 69.5823C35.5058 74.854 37.6583 79.1297 40.9306 82.6766C40.3925 77.5117 41.1099 72.2886 42.2977 67.255C43.3448 62.8092 44.8525 58.1448 48.1538 54.8409C49.8894 53.1015 52.0903 52.1103 54.107 50.7596C56.56 49.1173 57.8253 46.6782 59.3426 44.2343C61.2091 41.2219 64.3359 38.2046 67.9863 38.9577C69.0044 36.8927 65.6836 35.7218 64.1759 35.4351C62.6343 35.1436 61.0394 35.2068 59.4784 35.2748C51.9933 37.3737 45.1676 41.596 40.4943 48.0338C40.3343 48.2573 40.1113 48.3593 39.8931 48.3788C38.4388 50.5992 37.6777 53.2472 37.9055 55.9778C38.1091 58.4461 39.6798 60.8997 38.5067 63.2999C37.4644 65.4329 36.3785 67.1626 36.1021 69.5871V69.5823Z" fill="#0C0C0C"/>
<path d="M86.1265 115.381C84.4928 114.545 83.15 114.88 81.7877 115.959C80.8085 116.731 80.2897 116.615 79.1214 116.59C77.0078 116.547 76.426 118.578 76.1885 120.361C80.1879 118.879 84.3231 117.893 88.5553 117.392C87.8427 116.6 87.067 115.862 86.1265 115.381Z" fill="#0C0C0C"/>
<path d="M126.79 67.9352C125.21 65.3795 123.474 62.921 121.598 60.5791C117.797 55.8467 113.429 51.5516 108.615 47.8541C99.7197 41.0275 89.0496 35.8238 77.8657 34.2205C74.9473 34.6043 73.0615 37.0288 73.0566 39.6817C73.173 39.774 73.2651 39.9149 73.2942 40.119C74.2831 46.8192 82.2336 47.4459 87.5565 47.5723C97.4315 47.8006 107.922 50.643 113.478 59.549C116.261 64.0045 117.026 69.354 119.528 73.9357C121.797 78.09 125.559 81.185 130.004 82.7057C130.009 78.7799 131.696 74.5965 129.345 71.2051C128.201 70.6609 127.372 68.8729 126.79 67.9352Z" fill="#0C0C0C"/>
<path d="M83.3976 55.7787C86.5875 56.3034 89.7725 56.9253 92.8848 57.8096C98.4404 59.3887 103.792 61.8618 108.083 65.8071C110.032 67.6 111.743 69.6941 113.032 72.0117C114.433 74.5285 114.942 77.2105 115.801 79.9266C116.319 81.5688 117.153 83.2256 118.772 84.0127C120.469 84.8387 121.802 83.8718 123.242 83.041C123.906 82.6572 124.585 82.3802 125.263 82.2296C122.389 80.4513 119.96 77.9879 118.278 74.9949C115.548 70.1411 114.831 64.3835 111.69 59.7434C108.577 55.147 103.608 52.12 98.3532 50.5992C95.4202 49.749 92.3952 49.3506 89.3459 49.2339C86.413 49.1271 83.4412 49.2048 80.5519 48.5829C78.0408 48.0387 75.5199 46.7803 73.8086 44.8611C74.0558 47.6257 73.8086 51.2455 75.7671 53.2375C77.6675 55.1665 80.8913 55.3754 83.4025 55.7835L83.3976 55.7787Z" fill="#0C0C0C"/>
<path d="M71.3071 37.8596C71.4234 37.9033 71.5349 37.9616 71.6416 38.0248C72.0585 36.3485 73.0717 34.8569 74.5115 33.8511C73.9201 33.8074 73.3335 33.7685 72.742 33.7442C70.3036 33.6422 67.8457 33.754 65.4121 34.0649C66.0423 34.2398 66.658 34.4682 67.2494 34.784C68.5196 35.4594 69.5376 36.6012 69.7121 37.9033C70.1581 37.675 70.6914 37.6215 71.3022 37.8596H71.3071Z" fill="#0C0C0C"/>
<path d="M119.145 28.8175C116.847 26.5922 113.575 25.8585 110.516 26.5533C112.527 29.4686 114.413 32.4761 116.192 35.5323C119.76 41.664 122.931 48.0241 125.932 54.4522C125.946 54.4813 125.956 54.5105 125.971 54.5396C126.489 52.9557 126.358 51.2406 125.495 49.7489C124.778 48.5099 123.682 47.5382 122.892 46.3478C121.166 43.7533 121.607 40.7408 121.893 37.8062C122.218 34.4391 121.666 31.2517 119.145 28.8126V28.8175Z" fill="#0C0C0C"/>
<path d="M96.0067 11.7148C91.3382 8.85785 86.1704 6.80747 80.7942 5.7677C67.3366 3.16828 50.8055 6.96295 44.227 20.1981C40.4118 27.8798 40.4263 36.4992 40.9644 44.8854C45.6571 39.497 51.8914 35.8092 58.6784 33.8269C58.7947 33.7443 58.9402 33.686 59.1147 33.6763C59.1438 33.6763 59.1729 33.6763 59.2019 33.6763C63.3032 32.5345 67.5935 32.0146 71.8693 32.1069C73.9151 32.1555 75.9464 32.3207 77.9582 32.5928C78.1424 32.5733 78.3315 32.5636 78.5206 32.5588C78.7533 32.5539 78.9278 32.6316 79.0587 32.7531C80.5809 32.9912 82.0886 33.2973 83.5865 33.6568C83.5575 33.5645 83.5332 33.4722 83.5332 33.3653C83.5332 32.7094 84.0616 32.1749 84.7355 32.1409C85.3269 32.1117 85.7972 32.5345 85.8165 33.1078C85.8311 33.5694 85.6614 33.9143 85.3463 34.1087C103.497 39.0549 119.494 52.5865 128.967 68.4405C129.117 68.698 129.268 68.9555 129.428 69.213C129.757 68.9118 130.087 68.6106 130.417 68.3093C130.475 68.1393 129.971 67.2064 129.84 66.9051C129.515 66.1617 129.176 65.4232 128.841 64.6847C128.177 63.2028 127.508 61.7257 126.834 60.2438C125.404 57.1051 123.954 53.9712 122.452 50.8665C119.722 45.2303 116.818 39.6719 113.59 34.3079C113.527 34.2302 113.473 34.1476 113.435 34.0552C113.216 33.6957 113.003 33.3361 112.785 32.9766C108.039 25.2755 102.512 17.9826 96.0018 11.7099L96.0067 11.7148ZM44.4161 31.5481C44.004 31.5919 43.6695 31.3489 43.6404 30.9797C43.6065 30.5375 43.9167 30.1683 44.3433 30.1537C44.7069 30.1391 45.0172 30.4355 45.0511 30.8242C45.0851 31.2129 44.8233 31.5044 44.4161 31.5481ZM69.3242 31.8348C69.0527 31.8688 68.7958 31.6453 68.7764 31.3684C68.7619 31.1497 68.9461 30.9651 69.2079 30.9505C69.4454 30.9408 69.6587 30.9942 69.7363 31.2566C69.8139 31.5141 69.6054 31.8008 69.3242 31.8348ZM70.5313 14.1733C70.2792 14.2316 70.0853 13.9595 70.1047 13.634C70.1193 13.3911 70.3132 13.2016 70.5265 13.221C70.8028 13.2501 71.0064 13.4979 70.9725 13.8818C70.8658 13.9547 70.7155 14.1247 70.5313 14.1685V14.1733ZM82.2776 32.0243C82.2291 32.3255 81.9092 32.5636 81.5795 32.5442C81.2741 32.5296 81.0414 32.2429 81.0317 31.8785C81.022 31.553 81.3129 31.276 81.6426 31.2906C82.0255 31.3101 82.3358 31.6696 82.2776 32.0243ZM94.0433 12.2201C93.9803 12.4533 93.8446 12.6282 93.5731 12.6282C93.3064 12.6282 93.1125 12.3318 93.161 12.0355C93.2095 11.7488 93.4907 11.5059 93.7185 11.5545C93.9512 11.603 94.1209 11.9286 94.0433 12.2201ZM120.028 52.5379C120.202 52.12 120.542 51.9257 120.968 51.8576C121.298 51.8091 121.598 52.0909 121.579 52.3338C121.555 52.8002 121.409 53.1209 121.109 53.359C120.871 53.5533 120.459 53.5631 120.217 53.393C119.979 53.2229 119.897 52.8391 120.028 52.5281V52.5379ZM116.513 39.5893C116.552 39.6088 116.586 39.6282 116.625 39.6476C116.586 39.7059 116.552 39.7691 116.508 39.8177C116.503 39.8274 116.44 39.7837 116.402 39.7643C116.44 39.7059 116.474 39.6476 116.513 39.5893ZM112.528 44.8319C112.756 44.5744 113.1 44.4724 113.362 44.6035C113.643 44.7445 113.701 44.9971 113.696 45.3907C113.648 45.5413 113.595 45.8037 113.483 46.0417C113.362 46.2992 112.964 46.4159 112.659 46.3333C112.417 46.2652 112.257 46.0174 112.252 45.7065C112.252 45.3858 112.295 45.0846 112.523 44.8319H112.528ZM110.23 44.1323C110.759 44.0982 111.127 44.5695 111.117 45.2643C111.113 45.9008 110.783 46.3138 110.298 46.309C109.658 46.2992 109.198 45.8279 109.198 45.1769C109.198 44.6133 109.639 44.1663 110.23 44.1323ZM108.078 38.3212C108.141 38.1803 108.277 38.0102 108.412 37.9811C108.524 37.9568 108.679 38.1074 108.936 38.2483C108.693 38.4232 108.577 38.5544 108.437 38.5982C108.257 38.6613 108.015 38.4621 108.083 38.3212H108.078ZM106.623 25.3144C106.972 25.2658 107.254 25.4844 107.278 25.8343C107.307 26.2132 107.103 26.4513 106.735 26.4659C106.405 26.4805 106.124 26.2084 106.124 25.878C106.124 25.601 106.342 25.3533 106.619 25.3144H106.623ZM99.5504 23.2203C99.6619 23.4486 99.5941 23.6964 99.4002 23.8276C99.1481 23.9977 98.8475 24.0948 98.513 24.2455C98.3288 24.09 98.1203 23.9831 98.0282 23.813C97.8634 23.5021 97.9555 23.162 98.1834 22.9482C98.6051 22.5595 99.2887 22.6907 99.5504 23.2203Z" fill="#0C0C0C"/>
<path d="M132.83 197.396C135.734 195.287 138.081 191.935 137.921 188.199C137.756 184.404 135.186 181.314 132.443 178.938C129.374 176.275 124.943 173.389 121.947 169.847C120.706 174.58 119.271 179.259 117.637 183.874C117.293 184.846 115.747 184.423 116.091 183.447C118.335 177.121 120.202 170.673 121.7 164.138C123.809 147.448 124.473 130.598 123.653 113.792C123.634 113.345 123.61 112.898 123.586 112.451C123.212 112.48 122.839 112.48 122.461 112.451C122.063 112.422 121.666 112.359 121.273 112.257C121.263 112.368 121.249 112.475 121.239 112.587C120.711 118.529 118.612 124.272 115.121 129.126C110.395 135.7 103.312 140.189 95.5506 141.885C92.0941 142.643 88.5018 142.847 84.9193 142.429C79.3055 141.778 74.0068 139.602 69.5177 136.307C69.9443 140.981 69.1541 145.767 67.0841 149.999C64.0736 156.17 58.5713 161.106 52.0704 163.322C48.8563 164.415 45.2737 164.668 42.4814 166.776C39.6405 168.924 38.9182 172.228 40.0526 175.537C42.2923 182.057 48.1533 186.775 53.5975 190.589C65.0189 198.587 78.5832 203.329 92.4286 204.645C99.2737 205.296 106.192 205.068 112.983 203.98C116.406 203.431 119.795 202.658 123.111 201.648C126.46 200.627 129.96 199.485 132.826 197.401L132.83 197.396ZM132.249 184.278C132.564 184.287 132.869 184.608 132.85 184.904C132.826 185.264 132.438 185.58 132.084 185.526C131.837 185.487 131.638 185.206 131.657 184.909C131.677 184.55 131.943 184.268 132.249 184.278ZM132.103 191.721C133.019 190.919 134.707 190.915 135.628 191.716C136.413 192.397 136.398 193.397 135.594 194.068C135.133 194.452 134.61 194.632 133.96 194.632C133.087 194.622 132.375 194.282 131.871 193.558C131.439 192.941 131.541 192.212 132.103 191.721ZM57.6551 189.821C57.3836 189.855 57.1267 189.632 57.1073 189.355C57.0927 189.136 57.277 188.952 57.5387 188.937C57.7763 188.923 57.9896 188.981 58.0672 189.243C58.1447 189.501 57.9363 189.787 57.6551 189.821ZM58.8622 172.16C58.6101 172.218 58.4162 171.946 58.4356 171.621C58.4501 171.378 58.644 171.188 58.8574 171.208C59.1337 171.237 59.3373 171.485 59.3034 171.868C59.1967 171.941 59.0464 172.111 58.8622 172.155V172.16ZM70.6085 190.011C70.56 190.312 70.2401 190.55 69.9104 190.531C69.605 190.516 69.3723 190.23 69.3626 189.865C69.3529 189.54 69.6438 189.263 69.9734 189.277C70.3564 189.297 70.6667 189.656 70.6085 190.011ZM72.9839 192.275C72.3198 192.275 71.8689 191.906 71.8689 191.357C71.8689 190.701 72.3973 190.166 73.0712 190.132C73.6626 190.103 74.1329 190.526 74.1523 191.099C74.1765 191.833 73.7353 192.27 72.9791 192.275H72.9839ZM82.379 170.207C82.316 170.44 82.1803 170.615 81.9088 170.615C81.6422 170.615 81.4434 170.318 81.4967 170.022C81.5452 169.735 81.8264 169.492 82.0542 169.541C82.2869 169.59 82.4566 169.915 82.379 170.207ZM85.3071 165.494C85.2296 165.44 85.0793 165.382 85.0259 165.28C84.7884 164.838 85.1035 164.196 85.5883 164.094C85.8598 164.041 86.1409 164.235 86.1943 164.512C86.2961 165.052 85.8986 165.518 85.3071 165.494ZM87.7262 181.814C87.4741 181.984 87.1735 182.081 86.839 182.232C86.6548 182.077 86.4464 181.97 86.3543 181.8C86.1894 181.489 86.2815 181.149 86.5094 180.935C86.9311 180.546 87.6147 180.677 87.8765 181.212C87.988 181.44 87.9201 181.688 87.7262 181.819V181.814ZM95.061 184.457C94.7313 184.472 94.4501 184.2 94.4501 183.869C94.4501 183.593 94.6683 183.345 94.9446 183.306C95.2937 183.257 95.5748 183.476 95.5991 183.826C95.6282 184.205 95.4245 184.443 95.0561 184.457H95.061ZM96.7577 196.59C96.5783 196.653 96.3359 196.454 96.4038 196.313C96.4668 196.172 96.6026 196.002 96.7383 195.973C96.8498 195.948 97.0049 196.099 97.2619 196.24C97.0195 196.415 96.9031 196.546 96.7625 196.59H96.7577ZM98.6241 204.3C97.9842 204.291 97.5237 203.819 97.5237 203.168C97.5237 202.605 97.9648 202.158 98.5562 202.124C99.0847 202.09 99.4531 202.561 99.4434 203.256C99.4385 203.892 99.1089 204.305 98.6241 204.3ZM101.814 204.033C101.693 204.291 101.295 204.407 100.99 204.325C100.747 204.257 100.587 204.009 100.583 203.698C100.583 203.377 100.626 203.076 100.854 202.823C101.082 202.566 101.426 202.464 101.688 202.595C101.969 202.736 102.027 202.989 102.022 203.382C101.974 203.533 101.921 203.795 101.809 204.033H101.814ZM102.619 192.698C102.153 192.678 101.698 192.178 101.707 191.702C101.717 191.264 102.153 190.881 102.619 190.905C103.094 190.929 103.477 191.415 103.443 191.954C103.423 192.314 102.977 192.712 102.614 192.698H102.619ZM104.601 193.402C104.495 193.354 104.369 193.227 104.354 193.116C104.34 193.023 104.471 192.912 104.563 192.761C104.689 192.878 104.815 192.946 104.858 193.048C104.936 193.232 104.757 193.47 104.601 193.402ZM104.834 197.809C104.834 197.809 104.766 197.775 104.728 197.756C104.766 197.697 104.805 197.639 104.839 197.581C104.878 197.6 104.912 197.62 104.951 197.639C104.912 197.697 104.878 197.761 104.834 197.809ZM107.336 153.993C106.817 153.998 106.468 153.595 106.468 152.987C106.468 152.497 106.817 152.088 107.273 152.054C107.85 152.006 108.262 152.356 108.281 152.9C108.3 153.546 107.922 153.983 107.341 153.993H107.336ZM108.761 174.788C108.485 174.735 108.286 174.478 108.31 174.201C108.334 173.899 108.659 173.72 109.042 173.788C109.285 173.831 109.449 174.035 109.425 174.269C109.386 174.618 109.086 174.852 108.766 174.793L108.761 174.788ZM114.215 183.301C113.938 183.418 113.657 183.214 113.638 182.927C113.618 182.708 113.832 182.436 114.035 182.49C114.215 182.533 114.365 182.708 114.598 182.878C114.428 183.073 114.346 183.248 114.215 183.306V183.301ZM120.565 201.856C120.454 202.231 120.042 202.498 119.63 202.444C119.552 202.435 119.455 202.376 119.412 202.308C119.213 202.022 119.223 201.691 119.412 201.434C119.552 201.239 119.814 201.137 119.94 201.05C120.41 201.079 120.672 201.497 120.565 201.852V201.856ZM121.826 195.846C121.128 195.924 120.682 195.574 120.604 194.889C120.594 194.797 120.594 194.709 120.59 194.617C120.59 193.83 120.914 193.368 121.501 193.325C122.088 193.286 122.514 193.679 122.679 194.413C122.698 194.5 122.713 194.593 122.723 194.68C122.766 195.297 122.393 195.778 121.831 195.841L121.826 195.846Z" fill="#0C0C0C"/>
<path d="M59.9385 116.391C60.8499 119.588 61.9989 122.815 63.4823 125.861C64.7427 128.446 66.2504 130.89 68.0538 133.071C68.1508 133.159 68.2526 133.246 68.3495 133.334C69.5372 134.378 70.8074 135.336 72.1502 136.191C73.1004 136.798 74.0748 137.342 75.0735 137.833C81.1526 140.821 88.0705 141.686 94.6636 140.423C97.5916 139.859 100.457 138.878 103.152 137.473C112.891 132.396 119.228 122.115 119.732 111.173C119.761 110.517 120.381 110.235 120.939 110.478C122.16 111.013 123.494 111.022 124.686 110.619C126.17 109.026 127.416 107.194 128.366 105.255C130.411 101.072 131.168 96.4997 131.425 91.8791C131.434 91.8693 131.444 91.8596 131.454 91.8548C131.439 91.0871 131.4 90.3194 131.303 89.5517C130.887 86.2575 128.235 82.181 124.453 84.1877C122.156 85.4024 120.192 86.7725 117.633 85.242C115.126 83.7407 114.346 80.8789 113.672 78.226C110.657 66.3464 99.395 60.7346 88.2935 58.3295C85.4963 57.7222 82.6555 57.3869 79.8583 56.799C77.764 56.3569 75.597 55.6038 74.196 53.8935C72.6011 51.9451 72.6544 49.3506 72.4362 46.9698C72.2714 45.1672 72.0242 43.3695 71.6703 41.596C71.6703 41.5912 71.6703 41.5863 71.6703 41.5815C71.5782 41.2365 71.5055 40.8867 71.4667 40.5417C71.4134 40.3522 71.3455 40.1724 71.2485 40.0267C70.4341 38.812 69.8475 39.9149 69.7312 40.7118C69.3579 43.2383 70.6038 46.1244 70.8316 48.6655C71.0498 51.0851 70.6813 53.568 69.0961 55.492C65.4505 59.9183 58.8138 59.1506 54.7707 62.989C51.1106 66.4679 50.015 71.9485 50.272 76.817C50.5628 82.3705 52.3323 87.7151 53.3164 93.1763C56.5208 100.508 57.757 108.753 59.9337 116.396L59.9385 116.391ZM123.513 88.3565C127.939 91.2717 127.217 96.8253 125.69 101.174C125.35 102.146 123.799 101.723 124.143 100.746C125.394 97.1848 126.46 92.224 122.703 89.7461C121.845 89.1776 122.65 87.788 123.513 88.3565ZM111.597 126.988C111.839 127.032 112.004 127.236 111.98 127.469C111.941 127.819 111.641 128.052 111.321 127.994C111.044 127.941 110.846 127.683 110.87 127.406C110.894 127.105 111.219 126.925 111.602 126.993L111.597 126.988ZM109.828 105.255C110.404 105.207 110.817 105.556 110.836 106.101C110.855 106.747 110.477 107.184 109.895 107.194C109.377 107.199 109.028 106.795 109.028 106.188C109.028 105.697 109.377 105.289 109.832 105.255H109.828ZM63.3853 107.111C63.3563 107.048 63.3272 106.985 63.2981 106.922C63.332 106.907 63.395 106.873 63.395 106.878C63.429 106.936 63.4581 106.999 63.4871 107.063C63.4532 107.077 63.4193 107.092 63.3853 107.106V107.111ZM66.614 89.8773C65.2469 89.4303 63.8701 89.2651 62.5321 89.3622C62.7454 89.508 62.9442 89.6829 63.1139 89.9016C64.1125 91.16 63.7683 93.0014 62.3867 93.8274C61.0875 94.6048 59.3907 94.1287 58.6248 92.8362C58.1982 92.122 58.1545 91.3155 58.3921 90.5915C57.2334 91.2329 56.1815 92.1074 55.2798 93.2104C54.6253 94.012 53.4958 92.8702 54.1454 92.0734C57.2868 88.2253 62.3285 86.7968 67.0358 88.3322C68.015 88.6529 67.5933 90.2028 66.6092 89.8821L66.614 89.8773ZM90.2811 135.025C90.029 135.195 89.7285 135.292 89.394 135.442C89.2097 135.287 89.0013 135.18 88.9092 135.01C88.7444 134.699 88.8365 134.359 89.0643 134.145C89.4861 133.756 90.1696 133.888 90.4314 134.422C90.5429 134.65 90.475 134.898 90.2811 135.029V135.025ZM90.7804 118.485C90.7804 118.485 90.7804 118.515 90.7707 118.529C88.5068 125.613 79.5432 127.712 74.4626 122.222C74.1184 121.853 74.1912 121.381 74.4966 121.085C74.6856 119.18 74.9571 117.14 76.5084 115.828C77.1338 115.303 77.9434 114.934 78.7675 114.919C79.422 114.909 79.9601 115.211 80.6485 114.817C80.9345 114.652 81.172 114.317 81.4484 114.122C84.934 111.644 88.531 114.856 90.7126 117.451C90.9937 117.786 90.984 118.199 90.7756 118.485H90.7804ZM97.6159 137.663C97.2862 137.677 97.0051 137.405 97.0051 137.075C97.0051 136.798 97.2232 136.55 97.4995 136.511C97.8486 136.463 98.1298 136.681 98.154 137.031C98.1831 137.41 97.9795 137.648 97.611 137.663H97.6159ZM99.9428 84.9894C98.0134 83.9739 95.9676 83.4832 93.9461 83.4783C94.872 84.557 94.9156 86.1458 94.0091 87.2827C93.0298 88.5071 91.2701 88.7306 89.9854 87.8415C88.9043 87.0932 88.5262 85.7085 88.8946 84.5132C87.0476 85.3101 85.3606 86.549 83.9838 88.2059C83.3196 89.0027 82.1901 87.856 82.8494 87.0689C87.2755 81.7583 94.6684 80.3979 100.757 83.5998C101.674 84.0808 100.859 85.4704 99.9477 84.9894H99.9428ZM87.387 75.1359C89.36 74.7763 91.3719 74.6451 93.3692 74.786C94.8769 74.8929 96.8839 74.9561 98.2025 75.7626C99.1187 76.3214 99.652 77.4778 98.9975 78.4495C98.3188 79.4601 96.9178 79.4018 95.8513 79.4067C91.1392 79.4407 86.4804 79.9266 81.8701 80.9129C81.4871 80.9955 81.1866 80.8206 81.0169 80.5631C80.823 80.4853 80.6679 80.3201 80.6242 80.0335C80.0473 76.5206 84.8515 75.5975 87.3821 75.1359H87.387ZM55.5997 81.5737C58.4018 79.8731 62.217 80.1938 65.2227 81.1218C68.175 82.0353 70.7637 84.0176 71.6994 87.0058C71.8351 87.1321 71.9369 87.3021 71.9612 87.5208C72.3441 90.5672 72.7271 93.6136 73.1101 96.6601C73.464 99.449 73.7936 102.277 74.7196 104.949C75.185 106.29 75.8152 107.835 76.8187 108.875C78.2343 110.342 79.136 108.958 80.2946 108.122C81.0266 107.597 81.7829 107.476 82.6603 107.592C83.2421 107.67 83.785 107.913 84.3571 108.015C84.7255 108.112 85.0988 108.132 85.4721 108.073C85.5739 106.873 85.1327 106.314 84.1389 106.402C83.1257 106.285 83.116 104.677 84.1389 104.794C85.5593 104.959 87.2027 105.401 87.6003 106.999C87.9154 108.258 87.0864 109.322 85.8987 109.623C85.2539 109.788 84.5704 109.706 83.9305 109.565C83.3826 109.443 82.733 109.123 82.1658 109.142C81.2641 109.171 81.0508 109.613 80.5273 110.109C79.5044 111.081 78.3651 111.533 76.9932 110.95C73.7888 109.589 72.7029 104.347 72.1648 101.349C71.3988 97.039 70.9819 92.6516 70.4486 88.303C70.3808 88.2204 70.3323 88.1135 70.3032 87.9872C69.9445 86.4567 69.0622 85.2129 67.889 84.2654C67.8308 84.2946 67.7678 84.3189 67.6902 84.3335C65.402 84.8242 63.1139 85.3149 60.8257 85.8056C59.1096 86.1749 57.1074 86.9523 55.3331 86.7774C54.1842 86.6608 53.3019 85.9223 53.2922 84.7173C53.2825 83.3374 54.5041 82.2248 55.5852 81.564L55.5997 81.5737Z" fill="#0C0C0C"/>
</g>
<defs>
<clipPath id="clip0_1845_48165">
<rect width="108" height="200" fill="white" transform="translate(36 5)"/>
</clipPath>
</defs>
</svg>
