<svg width="180" height="210" viewBox="0 0 180 210" fill="none" xmlns="http://www.w3.org/2000/svg">
<g clip-path="url(#clip0_1845_48198)">
<path d="M96.1442 39.7771C95.8085 34.6171 93.3335 27.1674 86.8761 27.4577C84.6907 27.5567 83.1504 28.7048 82.0577 30.3215C81.4982 30.8691 80.998 31.4894 80.5767 32.1888C79.2536 34.3597 78.9574 36.8738 78.9837 39.3746C78.9442 39.3944 78.9113 39.4142 78.8718 39.4274C78.8587 40.7405 78.8323 42.047 78.8389 43.3469C78.8455 46.534 78.8521 49.7211 78.8587 52.9148C78.8718 59.8696 78.8916 66.8311 78.9113 73.7859L79.0101 114.657C79.0627 137.587 79.1154 160.517 79.1746 183.447C85.0462 183.414 90.9111 183.381 96.7827 183.348C96.7497 173.786 96.7103 164.225 96.6773 154.671C96.5786 128.877 96.4864 103.083 96.3877 77.2897C96.3614 70.9155 96.3416 64.5414 96.3153 58.1606C96.2956 52.0504 96.5457 45.8676 96.1507 39.7705L96.1442 39.7771Z" fill="#0C0C0C"/>
<path d="M116.339 43.4062C116.365 46.745 116.392 50.0773 116.418 53.4161L116.582 73.4294C116.694 87.0619 116.8 100.694 116.912 114.327C117.096 137.296 117.28 160.272 117.471 183.242C121.21 183.42 124.955 183.565 128.688 183.638C129.082 183.644 129.471 183.651 129.866 183.658C130.044 174.921 130.215 166.191 130.392 157.455C130.899 132.169 131.63 106.877 131.847 81.5852C131.952 68.9688 131.768 56.3393 130.642 43.7691C130.373 40.7206 130.155 37.6193 129.616 34.6037C129.194 32.2745 128.345 29.3051 125.725 28.6321C123.257 27.9986 120.822 29.668 119.492 31.7004C117.228 34.5312 116.622 38.2857 116.675 42.0535C116.563 42.0733 116.451 42.0799 116.339 42.0667C116.339 42.5154 116.339 42.9641 116.339 43.4128V43.4062Z" fill="#0C0C0C"/>
<path d="M41.7186 157.712C42.2584 135.897 42.8047 114.076 43.3445 92.2614L44.1673 59.0973C44.299 53.7063 44.582 48.2955 44.5491 42.9045C44.5425 41.829 44.424 40.5422 44.1541 39.2489C44.141 39.2027 44.1278 39.15 44.1212 39.0972C43.2984 35.3228 41.1855 31.5485 36.8147 32.789C36.4724 32.888 36.1828 32.822 35.959 32.6768C34.7939 33.8118 33.5762 34.9137 32.3321 35.9893C32.3584 36.0882 32.3716 36.1938 32.3716 36.3126C31.9964 47.893 31.6146 59.4734 31.2394 71.0472C30.0151 108.606 28.7907 146.171 27.5664 183.73C32.0688 183.704 36.5778 183.677 41.0801 183.657L41.7252 157.712H41.7186Z" fill="#0C0C0C"/>
<path d="M23.4409 148.567C23.3751 159.593 23.3158 170.612 23.25 181.638C23.25 182.186 23.4936 182.622 23.8622 182.899C24.0926 183.387 24.5599 183.75 25.2642 183.75C25.3037 183.75 25.3432 183.75 25.3827 183.75C25.6526 175.423 25.9291 167.089 26.1989 158.761C27.5154 118.444 28.8253 78.1275 30.1418 37.8171C28.1737 39.4008 26.1331 40.892 24.0465 42.2843C23.8424 77.7118 23.6449 113.139 23.4409 148.567Z" fill="#0C0C0C"/>
<path d="M158.413 182.641C158.749 182.516 158.999 182.292 159.157 182.008C159.526 181.731 159.769 181.315 159.743 180.781C157.992 143.09 156.721 105.379 155.938 67.6555C155.793 60.6743 155.675 53.6865 155.563 46.6986C152.746 44.9632 150.165 42.8649 147.789 40.5488C149.843 46.9494 149.132 54.5179 149.145 60.9514C149.224 101.697 149.303 142.443 149.389 183.189C150.086 183.143 150.791 183.097 151.488 183.044C153.45 183.031 155.418 183.024 157.38 183.011C157.814 183.011 158.156 182.866 158.413 182.641Z" fill="#0C0C0C"/>
<path d="M144.545 38.3386L144.374 38.233C143.748 37.065 142.906 36.0753 141.754 35.3758C138.917 33.6668 135.889 35.4946 134.526 38.1736C133.295 40.5887 133.295 43.4392 133.243 46.0852C133.243 46.2832 133.19 46.4547 133.111 46.5999C133.256 48.8104 133.368 51.0143 133.486 53.1984C133.868 60.0675 134.013 66.9497 134.039 73.832C134.085 87.9462 133.677 102.06 133.394 116.168C132.94 138.669 132.492 161.17 132.038 183.671C137.08 183.71 142.122 183.605 147.151 183.321C147.171 183.321 147.191 183.321 147.211 183.321L147.151 153.714C147.112 133.1 147.072 112.486 147.026 91.8657C147.007 81.5588 146.987 71.252 146.967 60.9451C146.954 53.9045 148.053 44.8975 144.545 38.332V38.3386Z" fill="#0C0C0C"/>
<path d="M76.9909 182.477C76.8461 182.622 76.642 182.708 76.4182 182.708C75.885 182.708 75.4967 182.318 75.5164 181.804C75.5296 181.408 75.9377 181.104 76.4182 181.131C76.6552 181.144 76.8526 181.23 76.9975 181.368C76.9975 180.167 76.9975 178.966 76.9909 177.765C76.6618 177.726 76.3458 177.462 76.2997 177.152C76.2339 176.749 76.5433 176.34 76.9909 176.188C76.9777 169.299 76.958 162.417 76.9448 155.528C76.8856 130.744 76.8263 105.96 76.7671 81.1763C76.7407 68.8569 76.7078 56.5374 76.6815 44.218C76.6683 39.1372 77.9782 31.2981 73.6931 27.537C71.093 25.2539 67.8215 26.1975 65.9126 28.8171C64.2407 31.1134 63.905 34.1619 63.5824 36.9003C63.5627 37.0784 63.5035 37.2302 63.4245 37.3687C63.5035 39.5133 63.3718 41.6776 63.3257 43.8023L63.1151 53.3965C62.9769 59.7905 62.8386 66.1845 62.6938 72.5784C62.4042 85.947 62.108 99.3222 61.8184 112.691C61.3049 136.314 60.7849 159.936 60.2715 183.559C65.8468 183.526 71.4287 183.5 77.004 183.467C77.004 183.137 77.004 182.807 77.004 182.483L76.9909 182.477ZM61.1864 178.465C60.8573 178.59 60.5677 178.267 60.515 177.831C60.4755 177.488 60.673 177.205 60.9692 177.191C61.3707 177.172 61.634 177.416 61.6735 177.996C61.5682 178.109 61.4168 178.386 61.193 178.465H61.1864ZM61.9566 183.249C61.6933 183.315 61.4958 183.13 61.4827 182.879C61.4827 182.754 61.6472 182.615 61.8249 182.365C62.0092 182.582 62.187 182.721 62.2462 182.899C62.2725 182.985 62.0882 183.222 61.9632 183.249H61.9566ZM61.8249 172.77C61.3971 172.81 60.9956 172.48 60.9495 172.044C60.8902 171.418 61.2588 170.923 61.8184 170.883C62.2989 170.85 62.7333 171.292 62.7267 171.8C62.7202 172.315 62.3449 172.718 61.8249 172.77ZM66.8342 87.4317C66.9132 87.4977 66.9922 87.5637 67.0711 87.6297C66.979 87.7352 66.8868 87.8408 66.7947 87.9464C66.742 87.854 66.6433 87.755 66.6433 87.6692C66.6433 87.5901 66.7683 87.5109 66.8342 87.4317ZM65.6888 168.145C65.6757 168.039 65.6493 167.934 65.6493 167.828C65.6493 167.815 65.7547 167.802 65.8073 167.788C65.8205 167.894 65.8468 168 65.8468 168.105C65.8468 168.118 65.7415 168.132 65.6888 168.145ZM66.8605 161.216C65.8271 161.348 64.8463 160.596 64.7475 159.6C64.6554 158.656 65.2676 157.719 66.0377 157.627C67.0448 157.508 68.256 158.405 68.3481 159.336C68.4205 160.088 67.6043 161.117 66.8605 161.21V161.216ZM68.9011 146.713C68.3547 146.713 67.94 146.297 67.9795 145.796C68.019 145.34 68.3876 145.037 68.8616 145.063C69.4211 145.096 69.8226 145.485 69.8094 145.98C69.7963 146.37 69.3684 146.719 68.9011 146.719V146.713ZM72.1133 142.318C71.5669 142.153 71.2444 141.599 71.3497 141.012C71.4485 140.431 71.9224 140.075 72.7123 139.995C73.4364 139.923 74.0419 140.233 74.1868 140.807C74.2394 141.025 74.2197 141.302 74.1275 141.513C73.8511 142.147 73.3639 142.417 72.5872 142.404C72.4753 142.384 72.291 142.371 72.1199 142.318H72.1133ZM74.5883 162.147C74.5422 162.345 74.3382 162.496 74.2526 162.609C73.7523 162.609 73.41 162.318 73.3705 161.962C73.3376 161.678 73.6141 161.441 73.9761 161.447C74.3974 161.454 74.6936 161.751 74.5949 162.14L74.5883 162.147Z" fill="#0C0C0C"/>
<path d="M59.5454 116.326C59.789 105.267 60.026 94.2081 60.2695 83.1556C60.0523 83.0764 59.9272 82.9115 59.9733 82.7333C60.0128 82.5882 60.1444 82.4298 60.2827 82.3374C60.3024 81.4136 60.3222 80.4898 60.3419 79.566C60.4538 74.3598 60.5723 69.1536 60.6842 63.9473C60.5591 63.9275 60.4407 63.8946 60.3485 63.8286C59.9404 63.558 59.8416 62.9642 60.1181 62.4957C60.2366 62.2911 60.4867 62.1657 60.7303 62.0008C60.8619 55.9367 60.9936 49.8793 61.1252 43.8153C61.2305 39.0775 62.4483 29.9782 56.274 28.3351C55.2471 28.058 54.319 28.058 53.4764 28.2626C53.3316 28.6453 52.963 28.8894 52.4562 28.9092C52.2982 28.9092 52.1534 28.896 52.0217 28.8564C48.928 30.6776 47.2889 35.4813 46.3937 38.741C46.7097 40.483 46.7426 42.2844 46.7163 44.0528C46.6702 47.3323 46.5583 50.6117 46.4793 53.8912C45.4064 97.1511 44.3268 140.411 43.2539 183.677C48.1973 183.651 53.1407 183.625 58.0776 183.592C58.3079 173.047 58.5383 162.503 58.7687 151.952C59.0188 140.404 59.2756 128.857 59.5257 117.31C59.394 117.211 59.2756 117.065 59.2295 116.927C59.1505 116.683 59.3216 116.406 59.5454 116.34V116.326ZM57.5312 93.6209C57.5773 94.3203 57.1889 94.7756 56.478 94.868C55.958 94.934 55.6157 94.5909 55.5762 93.9574C55.5367 93.3437 55.9054 92.9874 56.6097 92.9544C57.156 92.928 57.5049 93.1788 57.5312 93.6209ZM56.2411 111.041C56.1884 111.18 56.0567 111.292 55.9054 111.483C55.7869 111.259 55.7145 111.12 55.6355 110.982C55.7737 110.916 55.9054 110.817 56.0567 110.79C56.1094 110.784 56.2674 110.982 56.2411 111.041ZM54.9312 81.0045C55.6223 80.6548 56.3398 80.635 56.9783 81.1299C57.1297 81.2487 57.2218 81.5456 57.2087 81.7435C57.1823 82.0141 56.9125 82.0933 56.6558 82.0999C55.9712 82.0999 55.3853 81.7897 54.7205 81.5918C54.8193 81.3146 54.8258 81.0639 54.9377 81.0111L54.9312 81.0045ZM53.6542 59.2096C53.8911 59.6847 53.4172 60.1928 52.8643 60.1334C52.3574 60.0806 51.9296 59.6913 51.8901 59.17C51.8637 58.8665 51.9164 58.5564 51.9691 58.2594C52.1139 57.4742 52.2784 56.6956 52.4364 55.9037C52.884 55.6992 53.2592 55.9037 53.2 56.3261C53.0552 57.3488 53.2 58.2792 53.6476 59.203L53.6542 59.2096ZM51.8242 44.6467C51.9427 44.3233 52.2258 44.132 52.5286 44.2574C52.7589 44.3563 52.9038 44.6467 53.1276 44.8974C52.8643 45.2603 52.6865 45.5573 52.443 45.8014C52.3903 45.8542 52.0875 45.7618 51.9822 45.6562C51.6926 45.3725 51.6926 45.003 51.8177 44.6401L51.8242 44.6467ZM50.33 90.4734C50.6591 90.3612 50.9554 90.4536 51.1726 90.6977C51.607 91.1992 51.6794 91.7931 51.5609 92.6839C51.0212 92.4463 50.646 92.3474 50.3695 92.1362C50.1457 91.9646 49.9943 91.6545 49.8824 91.3774C49.7442 91.0277 49.9943 90.5922 50.33 90.4734ZM46.8545 97.0851C46.9137 96.9993 47.0454 96.9201 47.1441 96.9267C47.2231 96.9267 47.2955 97.0653 47.3745 97.1379C47.3021 97.2171 47.2429 97.3358 47.1507 97.3688C46.9401 97.448 46.7426 97.2435 46.8545 97.0851ZM46.1436 106.811C46.1897 106.745 46.3411 106.699 46.4135 106.726C46.4727 106.752 46.4793 106.897 46.5122 106.989C46.4135 107.016 46.3016 107.082 46.216 107.062C46.1699 107.049 46.1107 106.857 46.1436 106.811ZM47.2824 170.164C46.9335 169.939 46.6044 169.675 46.3082 169.385C46.2094 169.286 46.1699 169.016 46.2357 168.897C46.3345 168.705 46.5451 168.58 46.6373 168.494C47.4864 168.435 47.9933 168.91 48.0393 169.689C48.0591 170.051 47.5917 170.368 47.2824 170.17V170.164ZM50.4419 172.757C50.3498 172.717 50.0799 172.671 49.9285 172.513C49.3756 171.952 49.4085 171.12 49.9614 170.56C50.2379 170.282 50.7052 170.302 50.8961 170.639C51.1002 171.002 51.2779 171.391 51.3832 171.794C51.5215 172.328 51.1397 172.75 50.4419 172.75V172.757ZM51.686 149.985C51.4227 150.038 51.245 149.82 51.2713 149.563C51.2845 149.425 51.4622 149.2 51.5675 149.2C51.7518 149.2 51.9361 149.339 52.2982 149.497C51.9954 149.748 51.8572 149.952 51.686 149.985ZM52.8116 127.59C52.364 127.61 51.9691 127.227 52.002 126.805C52.0349 126.369 52.4101 126.039 52.8774 126.053C53.3185 126.066 53.7661 126.475 53.7331 126.838C53.7002 127.207 53.2592 127.57 52.8182 127.59H52.8116ZM55.2142 116.227C54.997 116.643 54.1544 116.894 53.7529 116.663C53.279 116.392 53.042 115.66 53.2921 115.211C53.3185 115.158 53.3645 115.112 53.404 115.073C53.7002 114.809 54.2268 114.776 54.6086 115C55.0101 115.231 55.2734 115.66 55.2471 116.043C55.2339 116.102 55.2339 116.168 55.2076 116.221L55.2142 116.227ZM56.2937 171.912C55.8132 171.833 55.438 171.252 55.4775 170.652C55.5104 170.111 56.0831 169.675 56.636 169.768C57.1231 169.854 57.5444 170.355 57.4983 170.791C57.4325 171.431 56.8269 171.998 56.3003 171.912H56.2937ZM58.196 135.099C57.8077 135.574 57.1758 135.686 56.6952 135.462C56.1687 135.211 56.0831 134.723 56.116 134.215C56.1357 133.911 56.1884 133.601 56.2937 133.324C56.5109 132.757 57.1758 132.493 57.8406 132.664C58.3672 132.803 58.6766 133.278 58.6568 134.208C58.5778 134.373 58.4462 134.789 58.1895 135.099H58.196Z" fill="#0C0C0C"/>
<path d="M98.7832 137.574C98.8425 152.829 98.8951 168.079 98.9544 183.334C104.398 183.301 109.848 183.275 115.292 183.242C115.213 173.753 115.141 164.271 115.062 154.783C114.963 142.648 114.864 130.507 114.765 118.372C114.588 118.438 114.397 118.484 114.226 118.484C113.653 118.491 113.146 117.93 113.172 117.409C113.205 116.808 113.811 116.214 114.384 116.227C114.509 116.227 114.653 116.214 114.746 116.274C114.647 104.311 114.555 92.3474 114.456 80.3843C114.357 67.9131 114.252 55.4419 114.153 42.9641C114.114 38.2132 114.785 29.5493 108.591 28.1504C106.643 27.7083 104.78 28.52 103.319 29.8001C100.133 31.5223 99.0531 36.4382 98.7767 41.1033C98.6911 41.2221 98.5858 41.3145 98.4673 41.3739C98.5594 44.0991 98.4409 46.8506 98.4475 49.457C98.4739 56.7022 98.5002 63.9474 98.5265 71.1926C98.5792 85.1022 98.6318 99.0119 98.6845 112.922C98.6845 113.232 98.6845 113.535 98.6845 113.845C98.724 113.812 98.7569 113.773 98.7964 113.733C99.0531 114.037 99.2967 114.221 99.3954 114.466C99.5007 114.71 99.1058 114.987 98.7832 114.934C98.7503 114.934 98.7174 114.921 98.6845 114.908C98.7108 122.272 98.7372 129.629 98.7635 136.993C98.8096 136.967 98.8491 136.94 98.8886 136.934C98.9873 136.914 99.1255 137.112 99.3033 137.27C99.1189 137.428 98.9807 137.62 98.8688 137.607C98.8359 137.607 98.7964 137.58 98.7569 137.56L98.7832 137.574ZM105.978 147.782C105.886 147.782 105.708 147.65 105.715 147.617C105.767 147.432 105.859 147.254 105.984 146.983C106.195 147.181 106.386 147.273 106.406 147.392C106.445 147.669 106.235 147.795 105.978 147.782ZM108.9 150.652C108.44 150.771 108.045 150.593 107.808 150.17C107.544 149.695 107.558 149.22 107.841 148.765C108.157 148.257 108.604 147.966 109.23 148.019C109.703 148.059 110.006 148.488 109.973 149.121C109.934 150.012 109.611 150.461 108.894 150.652H108.9ZM108.124 113.245C108.209 113.054 108.38 112.882 108.565 112.776C108.617 112.743 108.808 112.955 108.9 113.021C108.9 113.449 108.624 113.753 108.367 113.641C108.249 113.588 108.091 113.331 108.13 113.252L108.124 113.245ZM109.934 158.135C109.835 157.917 109.697 157.745 109.736 157.653C109.782 157.547 109.987 157.495 110.131 157.475C110.177 157.475 110.316 157.673 110.289 157.726C110.224 157.857 110.098 157.956 109.934 158.135ZM111.599 178.993C111.119 178.933 110.632 178.478 110.579 178.042C110.539 177.686 111.013 177.178 111.395 177.165C111.922 177.152 112.508 177.719 112.481 178.22C112.462 178.643 112.001 179.039 111.593 178.993H111.599ZM113.581 140.299C113.771 140.338 113.936 140.503 114.193 140.668C113.956 140.866 113.837 141.038 113.699 141.064C113.409 141.117 113.232 140.926 113.271 140.649C113.291 140.51 113.502 140.272 113.581 140.292V140.299ZM111.83 168.606C112.264 168.197 113.212 168.211 113.706 168.626C114.18 169.035 114.259 169.695 113.903 170.289C113.488 170.982 112.929 171.358 112.146 171.371C111.968 171.239 111.599 171.088 111.435 170.81C111.053 170.151 111.283 169.115 111.83 168.6V168.606ZM110.467 115.766C110.717 115.99 110.862 116.333 110.974 116.505C110.948 117.488 110.408 118.108 109.644 118.174C109.302 118.207 108.887 117.917 108.802 117.593C108.617 116.881 108.848 116.208 109.447 115.832C109.769 115.627 110.151 115.488 110.467 115.772V115.766ZM107.933 39.7176C108.005 39.4669 108.269 39.2755 108.387 39.1304C108.973 39.1304 109.361 39.5395 109.328 39.9684C109.309 40.2653 109.012 40.5359 108.703 40.5359C108.236 40.5359 107.808 40.1267 107.926 39.7176H107.933ZM108.203 74.6304C108.203 74.6304 108.394 74.8349 108.367 74.8679C108.288 74.9933 108.157 75.0857 108.038 75.1979C107.939 75.0593 107.814 74.9009 107.828 74.8877C107.933 74.7822 108.064 74.6898 108.196 74.6238L108.203 74.6304ZM108.427 91.5292C109.137 91.516 109.677 91.9383 109.776 92.552C109.881 93.2184 109.407 93.9442 108.736 94.1092C108.558 94.1554 108.367 94.1554 108.222 94.1686C108.058 94.1554 107.933 94.1554 107.808 94.1422C107.176 94.0498 106.676 93.6407 106.597 93.1524C106.504 92.5982 106.919 91.8921 107.518 91.6876C107.801 91.5886 108.124 91.5424 108.427 91.5358V91.5292ZM105.102 47.2531C105.524 46.9826 105.971 46.8044 106.491 46.877C106.913 46.9364 107.321 47.2861 107.406 47.682C107.485 48.045 107.261 48.5992 106.88 48.7708C106.498 48.9424 106.077 49.0215 105.879 49.0809C105.162 49.0545 104.76 48.7774 104.668 48.3881C104.563 47.9592 104.734 47.4973 105.102 47.2597V47.2531ZM104.964 119.349C105.596 119.355 106.083 119.87 106.09 120.523C106.09 121.13 105.629 121.579 105.056 121.526C104.497 121.473 104.168 121.044 104.161 120.365C104.161 119.777 104.497 119.342 104.964 119.349ZM104.319 179.276C104.576 178.973 104.925 178.894 105.306 178.973C105.708 179.052 105.938 179.322 106.024 179.705C106.077 179.936 106.136 180.22 106.057 180.418C105.958 180.669 105.754 180.979 105.517 181.064C104.938 181.276 104.339 181.21 103.76 180.992C103.654 180.286 103.918 179.751 104.319 179.276ZM103.457 121.981C103.529 122.047 103.595 122.113 103.667 122.179C103.588 122.232 103.509 122.298 103.424 122.338C103.404 122.344 103.299 122.252 103.305 122.239C103.345 122.146 103.404 122.067 103.457 121.981ZM102.292 174.195C102.423 174.261 102.535 174.36 102.713 174.499C102.548 174.651 102.436 174.75 102.331 174.849C102.252 174.71 102.147 174.585 102.114 174.44C102.101 174.374 102.272 174.189 102.292 174.202V174.195ZM100.718 120.695C101.146 120.695 101.508 121.058 101.535 121.526C101.561 121.955 101.179 122.371 100.751 122.384C100.33 122.397 99.922 121.988 99.9286 121.559C99.9352 121.11 100.31 120.695 100.712 120.688L100.718 120.695ZM99.7706 156.782C99.9681 156.822 100.133 157.013 100.245 157.092C100.264 157.534 100.001 157.818 99.685 157.811C99.4086 157.798 99.2374 157.64 99.2177 157.363C99.1979 157.052 99.481 156.723 99.7706 156.782Z" fill="#0C0C0C"/>
</g>
<defs>
<clipPath id="clip0_1845_48198">
<rect width="136.5" height="157.5" fill="white" transform="translate(23.25 26.25)"/>
</clipPath>
</defs>
</svg>
