<svg width="64" height="76" viewBox="0 0 64 76" fill="none" xmlns="http://www.w3.org/2000/svg">
<g clip-path="url(#clip0_1854_88287)">
<path d="M34.1846 14.8097C34.0652 12.975 33.1852 10.3262 30.8893 10.4294C30.1123 10.4646 29.5646 10.8729 29.1761 11.4477C28.9771 11.6424 28.7993 11.8629 28.6495 12.1116C28.1791 12.8835 28.0737 13.7774 28.0831 14.6666C28.0691 14.6736 28.0574 14.6806 28.0433 14.6853C28.0386 15.1522 28.0293 15.6168 28.0316 16.0789C28.034 17.2121 28.0363 18.3453 28.0386 19.4808C28.0433 21.9537 28.0503 24.4289 28.0574 26.9017L28.0925 41.4337C28.1112 49.5865 28.1299 57.7393 28.151 65.8922C30.2386 65.8804 32.324 65.8687 34.4116 65.857C34.3999 62.4574 34.3859 59.0579 34.3742 55.6607C34.3391 46.4896 34.3063 37.3185 34.2712 28.1475C34.2618 25.8811 34.2548 23.6147 34.2454 21.346C34.2384 19.1735 34.3274 16.9752 34.1869 14.8073L34.1846 14.8097Z" fill="#0C0C0C"/>
<path d="M41.3652 16.1C41.3746 17.2872 41.384 18.472 41.3933 19.6591L41.4518 26.775C41.4916 31.6221 41.5291 36.4692 41.5688 41.3163C41.6344 49.4832 41.6999 57.6525 41.7678 65.8194C43.0971 65.8828 44.4288 65.9344 45.7559 65.9602C45.8963 65.9625 46.0344 65.9649 46.1748 65.9672C46.238 62.8609 46.2988 59.757 46.362 56.6507C46.5422 47.6603 46.802 38.6675 46.8793 29.6748C46.9167 25.189 46.8512 20.6985 46.451 16.2291C46.355 15.1451 46.2778 14.0425 46.0859 12.9703C45.9361 12.1421 45.6342 11.0863 44.7027 10.847C43.825 10.6218 42.9591 11.2154 42.4863 11.938C41.6812 12.9445 41.4659 14.2794 41.4846 15.6191C41.4448 15.6261 41.405 15.6285 41.3652 15.6238C41.3652 15.7833 41.3652 15.9428 41.3652 16.1024V16.1Z" fill="#0C0C0C"/>
<path d="M14.8337 56.7422C15.0256 48.9858 15.2198 41.2272 15.4117 33.4708L15.7043 21.6791C15.7511 19.7623 15.8517 17.8385 15.84 15.9217C15.8377 15.5393 15.7956 15.0818 15.6996 14.6219C15.6949 14.6055 15.6903 14.5867 15.6879 14.568C15.3954 13.226 14.6441 11.884 13.0901 12.3251C12.9683 12.3603 12.8654 12.3368 12.7858 12.2852C12.3715 12.6887 11.9386 13.0805 11.4962 13.4629C11.5056 13.4981 11.5103 13.5357 11.5103 13.5779C11.3769 17.6954 11.2411 21.8129 11.1077 25.928C10.6724 39.2822 10.2371 52.6388 9.80176 65.993C11.4026 65.9836 13.0058 65.9742 14.6066 65.9672L14.836 56.7422H14.8337Z" fill="#0C0C0C"/>
<path d="M8.33447 53.4904C8.31107 57.4108 8.29001 61.3288 8.2666 65.2492C8.2666 65.444 8.3532 65.5988 8.48426 65.6974C8.56618 65.871 8.73235 66 8.98277 66C8.99681 66 9.01086 66 9.0249 66C9.12086 63.0392 9.21915 60.076 9.31511 57.1152C9.7832 42.7803 10.2489 28.4454 10.717 14.1128C10.0172 14.6759 9.29171 15.2061 8.54979 15.7011C8.47724 28.2976 8.40703 40.894 8.33447 53.4904Z" fill="#0C0C0C"/>
<path d="M56.3243 65.6057C56.4437 65.5612 56.5326 65.4814 56.5888 65.3805C56.7198 65.282 56.8064 65.1342 56.7971 64.9441C56.1745 51.543 55.7228 38.1348 55.4443 24.7219C55.3928 22.2397 55.3507 19.7551 55.3109 17.2706C54.3092 16.6536 53.3918 15.9075 52.5469 15.084C53.2771 17.3597 53.0243 20.0508 53.029 22.3382C53.0571 36.8257 53.0852 51.3131 53.1156 65.8005C53.3637 65.7841 53.6141 65.7676 53.8622 65.7489C54.5596 65.7442 55.2594 65.7418 55.9569 65.7371C56.1113 65.7371 56.233 65.6855 56.3243 65.6057Z" fill="#0C0C0C"/>
<path d="M51.3941 14.2982L51.3332 14.2606C51.1109 13.8454 50.8113 13.4935 50.4017 13.2448C49.393 12.6371 48.3164 13.287 47.8319 14.2395C47.3943 15.0982 47.3943 16.1117 47.3756 17.0525C47.3756 17.1229 47.3568 17.1839 47.3288 17.2355C47.3802 18.0215 47.42 18.8051 47.4622 19.5817C47.5979 22.024 47.6494 24.471 47.6588 26.9181C47.6751 31.9365 47.53 36.9548 47.4294 41.9709C47.2679 49.9712 47.1088 57.9716 46.9473 65.9719C48.74 65.986 50.5328 65.9484 52.3209 65.8475C52.3279 65.8475 52.3349 65.8475 52.3419 65.8475L52.3209 55.3204C52.3068 47.9911 52.2928 40.6617 52.2764 33.3301C52.2694 29.6654 52.2624 26.0007 52.2553 22.3361C52.2507 19.8327 52.6415 16.6302 51.3941 14.2958V14.2982Z" fill="#0C0C0C"/>
<path d="M27.3744 65.5475C27.3229 65.5991 27.2503 65.6296 27.1707 65.6296C26.9812 65.6296 26.8431 65.4911 26.8501 65.3082C26.8548 65.1674 26.9999 65.0595 27.1707 65.0688C27.255 65.0735 27.3252 65.104 27.3767 65.1533C27.3767 64.7263 27.3767 64.2993 27.3744 63.8723C27.2573 63.8582 27.145 63.7644 27.1286 63.6541C27.1052 63.511 27.2152 63.3655 27.3744 63.3116C27.3697 60.8622 27.3627 58.4152 27.358 55.9658C27.3369 47.1537 27.3158 38.3416 27.2948 29.5295C27.2854 25.1493 27.2737 20.769 27.2644 16.3888C27.2597 14.5823 27.7254 11.7951 26.2018 10.4578C25.2773 9.64599 24.1142 9.98149 23.4354 10.9129C22.841 11.7294 22.7216 12.8133 22.6069 13.7869C22.5999 13.8503 22.5788 13.9042 22.5507 13.9535C22.5788 14.716 22.532 15.4855 22.5156 16.241L22.4407 19.6523C22.3916 21.9257 22.3425 24.1991 22.291 26.4725C22.188 31.2258 22.0827 35.9814 21.9797 40.7347C21.7971 49.1339 21.6122 57.533 21.4297 65.9322C23.412 65.9205 25.3967 65.9111 27.379 65.8994C27.379 65.7821 27.379 65.6648 27.379 65.5498L27.3744 65.5475ZM21.755 64.121C21.638 64.1656 21.535 64.0506 21.5163 63.8958C21.5022 63.7738 21.5725 63.6729 21.6778 63.6682C21.8205 63.6612 21.9142 63.748 21.9282 63.9544C21.8908 63.9943 21.8369 64.0928 21.7573 64.121H21.755ZM22.0288 65.8219C21.9352 65.8454 21.865 65.7797 21.8603 65.6906C21.8603 65.646 21.9188 65.5967 21.982 65.5076C22.0476 65.585 22.1108 65.6343 22.1318 65.6976C22.1412 65.7281 22.0756 65.8126 22.0312 65.8219H22.0288ZM21.982 62.0963C21.8299 62.1104 21.6871 61.9931 21.6708 61.8382C21.6497 61.6153 21.7808 61.4394 21.9797 61.4253C22.1505 61.4136 22.305 61.5707 22.3027 61.7514C22.3003 61.9344 22.1669 62.0775 21.982 62.0963ZM23.7631 31.7537C23.7912 31.7771 23.8193 31.8006 23.8473 31.824C23.8146 31.8616 23.7818 31.8991 23.749 31.9367C23.7303 31.9038 23.6952 31.8686 23.6952 31.8381C23.6952 31.81 23.7397 31.7818 23.7631 31.7537ZM23.3559 60.4516C23.3512 60.4141 23.3418 60.3766 23.3418 60.339C23.3418 60.3343 23.3793 60.3296 23.398 60.3249C23.4027 60.3625 23.412 60.4 23.412 60.4376C23.412 60.4423 23.3746 60.4469 23.3559 60.4516ZM23.7724 57.9882C23.405 58.0351 23.0563 57.7677 23.0212 57.4134C22.9884 57.0779 23.2061 56.7447 23.4799 56.7119C23.838 56.6697 24.2686 56.9887 24.3014 57.3195C24.3271 57.587 24.0369 57.953 23.7724 57.9858V57.9882ZM24.498 52.8314C24.3037 52.8314 24.1563 52.6836 24.1703 52.5053C24.1844 52.3434 24.3154 52.2355 24.4839 52.2448C24.6829 52.2566 24.8256 52.395 24.821 52.571C24.8163 52.7094 24.6642 52.8337 24.498 52.8337V52.8314ZM25.6401 51.2688C25.4459 51.2102 25.3312 51.0131 25.3686 50.8043C25.4037 50.5979 25.5722 50.4712 25.8531 50.443C26.1105 50.4172 26.3259 50.5275 26.3773 50.7316C26.3961 50.809 26.389 50.9075 26.3563 50.9826C26.258 51.2078 26.0848 51.304 25.8086 51.2994C25.7688 51.2923 25.7033 51.2876 25.6424 51.2688H25.6401ZM26.5201 58.319C26.5037 58.3894 26.4312 58.4433 26.4007 58.4832C26.2229 58.4832 26.1012 58.38 26.0871 58.2533C26.0754 58.1524 26.1737 58.068 26.3024 58.0703C26.4522 58.0727 26.5576 58.1782 26.5224 58.3167L26.5201 58.319Z" fill="#0C0C0C"/>
<path d="M21.1715 42.0273C21.258 38.0952 21.3423 34.1631 21.4289 30.2333C21.3517 30.2051 21.3072 30.1465 21.3236 30.0831C21.3376 30.0315 21.3844 29.9752 21.4336 29.9424C21.4406 29.6139 21.4476 29.2854 21.4546 28.957C21.4944 27.1059 21.5366 25.2548 21.5763 23.4037C21.5319 23.3966 21.4897 23.3849 21.457 23.3614C21.3119 23.2653 21.2768 23.0541 21.3751 22.8875C21.4172 22.8148 21.5061 22.7702 21.5927 22.7116C21.6395 20.5555 21.6863 18.4017 21.7332 16.2456C21.7706 14.5611 22.2036 11.3257 20.0083 10.7416C19.6432 10.643 19.3132 10.643 19.0136 10.7158C18.9621 10.8518 18.831 10.9386 18.6508 10.9457C18.5946 10.9457 18.5432 10.941 18.4963 10.9269C17.3964 11.5744 16.8136 13.2824 16.4953 14.4414C16.6076 15.0608 16.6193 15.7013 16.61 16.3301C16.5936 17.4961 16.5538 18.6621 16.5257 19.8282C16.1442 35.2094 15.7604 50.5907 15.3789 65.9744C17.1366 65.965 18.8942 65.9556 20.6495 65.9439C20.7315 62.1947 20.8134 58.4456 20.8953 54.6941C20.9842 50.5884 21.0755 46.4826 21.1644 42.3769C21.1176 42.3417 21.0755 42.2901 21.0591 42.2408C21.031 42.154 21.0919 42.0555 21.1715 42.032V42.0273ZM20.4553 33.9543C20.4717 34.203 20.3336 34.3648 20.0808 34.3977C19.8959 34.4211 19.7742 34.2991 19.7602 34.0739C19.7461 33.8557 19.8772 33.729 20.1276 33.7173C20.3219 33.7079 20.4459 33.7971 20.4553 33.9543ZM19.9966 40.1481C19.9778 40.1973 19.931 40.2372 19.8772 40.3053C19.8351 40.2255 19.8093 40.1762 19.7812 40.127C19.8304 40.1035 19.8772 40.0683 19.931 40.0589C19.9498 40.0566 20.0059 40.127 19.9966 40.1481ZM19.5308 29.4684C19.7766 29.3441 20.0317 29.3371 20.2587 29.513C20.3125 29.5553 20.3453 29.6608 20.3406 29.7312C20.3312 29.8274 20.2353 29.8556 20.144 29.8579C19.9006 29.8579 19.6923 29.7476 19.4559 29.6773C19.491 29.5787 19.4934 29.4896 19.5332 29.4708L19.5308 29.4684ZM19.0768 21.7191C19.161 21.8881 18.9925 22.0687 18.7959 22.0476C18.6157 22.0288 18.4636 21.8904 18.4495 21.7051C18.4402 21.5971 18.4589 21.4869 18.4776 21.3813C18.5291 21.1021 18.5876 20.8253 18.6438 20.5437C18.8029 20.471 18.9363 20.5437 18.9153 20.6939C18.8638 21.0575 18.9153 21.3883 19.0744 21.7168L19.0768 21.7191ZM18.4261 16.5412C18.4683 16.4263 18.5689 16.3582 18.6766 16.4028C18.7585 16.438 18.81 16.5412 18.8895 16.6304C18.7959 16.7594 18.7327 16.865 18.6461 16.9518C18.6274 16.9706 18.5198 16.9377 18.4823 16.9002C18.3793 16.7993 18.3793 16.6679 18.4238 16.5389L18.4261 16.5412ZM17.8949 32.8352C18.0119 32.7953 18.1172 32.8281 18.1944 32.9149C18.3489 33.0932 18.3746 33.3044 18.3325 33.6211C18.1406 33.5366 18.0072 33.5015 17.9089 33.4264C17.8293 33.3654 17.7755 33.2551 17.7357 33.1566C17.6866 33.0322 17.7755 32.8774 17.8949 32.8352ZM16.6591 35.186C16.6802 35.1555 16.727 35.1273 16.7621 35.1297C16.7902 35.1297 16.8159 35.1789 16.844 35.2048C16.8183 35.2329 16.7972 35.2751 16.7644 35.2869C16.6895 35.315 16.6193 35.2423 16.6591 35.186ZM16.4064 38.6442C16.4227 38.6207 16.4766 38.6043 16.5023 38.6137C16.5234 38.6231 16.5257 38.6747 16.5374 38.7075C16.5023 38.7169 16.4625 38.7404 16.4321 38.7333C16.4157 38.7287 16.3946 38.6606 16.4064 38.6442ZM16.8112 61.1695C16.6872 61.0897 16.5702 60.9959 16.4649 60.8926C16.4298 60.8574 16.4157 60.7612 16.4391 60.719C16.4742 60.651 16.5491 60.6064 16.5819 60.5759C16.8838 60.5548 17.064 60.7237 17.0804 61.0006C17.0874 61.1296 16.9212 61.2422 16.8112 61.1718V61.1695ZM17.9346 62.0915C17.9019 62.0774 17.8059 62.061 17.7521 62.0047C17.5555 61.8053 17.5672 61.5097 17.7638 61.3102C17.8621 61.2117 18.0283 61.2188 18.0961 61.3384C18.1687 61.4674 18.2319 61.6059 18.2693 61.749C18.3185 61.939 18.1827 62.0892 17.9346 62.0892V62.0915ZM18.377 53.995C18.2834 54.0138 18.2202 53.9363 18.2295 53.8448C18.2342 53.7956 18.2974 53.7158 18.3349 53.7158C18.4004 53.7158 18.4659 53.7651 18.5946 53.8214C18.487 53.9105 18.4378 53.9833 18.377 53.995ZM18.7772 46.0322C18.6181 46.0392 18.4776 45.9031 18.4893 45.753C18.501 45.5982 18.6344 45.4808 18.8006 45.4855C18.9574 45.4902 19.1166 45.6357 19.1049 45.7647C19.0932 45.8961 18.9363 46.0252 18.7795 46.0322H18.7772ZM19.6315 41.9921C19.5542 42.1399 19.2546 42.2291 19.1119 42.147C18.9434 42.0508 18.8591 41.7904 18.9481 41.6308C18.9574 41.6121 18.9738 41.5956 18.9878 41.5816C19.0932 41.4877 19.2804 41.476 19.4161 41.5558C19.5589 41.6379 19.6525 41.7904 19.6432 41.9264C19.6385 41.9476 19.6385 41.971 19.6291 41.9898L19.6315 41.9921ZM20.0153 61.7912C19.8444 61.7631 19.711 61.5566 19.7251 61.3431C19.7368 61.1507 19.9404 60.9959 20.137 61.0287C20.3102 61.0592 20.46 61.2375 20.4436 61.3924C20.4202 61.6199 20.2049 61.8217 20.0176 61.7912H20.0153ZM20.6917 48.7021C20.5536 48.871 20.3289 48.9109 20.158 48.8311C19.9708 48.742 19.9404 48.5684 19.9521 48.3877C19.9591 48.2798 19.9778 48.1695 20.0153 48.071C20.0925 47.8692 20.3289 47.7754 20.5653 47.8364C20.7525 47.8856 20.8625 48.0546 20.8555 48.3854C20.8274 48.444 20.7806 48.5918 20.6893 48.7021H20.6917Z" fill="#0C0C0C"/>
<path d="M35.1234 49.5818C35.1444 55.0061 35.1632 60.428 35.1842 65.8523C37.1197 65.8406 39.0576 65.8312 40.9931 65.8195C40.9651 62.4457 40.9393 59.0743 40.9112 55.7006C40.8761 51.386 40.841 47.0691 40.8059 42.7546C40.7427 42.778 40.6748 42.7945 40.614 42.7945C40.4104 42.7968 40.2302 42.5974 40.2395 42.412C40.2512 42.1985 40.4665 41.9874 40.6702 41.9921C40.7146 41.9921 40.7661 41.9874 40.7989 42.0085C40.7638 37.755 40.731 33.5014 40.6959 29.2479C40.6608 24.8137 40.6234 20.3794 40.5883 15.9429C40.5742 14.2537 40.8129 11.1732 38.6106 10.6758C37.9178 10.5186 37.2555 10.8072 36.7359 11.2623C35.6031 11.8747 35.2193 13.6226 35.121 15.2813C35.0906 15.3235 35.0531 15.3564 35.011 15.3775C35.0438 16.3464 35.0017 17.3248 35.004 18.2515C35.0134 20.8276 35.0227 23.4036 35.0321 25.9797C35.0508 30.9253 35.0695 35.871 35.0883 40.8167C35.0883 40.9269 35.0883 41.0349 35.0883 41.1451C35.1023 41.1334 35.114 41.1193 35.128 41.1052C35.2193 41.2132 35.3059 41.2789 35.341 41.3657C35.3785 41.4525 35.238 41.551 35.1234 41.5322C35.1117 41.5322 35.1 41.5275 35.0883 41.5229C35.0976 44.1411 35.107 46.7571 35.1163 49.3754C35.1327 49.366 35.1468 49.3566 35.1608 49.3543C35.1959 49.3472 35.2451 49.4176 35.3083 49.4739C35.2427 49.5302 35.1936 49.5983 35.1538 49.5936C35.1421 49.5936 35.128 49.5842 35.114 49.5772L35.1234 49.5818ZM37.6814 53.2113C37.6487 53.2113 37.5855 53.1644 37.5878 53.1527C37.6066 53.087 37.6393 53.0236 37.6838 52.9274C37.7587 52.9978 37.8266 53.0307 37.8336 53.0729C37.8476 53.1714 37.7727 53.216 37.6814 53.2113ZM38.7206 54.2319C38.5568 54.2741 38.4163 54.2108 38.3321 54.0606C38.2385 53.8917 38.2431 53.7228 38.3438 53.5609C38.4561 53.3802 38.6153 53.277 38.8376 53.2958C39.0061 53.3099 39.1138 53.4624 39.1021 53.6876C39.088 54.0043 38.9734 54.1639 38.7183 54.2319H38.7206ZM38.4444 40.9316C38.4748 40.8636 38.5357 40.8026 38.6012 40.7651C38.62 40.7533 38.6878 40.8284 38.7206 40.8519C38.7206 41.0044 38.6223 41.1123 38.531 41.0724C38.4889 41.0536 38.4327 40.9621 38.4468 40.934L38.4444 40.9316ZM39.088 56.8924C39.0529 56.815 39.0038 56.754 39.0178 56.7211C39.0342 56.6836 39.1068 56.6648 39.1583 56.6578C39.1746 56.6578 39.2238 56.7282 39.2144 56.747C39.191 56.7939 39.1465 56.8291 39.088 56.8924ZM39.6802 64.3086C39.5093 64.2874 39.3361 64.1256 39.3174 63.9707C39.3034 63.844 39.4719 63.6634 39.6076 63.6587C39.7948 63.654 40.0031 63.8558 39.9938 64.0341C39.9868 64.1842 39.8229 64.325 39.6778 64.3086H39.6802ZM40.3846 50.5508C40.4525 50.5649 40.511 50.6235 40.6023 50.6822C40.518 50.7526 40.4759 50.8136 40.4268 50.8229C40.3238 50.8417 40.2606 50.7737 40.2746 50.6751C40.2817 50.6259 40.3565 50.5414 40.3846 50.5485V50.5508ZM39.7621 60.6157C39.9165 60.4703 40.2536 60.475 40.4291 60.6228C40.5976 60.7682 40.6257 61.0028 40.4993 61.214C40.3519 61.4603 40.1529 61.5941 39.8744 61.5988C39.8112 61.5518 39.6802 61.4979 39.6217 61.3993C39.4859 61.1647 39.5678 60.7964 39.7621 60.6134V60.6157ZM39.2776 41.8279C39.3665 41.9076 39.418 42.0296 39.4578 42.0906C39.4485 42.4402 39.2565 42.6607 38.9851 42.6842C38.8634 42.6959 38.7159 42.5927 38.6855 42.4777C38.62 42.2243 38.7019 41.985 38.9148 41.8513C39.0295 41.7786 39.1653 41.7293 39.2776 41.8302V41.8279ZM38.3765 14.7886C38.4023 14.6994 38.4959 14.6314 38.538 14.5798C38.7463 14.5798 38.8844 14.7253 38.8727 14.8778C38.8657 14.9833 38.7604 15.0795 38.6504 15.0795C38.4842 15.0795 38.3321 14.9341 38.3742 14.7886H38.3765ZM38.4725 27.202C38.4725 27.202 38.5404 27.2748 38.531 27.2865C38.5029 27.3311 38.4561 27.3639 38.414 27.4038C38.3789 27.3545 38.3344 27.2982 38.3391 27.2935C38.3766 27.256 38.4234 27.2231 38.4702 27.1997L38.4725 27.202ZM38.5521 33.2105C38.8048 33.2058 38.9968 33.3559 39.0319 33.5741C39.0693 33.8111 38.9008 34.0692 38.6621 34.1278C38.5989 34.1442 38.531 34.1442 38.4795 34.1489C38.421 34.1442 38.3766 34.1442 38.3321 34.1396C38.1074 34.1067 37.9295 33.9612 37.9014 33.7876C37.8687 33.5906 38.0161 33.3395 38.2291 33.2668C38.3297 33.2316 38.4444 33.2152 38.5521 33.2128V33.2105ZM37.3702 17.4679C37.52 17.3717 37.6791 17.3084 37.864 17.3342C38.0138 17.3553 38.1589 17.4796 38.1893 17.6204C38.2174 17.7494 38.1378 17.9465 38.0021 18.0075C37.8663 18.0685 37.7166 18.0967 37.6463 18.1178C37.3912 18.1084 37.2485 18.0098 37.2157 17.8714C37.1783 17.7189 37.2391 17.5547 37.3702 17.4702V17.4679ZM37.321 43.1018C37.5457 43.1041 37.7189 43.2871 37.7212 43.5194C37.7212 43.7353 37.5574 43.8948 37.3538 43.876C37.1548 43.8573 37.0378 43.7048 37.0355 43.4631C37.0355 43.2543 37.1548 43.0995 37.321 43.1018ZM37.0917 64.4094C37.1829 64.3015 37.307 64.2734 37.4427 64.3015C37.5855 64.3297 37.6674 64.4259 37.6978 64.5619C37.7166 64.6441 37.7376 64.7449 37.7095 64.8153C37.6744 64.9045 37.6019 65.0147 37.5176 65.0452C37.3117 65.1203 37.0987 65.0969 36.8927 65.0194C36.8553 64.7684 36.9489 64.5784 37.0917 64.4094ZM36.7851 44.0379C36.8108 44.0614 36.8342 44.0848 36.86 44.1083C36.8319 44.1271 36.8038 44.1505 36.7734 44.1646C36.7663 44.167 36.7289 44.1341 36.7312 44.1294C36.7453 44.0966 36.7663 44.0684 36.7851 44.0379ZM36.3708 62.6029C36.4176 62.6264 36.4574 62.6616 36.5206 62.7108C36.4621 62.7648 36.4223 62.8 36.3849 62.8352C36.3568 62.7859 36.3193 62.7413 36.3076 62.6897C36.3029 62.6663 36.3638 62.6006 36.3708 62.6053V62.6029ZM35.8114 43.5804C35.9636 43.5804 36.0923 43.7095 36.1017 43.876C36.111 44.0285 35.9753 44.1763 35.8231 44.181C35.6734 44.1857 35.5283 44.0403 35.5306 43.8878C35.5329 43.7282 35.6663 43.5804 35.8091 43.5781L35.8114 43.5804ZM35.4744 56.4115C35.5446 56.4255 35.6031 56.4936 35.6429 56.5217C35.65 56.6789 35.5563 56.7798 35.444 56.7775C35.3457 56.7728 35.2849 56.7164 35.2778 56.6179C35.2708 56.5076 35.3714 56.3903 35.4744 56.4115Z" fill="#0C0C0C"/>
</g>
<defs>
<clipPath id="clip0_1854_88287">
<rect width="48.5333" height="56" fill="white" transform="translate(8.2666 10)"/>
</clipPath>
</defs>
</svg>
