<svg  viewBox="0 0 438 247" fill="none" xmlns="http://www.w3.org/2000/svg">
<path d="M438 231C438 239.837 430.837 247 422 247H16C7.16342 247 0 239.837 0 231V44.5294C0 35.6929 7.16345 28.5294 16 28.5294H117.048C121.756 28.5294 126.224 26.4564 129.264 22.8622L143.808 5.66724C146.848 2.07304 151.317 0 156.024 0H422C430.837 0 438 7.16345 438 16V231Z" fill="white"/>
<path d="M438 231C438 239.837 430.837 247 422 247H16C7.16342 247 0 239.837 0 231V44.5294C0 35.6929 7.16345 28.5294 16 28.5294H117.048C121.756 28.5294 126.224 26.4564 129.264 22.8622L143.808 5.66724C146.848 2.07304 151.317 0 156.024 0H422C430.837 0 438 7.16345 438 16V231Z" stroke="black"/>
<path d="M376 138.284L342.876 91H314.484L342.876 128.254H63V149.746H342.876L314.484 187H342.876L376 138.284Z" fill="#2832F5"/>
</svg>
